<svg id="svg" version="1.1" xmlns="http://www.w3.org/2000/svg" xmlns:xlink="http://www.w3.org/1999/xlink" width="400" height="400" viewBox="0, 0, 400,400"><g id="svgg"><path id="path0" d="M299.761 28.816 C 290.240 33.624,289.141 34.286,280.669 40.319 C 267.155 49.943,253.234 65.034,245.924 77.985 C 243.900 81.571,240.000 89.267,240.000 89.675 C 240.000 89.859,239.655 90.772,239.233 91.704 C 238.536 93.248,237.332 96.724,236.431 99.800 C 235.940 101.474,234.588 107.291,233.968 110.400 C 233.631 112.087,233.430 116.723,233.395 123.600 C 233.366 129.430,233.215 135.910,233.061 138.000 C 231.837 154.494,227.264 166.359,217.541 178.267 C 216.253 179.843,215.200 181.264,215.200 181.424 C 215.200 182.182,190.831 206.405,183.032 213.400 C 181.070 215.160,178.223 217.813,176.705 219.296 C 175.187 220.779,173.625 222.219,173.233 222.496 C 170.946 224.112,148.520 245.764,141.846 252.799 C 134.379 260.672,129.341 266.579,123.191 274.673 C 121.656 276.694,120.400 278.524,120.400 278.740 C 120.400 278.956,120.243 279.193,120.050 279.267 C 119.702 279.399,115.200 285.857,115.200 286.223 C 115.200 286.329,114.710 287.177,114.110 288.108 C 111.982 291.412,106.439 302.410,105.226 305.736 C 104.772 306.981,104.017 309.035,103.548 310.300 C 103.079 311.565,102.539 313.185,102.348 313.900 C 102.157 314.615,101.808 315.875,101.573 316.700 C 100.709 319.739,99.750 324.262,99.134 328.200 C 98.927 329.520,98.622 334.560,98.454 339.400 C 97.965 353.588,97.457 353.688,84.110 342.214 C 52.066 314.669,56.439 272.499,93.400 252.632 C 94.500 252.041,95.670 251.382,96.000 251.168 C 96.330 250.954,98.580 249.730,101.000 248.449 C 113.409 241.878,124.900 235.189,130.400 231.334 C 153.869 214.885,163.200 200.027,163.200 179.106 C 163.200 172.734,163.057 171.432,161.720 165.600 C 156.663 143.547,138.089 128.000,116.800 128.000 C 76.174 128.000,57.273 174.374,87.800 199.152 C 97.363 206.914,110.765 212.799,115.606 211.361 C 117.685 210.744,119.600 209.429,119.600 208.620 C 119.600 208.333,119.870 207.874,120.200 207.600 C 123.181 205.126,117.877 196.800,113.319 196.800 C 113.028 196.800,112.477 196.638,112.095 196.440 C 111.713 196.242,110.140 195.578,108.600 194.964 C 107.060 194.350,105.260 193.526,104.600 193.134 C 103.940 192.742,102.735 192.058,101.923 191.614 C 98.313 189.642,92.819 184.686,91.233 181.971 C 86.992 174.712,86.354 170.058,88.466 161.800 C 92.547 145.842,114.247 137.459,130.200 145.678 C 133.898 147.583,141.200 153.768,141.200 154.994 C 141.200 155.138,141.758 156.067,142.440 157.058 C 154.667 174.829,149.036 199.547,129.194 215.200 C 126.738 217.138,120.173 221.607,117.794 222.962 C 117.137 223.336,115.610 224.244,114.400 224.980 C 112.020 226.427,108.454 228.329,98.800 233.299 C 95.390 235.055,92.420 236.626,92.200 236.791 C 91.980 236.956,90.090 237.960,88.000 239.024 C 85.910 240.087,83.750 241.251,83.200 241.610 C 79.870 243.786,76.155 246.242,75.806 246.498 C 46.500 268.022,40.043 300.453,58.585 333.000 C 64.204 342.864,74.953 355.281,84.000 362.360 C 85.430 363.478,86.863 364.620,87.185 364.897 C 88.505 366.032,94.324 370.121,95.200 370.529 C 95.530 370.683,96.340 371.156,97.000 371.580 C 100.957 374.124,108.291 377.797,113.388 379.787 C 122.629 383.396,130.922 385.567,141.800 387.226 C 152.761 388.897,175.879 389.848,187.200 389.093 C 189.730 388.925,204.195 388.785,219.345 388.783 C 250.214 388.778,250.441 388.760,252.924 386.127 C 257.360 381.424,254.898 371.688,247.200 363.493 C 242.211 358.182,237.534 356.000,231.137 356.000 C 227.017 356.000,226.698 355.612,229.090 353.510 C 242.177 342.010,250.154 326.904,249.399 315.052 C 248.331 298.290,240.038 285.985,224.600 278.254 C 220.300 276.101,213.920 273.949,209.600 273.193 C 208.170 272.943,206.100 272.557,205.000 272.336 C 202.574 271.848,189.568 272.137,186.200 272.753 C 180.058 273.877,172.991 275.629,170.600 276.620 C 168.526 277.479,165.705 278.729,164.239 279.438 C 162.611 280.225,162.081 280.137,163.011 279.234 C 163.943 278.330,166.178 277.064,173.943 273.046 C 192.118 263.642,221.085 265.008,237.520 276.045 C 238.466 276.680,239.310 277.200,239.394 277.200 C 239.479 277.200,240.325 277.906,241.274 278.769 C 244.167 281.399,245.386 282.399,245.700 282.400 C 245.865 282.400,246.002 282.625,246.004 282.900 C 246.007 283.175,246.683 284.120,247.506 285.000 C 258.052 296.267,260.378 316.436,253.031 332.911 C 251.895 335.459,251.826 335.969,252.373 337.772 C 252.578 338.447,252.962 339.810,253.227 340.800 C 255.071 347.697,258.328 357.320,260.238 361.511 C 260.767 362.672,261.200 363.709,261.200 363.816 C 261.200 366.702,270.326 380.525,274.727 384.304 C 279.827 388.685,280.594 388.811,301.960 388.782 C 322.423 388.754,324.203 388.505,326.254 385.373 C 330.143 379.439,325.401 367.451,316.261 360.105 C 313.546 357.924,307.974 356.010,304.320 356.004 C 294.729 355.989,288.482 350.317,286.175 339.529 C 285.499 336.370,285.255 318.868,285.873 317.896 C 286.047 317.623,286.324 316.050,286.489 314.400 C 286.654 312.750,286.955 310.410,287.157 309.200 C 288.071 303.746,288.834 299.562,289.600 295.800 C 289.779 294.920,290.120 293.210,290.358 292.000 C 290.595 290.790,291.163 288.090,291.619 286.000 C 292.075 283.910,292.535 281.750,292.643 281.200 C 292.750 280.650,292.996 279.570,293.189 278.800 C 293.809 276.328,295.745 266.125,296.358 262.100 C 296.601 260.505,296.996 257.985,297.235 256.500 C 297.747 253.324,297.483 234.268,296.876 230.600 C 295.930 224.879,295.573 223.146,294.448 218.800 C 293.793 216.270,292.869 212.940,292.395 211.400 C 291.922 209.860,291.379 208.060,291.190 207.400 C 289.531 201.613,288.980 199.607,287.948 195.600 C 283.455 178.143,286.359 169.259,297.600 166.070 C 298.370 165.851,299.720 165.445,300.600 165.167 C 301.716 164.815,305.712 164.644,313.800 164.605 C 335.816 164.496,340.762 162.298,352.908 147.225 C 354.202 145.619,356.800 141.472,356.800 141.011 C 356.800 140.722,357.651 140.039,358.691 139.495 C 364.955 136.214,362.894 127.896,355.830 127.950 L 353.227 127.970 352.057 125.485 C 350.643 122.483,349.600 118.949,349.600 117.163 C 349.600 116.440,349.428 114.847,349.217 113.624 C 349.006 112.401,348.626 110.140,348.373 108.600 C 346.587 97.761,341.695 86.739,336.028 80.781 C 335.133 79.840,334.400 78.935,334.400 78.770 C 334.400 78.328,329.026 73.899,325.800 71.683 C 323.258 69.936,319.292 67.846,314.361 65.653 C 311.011 64.164,306.400 58.670,306.400 56.167 C 306.400 55.354,306.599 55.429,308.917 57.113 C 312.086 59.414,312.817 59.818,315.200 60.587 C 316.410 60.977,317.940 61.533,318.600 61.823 C 323.444 63.951,323.266 63.966,322.734 61.470 C 321.776 56.980,323.168 46.677,325.627 40.054 L 326.423 37.907 325.351 38.177 C 323.760 38.576,314.000 43.531,309.261 46.345 C 306.986 47.695,304.872 48.800,304.563 48.800 C 303.896 48.800,303.739 39.325,304.365 36.846 C 304.566 36.051,304.951 34.410,305.220 33.200 C 305.489 31.990,306.134 29.740,306.652 28.200 C 307.170 26.660,307.596 25.355,307.597 25.300 C 307.607 24.938,306.119 25.606,299.761 28.816 M334.562 100.309 C 335.640 100.909,336.989 102.012,337.559 102.760 L 338.595 104.119 337.197 103.841 C 333.671 103.138,333.395 103.150,331.642 104.083 C 325.782 107.205,328.174 116.092,334.874 116.092 C 337.424 116.092,337.588 116.532,335.544 117.885 C 328.319 122.666,318.103 114.731,320.568 106.252 C 322.344 100.143,329.101 97.273,334.562 100.309 " stroke="none" fill="#72cabe" fill-rule="evenodd"></path><path id="path1" d="M0.000 200.000 L 0.000 400.000 200.000 400.000 L 400.000 400.000 400.000 200.000 L 400.000 0.000 200.000 0.000 L 0.000 0.000 0.000 200.000 M308.800 24.331 C 308.800 24.513,308.329 25.818,307.754 27.231 C 305.821 31.976,304.766 37.015,304.515 42.700 C 304.235 49.023,303.885 48.835,309.557 45.408 C 314.821 42.228,326.271 36.665,326.987 36.940 C 327.386 37.093,327.197 37.980,326.189 40.670 C 323.748 47.189,322.436 58.020,323.521 62.700 C 323.952 64.562,323.585 64.849,321.915 63.955 C 321.457 63.710,318.994 62.717,316.441 61.750 C 313.889 60.782,310.887 59.363,309.771 58.595 C 307.269 56.875,307.003 56.859,307.840 58.477 C 309.067 60.849,312.307 63.846,315.111 65.200 C 323.908 69.448,326.211 70.818,330.634 74.430 C 341.490 83.294,347.556 95.869,349.790 114.140 C 350.945 123.584,352.655 127.197,355.974 127.207 C 363.466 127.229,365.941 137.208,359.151 140.020 C 358.353 140.351,357.409 141.491,356.098 143.706 C 351.906 150.788,342.405 160.070,336.919 162.442 C 331.879 164.621,329.870 164.876,315.200 165.203 C 300.337 165.535,299.459 165.651,294.693 167.916 C 288.636 170.793,285.940 176.224,286.543 184.329 C 286.934 189.595,288.067 194.384,292.379 209.000 C 300.041 234.974,300.350 248.433,293.963 278.000 C 282.259 332.181,283.297 349.341,298.600 354.601 C 299.040 354.752,301.302 355.033,303.627 355.226 C 305.951 355.419,308.973 355.925,310.341 356.351 C 323.412 360.419,333.181 380.315,325.443 387.109 C 323.124 389.144,321.659 389.262,300.319 389.124 L 281.000 389.000 278.800 387.868 C 268.117 382.374,258.641 364.749,251.597 337.271 C 251.186 335.668,251.260 335.293,252.612 332.144 C 270.527 290.434,229.165 255.347,180.769 271.198 C 176.485 272.601,175.256 273.113,171.700 274.977 C 170.337 275.692,169.895 276.294,171.100 275.796 C 183.987 270.467,204.724 270.067,218.377 274.885 C 253.251 287.190,260.471 324.242,233.132 350.601 C 227.801 355.740,227.827 355.701,229.954 355.361 C 232.520 354.951,237.094 355.924,240.708 357.651 C 253.466 363.744,260.364 382.790,251.665 387.904 L 249.800 389.000 218.800 389.379 C 155.563 390.154,147.079 389.762,128.163 385.191 C 78.203 373.119,39.844 324.709,48.717 284.928 C 52.524 267.859,62.842 253.899,79.623 243.111 C 83.852 240.391,88.653 237.771,102.032 230.881 C 105.900 228.889,110.003 226.706,111.150 226.030 C 112.297 225.353,113.299 224.800,113.377 224.800 C 113.985 224.800,123.778 218.399,127.391 215.639 C 147.218 200.496,153.363 179.945,143.787 160.800 C 134.357 141.945,110.615 137.064,96.067 150.991 C 80.023 166.349,88.300 187.774,113.521 196.174 C 121.403 198.798,124.081 205.005,119.452 209.916 C 112.329 217.474,85.215 202.888,76.484 186.800 C 66.133 167.727,74.475 142.903,94.686 132.635 C 127.768 115.827,164.011 140.226,163.998 179.296 C 163.991 200.355,153.224 216.895,129.068 232.953 C 121.990 237.659,116.683 240.749,102.200 248.602 C 90.821 254.771,87.250 256.955,83.208 260.218 C 54.789 283.159,56.680 318.554,87.700 344.299 C 96.964 351.988,97.600 351.859,97.600 342.295 C 97.600 304.942,115.935 274.396,166.200 228.005 C 170.600 223.944,175.100 219.791,176.200 218.776 C 227.590 171.341,232.936 162.339,232.719 123.600 C 232.540 91.509,249.965 61.429,282.000 38.528 C 290.598 32.381,308.800 22.739,308.800 24.331 M326.800 100.125 C 324.694 100.793,321.864 103.827,321.228 106.101 C 318.995 114.074,327.475 121.466,334.542 117.708 L 335.800 117.039 333.877 116.750 C 325.407 115.473,325.689 103.414,334.201 102.872 L 336.793 102.707 335.349 101.559 C 332.983 99.679,329.860 99.156,326.800 100.125 " stroke="none" fill="#f1f1f1" fill-rule="evenodd"></path><path id="path2" d="M307.600 24.400 C 307.200 24.658,307.167 24.790,307.500 24.794 C 307.775 24.797,308.003 25.115,308.006 25.500 C 308.011 26.098,308.069 26.113,308.400 25.600 C 309.233 24.311,308.783 23.636,307.600 24.400 M299.100 28.225 C 297.175 29.206,295.600 30.098,295.600 30.208 C 295.600 30.387,302.760 26.929,303.167 26.554 C 303.750 26.015,302.121 26.685,299.100 28.225 M292.500 31.829 C 291.125 32.609,290.000 33.339,290.000 33.453 C 290.000 33.674,294.348 31.306,294.980 30.740 C 295.684 30.110,295.013 30.405,292.500 31.829 M305.849 31.415 C 305.712 31.773,305.615 32.366,305.634 32.733 C 305.653 33.100,305.827 32.869,306.021 32.220 C 306.398 30.958,306.265 30.333,305.849 31.415 M285.352 36.231 C 283.178 37.677,281.130 39.140,280.800 39.481 C 280.235 40.064,288.567 34.691,289.380 33.948 C 290.399 33.016,288.935 33.846,285.352 36.231 M305.056 34.484 C 304.921 34.988,304.827 35.760,304.846 36.200 C 304.865 36.640,305.045 36.298,305.246 35.440 C 305.636 33.778,305.470 32.940,305.056 34.484 M325.600 37.238 C 325.137 37.567,325.248 37.611,326.088 37.428 L 327.175 37.191 326.388 39.029 C 325.954 40.039,325.608 41.076,325.619 41.333 C 325.629 41.590,326.053 40.810,326.560 39.600 C 327.695 36.896,327.333 36.007,325.600 37.238 M304.254 39.456 C 303.759 43.071,303.947 48.005,304.590 48.251 C 305.125 48.457,308.000 47.010,308.000 46.535 C 308.000 46.425,307.394 46.709,306.653 47.167 C 304.297 48.623,304.263 48.554,304.496 42.800 C 304.721 37.263,304.663 36.472,304.254 39.456 M321.200 39.200 C 320.430 39.622,319.980 39.966,320.200 39.966 C 320.420 39.966,321.230 39.622,322.000 39.200 C 322.770 38.778,323.220 38.434,323.000 38.434 C 322.780 38.434,321.970 38.778,321.200 39.200 M275.384 43.514 C 272.977 45.431,269.376 48.620,267.381 50.600 C 265.387 52.580,264.935 53.107,266.377 51.771 C 271.308 47.203,276.432 42.959,279.967 40.515 C 280.058 40.452,280.050 40.316,279.947 40.214 C 279.845 40.111,277.791 41.596,275.384 43.514 M314.300 42.626 C 313.255 43.170,312.400 43.705,312.400 43.814 C 312.400 43.924,313.300 43.557,314.400 43.000 C 315.500 42.443,316.400 41.900,316.400 41.793 C 316.400 41.529,316.436 41.514,314.300 42.626 M310.700 44.629 C 310.095 44.957,309.600 45.310,309.600 45.413 C 309.600 45.799,310.232 45.557,311.200 44.800 C 312.389 43.870,312.211 43.809,310.700 44.629 M324.200 45.600 C 324.048 46.291,324.007 46.941,324.109 47.042 C 324.211 47.144,324.409 46.653,324.550 45.950 C 324.883 44.283,324.560 43.960,324.200 45.600 M323.476 48.810 C 323.330 49.355,323.228 50.340,323.249 51.000 C 323.280 51.957,323.359 51.836,323.642 50.400 C 324.029 48.433,323.902 47.217,323.476 48.810 M322.942 57.000 C 322.941 58.980,323.008 59.840,323.092 58.912 C 323.176 57.984,323.177 56.364,323.095 55.312 C 323.012 54.260,322.943 55.020,322.942 57.000 M260.760 57.100 C 255.868 62.179,248.558 71.813,245.813 76.800 C 244.990 78.295,246.472 76.308,248.797 72.800 C 252.069 67.862,255.770 63.100,259.911 58.500 C 263.671 54.323,264.074 53.658,260.760 57.100 M306.800 56.786 C 306.800 57.014,307.035 57.200,307.322 57.200 C 307.610 57.200,308.465 57.663,309.222 58.229 C 310.664 59.306,312.490 60.367,311.800 59.727 C 310.030 58.085,306.800 56.185,306.800 56.786 M307.216 57.800 C 307.247 58.787,309.258 61.363,311.425 63.192 C 312.071 63.738,311.762 63.288,310.738 62.192 C 309.714 61.097,308.500 59.570,308.039 58.800 C 307.579 58.030,307.209 57.580,307.216 57.800 M323.200 62.967 C 323.200 63.498,322.975 64.024,322.700 64.135 C 322.425 64.246,322.574 64.351,323.031 64.368 C 323.731 64.395,323.834 64.212,323.685 63.200 C 323.474 61.757,323.200 61.625,323.200 62.967 M313.600 64.764 C 314.150 65.214,314.780 65.583,315.000 65.585 C 315.428 65.588,314.705 65.034,313.400 64.360 C 312.869 64.085,312.936 64.221,313.600 64.764 M322.600 69.068 C 323.367 69.827,329.299 73.684,329.030 73.249 C 328.881 73.008,328.003 72.301,327.080 71.678 C 324.849 70.174,322.098 68.571,322.600 69.068 M329.612 73.830 C 329.619 74.034,330.449 74.821,331.457 75.581 C 332.464 76.340,334.561 78.455,336.115 80.281 C 339.390 84.127,340.037 84.617,337.460 81.300 C 335.192 78.380,329.586 73.044,329.612 73.830 M244.240 79.598 C 243.640 80.699,243.236 81.600,243.341 81.600 C 243.608 81.600,245.643 77.910,245.471 77.737 C 245.393 77.660,244.839 78.497,244.240 79.598 M240.224 87.461 C 239.654 88.704,239.276 89.809,239.383 89.916 C 239.490 90.023,239.747 89.681,239.954 89.155 C 240.161 88.630,240.618 87.525,240.971 86.700 C 241.981 84.333,241.372 84.953,240.224 87.461 M340.550 86.200 C 340.874 86.860,341.431 87.760,341.789 88.200 C 342.397 88.948,342.401 88.922,341.850 87.800 C 341.526 87.140,340.969 86.240,340.611 85.800 C 340.003 85.052,339.999 85.078,340.550 86.200 M344.046 92.600 C 344.053 92.820,344.406 93.720,344.829 94.600 C 345.252 95.480,345.486 95.750,345.349 95.200 C 345.067 94.067,344.025 91.988,344.046 92.600 M346.434 99.000 C 346.422 99.440,346.587 100.070,346.800 100.400 C 347.314 101.195,347.314 100.196,346.800 99.000 L 346.456 98.200 346.434 99.000 M327.000 99.689 C 325.628 100.175,323.638 101.482,322.893 102.385 C 321.473 104.108,321.808 104.154,323.493 102.469 C 325.717 100.244,328.153 99.365,331.106 99.721 C 332.339 99.870,332.721 99.829,332.200 99.603 C 331.107 99.129,328.455 99.173,327.000 99.689 M235.429 100.629 C 235.281 101.215,235.238 101.772,235.332 101.866 C 235.427 101.960,235.624 101.558,235.771 100.971 C 235.919 100.385,235.962 99.828,235.868 99.734 C 235.773 99.640,235.576 100.042,235.429 100.629 M335.722 101.763 L 336.845 102.800 334.522 102.861 L 332.200 102.922 334.800 103.187 C 338.238 103.538,338.423 103.265,335.888 101.582 L 334.600 100.727 335.722 101.763 M347.234 101.800 C 347.222 102.240,347.387 102.870,347.600 103.200 C 348.114 103.995,348.114 102.996,347.600 101.800 L 347.256 101.000 347.234 101.800 M234.629 103.829 C 234.481 104.415,234.438 104.972,234.532 105.066 C 234.627 105.160,234.824 104.758,234.971 104.171 C 235.119 103.585,235.162 103.028,235.068 102.934 C 234.973 102.840,234.776 103.242,234.629 103.829 M330.087 104.300 C 329.468 104.905,329.330 105.110,329.781 104.755 C 330.231 104.400,330.960 103.910,331.400 103.667 C 331.840 103.423,331.978 103.219,331.706 103.212 C 331.435 103.205,330.706 103.695,330.087 104.300 M348.068 105.200 C 348.062 105.750,348.211 106.560,348.400 107.000 L 348.744 107.800 348.732 107.000 C 348.726 106.560,348.576 105.750,348.400 105.200 L 348.080 104.200 348.068 105.200 M233.840 107.640 C 233.693 108.557,233.652 109.385,233.747 109.480 C 233.842 109.576,234.046 108.910,234.200 108.000 C 234.354 107.090,234.396 106.262,234.293 106.160 C 234.190 106.057,233.987 106.723,233.840 107.640 M327.709 109.600 C 327.709 110.590,327.787 110.995,327.882 110.500 C 327.978 110.005,327.978 109.195,327.882 108.700 C 327.787 108.205,327.709 108.610,327.709 109.600 M348.893 109.400 C 348.894 110.060,349.032 111.140,349.200 111.800 C 349.623 113.463,349.642 111.826,349.223 109.800 C 348.945 108.455,348.892 108.391,348.893 109.400 M232.987 113.387 C 232.831 114.844,232.793 116.126,232.903 116.236 C 233.013 116.346,233.231 115.244,233.387 113.787 C 233.543 112.329,233.580 111.047,233.470 110.937 C 233.360 110.827,233.143 111.929,232.987 113.387 M328.018 111.720 C 327.932 113.262,330.914 116.165,333.000 116.571 L 334.200 116.805 333.000 116.345 C 331.041 115.595,329.635 114.428,328.811 112.868 C 328.384 112.061,328.027 111.544,328.018 111.720 M321.600 113.453 C 321.600 113.681,322.243 114.572,323.029 115.433 L 324.458 117.000 323.351 115.400 C 321.860 113.245,321.600 112.956,321.600 113.453 M349.640 115.833 C 349.662 116.695,349.827 117.850,350.007 118.400 C 350.211 119.021,350.251 118.491,350.112 117.000 C 349.854 114.221,349.582 113.549,349.640 115.833 M335.388 116.781 C 335.518 116.991,335.123 117.433,334.512 117.765 C 333.194 118.480,333.524 118.600,334.981 117.936 C 335.985 117.479,336.403 116.400,335.576 116.400 C 335.343 116.400,335.259 116.571,335.388 116.781 M232.544 122.000 C 232.544 124.090,232.612 124.945,232.694 123.900 C 232.776 122.855,232.776 121.145,232.694 120.100 C 232.612 119.055,232.544 119.910,232.544 122.000 M328.715 118.872 C 329.092 119.021,329.940 119.144,330.600 119.144 C 331.260 119.144,332.108 119.021,332.485 118.872 C 332.862 118.722,332.014 118.600,330.600 118.600 C 329.186 118.600,328.338 118.722,328.715 118.872 M350.406 120.233 C 350.409 120.655,350.595 121.270,350.818 121.600 C 351.115 122.038,351.152 121.876,350.956 121.000 C 350.627 119.529,350.398 119.210,350.406 120.233 M352.813 126.220 C 352.792 126.913,353.706 127.603,354.580 127.554 C 355.372 127.509,355.373 127.500,354.610 127.307 C 354.175 127.197,353.596 126.813,353.323 126.453 C 353.049 126.094,352.820 125.989,352.813 126.220 M111.400 127.557 C 110.520 127.691,112.950 127.800,116.800 127.800 C 120.738 127.800,123.013 127.682,122.000 127.530 C 119.830 127.204,113.618 127.220,111.400 127.557 M356.833 127.344 C 356.925 127.423,357.540 127.608,358.200 127.756 C 359.076 127.952,359.238 127.915,358.800 127.618 C 358.260 127.253,356.432 126.998,356.833 127.344 M106.600 128.419 C 106.042 128.671,106.285 128.707,107.400 128.538 C 108.280 128.404,109.075 128.228,109.167 128.147 C 109.510 127.844,107.368 128.071,106.600 128.419 M125.600 128.400 C 126.968 128.838,128.019 128.838,127.000 128.400 C 126.560 128.211,125.840 128.062,125.400 128.068 C 124.757 128.077,124.796 128.143,125.600 128.400 M360.283 128.751 C 361.205 129.637,361.825 129.887,361.401 129.202 C 361.266 128.983,360.760 128.601,360.278 128.353 L 359.400 127.901 360.283 128.751 M103.400 129.200 C 102.896 129.417,102.822 129.544,103.200 129.544 C 103.530 129.544,104.160 129.389,104.600 129.200 C 105.104 128.983,105.178 128.856,104.800 128.856 C 104.470 128.856,103.840 129.011,103.400 129.200 M128.800 129.200 C 129.130 129.413,129.670 129.588,130.000 129.588 C 130.533 129.588,130.533 129.545,130.000 129.200 C 129.670 128.987,129.130 128.812,128.800 128.812 C 128.267 128.812,128.267 128.855,128.800 129.200 M97.800 131.178 C 96.920 131.595,96.380 131.936,96.600 131.938 C 97.146 131.942,100.302 130.464,99.800 130.440 C 99.580 130.430,98.680 130.762,97.800 131.178 M362.587 134.031 C 362.587 135.339,362.712 136.091,362.865 135.704 C 363.243 134.749,363.256 132.707,362.887 132.127 C 362.722 131.867,362.587 132.724,362.587 134.031 M136.800 132.163 C 136.800 132.282,137.385 132.676,138.100 133.038 C 138.815 133.401,140.480 134.406,141.800 135.273 C 143.586 136.446,143.850 136.550,142.833 135.680 C 141.420 134.472,136.800 131.778,136.800 132.163 M92.726 133.614 C 91.915 134.042,91.146 134.564,91.016 134.773 C 90.887 134.983,91.595 134.699,92.591 134.143 C 93.586 133.587,94.400 133.057,94.400 132.966 C 94.400 132.734,94.372 132.744,92.726 133.614 M86.934 137.700 C 82.325 141.430,75.137 151.095,75.211 153.461 C 75.216 153.647,75.893 152.540,76.715 151.000 C 79.762 145.289,82.781 141.557,87.400 137.793 C 90.688 135.114,90.592 135.200,90.291 135.200 C 90.143 135.200,88.632 136.325,86.934 137.700 M232.478 137.244 C 232.435 138.478,232.313 140.368,232.206 141.444 L 232.012 143.400 232.421 141.800 C 232.646 140.920,232.769 139.030,232.694 137.600 L 232.557 135.000 232.478 137.244 M146.708 139.137 C 148.087 140.492,149.313 141.600,149.432 141.600 C 149.882 141.600,149.121 140.813,146.702 138.778 L 144.200 136.674 146.708 139.137 M361.448 137.782 C 361.085 138.336,360.077 139.153,359.208 139.596 C 358.338 140.040,357.429 140.807,357.187 141.301 L 356.746 142.200 357.473 141.343 C 357.873 140.872,358.740 140.214,359.400 139.881 C 360.746 139.202,362.651 137.318,362.322 136.989 C 362.205 136.871,361.811 137.228,361.448 137.782 M114.400 142.791 C 113.087 142.983,113.720 143.066,116.741 143.101 C 119.018 143.127,120.818 143.095,120.741 143.029 C 120.375 142.722,116.003 142.558,114.400 142.791 M151.768 144.500 C 152.609 145.545,153.377 146.400,153.475 146.400 C 153.792 146.400,152.117 144.226,151.163 143.400 C 150.655 142.960,150.928 143.455,151.768 144.500 M109.200 143.600 C 108.436 144.094,109.258 144.094,110.800 143.600 L 111.800 143.280 110.800 143.246 C 110.250 143.227,109.530 143.387,109.200 143.600 M122.033 143.344 C 122.125 143.423,122.740 143.608,123.400 143.756 C 124.276 143.952,124.438 143.915,124.000 143.618 C 123.460 143.253,121.632 142.998,122.033 143.344 M126.758 144.837 C 127.725 145.266,128.588 145.545,128.675 145.458 C 128.848 145.286,125.765 143.982,125.292 144.028 C 125.131 144.044,125.791 144.408,126.758 144.837 M353.396 147.100 C 352.133 148.805,351.503 149.840,351.998 149.400 C 352.888 148.608,356.186 144.000,355.862 144.000 C 355.770 144.000,354.660 145.395,353.396 147.100 M231.455 146.255 C 231.313 147.286,231.274 148.208,231.369 148.302 C 231.463 148.396,231.665 147.639,231.818 146.618 C 231.971 145.598,232.010 144.676,231.904 144.571 C 231.798 144.465,231.596 145.223,231.455 146.255 M130.800 146.563 C 130.800 146.643,131.250 147.003,131.800 147.363 C 132.350 147.724,132.800 147.863,132.800 147.673 C 132.800 147.484,132.350 147.123,131.800 146.873 C 131.250 146.622,130.800 146.483,130.800 146.563 M134.400 149.117 C 135.170 149.780,135.877 150.248,135.971 150.157 C 136.163 149.971,135.009 149.010,133.800 148.349 C 133.360 148.109,133.630 148.454,134.400 149.117 M96.182 150.312 C 95.292 151.130,94.127 152.340,93.592 153.000 C 93.057 153.660,93.830 153.035,95.310 151.612 C 97.754 149.260,98.202 148.776,97.900 148.812 C 97.845 148.819,97.072 149.494,96.182 150.312 M230.650 150.450 C 230.317 152.117,230.640 152.440,231.000 150.800 C 231.152 150.109,231.193 149.459,231.091 149.358 C 230.989 149.256,230.791 149.747,230.650 150.450 M137.577 151.800 C 142.237 157.692,142.701 158.457,145.949 165.600 L 146.404 166.600 146.170 165.600 C 145.373 162.200,141.526 155.737,138.195 152.200 C 136.743 150.658,136.601 150.567,137.577 151.800 M156.009 150.700 C 156.014 150.865,156.385 151.450,156.833 152.000 L 157.648 153.000 157.014 151.700 C 156.411 150.465,155.989 150.045,156.009 150.700 M346.748 154.436 C 344.630 156.590,341.501 159.264,339.797 160.377 C 338.092 161.490,336.873 162.400,337.087 162.400 C 338.149 162.400,342.855 158.765,346.888 154.830 C 349.370 152.408,351.220 150.447,351.000 150.472 C 350.780 150.497,348.867 152.281,346.748 154.436 M229.829 153.429 C 229.681 154.015,229.651 154.584,229.761 154.694 C 229.871 154.804,230.081 154.415,230.229 153.829 C 230.376 153.242,230.406 152.673,230.296 152.563 C 230.186 152.453,229.976 152.842,229.829 153.429 M158.418 154.851 C 158.380 155.380,159.657 158.076,159.852 157.881 C 159.965 157.768,159.693 156.984,159.247 156.138 C 158.800 155.292,158.427 154.713,158.418 154.851 M160.033 158.600 C 160.015 158.820,160.368 159.900,160.816 161.000 C 161.265 162.100,161.525 162.480,161.395 161.844 C 161.115 160.486,160.080 158.019,160.033 158.600 M73.022 160.222 C 72.872 161.025,72.828 161.762,72.926 161.860 C 73.024 161.957,73.227 161.381,73.378 160.578 C 73.528 159.775,73.572 159.038,73.474 158.940 C 73.376 158.843,73.173 159.419,73.022 160.222 M89.000 160.800 C 88.850 161.273,88.817 161.750,88.927 161.860 C 89.037 161.970,89.250 161.673,89.400 161.200 C 89.550 160.727,89.583 160.250,89.473 160.140 C 89.363 160.030,89.150 160.327,89.000 160.800 M225.484 165.014 C 224.671 166.656,224.093 168.000,224.198 168.000 C 224.465 168.000,227.285 162.351,227.106 162.173 C 227.027 162.093,226.297 163.372,225.484 165.014 M88.178 163.778 C 88.027 164.581,87.994 165.327,88.104 165.437 C 88.214 165.547,88.427 164.981,88.578 164.178 C 88.728 163.375,88.762 162.628,88.652 162.518 C 88.542 162.408,88.328 162.975,88.178 163.778 M72.254 164.656 C 71.929 167.033,71.966 172.148,72.323 174.155 C 72.478 175.028,72.600 172.878,72.600 169.255 C 72.600 162.027,72.605 162.096,72.254 164.656 M161.656 163.600 C 161.656 163.930,161.811 164.560,162.000 165.000 C 162.217 165.504,162.344 165.578,162.344 165.200 C 162.344 164.870,162.189 164.240,162.000 163.800 C 161.783 163.296,161.656 163.222,161.656 163.600 M328.400 164.400 C 327.050 164.684,327.043 164.695,328.200 164.700 C 328.860 164.703,329.940 164.568,330.600 164.400 C 332.260 163.978,330.407 163.978,328.400 164.400 M302.472 165.140 C 301.590 165.387,321.228 165.317,324.600 165.061 C 325.480 164.994,321.070 164.926,314.800 164.910 C 308.530 164.893,302.982 164.997,302.472 165.140 M298.600 166.000 C 297.581 166.438,298.632 166.438,300.000 166.000 C 300.804 165.743,300.843 165.677,300.200 165.668 C 299.760 165.662,299.040 165.811,298.600 166.000 M162.480 167.000 C 162.480 167.440,162.624 168.250,162.800 168.800 C 163.054 169.592,163.120 169.633,163.120 169.000 C 163.120 168.560,162.976 167.750,162.800 167.200 C 162.546 166.408,162.480 166.367,162.480 167.000 M87.731 169.400 C 87.733 170.940,87.805 171.521,87.892 170.691 C 87.979 169.861,87.977 168.601,87.889 167.891 C 87.800 167.181,87.729 167.860,87.731 169.400 M146.456 167.200 C 146.456 167.530,146.611 168.160,146.800 168.600 C 147.017 169.104,147.144 169.178,147.144 168.800 C 147.144 168.470,146.989 167.840,146.800 167.400 C 146.583 166.896,146.456 166.822,146.456 167.200 M293.900 167.829 C 292.349 168.670,292.525 168.961,294.100 168.159 C 295.608 167.393,295.875 167.194,295.367 167.216 C 295.165 167.225,294.505 167.501,293.900 167.829 M221.493 171.816 C 220.245 173.695,219.400 175.124,219.614 174.991 C 220.300 174.567,224.305 168.400,223.894 168.400 C 223.821 168.400,222.740 169.937,221.493 171.816 M290.493 170.403 C 289.576 171.284,288.630 172.409,288.391 172.903 C 287.968 173.775,287.973 173.778,288.577 173.000 C 288.919 172.560,289.955 171.435,290.879 170.500 C 293.009 168.345,292.712 168.270,290.493 170.403 M147.275 170.600 C 147.286 171.040,147.432 171.940,147.600 172.600 L 147.905 173.800 147.925 172.600 C 147.935 171.940,147.789 171.040,147.600 170.600 L 147.256 169.800 147.275 170.600 M163.400 179.444 C 163.400 184.260,163.522 187.390,163.670 186.400 C 164.026 184.034,164.030 174.229,163.677 172.244 C 163.525 171.389,163.400 174.629,163.400 179.444 M88.046 173.600 C 88.027 174.150,88.187 174.870,88.400 175.200 C 88.894 175.964,88.894 175.142,88.400 173.600 L 88.080 172.600 88.046 173.600 M148.148 179.200 C 148.148 181.510,148.214 182.455,148.295 181.300 C 148.376 180.145,148.376 178.255,148.295 177.100 C 148.214 175.945,148.148 176.890,148.148 179.200 M217.421 177.400 C 216.610 178.390,216.074 179.200,216.229 179.200 C 216.511 179.200,216.879 178.783,218.433 176.700 C 219.749 174.937,219.034 175.432,217.421 177.400 M286.649 176.615 C 286.512 176.973,286.418 177.746,286.440 178.333 C 286.473 179.191,286.552 179.095,286.846 177.840 C 287.222 176.239,287.095 175.453,286.649 176.615 M72.856 177.000 C 72.856 177.440,73.011 178.160,73.200 178.600 L 73.544 179.400 73.544 178.600 C 73.544 178.160,73.389 177.440,73.200 177.000 L 72.856 176.200 72.856 177.000 M90.400 179.784 C 90.400 180.930,95.791 186.982,98.400 188.765 C 99.170 189.291,98.462 188.479,96.826 186.961 C 95.190 185.442,93.075 183.145,92.126 181.856 C 91.177 180.567,90.400 179.634,90.400 179.784 M212.764 182.900 C 211.157 184.715,205.697 190.430,200.629 195.600 L 191.416 205.000 201.208 195.247 C 209.766 186.723,216.440 179.600,215.869 179.600 C 215.768 179.600,214.370 181.085,212.764 182.900 M286.109 182.000 C 286.109 182.990,286.187 183.395,286.282 182.900 C 286.378 182.405,286.378 181.595,286.282 181.100 C 286.187 180.605,286.109 181.010,286.109 182.000 M75.200 184.153 C 75.200 184.582,76.390 186.800,76.621 186.800 C 76.731 186.800,76.523 186.215,76.159 185.500 C 75.417 184.040,75.200 183.736,75.200 184.153 M147.418 186.218 C 147.265 187.239,147.230 188.163,147.340 188.273 C 147.450 188.383,147.665 187.639,147.818 186.618 C 147.971 185.598,148.006 184.673,147.896 184.563 C 147.786 184.453,147.571 185.198,147.418 186.218 M286.440 186.833 C 286.462 187.585,286.630 188.650,286.813 189.200 C 287.029 189.846,287.066 189.420,286.919 188.000 C 286.659 185.483,286.381 184.807,286.440 186.833 M76.800 187.449 C 76.800 188.908,84.737 197.803,88.600 200.673 C 90.368 201.987,90.526 202.061,89.200 200.955 C 85.660 198.001,80.547 192.548,78.833 189.897 C 77.174 187.332,76.800 186.882,76.800 187.449 M146.629 189.829 C 146.481 190.415,146.438 190.972,146.532 191.066 C 146.627 191.160,146.824 190.758,146.971 190.171 C 147.119 189.585,147.162 189.028,147.068 188.934 C 146.973 188.840,146.776 189.242,146.629 189.829 M162.578 190.178 C 162.427 190.981,162.394 191.727,162.504 191.837 C 162.614 191.947,162.827 191.381,162.978 190.578 C 163.128 189.775,163.162 189.028,163.052 188.918 C 162.942 188.808,162.728 189.375,162.578 190.178 M287.268 191.400 C 287.262 191.840,287.411 192.560,287.600 193.000 C 288.038 194.019,288.038 192.968,287.600 191.600 C 287.343 190.796,287.277 190.757,287.268 191.400 M102.600 191.529 C 103.167 192.097,108.022 194.512,108.213 194.320 C 108.300 194.233,106.983 193.479,105.286 192.645 C 103.589 191.810,102.380 191.308,102.600 191.529 M161.829 193.429 C 161.681 194.015,161.638 194.572,161.732 194.666 C 161.827 194.760,162.024 194.358,162.171 193.771 C 162.319 193.185,162.362 192.628,162.268 192.534 C 162.173 192.440,161.976 192.842,161.829 193.429 M288.056 194.800 C 288.056 195.130,288.211 195.760,288.400 196.200 C 288.617 196.704,288.744 196.778,288.744 196.400 C 288.744 196.070,288.589 195.440,288.400 195.000 C 288.183 194.496,288.056 194.422,288.056 194.800 M116.400 197.584 C 117.170 197.995,118.197 198.707,118.683 199.166 C 119.634 200.064,120.217 200.274,119.776 199.561 C 119.413 198.974,115.955 196.795,115.422 196.818 C 115.190 196.827,115.630 197.172,116.400 197.584 M288.868 197.800 C 288.862 198.240,289.011 198.960,289.200 199.400 C 289.638 200.419,289.638 199.368,289.200 198.000 C 288.943 197.196,288.877 197.157,288.868 197.800 M141.577 200.900 C 140.237 203.078,134.552 209.986,134.073 210.019 C 133.923 210.029,132.540 211.230,131.000 212.687 C 129.103 214.481,128.780 214.894,129.997 213.968 C 134.154 210.803,140.876 203.334,142.643 199.917 C 143.601 198.064,142.955 198.660,141.577 200.900 M120.998 204.830 C 120.997 206.343,121.119 207.270,121.270 206.890 C 121.641 205.954,121.657 203.108,121.294 202.540 C 121.132 202.287,120.999 203.318,120.998 204.830 M157.400 204.400 C 157.059 205.060,156.869 205.600,156.979 205.600 C 157.089 205.600,157.459 205.060,157.800 204.400 C 158.141 203.740,158.331 203.200,158.221 203.200 C 158.111 203.200,157.741 203.740,157.400 204.400 M290.412 203.600 C 290.412 203.930,290.587 204.470,290.800 204.800 C 291.145 205.333,291.188 205.333,291.188 204.800 C 291.188 204.470,291.013 203.930,290.800 203.600 C 290.455 203.067,290.412 203.067,290.412 203.600 M94.800 204.979 C 94.800 205.089,95.340 205.459,96.000 205.800 C 96.660 206.141,97.200 206.331,97.200 206.221 C 97.200 206.111,96.660 205.741,96.000 205.400 C 95.340 205.059,94.800 204.869,94.800 204.979 M184.800 210.879 L 179.400 216.089 183.990 211.945 C 189.639 206.844,190.523 205.990,190.342 205.810 C 190.264 205.732,187.770 208.013,184.800 210.879 M291.256 206.000 C 291.256 206.330,291.411 206.960,291.600 207.400 C 291.817 207.904,291.944 207.978,291.944 207.600 C 291.944 207.270,291.789 206.640,291.600 206.200 C 291.383 205.696,291.256 205.622,291.256 206.000 M154.635 208.900 C 153.414 210.780,153.175 211.307,153.954 210.400 C 155.135 209.024,157.011 206.000,156.684 206.000 C 156.592 206.000,155.670 207.305,154.635 208.900 M100.800 208.115 C 100.800 208.391,106.059 210.474,106.257 210.276 C 106.344 210.189,105.468 209.748,104.308 209.297 C 103.149 208.847,101.885 208.351,101.500 208.196 C 101.115 208.041,100.800 208.005,100.800 208.115 M119.496 209.384 C 118.905 210.125,117.774 210.945,116.984 211.205 C 116.193 211.466,115.629 211.762,115.730 211.863 C 115.831 211.964,116.518 211.788,117.257 211.473 C 118.601 210.898,121.106 208.572,120.756 208.223 C 120.654 208.121,120.087 208.643,119.496 209.384 M292.056 208.800 C 292.056 209.130,292.211 209.760,292.400 210.200 C 292.617 210.704,292.744 210.778,292.744 210.400 C 292.744 210.070,292.589 209.440,292.400 209.000 C 292.183 208.496,292.056 208.422,292.056 208.800 M109.400 211.600 C 109.840 211.789,110.470 211.944,110.800 211.944 C 111.178 211.944,111.104 211.817,110.600 211.600 C 110.160 211.411,109.530 211.256,109.200 211.256 C 108.822 211.256,108.896 211.383,109.400 211.600 M292.856 211.600 C 292.856 211.930,293.011 212.560,293.200 213.000 C 293.417 213.504,293.544 213.578,293.544 213.200 C 293.544 212.870,293.389 212.240,293.200 211.800 C 292.983 211.296,292.856 211.222,292.856 211.600 M112.900 212.276 C 113.285 212.376,113.915 212.376,114.300 212.276 C 114.685 212.175,114.370 212.093,113.600 212.093 C 112.830 212.093,112.515 212.175,112.900 212.276 M151.499 213.100 C 150.527 214.686,145.969 219.324,141.800 222.968 C 137.649 226.596,136.492 227.711,138.200 226.436 C 143.184 222.717,153.826 212.000,152.535 212.000 C 152.336 212.000,151.869 212.495,151.499 213.100 M293.656 214.400 C 293.656 214.730,293.811 215.360,294.000 215.800 C 294.217 216.304,294.344 216.378,294.344 216.000 C 294.344 215.670,294.189 215.040,294.000 214.600 C 293.783 214.096,293.656 214.022,293.656 214.400 M126.400 216.435 L 125.000 217.648 126.495 216.724 C 127.317 216.216,127.992 215.665,127.995 215.500 C 128.002 215.064,127.938 215.102,126.400 216.435 M174.200 220.664 C 171.780 222.997,170.790 224.037,172.000 222.977 C 175.890 219.567,179.224 216.400,178.908 216.412 C 178.738 216.419,176.620 218.332,174.200 220.664 M294.468 217.400 C 294.462 217.840,294.611 218.560,294.800 219.000 C 295.238 220.019,295.238 218.968,294.800 217.600 C 294.543 216.796,294.477 216.757,294.468 217.400 M121.895 219.488 C 120.408 220.498,119.263 221.396,119.351 221.484 C 119.531 221.664,124.324 218.446,124.642 217.932 C 124.954 217.428,124.806 217.512,121.895 219.488 M295.268 220.600 C 295.262 221.040,295.411 221.760,295.600 222.200 C 296.038 223.219,296.038 222.168,295.600 220.800 C 295.343 219.996,295.277 219.957,295.268 220.600 M116.300 223.029 C 115.695 223.357,115.200 223.710,115.200 223.813 C 115.200 224.199,115.832 223.957,116.800 223.200 C 117.989 222.270,117.811 222.209,116.300 223.029 M296.080 224.200 C 296.080 224.640,296.224 225.450,296.400 226.000 C 296.654 226.792,296.720 226.833,296.720 226.200 C 296.720 225.760,296.576 224.950,296.400 224.400 C 296.146 223.608,296.080 223.567,296.080 224.200 M111.276 225.883 C 110.328 226.435,109.626 226.959,109.716 227.049 C 109.892 227.226,113.600 225.238,113.600 224.966 C 113.600 224.646,112.985 224.889,111.276 225.883 M163.832 230.207 C 160.866 232.960,158.306 235.435,158.144 235.707 C 157.982 235.978,159.882 234.310,162.365 232.000 C 164.849 229.690,167.538 227.218,168.341 226.508 C 169.143 225.797,169.671 225.212,169.512 225.208 C 169.354 225.203,166.798 227.453,163.832 230.207 M107.100 228.226 C 106.055 228.770,105.200 229.305,105.200 229.414 C 105.200 229.524,106.100 229.157,107.200 228.600 C 108.300 228.043,109.200 227.500,109.200 227.393 C 109.200 227.129,109.236 227.114,107.100 228.226 M296.895 228.800 C 296.895 229.350,297.032 230.340,297.200 231.000 C 297.472 232.070,297.505 232.092,297.505 231.200 C 297.505 230.650,297.368 229.660,297.200 229.000 C 296.928 227.930,296.895 227.908,296.895 228.800 M129.092 232.565 C 126.167 234.558,124.660 235.741,126.000 234.993 C 127.341 234.245,132.400 230.763,132.400 230.588 C 132.400 230.309,132.440 230.285,129.092 232.565 M297.890 237.800 C 298.007 240.440,298.170 242.675,298.251 242.767 C 298.517 243.064,298.330 237.462,297.999 235.200 C 297.786 233.744,297.750 234.623,297.890 237.800 M93.859 235.046 C 92.352 235.819,91.194 236.527,91.286 236.619 C 91.469 236.803,96.800 234.052,96.800 233.773 C 96.800 233.530,96.886 233.492,93.859 235.046 M122.687 236.631 C 121.429 237.418,120.400 238.149,120.400 238.256 C 120.400 238.515,123.136 236.964,124.400 235.989 C 125.978 234.772,125.183 235.070,122.687 236.631 M87.900 238.229 C 86.405 239.040,86.496 239.378,88.000 238.600 C 88.660 238.259,89.200 237.894,89.200 237.790 C 89.200 237.532,89.157 237.547,87.900 238.229 M118.400 239.233 L 117.400 240.048 118.700 239.414 C 119.415 239.065,120.000 238.694,120.000 238.590 C 120.000 238.192,119.363 238.448,118.400 239.233 M148.586 244.814 C 145.079 248.326,142.336 251.200,142.491 251.200 C 142.879 251.200,155.312 238.779,155.118 238.585 C 155.032 238.499,152.093 241.302,148.586 244.814 M82.900 241.026 C 81.012 242.158,80.577 242.749,82.300 241.841 C 83.509 241.203,85.116 240.031,84.800 240.017 C 84.690 240.012,83.835 240.466,82.900 241.026 M115.300 241.026 C 114.365 241.587,113.600 242.140,113.600 242.255 C 113.600 242.471,116.299 240.938,116.980 240.336 C 117.667 239.728,117.027 239.991,115.300 241.026 M77.655 244.389 C 73.643 247.153,70.382 249.710,69.200 251.018 C 68.650 251.627,69.510 251.036,71.112 249.704 C 72.714 248.373,75.414 246.336,77.112 245.180 C 80.338 242.982,81.100 242.400,80.751 242.400 C 80.636 242.400,79.243 243.295,77.655 244.389 M109.500 244.226 C 108.455 244.770,107.600 245.305,107.600 245.414 C 107.600 245.524,108.500 245.157,109.600 244.600 C 110.700 244.043,111.600 243.500,111.600 243.393 C 111.600 243.129,111.636 243.114,109.500 244.226 M105.600 246.433 L 104.600 247.248 105.900 246.614 C 106.615 246.265,107.200 245.894,107.200 245.790 C 107.200 245.392,106.563 245.648,105.600 246.433 M297.860 251.140 C 297.688 253.857,297.631 256.164,297.733 256.267 C 297.989 256.523,298.519 248.439,298.327 247.200 C 298.242 246.650,298.031 248.423,297.860 251.140 M99.900 249.429 C 98.405 250.240,98.496 250.578,100.000 249.800 C 100.660 249.459,101.200 249.094,101.200 248.990 C 101.200 248.732,101.157 248.747,99.900 249.429 M96.800 251.233 L 95.800 252.048 97.100 251.414 C 97.815 251.065,98.400 250.694,98.400 250.590 C 98.400 250.192,97.763 250.448,96.800 251.233 M63.942 256.110 C 60.564 259.865,57.298 264.000,57.710 264.000 C 57.799 264.000,58.963 262.605,60.297 260.900 C 61.632 259.195,63.922 256.567,65.388 255.059 C 66.853 253.551,67.969 252.235,67.867 252.134 C 67.766 252.033,66.000 253.822,63.942 256.110 M138.763 255.100 C 137.325 256.585,134.819 259.330,133.195 261.200 C 131.570 263.070,129.886 265.005,129.451 265.500 C 129.016 265.995,128.827 266.394,129.030 266.388 C 129.234 266.381,129.979 265.616,130.686 264.688 C 131.394 263.759,132.474 262.455,133.086 261.789 C 141.624 252.504,144.080 249.611,138.763 255.100 M92.400 253.633 L 91.400 254.448 92.700 253.814 C 93.415 253.465,94.000 253.094,94.000 252.990 C 94.000 252.592,93.363 252.848,92.400 253.633 M88.800 255.679 C 82.854 259.785,78.455 263.531,75.528 266.978 C 74.022 268.752,74.640 268.263,77.836 265.152 C 82.331 260.776,85.985 257.820,89.300 255.879 C 91.091 254.830,91.587 254.377,90.900 254.418 C 90.735 254.428,89.790 254.995,88.800 255.679 M297.000 259.600 C 296.845 260.728,296.808 261.741,296.918 261.851 C 297.028 261.961,297.245 261.128,297.400 260.000 C 297.555 258.872,297.592 257.859,297.482 257.749 C 297.372 257.639,297.155 258.472,297.000 259.600 M296.200 264.800 C 296.046 265.710,296.004 266.538,296.107 266.640 C 296.210 266.743,296.413 266.077,296.560 265.160 C 296.707 264.243,296.748 263.415,296.653 263.320 C 296.558 263.224,296.354 263.890,296.200 264.800 M56.253 265.991 C 55.121 267.702,54.825 268.718,55.843 267.400 C 56.582 266.444,57.685 264.400,57.463 264.400 C 57.377 264.400,56.832 265.116,56.253 265.991 M127.060 268.493 C 126.286 269.425,125.731 270.265,125.827 270.360 C 125.922 270.455,126.047 270.458,126.104 270.367 C 126.161 270.275,126.800 269.435,127.523 268.500 C 129.225 266.299,128.886 266.295,127.060 268.493 M194.800 267.609 C 193.994 267.783,194.844 267.823,196.800 267.701 C 198.670 267.585,200.275 267.425,200.367 267.345 C 200.664 267.087,196.242 267.296,194.800 267.609 M208.033 267.345 C 208.125 267.425,209.640 267.582,211.400 267.693 C 213.160 267.805,214.150 267.757,213.600 267.588 C 212.605 267.281,207.716 267.068,208.033 267.345 M189.800 268.400 L 189.000 268.744 189.800 268.732 C 190.240 268.726,191.050 268.576,191.600 268.400 L 192.600 268.080 191.600 268.068 C 191.050 268.062,190.240 268.211,189.800 268.400 M216.400 268.400 C 216.950 268.576,217.760 268.720,218.200 268.720 C 218.833 268.720,218.792 268.654,218.000 268.400 C 217.450 268.224,216.640 268.080,216.200 268.080 C 215.567 268.080,215.608 268.146,216.400 268.400 M295.456 268.884 C 295.321 269.388,295.227 270.160,295.246 270.600 C 295.265 271.040,295.445 270.698,295.646 269.840 C 296.036 268.178,295.870 267.340,295.456 268.884 M53.379 271.241 C 52.592 272.804,52.014 274.147,52.094 274.227 C 52.173 274.307,52.903 273.028,53.716 271.386 C 54.529 269.744,55.107 268.400,55.002 268.400 C 54.896 268.400,54.166 269.678,53.379 271.241 M186.200 269.200 C 185.181 269.638,186.232 269.638,187.600 269.200 C 188.404 268.943,188.443 268.877,187.800 268.868 C 187.360 268.862,186.640 269.011,186.200 269.200 M220.200 269.200 C 220.640 269.389,221.270 269.544,221.600 269.544 C 221.978 269.544,221.904 269.417,221.400 269.200 C 220.960 269.011,220.330 268.856,220.000 268.856 C 219.622 268.856,219.696 268.983,220.200 269.200 M72.068 271.048 C 71.555 271.840,71.322 272.372,71.549 272.231 C 72.182 271.841,73.699 269.599,73.327 269.605 C 73.147 269.608,72.581 270.257,72.068 271.048 M183.400 270.000 C 182.896 270.217,182.822 270.344,183.200 270.344 C 183.530 270.344,184.160 270.189,184.600 270.000 C 185.104 269.783,185.178 269.656,184.800 269.656 C 184.470 269.656,183.840 269.811,183.400 270.000 M179.675 271.073 C 178.726 271.409,178.021 271.754,178.107 271.840 C 178.193 271.927,179.240 271.651,180.432 271.228 C 181.624 270.805,182.330 270.460,182.000 270.461 C 181.670 270.462,180.624 270.738,179.675 271.073 M123.400 273.200 C 122.384 274.520,121.643 275.600,121.753 275.600 C 121.863 275.600,122.784 274.520,123.800 273.200 C 124.816 271.880,125.557 270.800,125.447 270.800 C 125.337 270.800,124.416 271.880,123.400 273.200 M191.200 271.569 C 189.770 271.696,192.290 271.800,196.800 271.800 C 201.570 271.800,203.912 271.694,202.400 271.547 C 199.287 271.244,194.763 271.253,191.200 271.569 M175.400 272.778 C 174.520 273.195,173.980 273.536,174.200 273.538 C 174.746 273.542,177.902 272.064,177.400 272.040 C 177.180 272.030,176.280 272.362,175.400 272.778 M184.600 272.400 L 183.400 272.705 184.600 272.713 C 185.260 272.717,186.250 272.576,186.800 272.400 L 187.800 272.080 186.800 272.087 C 186.250 272.091,185.260 272.232,184.600 272.400 M207.000 272.423 C 209.026 272.842,210.663 272.823,209.000 272.400 C 208.340 272.232,207.260 272.094,206.600 272.093 C 205.591 272.092,205.655 272.145,207.000 272.423 M294.656 272.884 C 294.521 273.388,294.427 274.160,294.446 274.600 C 294.465 275.040,294.645 274.698,294.846 273.840 C 295.236 272.178,295.070 271.340,294.656 272.884 M69.896 274.327 C 68.748 276.062,66.397 280.618,66.407 281.089 C 66.410 281.260,67.187 279.960,68.132 278.200 C 69.077 276.440,70.175 274.505,70.571 273.900 C 70.968 273.295,71.205 272.800,71.099 272.800 C 70.993 272.800,70.452 273.487,69.896 274.327 M180.600 273.200 L 179.800 273.544 180.600 273.544 C 181.040 273.544,181.760 273.389,182.200 273.200 L 183.000 272.856 182.200 272.856 C 181.760 272.856,181.040 273.011,180.600 273.200 M211.400 273.200 C 211.840 273.389,212.560 273.538,213.000 273.532 C 213.643 273.523,213.604 273.457,212.800 273.200 C 211.432 272.762,210.381 272.762,211.400 273.200 M177.400 274.000 C 176.896 274.217,176.822 274.344,177.200 274.344 C 177.530 274.344,178.160 274.189,178.600 274.000 C 179.104 273.783,179.178 273.656,178.800 273.656 C 178.470 273.656,177.840 273.811,177.400 274.000 M214.600 274.000 C 215.040 274.189,215.670 274.344,216.000 274.344 C 216.378 274.344,216.304 274.217,215.800 274.000 C 215.360 273.811,214.730 273.656,214.400 273.656 C 214.022 273.656,214.096 273.783,214.600 274.000 M171.400 274.800 C 171.264 275.020,171.388 275.203,171.676 275.206 C 172.057 275.211,172.036 275.318,171.600 275.600 C 171.270 275.813,171.180 275.988,171.400 275.988 C 171.620 275.988,172.070 275.813,172.400 275.600 C 172.836 275.318,172.857 275.211,172.476 275.206 C 172.188 275.203,172.064 275.020,172.200 274.800 C 172.336 274.580,172.267 274.400,172.047 274.400 C 171.827 274.400,171.536 274.580,171.400 274.800 M174.400 274.800 C 173.596 275.057,173.557 275.123,174.200 275.132 C 174.640 275.138,175.360 274.989,175.800 274.800 C 176.819 274.362,175.768 274.362,174.400 274.800 M234.033 274.560 C 234.125 274.648,235.639 275.681,237.399 276.855 C 241.452 279.560,245.810 283.691,248.471 287.350 C 250.889 290.675,251.486 291.365,250.810 290.053 C 248.962 286.470,242.396 279.771,237.476 276.452 C 234.974 274.763,233.271 273.827,234.033 274.560 M168.600 276.245 C 167.720 276.789,166.685 277.337,166.300 277.464 C 165.915 277.590,165.600 277.836,165.600 278.011 C 165.600 278.186,166.740 277.876,168.133 277.324 C 169.557 276.759,170.667 276.073,170.667 275.759 C 170.667 275.030,170.502 275.069,168.600 276.245 M293.822 277.022 C 293.672 277.825,293.628 278.562,293.726 278.660 C 293.824 278.757,294.027 278.181,294.178 277.378 C 294.328 276.575,294.372 275.838,294.274 275.740 C 294.176 275.643,293.973 276.219,293.822 277.022 M50.600 277.600 C 50.450 278.073,50.417 278.550,50.527 278.660 C 50.637 278.770,50.850 278.473,51.000 278.000 C 51.150 277.527,51.183 277.050,51.073 276.940 C 50.963 276.830,50.750 277.127,50.600 277.600 M119.921 277.900 C 118.649 279.375,113.785 287.078,114.680 286.200 C 115.199 285.690,120.840 277.200,120.659 277.200 C 120.585 277.200,120.252 277.515,119.921 277.900 M227.200 279.167 C 228.163 279.952,228.800 280.208,228.800 279.810 C 228.800 279.706,228.215 279.335,227.500 278.986 L 226.200 278.352 227.200 279.167 M293.000 280.800 C 292.848 281.491,292.807 282.141,292.909 282.242 C 293.011 282.344,293.209 281.853,293.350 281.150 C 293.491 280.447,293.531 279.798,293.441 279.708 C 293.350 279.617,293.152 280.109,293.000 280.800 M65.997 281.633 C 65.996 281.725,65.546 283.122,64.997 284.738 C 64.449 286.354,64.007 287.974,64.015 288.338 C 64.024 288.702,64.557 287.388,65.200 285.418 C 65.842 283.447,66.286 281.752,66.184 281.651 C 66.083 281.550,65.999 281.542,65.997 281.633 M49.050 283.250 C 48.717 284.917,49.040 285.240,49.400 283.600 C 49.552 282.909,49.593 282.259,49.491 282.158 C 49.389 282.056,49.191 282.547,49.050 283.250 M232.809 282.663 C 232.815 282.848,233.555 283.540,234.455 284.200 C 236.782 285.907,240.956 290.502,242.875 293.469 C 244.506 295.992,245.249 296.808,244.359 295.100 C 242.495 291.520,232.764 281.042,232.809 282.663 M292.200 284.400 C 292.048 285.091,292.007 285.741,292.109 285.842 C 292.211 285.944,292.409 285.453,292.550 284.750 C 292.691 284.047,292.731 283.398,292.641 283.308 C 292.550 283.217,292.352 283.709,292.200 284.400 M48.218 287.418 C 48.065 288.439,48.022 289.355,48.122 289.455 C 48.222 289.555,48.429 288.802,48.582 287.782 C 48.735 286.761,48.778 285.845,48.678 285.745 C 48.578 285.645,48.371 286.398,48.218 287.418 M113.508 287.700 C 113.187 288.195,112.707 289.050,112.440 289.600 C 111.760 291.003,112.994 289.506,113.841 287.900 C 114.539 286.574,114.323 286.444,113.508 287.700 M291.422 288.222 C 291.272 289.025,291.228 289.762,291.326 289.860 C 291.424 289.957,291.627 289.381,291.778 288.578 C 291.928 287.775,291.972 287.038,291.874 286.940 C 291.776 286.843,291.573 287.419,291.422 288.222 M63.469 290.356 C 63.321 291.095,63.220 292.082,63.244 292.550 C 63.268 293.018,63.447 292.590,63.642 291.600 C 63.837 290.610,63.938 289.623,63.867 289.406 C 63.796 289.190,63.617 289.617,63.469 290.356 M110.600 292.800 C 110.043 293.900,109.677 294.800,109.787 294.800 C 109.897 294.800,110.443 293.900,111.000 292.800 C 111.557 291.700,111.923 290.800,111.813 290.800 C 111.703 290.800,111.157 291.700,110.600 292.800 M290.656 291.684 C 290.521 292.188,290.427 292.960,290.446 293.400 C 290.465 293.840,290.645 293.498,290.846 292.640 C 291.236 290.978,291.070 290.140,290.656 291.684 M47.760 297.000 C 47.761 300.300,47.822 301.597,47.898 299.882 C 47.973 298.167,47.972 295.467,47.897 293.882 C 47.821 292.297,47.759 293.700,47.760 297.000 M252.282 293.389 C 252.873 294.593,253.423 295.511,253.505 295.429 C 253.684 295.249,251.667 291.200,251.398 291.200 C 251.294 291.200,251.692 292.185,252.282 293.389 M289.800 296.000 C 289.646 296.910,289.604 297.738,289.707 297.840 C 289.810 297.943,290.013 297.277,290.160 296.360 C 290.307 295.443,290.348 294.615,290.253 294.520 C 290.158 294.424,289.954 295.090,289.800 296.000 M62.946 299.000 C 62.947 301.200,63.014 302.049,63.095 300.887 C 63.176 299.724,63.176 297.924,63.093 296.887 C 63.011 295.849,62.945 296.800,62.946 299.000 M289.000 300.000 C 288.846 300.910,288.811 301.744,288.921 301.854 C 289.031 301.964,289.246 301.310,289.400 300.400 C 289.554 299.490,289.589 298.656,289.479 298.546 C 289.369 298.436,289.154 299.090,289.000 300.000 M106.255 301.455 C 105.876 302.249,105.653 302.986,105.759 303.093 C 105.866 303.199,106.236 302.609,106.582 301.782 C 107.398 299.829,107.149 299.580,106.255 301.455 M255.256 300.800 C 255.256 301.130,255.411 301.760,255.600 302.200 C 255.817 302.704,255.944 302.778,255.944 302.400 C 255.944 302.070,255.789 301.440,255.600 301.000 C 255.383 300.496,255.256 300.422,255.256 300.800 M288.200 304.800 C 288.046 305.710,288.004 306.538,288.107 306.640 C 288.210 306.743,288.413 306.077,288.560 305.160 C 288.707 304.243,288.748 303.415,288.653 303.320 C 288.558 303.224,288.354 303.890,288.200 304.800 M248.068 304.200 C 248.062 304.640,248.211 305.360,248.400 305.800 C 248.838 306.819,248.838 305.768,248.400 304.400 C 248.143 303.596,248.077 303.557,248.068 304.200 M256.281 305.600 C 256.406 306.810,256.574 307.875,256.654 307.967 C 256.935 308.287,256.717 305.391,256.387 304.400 C 256.171 303.754,256.134 304.180,256.281 305.600 M48.095 305.000 C 48.095 305.660,48.232 306.740,48.400 307.400 L 48.705 308.600 48.705 307.400 C 48.705 306.740,48.568 305.660,48.400 305.000 L 48.095 303.800 48.095 305.000 M63.240 305.233 C 63.262 305.985,63.430 307.050,63.613 307.600 C 63.829 308.246,63.866 307.820,63.719 306.400 C 63.459 303.883,63.181 303.207,63.240 305.233 M248.863 307.800 C 248.854 308.240,248.995 309.320,249.177 310.200 L 249.508 311.800 249.514 310.400 C 249.517 309.630,249.376 308.550,249.200 308.000 C 248.941 307.191,248.877 307.153,248.863 307.800 M287.382 309.382 C 287.229 310.402,287.194 311.327,287.304 311.437 C 287.414 311.547,287.629 310.802,287.782 309.782 C 287.935 308.761,287.970 307.837,287.860 307.727 C 287.750 307.617,287.535 308.361,287.382 309.382 M48.868 309.800 C 48.874 310.240,49.024 311.050,49.200 311.600 L 49.520 312.600 49.532 311.600 C 49.538 311.050,49.389 310.240,49.200 309.800 L 48.856 309.000 48.868 309.800 M64.056 309.600 C 64.056 309.930,64.211 310.560,64.400 311.000 C 64.617 311.504,64.744 311.578,64.744 311.200 C 64.744 310.870,64.589 310.240,64.400 309.800 C 64.183 309.296,64.056 309.222,64.056 309.600 M256.942 312.600 C 256.941 314.580,257.008 315.440,257.092 314.512 C 257.176 313.584,257.177 311.964,257.095 310.912 C 257.012 309.860,256.943 310.620,256.942 312.600 M101.800 313.200 C 101.650 313.673,101.617 314.150,101.727 314.260 C 101.837 314.370,102.050 314.073,102.200 313.600 C 102.350 313.127,102.383 312.650,102.273 312.540 C 102.163 312.430,101.950 312.727,101.800 313.200 M49.656 313.200 C 49.656 313.530,49.811 314.160,50.000 314.600 C 50.217 315.104,50.344 315.178,50.344 314.800 C 50.344 314.470,50.189 313.840,50.000 313.400 C 49.783 312.896,49.656 312.822,49.656 313.200 M249.731 315.400 C 249.733 316.940,249.805 317.521,249.892 316.691 C 249.979 315.861,249.977 314.601,249.889 313.891 C 249.800 313.181,249.729 313.860,249.731 315.400 M286.653 314.036 C 286.514 314.731,286.422 315.863,286.449 316.550 C 286.478 317.294,286.638 316.840,286.843 315.428 C 287.211 312.904,287.076 311.918,286.653 314.036 M101.000 316.000 C 100.848 316.691,100.807 317.341,100.909 317.442 C 101.011 317.544,101.209 317.053,101.350 316.350 C 101.683 314.683,101.360 314.360,101.000 316.000 M50.434 316.000 C 50.446 316.330,50.611 316.960,50.800 317.400 L 51.144 318.200 51.166 317.400 C 51.178 316.960,51.013 316.330,50.800 316.000 C 50.455 315.467,50.415 315.467,50.434 316.000 M256.246 319.547 C 256.089 320.727,256.046 321.779,256.150 321.883 C 256.417 322.150,256.922 318.564,256.707 317.925 C 256.611 317.636,256.403 318.366,256.246 319.547 M100.229 319.029 C 100.081 319.615,100.038 320.172,100.132 320.266 C 100.227 320.360,100.424 319.958,100.571 319.371 C 100.719 318.785,100.762 318.228,100.668 318.134 C 100.573 318.040,100.376 318.442,100.229 319.029 M285.859 320.900 C 285.543 323.530,285.608 334.996,285.947 336.574 C 286.086 337.220,286.200 333.485,286.200 328.274 C 286.200 317.755,286.210 317.977,285.859 320.900 M249.033 321.233 C 248.883 322.366,248.841 323.374,248.939 323.472 C 249.037 323.571,249.245 322.728,249.400 321.600 C 249.555 320.472,249.598 319.464,249.494 319.361 C 249.391 319.258,249.184 320.100,249.033 321.233 M68.000 320.553 C 68.000 320.982,69.190 323.200,69.421 323.200 C 69.531 323.200,69.323 322.615,68.959 321.900 C 68.217 320.440,68.000 320.136,68.000 320.553 M99.400 322.800 C 99.246 323.710,99.204 324.538,99.307 324.640 C 99.410 324.743,99.613 324.077,99.760 323.160 C 99.907 322.243,99.948 321.415,99.853 321.320 C 99.758 321.224,99.554 321.890,99.400 322.800 M255.429 323.829 C 255.281 324.415,255.238 324.972,255.332 325.066 C 255.427 325.160,255.624 324.758,255.771 324.171 C 255.919 323.585,255.962 323.028,255.868 322.934 C 255.773 322.840,255.576 323.242,255.429 323.829 M69.609 323.900 C 69.614 324.065,69.985 324.650,70.433 325.200 L 71.248 326.200 70.614 324.900 C 70.011 323.665,69.589 323.245,69.609 323.900 M53.638 324.600 C 53.638 324.820,54.161 325.990,54.800 327.200 C 55.439 328.410,55.962 329.220,55.962 329.000 C 55.962 328.780,55.439 327.610,54.800 326.400 C 54.161 325.190,53.638 324.380,53.638 324.600 M248.229 325.429 C 248.081 326.015,248.038 326.572,248.132 326.666 C 248.227 326.760,248.424 326.358,248.571 325.771 C 248.719 325.185,248.762 324.628,248.668 324.534 C 248.573 324.440,248.376 324.842,248.229 325.429 M98.600 327.200 C 98.445 328.328,98.408 329.341,98.518 329.451 C 98.628 329.561,98.845 328.728,99.000 327.600 C 99.155 326.472,99.192 325.459,99.082 325.349 C 98.972 325.239,98.755 326.072,98.600 327.200 M254.629 326.629 C 254.481 327.215,254.438 327.772,254.532 327.866 C 254.627 327.960,254.824 327.558,254.971 326.971 C 255.119 326.385,255.162 325.828,255.068 325.734 C 254.973 325.640,254.776 326.042,254.629 326.629 M57.179 331.800 C 57.899 333.120,58.675 334.380,58.904 334.600 C 59.133 334.820,58.726 333.920,58.000 332.600 C 57.274 331.280,56.498 330.020,56.275 329.800 C 56.052 329.580,56.459 330.480,57.179 331.800 M246.267 331.267 C 245.905 332.188,245.674 333.007,245.754 333.088 C 245.834 333.168,246.200 332.483,246.567 331.567 C 246.933 330.650,247.164 329.831,247.079 329.746 C 246.994 329.661,246.629 330.345,246.267 331.267 M74.339 331.115 C 76.009 333.459,81.585 339.495,84.038 341.612 C 88.015 345.045,90.800 347.294,90.800 347.073 C 90.800 346.962,89.382 345.698,87.648 344.264 C 83.662 340.967,78.436 335.737,75.892 332.500 C 73.910 329.979,72.869 329.049,74.339 331.115 M97.859 333.853 C 97.717 335.540,97.628 339.189,97.662 341.960 C 97.718 346.518,97.754 346.235,98.036 339.007 C 98.363 330.627,98.297 328.680,97.859 333.853 M251.833 333.926 C 251.275 335.165,251.224 335.726,251.569 336.831 L 251.997 338.200 251.804 336.875 C 251.697 336.146,251.880 334.904,252.210 334.114 C 253.024 332.165,252.700 332.004,251.833 333.926 M60.020 336.600 C 61.198 338.588,63.616 342.000,63.847 342.000 C 64.044 342.000,60.066 336.004,59.468 335.400 C 59.250 335.180,59.499 335.720,60.020 336.600 M243.014 337.835 C 242.641 338.404,242.427 338.961,242.539 339.072 C 242.650 339.183,243.029 338.718,243.381 338.037 C 244.159 336.533,243.944 336.415,243.014 337.835 M252.068 338.800 C 252.088 339.839,252.718 341.546,252.732 340.600 C 252.738 340.160,252.589 339.440,252.400 339.000 C 252.189 338.510,252.061 338.432,252.068 338.800 M286.428 339.233 C 286.444 339.765,286.619 340.560,286.819 341.000 C 287.071 341.558,287.107 341.315,286.938 340.200 C 286.655 338.343,286.387 337.836,286.428 339.233 M240.248 342.154 C 239.246 343.558,237.499 345.763,236.366 347.054 L 234.306 349.400 236.653 346.981 C 238.784 344.785,242.723 339.600,242.261 339.600 C 242.156 339.600,241.250 340.749,240.248 342.154 M64.740 343.516 C 65.233 344.209,65.844 344.904,66.097 345.060 C 66.350 345.217,66.154 344.777,65.660 344.084 C 65.167 343.391,64.556 342.696,64.303 342.540 C 64.050 342.383,64.246 342.823,64.740 343.516 M253.612 344.800 C 253.612 345.130,253.787 345.670,254.000 346.000 C 254.345 346.533,254.388 346.533,254.388 346.000 C 254.388 345.670,254.213 345.130,254.000 344.800 C 253.655 344.267,253.612 344.267,253.612 344.800 M288.007 344.549 C 287.994 345.164,290.571 349.600,290.941 349.600 C 291.137 349.600,291.092 349.352,290.841 349.050 C 290.590 348.747,289.851 347.532,289.199 346.350 C 288.548 345.167,288.011 344.357,288.007 344.549 M67.918 347.500 C 68.794 348.545,69.923 349.760,70.427 350.200 C 70.931 350.640,70.366 349.800,69.172 348.333 C 67.977 346.866,66.848 345.651,66.663 345.633 C 66.477 345.615,67.042 346.455,67.918 347.500 M254.456 347.200 C 254.456 347.530,254.611 348.160,254.800 348.600 C 255.017 349.104,255.144 349.178,255.144 348.800 C 255.144 348.470,254.989 347.840,254.800 347.400 C 254.583 346.896,254.456 346.822,254.456 347.200 M91.217 347.474 C 91.235 347.818,94.020 349.713,94.218 349.516 C 94.281 349.452,93.628 348.893,92.767 348.274 C 91.905 347.655,91.208 347.295,91.217 347.474 M96.879 349.222 C 96.505 349.821,96.128 349.971,95.483 349.777 C 94.772 349.562,94.696 349.610,95.089 350.024 C 95.713 350.680,97.600 349.917,97.600 349.009 C 97.600 348.208,97.493 348.240,96.879 349.222 M232.463 350.935 C 231.752 351.669,230.461 352.794,229.594 353.435 C 226.977 355.371,227.388 355.796,231.900 355.823 C 235.161 355.843,235.505 355.790,234.000 355.503 C 233.010 355.314,231.345 355.250,230.300 355.361 C 227.850 355.621,227.869 355.563,231.300 352.352 C 232.895 350.859,234.100 349.629,233.978 349.619 C 233.857 349.609,233.175 350.201,232.463 350.935 M75.800 355.864 C 82.521 362.340,91.883 369.655,97.200 372.587 C 98.714 373.421,96.698 371.906,93.200 369.580 C 86.388 365.050,81.752 361.262,75.236 354.900 C 73.152 352.865,71.346 351.209,71.223 351.219 C 71.100 351.230,73.160 353.320,75.800 355.864 M298.400 354.782 C 298.730 355.005,299.345 355.191,299.767 355.194 C 300.790 355.202,300.471 354.973,299.000 354.644 C 298.124 354.448,297.962 354.485,298.400 354.782 M301.233 355.347 C 301.325 355.428,303.020 355.593,305.000 355.715 C 307.506 355.870,308.114 355.832,307.000 355.592 C 305.426 355.252,300.908 355.060,301.233 355.347 M257.659 356.800 C 257.659 357.130,257.993 358.120,258.400 359.000 C 258.807 359.880,259.141 360.330,259.141 360.000 C 259.141 359.670,258.807 358.680,258.400 357.800 C 257.993 356.920,257.659 356.470,257.659 356.800 M311.600 356.971 C 311.600 357.247,314.114 358.420,314.302 358.231 C 314.397 358.136,313.927 357.776,313.257 357.429 C 312.009 356.784,311.600 356.671,311.600 356.971 M241.000 357.879 C 241.873 358.738,245.356 360.850,244.709 360.128 C 244.330 359.705,243.250 358.937,242.309 358.422 C 241.369 357.907,240.780 357.662,241.000 357.879 M317.685 360.755 C 318.722 361.680,320.412 363.373,321.441 364.518 C 322.470 365.663,322.941 366.060,322.487 365.400 C 321.612 364.127,317.942 360.520,316.600 359.614 C 316.160 359.316,316.648 359.830,317.685 360.755 M245.618 360.889 C 245.608 361.049,246.365 361.949,247.301 362.889 C 248.236 363.830,249.511 365.230,250.133 366.000 C 250.756 366.770,251.087 367.037,250.869 366.594 C 250.398 365.636,245.643 360.471,245.618 360.889 M260.834 364.600 C 260.834 364.820,261.178 365.630,261.600 366.400 C 262.022 367.170,262.366 367.620,262.366 367.400 C 262.366 367.180,262.022 366.370,261.600 365.600 C 261.178 364.830,260.834 364.380,260.834 364.600 M324.600 369.200 C 324.941 369.860,325.311 370.400,325.421 370.400 C 325.531 370.400,325.341 369.860,325.000 369.200 C 324.659 368.540,324.289 368.000,324.179 368.000 C 324.069 368.000,324.259 368.540,324.600 369.200 M252.000 368.939 C 252.000 369.366,253.314 371.619,253.471 371.462 C 253.677 371.256,252.495 368.800,252.190 368.800 C 252.085 368.800,252.000 368.862,252.000 368.939 M325.646 371.000 C 325.653 371.220,326.006 372.120,326.429 373.000 C 326.852 373.880,327.086 374.150,326.949 373.600 C 326.667 372.467,325.625 370.388,325.646 371.000 M264.550 372.200 C 264.874 372.860,265.431 373.760,265.789 374.200 C 266.397 374.948,266.401 374.922,265.850 373.800 C 265.526 373.140,264.969 372.240,264.611 371.800 C 264.003 371.052,263.999 371.078,264.550 372.200 M99.600 373.779 C 99.600 373.889,100.140 374.259,100.800 374.600 C 101.460 374.941,102.000 375.131,102.000 375.021 C 102.000 374.911,101.460 374.541,100.800 374.200 C 100.140 373.859,99.600 373.669,99.600 373.779 M254.456 374.400 C 254.456 374.730,254.611 375.360,254.800 375.800 C 255.017 376.304,255.144 376.378,255.144 376.000 C 255.144 375.670,254.989 375.040,254.800 374.600 C 254.583 374.096,254.456 374.022,254.456 374.400 M327.280 375.400 C 327.280 375.840,327.424 376.650,327.600 377.200 C 327.854 377.992,327.920 378.033,327.920 377.400 C 327.920 376.960,327.776 376.150,327.600 375.600 C 327.346 374.808,327.280 374.767,327.280 375.400 M102.400 375.360 C 102.400 375.696,106.447 377.686,106.673 377.460 C 106.779 377.354,105.997 376.856,104.933 376.354 C 103.870 375.852,102.865 375.372,102.700 375.287 C 102.535 375.203,102.400 375.235,102.400 375.360 M267.067 376.406 C 267.459 377.070,268.198 378.105,268.710 378.706 C 269.221 379.308,268.975 378.765,268.163 377.500 C 266.624 375.103,265.828 374.307,267.067 376.406 M255.334 380.000 C 255.334 381.650,255.405 382.325,255.491 381.500 C 255.578 380.675,255.578 379.325,255.491 378.500 C 255.405 377.675,255.334 378.350,255.334 380.000 M270.778 381.512 C 272.140 383.207,274.788 385.504,276.600 386.561 C 277.757 387.236,277.764 387.236,276.800 386.551 C 276.250 386.161,274.463 384.527,272.829 382.921 C 269.491 379.640,269.003 379.304,270.778 381.512 M117.200 382.000 C 117.530 382.213,118.070 382.388,118.400 382.388 C 118.933 382.388,118.933 382.345,118.400 382.000 C 118.070 381.787,117.530 381.612,117.200 381.612 C 116.667 381.612,116.667 381.655,117.200 382.000 M327.646 382.467 C 327.621 382.834,327.496 383.464,327.370 383.867 C 327.152 384.562,327.163 384.563,327.597 383.887 C 327.848 383.496,327.973 382.866,327.873 382.487 C 327.711 381.868,327.688 381.866,327.646 382.467 M122.200 383.600 C 122.640 383.789,123.270 383.944,123.600 383.944 C 123.978 383.944,123.904 383.817,123.400 383.600 C 122.960 383.411,122.330 383.256,122.000 383.256 C 121.622 383.256,121.696 383.383,122.200 383.600 M254.632 384.299 C 254.499 384.717,254.015 385.463,253.555 385.956 C 253.096 386.449,252.814 386.948,252.930 387.063 C 253.045 387.179,253.630 386.533,254.229 385.629 C 254.827 384.724,255.217 383.884,255.095 383.762 C 254.973 383.640,254.765 383.882,254.632 384.299 M125.000 384.400 C 125.440 384.589,126.070 384.744,126.400 384.744 C 126.778 384.744,126.704 384.617,126.200 384.400 C 125.760 384.211,125.130 384.056,124.800 384.056 C 124.422 384.056,124.496 384.183,125.000 384.400 M128.200 385.200 C 128.640 385.389,129.270 385.544,129.600 385.544 C 129.978 385.544,129.904 385.417,129.400 385.200 C 128.960 385.011,128.330 384.856,128.000 384.856 C 127.622 384.856,127.696 384.983,128.200 385.200 M325.522 386.444 C 324.560 387.428,323.514 388.056,322.522 388.243 C 321.685 388.401,321.223 388.605,321.497 388.697 C 322.759 389.122,328.025 385.760,327.173 385.073 C 327.078 384.996,326.335 385.613,325.522 386.444 M131.600 386.000 C 132.150 386.176,132.960 386.320,133.400 386.320 C 134.033 386.320,133.992 386.254,133.200 386.000 C 132.650 385.824,131.840 385.680,131.400 385.680 C 130.767 385.680,130.808 385.746,131.600 386.000 M135.600 386.800 C 136.150 386.976,137.050 387.117,137.600 387.113 C 138.498 387.106,138.478 387.074,137.400 386.800 C 135.708 386.369,134.256 386.369,135.600 386.800 M140.200 387.623 C 141.080 387.805,142.250 387.943,142.800 387.930 C 144.388 387.891,141.765 387.295,140.000 387.293 L 138.600 387.292 140.200 387.623 M146.400 388.420 C 148.950 388.874,151.221 388.836,149.000 388.377 C 148.120 388.195,146.770 388.058,146.000 388.073 C 144.695 388.098,144.722 388.122,146.400 388.420 M280.000 388.400 C 280.330 388.613,280.960 388.778,281.400 388.766 L 282.200 388.744 281.400 388.400 C 280.204 387.886,279.205 387.886,280.000 388.400 M154.800 389.212 C 156.450 389.368,159.240 389.490,161.000 389.483 L 164.200 389.471 160.400 389.180 C 158.310 389.020,155.520 388.899,154.200 388.909 L 151.800 388.929 154.800 389.212 M196.200 389.184 C 192.900 389.303,203.070 389.341,218.800 389.269 C 234.530 389.197,247.580 389.076,247.800 389.001 C 248.435 388.782,202.843 388.944,196.200 389.184 M292.500 389.100 C 297.725 389.163,306.275 389.163,311.500 389.100 C 316.725 389.036,312.450 388.985,302.000 388.985 C 291.550 388.985,287.275 389.036,292.500 389.100 M171.700 389.899 C 174.285 389.968,178.515 389.968,181.100 389.899 C 183.685 389.829,181.570 389.772,176.400 389.772 C 171.230 389.772,169.115 389.829,171.700 389.899 " stroke="none" fill="#b6acc0" fill-rule="evenodd"></path><path id="path3" d="M307.338 25.862 C 307.294 26.621,307.378 26.763,307.632 26.361 C 308.068 25.672,308.106 24.800,307.700 24.800 C 307.535 24.800,307.372 25.278,307.338 25.862 M325.400 37.821 L 324.200 38.367 325.307 38.138 C 326.373 37.918,326.399 37.951,325.996 39.010 C 325.766 39.616,325.655 40.188,325.749 40.282 C 325.843 40.377,326.136 39.799,326.400 39.000 C 326.987 37.221,326.912 37.132,325.400 37.821 M282.200 38.832 C 279.827 40.626,279.508 41.132,281.733 39.572 C 283.414 38.394,284.329 37.575,283.924 37.611 C 283.856 37.617,283.080 38.167,282.200 38.832 M319.600 40.400 C 318.830 40.822,318.380 41.166,318.600 41.166 C 318.820 41.166,319.630 40.822,320.400 40.400 C 321.170 39.978,321.620 39.634,321.400 39.634 C 321.180 39.634,320.370 39.978,319.600 40.400 M316.300 42.027 C 315.475 42.463,314.800 42.908,314.800 43.018 C 314.800 43.127,315.520 42.849,316.400 42.400 C 317.280 41.951,318.000 41.497,318.000 41.392 C 318.000 41.130,317.997 41.131,316.300 42.027 M276.400 43.254 L 274.600 44.885 276.294 43.613 C 277.768 42.507,278.714 41.574,278.324 41.612 C 278.256 41.619,277.390 42.358,276.400 43.254 M271.400 47.453 C 268.635 50.052,268.631 50.059,271.043 48.053 C 273.287 46.185,274.716 44.784,274.349 44.811 C 274.267 44.817,272.940 46.006,271.400 47.453 M263.993 54.300 L 259.800 58.600 264.100 54.407 C 266.465 52.101,268.400 50.166,268.400 50.107 C 268.400 49.818,267.887 50.306,263.993 54.300 M322.548 56.800 C 322.548 59.110,322.614 60.055,322.695 58.900 C 322.776 57.745,322.776 55.855,322.695 54.700 C 322.614 53.545,322.548 54.490,322.548 56.800 M258.576 60.026 C 257.930 60.700,257.671 61.142,258.001 61.009 C 258.538 60.791,260.245 58.800,259.894 58.800 C 259.814 58.800,259.221 59.352,258.576 60.026 M307.514 59.404 C 307.741 59.847,308.348 60.566,308.863 61.002 C 309.767 61.766,309.765 61.752,308.806 60.597 C 307.213 58.679,307.079 58.555,307.514 59.404 M311.200 63.517 C 312.190 64.424,313.141 65.174,313.314 65.183 C 313.487 65.192,313.037 64.701,312.314 64.090 C 310.035 62.165,309.325 61.800,311.200 63.517 M321.600 63.400 C 322.150 63.714,322.780 63.972,323.000 63.972 C 323.220 63.972,322.950 63.714,322.400 63.400 C 321.850 63.086,321.220 62.828,321.000 62.828 C 320.780 62.828,321.050 63.086,321.600 63.400 M325.600 71.343 C 325.600 71.443,326.519 72.185,327.642 72.992 C 328.765 73.799,329.565 74.268,329.421 74.034 C 329.120 73.548,325.600 71.068,325.600 71.343 M245.949 77.300 C 245.685 77.795,245.134 78.798,244.725 79.530 C 244.315 80.261,244.145 80.758,244.346 80.633 C 244.771 80.371,246.902 76.400,246.618 76.400 C 246.514 76.400,246.212 76.805,245.949 77.300 M334.400 78.727 C 334.400 78.922,334.940 79.646,335.600 80.337 C 336.260 81.028,336.800 81.483,336.800 81.349 C 336.800 81.215,336.260 80.491,335.600 79.739 C 334.940 78.987,334.400 78.532,334.400 78.727 M340.040 86.177 C 340.502 86.961,341.043 87.703,341.241 87.825 C 341.439 87.948,341.223 87.407,340.760 86.623 C 340.298 85.839,339.757 85.097,339.559 84.975 C 339.361 84.852,339.577 85.393,340.040 86.177 M235.429 102.229 C 235.281 102.815,235.238 103.372,235.332 103.466 C 235.427 103.560,235.624 103.158,235.771 102.571 C 235.919 101.985,235.962 101.428,235.868 101.334 C 235.773 101.240,235.576 101.642,235.429 102.229 M336.045 103.636 C 336.681 104.039,338.666 104.133,338.275 103.742 C 338.133 103.599,337.448 103.438,336.753 103.384 C 335.900 103.317,335.670 103.399,336.045 103.636 M328.249 107.415 C 328.112 107.773,328.025 108.816,328.056 109.733 C 328.109 111.301,328.129 111.270,328.392 109.200 C 328.690 106.855,328.651 106.368,328.249 107.415 M320.093 108.800 C 320.093 109.570,320.175 109.885,320.276 109.500 C 320.376 109.115,320.376 108.485,320.276 108.100 C 320.175 107.715,320.093 108.030,320.093 108.800 M233.309 115.600 C 233.309 116.590,233.387 116.995,233.482 116.500 C 233.578 116.005,233.578 115.195,233.482 114.700 C 233.387 114.205,233.309 114.610,233.309 115.600 M335.729 116.281 C 336.194 116.402,336.372 116.696,336.220 117.092 C 336.023 117.606,336.086 117.627,336.586 117.211 C 337.360 116.569,337.005 115.987,335.876 116.046 C 335.156 116.085,335.130 116.126,335.729 116.281 M232.951 122.000 C 232.951 124.530,233.016 125.565,233.096 124.300 C 233.175 123.035,233.175 120.965,233.096 119.700 C 233.016 118.435,232.951 119.470,232.951 122.000 M352.866 127.200 C 352.991 127.584,353.627 127.820,354.631 127.855 C 355.816 127.897,355.906 127.864,355.000 127.720 C 354.340 127.615,353.546 127.320,353.235 127.065 C 352.788 126.697,352.711 126.725,352.866 127.200 M233.342 130.600 C 233.341 132.580,233.408 133.440,233.492 132.512 C 233.576 131.584,233.577 129.964,233.495 128.912 C 233.412 127.860,233.343 128.620,233.342 130.600 M115.100 127.893 C 116.035 127.977,117.565 127.977,118.500 127.893 C 119.435 127.809,118.670 127.740,116.800 127.740 C 114.930 127.740,114.165 127.809,115.100 127.893 M359.747 128.846 C 360.378 129.335,361.232 130.290,361.645 130.968 C 362.059 131.645,362.398 131.989,362.399 131.731 C 362.401 131.062,360.472 128.858,359.457 128.369 C 358.922 128.111,359.030 128.290,359.747 128.846 M137.768 133.149 C 137.894 133.351,138.762 133.912,139.698 134.394 C 140.634 134.877,141.220 135.092,141.000 134.873 C 140.390 134.266,137.509 132.729,137.768 133.149 M232.893 136.000 C 232.893 136.770,232.975 137.085,233.076 136.700 C 233.176 136.315,233.176 135.685,233.076 135.300 C 232.975 134.915,232.893 135.230,232.893 136.000 M361.657 136.457 C 361.375 136.909,361.232 137.366,361.340 137.473 C 361.447 137.581,361.744 137.278,362.000 136.800 C 362.605 135.670,362.324 135.390,361.657 136.457 M87.446 137.849 C 86.211 138.866,85.200 139.776,85.200 139.872 C 85.200 140.117,86.378 139.245,88.403 137.500 C 90.881 135.365,90.131 135.638,87.446 137.849 M148.000 141.000 C 149.860 142.870,151.472 144.400,151.582 144.400 C 151.692 144.400,150.260 142.870,148.400 141.000 C 146.540 139.130,144.928 137.600,144.818 137.600 C 144.708 137.600,146.140 139.130,148.000 141.000 M82.981 142.100 L 81.400 143.800 83.100 142.219 C 84.681 140.748,84.984 140.400,84.681 140.400 C 84.616 140.400,83.851 141.165,82.981 142.100 M112.900 142.676 C 113.285 142.776,113.915 142.776,114.300 142.676 C 114.685 142.575,114.370 142.493,113.600 142.493 C 112.830 142.493,112.515 142.575,112.900 142.676 M353.347 146.517 C 352.242 147.788,351.765 148.593,352.320 148.250 C 352.797 147.955,354.556 145.600,354.299 145.600 C 354.214 145.600,353.786 146.012,353.347 146.517 M99.000 147.537 C 98.340 147.940,97.530 148.613,97.200 149.031 C 96.802 149.535,97.020 149.456,97.846 148.796 C 98.532 148.248,99.432 147.586,99.846 147.324 C 100.261 147.061,100.510 146.837,100.400 146.825 C 100.290 146.813,99.660 147.133,99.000 147.537 M155.240 150.177 C 155.702 150.961,156.243 151.703,156.441 151.825 C 156.639 151.948,156.423 151.407,155.960 150.623 C 155.498 149.839,154.957 149.097,154.759 148.975 C 154.561 148.852,154.777 149.393,155.240 150.177 M350.008 150.592 C 349.041 151.577,348.329 152.441,348.425 152.513 C 348.521 152.584,349.390 151.778,350.357 150.721 C 352.571 148.300,352.341 148.214,350.008 150.592 M138.197 152.137 C 139.739 153.752,141.070 155.017,141.155 154.949 C 141.341 154.798,135.957 149.200,135.626 149.200 C 135.499 149.200,136.656 150.522,138.197 152.137 M94.778 151.100 L 93.400 152.600 94.900 151.222 C 96.296 149.938,96.584 149.600,96.278 149.600 C 96.212 149.600,95.537 150.275,94.778 151.100 M92.544 153.700 C 91.562 154.809,90.396 156.663,90.412 157.086 C 90.419 157.259,90.837 156.730,91.341 155.911 C 91.845 155.091,92.587 154.056,92.990 153.611 C 93.394 153.165,93.637 152.800,93.532 152.800 C 93.426 152.800,92.981 153.205,92.544 153.700 M346.600 154.212 C 345.940 154.753,345.594 155.197,345.830 155.198 C 346.067 155.199,346.683 154.750,347.200 154.200 C 348.385 152.938,348.148 152.943,346.600 154.212 M343.396 157.110 C 342.514 157.930,341.164 159.112,340.396 159.738 L 339.000 160.876 340.600 159.767 C 342.469 158.471,345.715 155.595,345.291 155.610 C 345.131 155.616,344.278 156.291,343.396 157.110 M142.349 157.400 C 142.565 157.840,143.034 158.560,143.393 159.000 L 144.044 159.800 143.651 159.000 C 143.435 158.560,142.966 157.840,142.607 157.400 L 141.956 156.600 142.349 157.400 M327.300 164.276 C 327.685 164.376,328.315 164.376,328.700 164.276 C 329.085 164.175,328.770 164.093,328.000 164.093 C 327.230 164.093,326.915 164.175,327.300 164.276 M310.912 164.695 C 311.964 164.777,313.584 164.776,314.512 164.692 C 315.440 164.608,314.580 164.541,312.600 164.542 C 310.620 164.543,309.860 164.612,310.912 164.695 M161.656 165.200 C 161.656 165.530,161.811 166.160,162.000 166.600 C 162.217 167.104,162.344 167.178,162.344 166.800 C 162.344 166.470,162.189 165.840,162.000 165.400 C 161.783 164.896,161.656 164.822,161.656 165.200 M300.800 165.218 C 300.362 165.515,300.524 165.552,301.400 165.356 C 302.871 165.027,303.190 164.798,302.167 164.806 C 301.745 164.809,301.130 164.995,300.800 165.218 M72.534 169.200 C 72.534 170.850,72.605 171.525,72.691 170.700 C 72.778 169.875,72.778 168.525,72.691 167.700 C 72.605 166.875,72.534 167.550,72.534 169.200 M87.334 169.200 C 87.334 170.850,87.405 171.525,87.491 170.700 C 87.578 169.875,87.578 168.525,87.491 167.700 C 87.405 166.875,87.334 167.550,87.334 169.200 M291.000 169.444 L 289.400 170.876 291.200 169.561 C 292.190 168.837,293.075 168.190,293.167 168.123 C 293.258 168.055,293.168 168.003,292.967 168.006 C 292.765 168.009,291.880 168.656,291.000 169.444 M148.553 179.000 C 148.553 181.640,148.618 182.668,148.697 181.284 C 148.775 179.901,148.774 177.741,148.695 176.484 C 148.616 175.228,148.552 176.360,148.553 179.000 M163.355 179.400 C 163.356 182.260,163.420 183.378,163.497 181.883 C 163.574 180.389,163.574 178.049,163.496 176.683 C 163.418 175.318,163.355 176.540,163.355 179.400 M218.155 177.081 C 217.307 178.116,216.822 178.834,217.077 178.676 C 217.621 178.340,220.155 175.200,219.882 175.200 C 219.780 175.200,219.003 176.047,218.155 177.081 M214.649 181.364 C 212.525 183.849,212.263 184.484,214.000 182.937 C 214.660 182.349,215.200 181.684,215.200 181.460 C 215.200 181.235,215.591 180.635,216.070 180.126 C 216.548 179.617,216.840 179.200,216.718 179.200 C 216.597 179.200,215.665 180.174,214.649 181.364 M285.724 182.200 C 285.726 183.520,285.801 184.012,285.890 183.293 C 285.979 182.574,285.977 181.494,285.886 180.893 C 285.795 180.292,285.722 180.880,285.724 182.200 M91.282 181.985 C 91.897 183.154,92.801 184.193,92.798 183.729 C 92.797 183.548,92.339 182.860,91.780 182.200 C 90.936 181.203,90.851 181.167,91.282 181.985 M207.684 188.834 C 205.200 191.383,202.875 193.903,202.517 194.434 C 202.158 194.965,201.947 195.310,202.048 195.200 C 202.148 195.090,204.549 192.615,207.382 189.701 C 210.216 186.786,212.459 184.356,212.367 184.301 C 212.275 184.245,210.168 186.285,207.684 188.834 M94.887 186.205 C 95.704 187.060,96.438 187.679,96.517 187.580 C 96.597 187.481,95.928 186.781,95.031 186.025 L 93.400 184.650 94.887 186.205 M96.800 188.172 C 96.800 188.336,99.546 190.261,100.800 190.975 C 101.658 191.464,100.922 190.790,98.942 189.271 C 97.379 188.073,96.800 187.775,96.800 188.172 M83.600 195.743 C 84.590 196.800,86.120 198.222,87.000 198.902 C 88.859 200.337,88.442 199.900,84.600 196.383 C 82.454 194.418,82.221 194.269,83.600 195.743 M199.985 196.829 L 198.600 198.058 200.100 196.981 C 201.426 196.030,201.857 195.600,201.485 195.600 C 201.422 195.600,200.747 196.153,199.985 196.829 M117.600 198.525 C 117.600 198.594,118.185 199.179,118.900 199.825 L 120.200 201.000 119.025 199.700 C 117.930 198.488,117.600 198.216,117.600 198.525 M197.583 199.167 C 197.244 199.515,193.914 202.761,190.183 206.380 C 186.452 209.999,184.300 212.172,185.400 211.210 C 188.099 208.849,198.481 198.739,198.325 198.625 C 198.256 198.574,197.922 198.818,197.583 199.167 M91.600 202.365 C 92.737 203.315,95.200 204.853,95.200 204.615 C 95.200 204.449,92.229 202.394,91.200 201.849 C 90.870 201.674,91.050 201.906,91.600 202.365 M289.656 202.000 C 289.656 202.330,289.811 202.960,290.000 203.400 C 290.217 203.904,290.344 203.978,290.344 203.600 C 290.344 203.270,290.189 202.640,290.000 202.200 C 289.783 201.696,289.656 201.622,289.656 202.000 M120.901 204.600 C 120.905 205.480,120.987 205.793,121.083 205.295 C 121.179 204.798,121.175 204.078,121.075 203.695 C 120.975 203.313,120.896 203.720,120.901 204.600 M95.600 204.998 C 95.600 205.265,101.249 208.085,101.427 207.906 C 101.507 207.827,100.228 207.097,98.586 206.284 C 96.944 205.471,95.600 204.893,95.600 204.998 M155.800 206.400 C 155.459 207.060,155.269 207.600,155.379 207.600 C 155.489 207.600,155.859 207.060,156.200 206.400 C 156.541 205.740,156.731 205.200,156.621 205.200 C 156.511 205.200,156.141 205.740,155.800 206.400 M134.069 210.416 C 131.797 212.606,130.177 214.303,130.469 214.185 C 131.022 213.964,138.751 206.396,138.400 206.420 C 138.290 206.427,136.341 208.226,134.069 210.416 M152.648 211.100 C 151.390 212.805,150.925 213.570,151.613 212.800 C 152.946 211.309,155.341 208.000,155.086 208.000 C 155.003 208.000,153.905 209.395,152.648 211.100 M180.581 215.300 L 179.000 217.000 180.700 215.419 C 182.281 213.948,182.584 213.600,182.281 213.600 C 182.216 213.600,181.451 214.365,180.581 215.300 M127.800 215.847 C 126.920 216.626,126.560 217.086,127.000 216.868 C 127.734 216.506,129.960 214.380,129.570 214.415 C 129.476 214.423,128.680 215.067,127.800 215.847 M146.000 218.515 C 143.690 220.772,140.810 223.485,139.600 224.542 C 138.313 225.667,138.646 225.463,140.400 224.052 C 143.113 221.870,150.857 214.393,150.392 214.405 C 150.286 214.407,148.310 216.257,146.000 218.515 M124.600 218.250 C 123.881 218.862,123.734 219.105,124.233 218.857 C 124.966 218.493,126.341 217.176,125.949 217.214 C 125.867 217.222,125.260 217.688,124.600 218.250 M174.383 221.080 C 173.402 222.114,172.950 222.699,173.379 222.380 C 174.235 221.742,176.400 219.564,176.400 219.341 C 176.400 219.016,176.077 219.295,174.383 221.080 M169.588 225.500 L 167.000 228.200 169.700 225.612 C 172.208 223.207,172.583 222.800,172.288 222.800 C 172.227 222.800,171.012 224.015,169.588 225.500 M115.111 224.160 C 112.971 225.432,112.711 225.844,114.673 224.855 C 115.593 224.391,116.459 223.829,116.596 223.606 C 116.914 223.093,116.898 223.099,115.111 224.160 M111.102 226.504 C 110.279 226.963,109.665 227.398,109.738 227.471 C 109.933 227.666,112.345 226.412,112.616 225.975 C 112.908 225.501,112.898 225.505,111.102 226.504 M163.785 230.900 L 161.800 233.000 163.992 231.000 C 165.197 229.900,166.262 228.955,166.358 228.900 C 166.455 228.845,166.362 228.800,166.152 228.800 C 165.942 228.800,164.877 229.745,163.785 230.900 M129.722 231.829 L 128.600 232.858 129.900 231.954 C 130.615 231.457,131.200 230.993,131.200 230.925 C 131.200 230.609,130.758 230.880,129.722 231.829 M153.396 240.900 L 146.200 248.200 153.500 241.004 C 160.282 234.319,160.981 233.600,160.696 233.600 C 160.639 233.600,157.354 236.885,153.396 240.900 M90.325 237.355 C 89.074 238.049,87.904 238.769,87.725 238.956 C 87.380 239.316,91.784 237.118,92.800 236.423 C 94.060 235.561,92.501 236.148,90.325 237.355 M120.326 237.614 C 119.515 238.042,118.746 238.564,118.616 238.773 C 118.487 238.983,119.195 238.699,120.191 238.143 C 121.186 237.587,122.000 237.057,122.000 236.966 C 122.000 236.734,121.972 236.744,120.326 237.614 M297.764 244.600 C 297.763 248.340,297.823 249.924,297.897 248.120 C 297.971 246.315,297.972 243.255,297.898 241.320 C 297.825 239.384,297.764 240.860,297.764 244.600 M77.620 244.831 C 76.640 245.474,76.014 246.000,76.227 246.000 C 76.664 246.000,79.600 244.072,79.600 243.786 C 79.600 243.529,79.614 243.522,77.620 244.831 M98.700 249.627 C 97.875 250.063,97.200 250.508,97.200 250.618 C 97.200 250.727,97.920 250.449,98.800 250.000 C 99.680 249.551,100.400 249.097,100.400 248.992 C 100.400 248.730,100.397 248.731,98.700 249.627 M141.565 252.700 C 139.906 254.405,137.049 257.510,135.217 259.600 C 131.563 263.767,133.789 261.533,140.529 254.267 C 145.482 248.927,146.004 248.138,141.565 252.700 M68.778 251.900 L 67.400 253.400 68.900 252.022 C 70.296 250.738,70.584 250.400,70.278 250.400 C 70.212 250.400,69.537 251.075,68.778 251.900 M64.587 256.100 L 62.200 258.600 64.700 256.213 C 67.022 253.995,67.383 253.600,67.087 253.600 C 67.026 253.600,65.901 254.725,64.587 256.100 M81.375 260.900 L 80.200 262.200 81.598 261.000 C 82.367 260.340,83.072 259.755,83.165 259.700 C 83.257 259.645,83.157 259.600,82.942 259.600 C 82.726 259.600,82.021 260.185,81.375 260.900 M77.387 264.500 L 75.000 267.000 77.500 264.613 C 79.822 262.395,80.183 262.000,79.887 262.000 C 79.826 262.000,78.701 263.125,77.387 264.500 M129.797 265.900 C 128.721 267.165,128.256 267.840,128.764 267.400 C 129.729 266.564,132.183 263.600,131.910 263.600 C 131.823 263.600,130.872 264.635,129.797 265.900 M202.700 266.689 C 203.415 266.778,204.585 266.778,205.300 266.689 C 206.015 266.601,205.430 266.528,204.000 266.528 C 202.570 266.528,201.985 266.601,202.700 266.689 M73.172 269.100 C 71.473 270.932,70.338 272.552,69.456 274.400 C 69.089 275.170,69.016 275.460,69.294 275.045 C 69.572 274.630,70.408 273.370,71.151 272.245 C 71.894 271.120,73.054 269.615,73.729 268.900 C 74.404 268.185,74.868 267.600,74.760 267.600 C 74.651 267.600,73.937 268.275,73.172 269.100 M188.200 268.400 C 187.696 268.617,187.622 268.744,188.000 268.744 C 188.330 268.744,188.960 268.589,189.400 268.400 C 189.904 268.183,189.978 268.056,189.600 268.056 C 189.270 268.056,188.640 268.211,188.200 268.400 M218.600 268.400 C 219.040 268.589,219.670 268.744,220.000 268.744 C 220.378 268.744,220.304 268.617,219.800 268.400 C 219.360 268.211,218.730 268.056,218.400 268.056 C 218.022 268.056,218.096 268.183,218.600 268.400 M126.168 270.300 C 125.328 271.345,125.055 271.840,125.563 271.400 C 126.517 270.574,128.192 268.400,127.875 268.400 C 127.777 268.400,127.009 269.255,126.168 270.300 M54.181 270.437 C 53.829 271.118,53.612 271.745,53.699 271.832 C 53.786 271.919,54.156 271.362,54.522 270.595 C 55.344 268.870,55.059 268.738,54.181 270.437 M196.100 271.876 C 196.485 271.976,197.115 271.976,197.500 271.876 C 197.885 271.775,197.570 271.693,196.800 271.693 C 196.030 271.693,195.715 271.775,196.100 271.876 M235.600 275.164 C 236.150 275.614,236.780 275.983,237.000 275.985 C 237.428 275.988,236.705 275.434,235.400 274.760 C 234.869 274.485,234.936 274.621,235.600 275.164 M163.585 278.784 C 161.976 280.159,162.392 280.332,164.629 279.216 C 165.493 278.785,165.964 278.425,165.676 278.416 C 165.388 278.407,165.264 278.220,165.400 278.000 C 165.886 277.214,164.947 277.620,163.585 278.784 M240.800 278.525 C 240.800 278.594,241.385 279.179,242.100 279.825 L 243.400 281.000 242.225 279.700 C 241.130 278.488,240.800 278.216,240.800 278.525 M227.401 279.602 C 227.669 280.036,230.000 281.334,230.000 281.050 C 230.000 280.956,229.359 280.501,228.576 280.039 C 227.793 279.577,227.264 279.380,227.401 279.602 M244.817 282.243 C 246.652 284.492,248.400 286.362,248.400 286.076 C 248.400 285.897,247.860 285.232,247.200 284.600 C 246.540 283.968,246.000 283.257,246.000 283.021 C 246.000 282.785,245.595 282.344,245.100 282.040 C 244.244 281.514,244.230 281.523,244.817 282.243 M233.600 283.809 C 234.590 284.645,236.652 286.605,238.183 288.165 C 239.925 289.939,240.478 290.369,239.661 289.314 C 238.454 287.755,234.472 284.099,232.600 282.831 C 232.160 282.533,232.610 282.973,233.600 283.809 M248.800 286.623 C 248.800 287.004,250.821 290.000,251.078 290.000 C 251.269 290.000,251.027 289.580,249.717 287.644 C 249.213 286.898,248.800 286.439,248.800 286.623 M290.629 290.229 C 290.481 290.815,290.438 291.372,290.532 291.466 C 290.627 291.560,290.824 291.158,290.971 290.571 C 291.119 289.985,291.162 289.428,291.068 289.334 C 290.973 289.240,290.776 289.642,290.629 290.229 M110.400 294.000 C 109.734 295.320,109.278 296.400,109.388 296.400 C 109.498 296.400,110.134 295.320,110.800 294.000 C 111.466 292.680,111.922 291.600,111.812 291.600 C 111.702 291.600,111.066 292.680,110.400 294.000 M289.829 294.229 C 289.681 294.815,289.638 295.372,289.732 295.466 C 289.827 295.560,290.024 295.158,290.171 294.571 C 290.319 293.985,290.362 293.428,290.268 293.334 C 290.173 293.240,289.976 293.642,289.829 294.229 M62.466 299.000 C 62.436 301.420,62.544 303.608,62.706 303.863 C 62.868 304.118,62.949 302.588,62.887 300.463 C 62.719 294.699,62.527 294.030,62.466 299.000 M108.075 298.619 C 106.870 301.100,107.005 301.447,108.246 299.061 C 108.801 297.994,109.187 297.053,109.103 296.970 C 109.019 296.886,108.557 297.628,108.075 298.619 M288.250 302.450 C 288.109 303.153,288.069 303.802,288.159 303.892 C 288.250 303.983,288.448 303.491,288.600 302.800 C 288.752 302.109,288.793 301.459,288.691 301.358 C 288.589 301.256,288.391 301.747,288.250 302.450 M257.113 311.337 C 257.284 316.854,257.474 317.512,257.534 312.800 C 257.564 310.490,257.456 308.392,257.294 308.137 C 257.132 307.883,257.051 309.323,257.113 311.337 M248.893 310.800 C 248.893 311.570,248.975 311.885,249.076 311.500 C 249.176 311.115,249.176 310.485,249.076 310.100 C 248.975 309.715,248.893 310.030,248.893 310.800 M285.849 317.815 C 285.712 318.173,285.621 318.946,285.646 319.533 C 285.680 320.332,285.770 320.198,286.004 319.000 C 286.335 317.300,286.262 316.740,285.849 317.815 M100.229 320.629 C 100.081 321.215,100.038 321.772,100.132 321.866 C 100.227 321.960,100.424 321.558,100.571 320.971 C 100.719 320.385,100.762 319.828,100.668 319.734 C 100.573 319.640,100.376 320.042,100.229 320.629 M248.229 323.829 C 248.081 324.415,248.038 324.972,248.132 325.066 C 248.227 325.160,248.424 324.758,248.571 324.171 C 248.719 323.585,248.762 323.028,248.668 322.934 C 248.573 322.840,248.376 323.242,248.229 323.829 M70.386 325.973 C 70.827 326.838,71.361 327.652,71.571 327.782 C 71.782 327.912,71.499 327.205,70.943 326.209 C 69.701 323.987,69.282 323.809,70.386 325.973 M285.293 328.400 C 285.293 329.170,285.375 329.485,285.476 329.100 C 285.576 328.715,285.576 328.085,285.476 327.700 C 285.375 327.315,285.293 327.630,285.293 328.400 M72.314 329.004 C 72.541 329.447,73.148 330.166,73.663 330.602 C 74.567 331.366,74.565 331.352,73.606 330.197 C 72.013 328.279,71.879 328.155,72.314 329.004 M75.200 332.925 C 75.200 332.994,75.785 333.579,76.500 334.225 L 77.800 335.400 76.625 334.100 C 75.530 332.888,75.200 332.616,75.200 332.925 M80.006 338.200 C 81.772 340.169,85.646 343.678,88.132 345.560 C 88.829 346.088,88.320 345.553,87.000 344.372 C 85.680 343.190,83.163 340.868,81.406 339.212 C 79.232 337.161,78.785 336.838,80.006 338.200 M98.157 342.000 C 98.157 344.970,98.220 346.185,98.297 344.700 C 98.374 343.215,98.374 340.785,98.297 339.300 C 98.220 337.815,98.157 339.030,98.157 342.000 M241.712 339.300 C 240.154 341.613,239.759 342.406,240.765 341.200 C 241.715 340.063,243.253 337.600,243.015 337.600 C 242.928 337.600,242.341 338.365,241.712 339.300 M64.383 342.300 C 65.126 343.235,65.806 344.000,65.894 344.000 C 66.177 344.000,64.463 341.749,63.735 341.164 C 63.348 340.854,63.640 341.365,64.383 342.300 M90.198 347.137 C 90.634 347.652,91.353 348.259,91.796 348.486 C 92.645 348.921,92.521 348.787,90.603 347.194 C 89.448 346.235,89.434 346.233,90.198 347.137 M233.789 349.300 L 231.000 352.200 233.900 349.411 C 236.594 346.820,236.983 346.400,236.689 346.400 C 236.628 346.400,235.323 347.705,233.789 349.300 M289.243 347.975 C 289.800 349.141,293.072 352.703,294.083 353.244 C 294.477 353.455,293.753 352.586,292.476 351.314 C 291.198 350.041,289.843 348.550,289.465 348.000 L 288.777 347.000 289.243 347.975 M72.600 352.000 C 74.350 353.760,75.871 355.200,75.981 355.200 C 76.091 355.200,74.750 353.760,73.000 352.000 C 71.250 350.240,69.729 348.800,69.619 348.800 C 69.509 348.800,70.850 350.240,72.600 352.000 M93.544 349.576 C 94.064 350.029,94.679 350.400,94.911 350.400 C 95.403 350.400,95.379 350.380,93.800 349.455 L 92.600 348.753 93.544 349.576 M300.200 355.597 C 300.964 355.928,303.914 356.155,303.567 355.856 C 303.475 355.777,302.500 355.609,301.400 355.482 C 300.113 355.333,299.685 355.374,300.200 355.597 M310.433 356.940 C 310.928 357.356,315.736 359.606,315.400 359.264 C 314.937 358.793,311.034 356.800,310.575 356.800 C 310.406 356.800,310.342 356.863,310.433 356.940 M79.583 358.900 C 80.564 359.945,81.419 360.800,81.483 360.800 C 81.784 360.800,81.466 360.441,79.700 358.783 L 77.800 357.000 79.583 358.900 M246.851 362.988 C 248.308 364.535,249.698 366.160,249.938 366.600 C 250.199 367.076,250.381 367.176,250.388 366.847 C 250.395 366.543,249.005 364.917,247.300 363.235 L 244.200 360.176 246.851 362.988 M319.400 362.800 C 320.483 363.900,321.460 364.800,321.570 364.800 C 321.680 364.800,320.883 363.900,319.800 362.800 C 318.717 361.700,317.740 360.800,317.630 360.800 C 317.520 360.800,318.317 361.700,319.400 362.800 M260.000 361.684 C 260.000 362.116,261.215 364.800,261.411 364.800 C 261.521 364.800,261.333 364.134,260.993 363.321 C 260.393 361.886,260.000 361.238,260.000 361.684 M84.123 362.671 C 84.647 363.527,87.610 365.692,87.358 365.034 C 87.224 364.685,86.967 364.400,86.788 364.400 C 86.608 364.400,85.871 363.905,85.148 363.300 C 84.426 362.695,83.965 362.412,84.123 362.671 M88.097 365.833 C 88.227 366.044,89.191 366.832,90.237 367.584 C 91.284 368.335,92.033 368.778,91.903 368.567 C 91.773 368.356,90.809 367.568,89.763 366.816 C 88.716 366.065,87.967 365.622,88.097 365.833 M323.240 367.777 C 323.702 368.561,324.243 369.303,324.441 369.425 C 324.639 369.548,324.423 369.007,323.960 368.223 C 323.498 367.439,322.957 366.697,322.759 366.575 C 322.561 366.452,322.777 366.993,323.240 367.777 M254.456 376.000 C 254.456 376.330,254.611 376.960,254.800 377.400 C 255.017 377.904,255.144 377.978,255.144 377.600 C 255.144 377.270,254.989 376.640,254.800 376.200 C 254.583 375.696,254.456 375.622,254.456 376.000 M267.923 377.000 C 268.155 377.440,268.913 378.430,269.608 379.200 L 270.872 380.600 269.565 378.800 C 267.964 376.596,267.364 375.938,267.923 377.000 M108.000 377.800 C 108.550 378.114,109.180 378.372,109.400 378.372 C 109.620 378.372,109.350 378.114,108.800 377.800 C 108.250 377.486,107.620 377.228,107.400 377.228 C 107.180 377.228,107.450 377.486,108.000 377.800 M272.000 382.163 C 273.056 383.342,276.800 386.584,276.800 386.319 C 276.800 386.233,275.495 385.012,273.900 383.604 C 272.305 382.197,271.450 381.549,272.000 382.163 M149.105 388.283 C 149.602 388.379,150.322 388.375,150.705 388.275 C 151.087 388.175,150.680 388.096,149.800 388.101 C 148.920 388.105,148.607 388.187,149.105 388.283 M320.600 388.400 C 320.096 388.617,320.022 388.744,320.400 388.744 C 320.730 388.744,321.360 388.589,321.800 388.400 C 322.304 388.183,322.378 388.056,322.000 388.056 C 321.670 388.056,321.040 388.211,320.600 388.400 M219.300 388.676 C 219.685 388.776,220.315 388.776,220.700 388.676 C 221.085 388.575,220.770 388.493,220.000 388.493 C 219.230 388.493,218.915 388.575,219.300 388.676 M160.300 389.093 C 161.235 389.177,162.765 389.177,163.700 389.093 C 164.635 389.009,163.870 388.940,162.000 388.940 C 160.130 388.940,159.365 389.009,160.300 389.093 M191.916 389.097 C 193.299 389.175,195.459 389.174,196.716 389.095 C 197.972 389.016,196.840 388.952,194.200 388.953 C 191.560 388.953,190.532 389.018,191.916 389.097 M166.700 389.482 C 167.195 389.578,168.005 389.578,168.500 389.482 C 168.995 389.387,168.590 389.309,167.600 389.309 C 166.610 389.309,166.205 389.387,166.700 389.482 M183.300 389.487 C 183.905 389.578,184.895 389.578,185.500 389.487 C 186.105 389.395,185.610 389.320,184.400 389.320 C 183.190 389.320,182.695 389.395,183.300 389.487 " stroke="none" fill="#9c8aaa" fill-rule="evenodd"></path><path id="path4" d="M232.950 130.600 C 232.951 133.020,233.016 133.958,233.096 132.685 C 233.176 131.412,233.175 129.432,233.094 128.285 C 233.014 127.138,232.949 128.180,232.950 130.600 M201.375 195.300 L 200.200 196.600 201.500 195.425 C 202.215 194.779,202.800 194.194,202.800 194.125 C 202.800 193.816,202.470 194.088,201.375 195.300 M298.114 244.600 C 298.117 245.700,298.195 246.103,298.287 245.495 C 298.379 244.886,298.377 243.986,298.282 243.495 C 298.187 243.003,298.111 243.500,298.114 244.600 M201.300 267.076 C 201.685 267.176,202.315 267.176,202.700 267.076 C 203.085 266.975,202.770 266.893,202.000 266.893 C 201.230 266.893,200.915 266.975,201.300 267.076 M205.505 267.083 C 206.002 267.179,206.722 267.175,207.105 267.075 C 207.487 266.975,207.080 266.896,206.200 266.901 C 205.320 266.905,205.007 266.987,205.505 267.083 M243.200 280.925 C 243.200 280.994,243.785 281.579,244.500 282.225 L 245.800 283.400 244.625 282.100 C 243.530 280.888,243.200 280.616,243.200 280.925 M74.200 354.000 C 75.059 354.880,75.852 355.600,75.962 355.600 C 76.072 355.600,75.459 354.880,74.600 354.000 C 73.741 353.120,72.948 352.400,72.838 352.400 C 72.728 352.400,73.341 353.120,74.200 354.000 M199.500 389.082 C 199.995 389.178,200.805 389.178,201.300 389.082 C 201.795 388.987,201.390 388.909,200.400 388.909 C 199.410 388.909,199.005 388.987,199.500 389.082 M187.300 389.487 C 187.905 389.578,188.895 389.578,189.500 389.487 C 190.105 389.395,189.610 389.320,188.400 389.320 C 187.190 389.320,186.695 389.395,187.300 389.487 " stroke="none" fill="#9c94a9" fill-rule="evenodd"></path></g></svg>