<?xml version="1.0" encoding="UTF-8" ?>
<!DOCTYPE svg PUBLIC "-//W3C//DTD SVG 1.1//EN" "http://www.w3.org/Graphics/SVG/1.1/DTD/svg11.dtd">
<svg width="338pt" height="338pt" viewBox="0 0 338 338" version="1.1" xmlns="http://www.w3.org/2000/svg">
<g id="#ffffffff">
<path fill="#ffffff" opacity="1.00" d=" M 236.97 189.35 C 237.76 188.05 239.33 186.59 240.70 188.20 C 241.23 190.14 240.65 192.15 240.47 194.09 C 239.29 192.52 238.16 190.91 236.97 189.35 Z" />
</g>
<g id="#0e76a9ff">
<path fill="#0e76a9" opacity="1.00" d=" M 152.58 4.85 C 184.13 1.58 216.56 7.64 244.76 22.16 C 269.88 34.98 291.61 54.34 307.18 77.86 C 326.36 106.63 336.25 141.49 334.88 176.05 C 333.77 209.46 322.16 242.40 302.20 269.20 C 285.43 291.92 262.65 310.12 236.87 321.61 C 209.67 333.85 179.09 338.43 149.49 334.76 C 116.13 330.81 84.19 316.21 59.20 293.78 C 33.73 271.05 15.65 240.20 8.14 206.90 C 1.40 177.47 2.92 146.20 12.47 117.56 C 22.64 86.89 41.91 59.23 67.41 39.34 C 91.79 20.12 121.69 8.01 152.58 4.85 M 110.79 70.91 C 108.11 78.71 109.29 87.01 109.28 95.07 C 109.37 100.11 110.97 104.96 111.52 109.95 L 110.91 110.64 L 111.17 111.68 L 112.03 111.98 C 110.90 116.39 109.09 120.58 107.71 124.92 C 105.59 132.83 104.11 140.88 102.69 148.93 C 101.66 152.71 98.90 156.61 100.76 160.58 L 100.74 160.92 C 102.11 161.63 103.80 162.53 105.38 162.10 C 105.05 163.71 104.94 165.35 104.80 166.98 C 107.10 168.70 110.01 168.36 112.61 169.15 C 115.21 171.50 117.19 174.47 119.92 176.70 C 117.54 177.43 120.87 180.32 122.05 178.53 C 126.62 181.87 131.74 184.37 137.10 186.18 C 137.18 186.64 137.35 187.55 137.43 188.01 C 136.19 193.37 133.22 198.05 131.28 203.15 C 128.81 209.81 125.32 216.01 122.28 222.41 C 116.58 233.47 110.86 245.30 111.58 258.08 C 101.78 254.75 92.60 248.21 87.61 238.96 C 89.15 237.81 87.77 234.40 85.85 235.40 C 81.27 224.24 81.61 209.47 91.28 201.09 C 93.73 201.05 97.96 199.68 98.78 203.02 C 100.01 208.36 99.68 215.64 105.57 218.28 C 105.59 218.29 105.64 218.30 105.66 218.31 C 110.74 220.66 116.58 217.60 118.69 212.72 C 124.45 199.72 114.87 182.81 100.87 180.78 C 90.57 178.61 79.21 182.66 72.74 191.02 C 65.96 199.38 64.13 210.72 65.25 221.18 C 67.15 234.46 71.98 247.90 81.68 257.51 C 89.10 265.70 99.21 270.79 109.51 274.38 C 109.54 274.39 109.59 274.41 109.62 274.42 C 113.43 275.43 117.26 276.34 121.08 277.32 C 122.40 278.14 123.19 279.59 124.21 280.74 C 136.04 285.49 149.12 282.04 161.40 283.75 C 161.07 285.81 165.60 285.92 165.72 284.09 C 168.77 284.02 171.74 283.14 174.76 282.77 C 175.18 282.36 176.02 281.52 176.44 281.11 C 183.65 280.91 190.87 281.16 198.08 280.99 C 199.94 281.02 201.61 280.00 202.94 278.78 C 204.61 279.10 205.25 278.44 204.85 276.82 C 204.82 274.67 205.23 272.43 204.55 270.36 C 203.73 268.92 202.37 267.91 201.18 266.82 C 201.15 266.68 201.10 266.40 201.08 266.26 C 203.22 262.28 206.29 258.78 207.58 254.38 C 209.68 247.82 210.01 240.15 206.41 234.04 C 206.34 232.51 206.98 231.34 208.33 230.53 C 211.52 231.37 214.75 232.23 218.05 232.52 C 224.71 232.48 231.31 229.56 235.73 224.57 C 239.22 220.06 242.02 214.80 242.96 209.14 C 243.63 205.38 241.92 201.80 241.70 198.13 C 242.76 194.54 243.40 190.85 243.08 187.09 C 241.82 186.21 240.71 184.74 239.01 184.94 C 237.35 184.92 236.28 186.46 234.86 187.08 C 232.52 186.80 229.81 184.73 227.69 186.67 C 224.62 189.03 226.51 193.24 226.91 196.38 C 226.86 196.53 226.75 196.81 226.70 196.95 C 224.47 199.44 221.02 199.41 217.97 198.87 C 213.84 196.43 211.03 192.22 209.06 187.94 C 210.62 188.16 211.17 187.53 210.71 186.04 C 219.46 183.34 227.59 178.20 233.18 170.87 C 235.45 167.42 240.77 169.51 243.05 165.83 C 242.96 165.39 242.77 164.50 242.67 164.06 C 242.45 161.23 245.43 160.80 247.51 160.31 C 247.52 160.13 247.54 159.76 247.55 159.57 C 247.56 155.51 245.66 151.84 244.86 147.94 C 242.57 138.04 241.22 127.87 237.64 118.31 C 236.92 116.22 235.39 114.33 235.27 112.09 C 238.61 99.09 240.27 85.20 237.28 71.98 C 236.82 68.38 233.63 65.40 229.99 65.39 C 221.73 66.40 214.19 70.34 207.53 75.18 C 206.65 75.15 204.88 75.08 204.00 75.05 C 202.07 75.28 202.22 77.62 202.02 79.04 C 199.21 76.73 195.41 77.07 192.13 75.95 C 187.39 74.35 182.30 75.47 177.49 74.25 C 177.11 71.98 172.01 72.13 171.38 74.06 C 166.04 75.60 160.33 74.19 155.07 76.04 C 151.68 77.15 147.91 77.05 144.91 79.19 C 139.37 73.65 132.29 69.93 124.97 67.35 C 122.39 66.48 119.74 65.53 116.99 65.65 C 113.99 65.65 111.58 68.17 110.79 70.91 M 250.59 174.20 C 251.53 178.14 254.29 181.33 256.16 184.87 C 257.49 187.07 259.50 190.49 262.55 188.73 C 266.42 185.71 271.33 184.20 274.85 180.74 C 278.09 177.60 277.79 171.60 273.73 169.28 C 271.56 168.15 267.98 166.73 266.24 169.22 C 267.97 169.43 269.82 169.17 271.48 169.81 C 270.17 169.11 266.73 169.50 267.50 171.59 C 266.95 171.94 265.84 172.65 265.29 173.00 C 264.93 172.40 264.21 171.20 263.84 170.60 L 264.57 171.38 C 264.97 170.90 265.77 169.95 266.18 169.48 C 264.07 168.47 262.40 166.82 260.58 165.41 C 255.38 163.02 249.16 168.81 250.59 174.20 Z" />
</g>
<g id="#040264ff">
<path fill="#040264" opacity="1.00" d=" M 110.79 70.91 C 111.58 68.17 113.99 65.65 116.99 65.65 C 119.74 65.53 122.39 66.48 124.97 67.35 C 132.29 69.93 139.37 73.65 144.91 79.19 C 147.91 77.05 151.68 77.15 155.07 76.04 C 160.33 74.19 166.04 75.60 171.38 74.06 C 173.42 74.02 175.46 74.09 177.49 74.25 C 182.30 75.47 187.39 74.35 192.13 75.95 C 195.41 77.07 199.21 76.73 202.02 79.04 C 203.89 77.79 205.70 76.47 207.53 75.18 C 214.19 70.34 221.73 66.40 229.99 65.39 C 233.63 65.40 236.82 68.38 237.28 71.98 C 240.27 85.20 238.61 99.09 235.27 112.09 C 235.39 114.33 236.92 116.22 237.64 118.31 C 241.22 127.87 242.57 138.04 244.86 147.94 C 245.66 151.84 247.56 155.51 247.55 159.57 C 245.85 160.72 243.80 160.52 241.88 160.35 C 242.15 161.58 242.42 162.82 242.67 164.06 C 242.77 164.50 242.96 165.39 243.05 165.83 C 240.77 169.51 235.45 167.42 233.18 170.87 C 227.59 178.20 219.46 183.34 210.71 186.04 C 210.22 186.36 209.26 186.98 208.77 187.30 L 209.06 187.94 C 211.03 192.22 213.84 196.43 217.97 198.87 C 221.02 199.41 224.47 199.44 226.70 196.95 L 226.98 196.74 L 226.91 196.38 C 226.51 193.24 224.62 189.03 227.69 186.67 C 229.81 184.73 232.52 186.80 234.86 187.08 C 236.28 186.46 237.35 184.92 239.01 184.94 C 240.71 184.74 241.82 186.21 243.08 187.09 C 243.40 190.85 242.76 194.54 241.70 198.13 C 241.92 201.80 243.63 205.38 242.96 209.14 C 242.02 214.80 239.22 220.06 235.73 224.57 C 231.31 229.56 224.71 232.48 218.05 232.52 C 214.75 232.23 211.52 231.37 208.33 230.53 C 207.16 230.16 206.01 229.76 204.86 229.36 C 205.33 230.93 205.81 232.51 206.41 234.04 C 210.01 240.15 209.68 247.82 207.58 254.38 C 206.29 258.78 203.22 262.28 201.08 266.26 L 200.90 266.57 L 201.18 266.82 C 202.37 267.91 203.73 268.92 204.55 270.36 C 205.23 272.43 204.82 274.67 204.85 276.82 C 203.81 277.00 203.17 277.65 202.94 278.78 C 201.61 280.00 199.94 281.02 198.08 280.99 C 190.87 281.16 183.65 280.91 176.44 281.11 C 176.02 281.52 175.18 282.36 174.76 282.77 C 171.74 283.14 168.77 284.02 165.72 284.09 C 164.28 283.98 162.84 283.86 161.40 283.75 C 149.12 282.04 136.04 285.49 124.21 280.74 C 123.19 279.59 122.40 278.14 121.08 277.32 C 117.26 276.34 113.43 275.43 109.62 274.42 C 109.59 274.41 109.54 274.39 109.51 274.38 C 99.21 270.79 89.10 265.70 81.68 257.51 C 71.98 247.90 67.15 234.46 65.25 221.18 C 64.13 210.72 65.96 199.38 72.74 191.02 C 79.21 182.66 90.57 178.61 100.87 180.78 C 114.87 182.81 124.45 199.72 118.69 212.72 C 116.58 217.60 110.74 220.66 105.66 218.31 C 105.64 218.30 105.59 218.29 105.57 218.28 C 99.68 215.64 100.01 208.36 98.78 203.02 C 97.96 199.68 93.73 201.05 91.28 201.09 C 81.61 209.47 81.27 224.24 85.85 235.40 C 86.20 236.68 86.86 237.86 87.61 238.96 C 92.60 248.21 101.78 254.75 111.58 258.08 C 110.86 245.30 116.58 233.47 122.28 222.41 C 125.32 216.01 128.81 209.81 131.28 203.15 C 133.22 198.05 136.19 193.37 137.43 188.01 L 138.19 187.80 C 137.91 187.40 137.37 186.59 137.10 186.18 C 131.74 184.37 126.62 181.87 122.05 178.53 C 121.35 177.90 120.65 177.29 119.92 176.70 C 117.19 174.47 115.21 171.50 112.61 169.15 C 110.01 168.36 107.10 168.70 104.80 166.98 C 104.94 165.35 105.05 163.71 105.38 162.10 C 105.47 161.66 105.63 160.79 105.72 160.36 C 104.06 160.17 102.40 160.35 100.76 160.58 C 98.90 156.61 101.66 152.71 102.69 148.93 C 104.11 140.88 105.59 132.83 107.71 124.92 C 109.09 120.58 110.90 116.39 112.03 111.98 C 111.90 111.47 111.65 110.45 111.52 109.95 C 110.97 104.96 109.37 100.11 109.28 95.07 C 109.29 87.01 108.11 78.71 110.79 70.91 M 116.35 68.67 C 113.85 69.10 113.35 72.40 112.62 74.46 C 110.48 87.27 112.05 100.46 115.33 112.94 C 114.22 116.01 112.36 118.79 111.70 122.03 C 107.23 133.59 107.29 146.33 102.43 157.76 C 104.50 157.23 106.55 156.56 108.47 155.59 C 110.80 156.60 109.88 158.88 109.20 160.69 C 108.21 162.16 107.72 163.88 107.17 165.55 C 111.11 165.14 114.95 166.48 117.11 169.93 C 126.65 182.32 142.80 185.51 157.18 188.76 C 159.48 189.52 162.62 189.09 164.15 191.32 C 156.28 191.28 148.48 189.77 140.91 187.72 C 140.32 189.11 139.73 190.50 139.16 191.90 C 134.11 204.22 128.50 216.30 122.38 228.13 C 117.70 237.58 112.90 247.84 114.43 258.69 C 115.25 263.91 118.01 268.55 121.40 272.52 C 123.50 274.80 124.28 278.71 127.72 279.37 C 131.03 280.38 134.53 280.39 137.95 280.69 C 141.29 280.80 145.08 281.09 147.90 278.94 C 149.68 277.43 148.94 275.04 148.89 273.04 C 148.56 272.63 147.90 271.82 147.57 271.41 C 142.26 268.46 135.70 268.98 130.03 270.54 C 134.64 267.38 140.63 267.30 145.94 268.30 C 152.03 262.58 156.31 254.49 155.84 245.98 C 156.08 238.92 151.62 232.56 145.96 228.75 C 144.48 227.66 142.56 226.93 141.88 225.07 C 143.64 225.36 145.31 226.04 146.94 226.74 C 147.42 224.70 146.99 222.02 148.94 220.67 C 149.15 223.23 149.27 225.80 149.44 228.37 C 153.29 231.28 156.64 235.10 158.02 239.81 C 160.65 248.43 158.19 257.91 153.02 265.10 C 153.61 269.76 154.40 274.43 155.80 278.92 C 156.25 280.74 158.51 280.76 159.97 281.16 C 165.60 281.83 172.40 282.41 176.72 277.97 C 174.11 274.61 169.89 273.86 165.88 274.14 C 167.87 273.18 170.05 272.68 172.25 272.44 C 172.17 259.62 173.11 246.82 174.75 234.12 C 175.01 231.84 175.95 229.73 177.04 227.75 C 177.32 228.28 177.88 229.35 178.16 229.89 C 178.11 235.55 176.48 241.09 176.32 246.76 C 175.34 255.40 175.10 264.11 175.15 272.79 C 176.43 273.84 177.70 274.92 178.94 276.02 C 184.98 272.18 188.47 265.73 191.42 259.43 C 193.33 255.21 195.53 251.08 196.77 246.60 L 196.95 246.49 C 201.95 234.17 205.17 221.13 206.43 207.89 C 206.50 206.86 206.92 205.99 207.69 205.28 C 207.80 206.17 208.04 207.95 208.15 208.84 C 207.34 214.67 207.17 220.59 205.72 226.31 C 214.27 231.57 226.77 231.39 233.50 223.24 C 229.34 224.26 224.76 225.11 220.80 222.94 C 219.12 221.31 217.53 219.46 216.92 217.15 C 215.50 212.05 214.86 205.80 219.01 201.75 C 214.01 200.43 210.65 196.17 208.16 191.90 C 207.50 190.51 206.84 189.13 206.17 187.75 C 198.81 189.86 191.19 191.16 183.54 191.38 C 184.80 189.12 187.86 189.61 190.01 188.88 C 202.27 186.05 215.45 183.68 225.35 175.33 C 228.37 173.00 230.41 169.71 233.20 167.16 C 235.19 165.32 238.11 165.86 240.58 165.39 C 239.51 162.94 238.50 160.45 237.66 157.90 L 237.04 158.45 C 237.51 157.42 238.15 156.54 238.97 155.81 C 241.04 156.49 243.09 157.23 245.22 157.74 C 243.74 153.59 242.12 149.47 241.45 145.09 C 239.56 134.02 237.28 122.84 232.19 112.73 C 235.86 100.97 236.62 88.35 235.32 76.14 C 234.79 72.82 233.60 67.45 229.06 68.47 C 219.30 70.08 210.69 75.86 203.41 82.33 C 190.70 77.34 176.52 76.00 163.03 77.87 C 157.59 78.11 152.25 79.46 147.12 81.23 C 145.82 81.83 144.36 81.75 142.97 81.76 C 142.82 81.67 142.54 81.49 142.39 81.39 C 141.43 79.23 139.16 78.16 137.39 76.76 C 137.36 76.74 137.29 76.69 137.26 76.67 C 134.20 74.61 131.02 72.68 127.57 71.37 L 127.55 70.45 L 126.63 69.88 L 125.78 70.27 C 124.68 69.86 123.56 69.58 122.41 69.40 C 122.24 67.11 117.21 67.00 116.35 68.67 M 72.18 196.20 C 66.96 205.08 66.56 215.97 68.56 225.86 C 70.55 236.02 74.49 246.24 81.78 253.79 C 90.81 265.16 105.03 271.20 118.94 274.14 C 117.07 271.68 115.26 269.17 113.92 266.37 L 113.62 266.32 C 112.86 264.23 112.74 261.22 110.10 260.59 C 101.21 256.69 92.57 251.25 87.06 243.06 C 80.27 232.75 78.95 219.20 83.14 207.63 L 83.45 207.77 C 83.54 207.19 83.73 206.05 83.82 205.47 C 86.42 202.65 88.84 198.93 92.91 198.22 C 95.07 198.06 97.87 197.61 99.41 199.54 C 103.03 203.31 100.86 209.17 103.72 213.31 C 105.71 217.05 111.41 217.36 114.33 214.58 C 119.68 209.06 118.78 200.10 115.04 193.96 C 112.11 188.72 107.02 184.63 101.10 183.37 C 89.99 180.50 77.82 186.44 72.18 196.20 M 236.97 189.35 C 238.16 190.91 239.29 192.52 240.47 194.09 C 240.65 192.15 241.23 190.14 240.70 188.20 C 239.33 186.59 237.76 188.05 236.97 189.35 M 228.62 189.09 C 227.75 192.47 229.84 195.70 231.48 198.49 C 227.26 199.80 222.79 201.50 220.03 205.14 C 218.40 207.09 218.83 209.74 218.75 212.08 C 219.39 215.27 219.95 219.18 223.15 220.86 C 229.93 223.13 238.30 218.79 239.82 211.66 L 240.01 211.58 C 241.37 204.05 239.13 195.72 233.82 190.16 C 232.52 189.02 230.06 187.13 228.62 189.09 M 203.94 234.81 C 201.37 244.71 197.40 254.15 193.07 263.38 C 192.27 264.58 191.46 265.77 190.63 266.95 C 191.08 267.45 191.54 267.94 192.00 268.43 C 192.52 266.26 195.18 267.00 196.78 266.42 C 199.55 263.71 202.04 260.68 203.69 257.15 C 207.15 250.31 208.00 241.59 203.94 234.81 M 148.96 269.04 C 151.83 272.31 152.31 277.70 149.79 281.28 C 151.04 281.29 152.29 281.31 153.54 281.35 C 152.02 277.13 151.41 272.68 150.59 268.29 C 150.18 268.48 149.37 268.85 148.96 269.04 M 189.53 268.96 C 188.57 271.15 186.97 272.93 185.37 274.68 C 183.63 276.03 181.90 277.40 180.18 278.79 C 186.41 278.43 192.74 279.18 198.91 278.07 C 200.97 277.71 201.85 275.71 202.66 274.04 C 202.34 272.57 202.68 270.65 201.14 269.77 C 197.70 267.42 193.35 268.29 189.53 268.96 Z" />
<path fill="#040264" opacity="1.00" d=" M 173.76 154.17 C 174.11 154.71 174.46 155.25 174.82 155.80 C 175.47 156.74 176.12 157.68 176.77 158.62 C 180.05 159.85 182.54 157.75 184.42 155.29 C 185.30 158.78 181.28 162.09 177.96 161.23 C 176.18 160.91 174.98 159.52 173.81 158.29 C 172.43 159.60 171.03 161.23 168.97 161.32 C 165.57 161.79 162.82 158.54 162.76 155.34 C 164.55 156.57 165.88 158.50 167.96 159.27 C 169.58 159.09 171.11 158.29 172.06 156.97 C 172.64 156.04 173.21 155.11 173.76 154.17 Z" />
</g>
<g id="#76262dff">
<path fill="#76262d" opacity="1.00" d=" M 116.35 68.67 C 117.21 67.00 122.24 67.11 122.41 69.40 C 120.38 69.18 118.37 68.92 116.35 68.67 Z" />
</g>
<g id="#f9744bff">
<path fill="#f9744b" opacity="1.00" d=" M 112.62 74.46 C 113.35 72.40 113.85 69.10 116.35 68.67 C 118.37 68.92 120.38 69.18 122.41 69.40 C 123.56 69.58 124.68 69.86 125.78 70.27 C 126.23 70.54 127.12 71.09 127.57 71.37 C 131.02 72.68 134.20 74.61 137.26 76.67 C 137.29 76.69 137.36 76.74 137.39 76.76 C 139.16 78.16 141.43 79.23 142.39 81.39 L 142.58 81.77 L 142.97 81.76 C 144.36 81.75 145.82 81.83 147.12 81.23 C 152.25 79.46 157.59 78.11 163.03 77.87 C 163.99 77.85 165.91 77.80 166.87 77.77 C 166.54 94.12 157.12 109.60 143.55 118.46 C 134.02 124.87 122.39 127.49 111.00 126.71 C 111.21 125.14 111.44 123.58 111.70 122.03 C 112.36 118.79 114.22 116.01 115.33 112.94 C 112.05 100.46 110.48 87.27 112.62 74.46 M 118.33 72.99 L 118.21 73.49 C 117.15 74.75 116.18 76.16 116.12 77.87 C 115.48 83.28 115.43 88.84 116.45 94.20 C 115.23 95.51 115.08 99.55 117.31 99.55 C 117.34 101.22 117.81 102.83 118.22 104.43 L 118.28 105.21 C 118.12 107.54 123.26 106.33 121.56 104.22 C 124.57 98.51 128.82 93.53 133.85 89.50 C 135.34 91.09 139.38 88.02 137.10 86.82 C 137.54 86.37 138.43 85.48 138.87 85.04 C 136.72 82.60 134.30 80.41 131.63 78.57 C 131.59 78.54 131.53 78.50 131.49 78.48 C 131.02 78.20 130.07 77.63 129.60 77.35 L 129.65 76.43 L 128.76 75.81 L 127.87 76.15 C 127.48 75.94 126.69 75.51 126.29 75.29 L 126.84 74.75 L 126.52 73.94 C 126.14 74.05 125.37 74.28 124.99 74.40 C 124.42 74.24 123.27 73.93 122.70 73.77 L 122.67 73.19 C 122.88 71.04 118.19 70.84 118.33 72.99 Z" />
</g>
<g id="#fffffeff">
<path fill="#fffffe" opacity="1.00" d=" M 203.41 82.33 C 210.69 75.86 219.30 70.08 229.06 68.47 C 233.60 67.45 234.79 72.82 235.32 76.14 C 236.62 88.35 235.86 100.97 232.19 112.73 C 237.28 122.84 239.56 134.02 241.45 145.09 C 242.12 149.47 243.74 153.59 245.22 157.74 C 243.09 157.23 241.04 156.49 238.97 155.81 C 238.15 156.54 237.51 157.42 237.04 158.45 C 231.77 162.34 228.17 168.06 222.56 171.52 C 212.66 178.00 200.80 180.29 189.34 182.38 C 174.14 185.21 158.47 183.28 143.66 179.31 C 135.47 177.03 127.11 174.13 120.75 168.25 C 117.60 165.59 115.41 161.92 111.95 159.62 C 111.01 159.93 110.10 160.28 109.20 160.69 C 109.88 158.88 110.80 156.60 108.47 155.59 C 106.55 156.56 104.50 157.23 102.43 157.76 C 107.29 146.33 107.23 133.59 111.70 122.03 C 111.44 123.58 111.21 125.14 111.00 126.71 C 122.39 127.49 134.02 124.87 143.55 118.46 C 157.12 109.60 166.54 94.12 166.87 77.77 C 165.91 77.80 163.99 77.85 163.03 77.87 C 176.52 76.00 190.70 77.34 203.41 82.33 M 209.10 85.04 C 213.97 90.09 220.39 93.72 223.89 100.05 C 225.51 101.83 226.21 105.66 229.10 105.45 C 230.95 102.32 231.04 98.54 231.61 95.04 C 232.29 88.46 233.19 81.52 231.07 75.11 C 230.12 72.72 227.09 72.02 225.04 73.46 C 219.19 76.46 213.48 80.06 209.10 85.04 M 148.36 125.48 C 142.76 127.79 139.91 134.20 140.07 140.00 C 139.91 144.37 141.35 149.29 145.21 151.77 C 148.37 153.93 152.79 152.98 155.40 150.39 C 160.39 145.47 161.81 137.35 158.98 130.98 C 157.42 126.85 152.75 123.82 148.36 125.48 M 195.43 125.53 C 191.93 126.98 189.91 130.61 189.18 134.17 C 187.91 140.46 189.92 147.89 195.41 151.62 C 198.65 153.91 203.51 153.17 205.97 150.05 C 210.16 144.99 210.14 137.41 207.28 131.71 C 205.29 127.36 200.35 123.66 195.43 125.53 M 169.87 147.73 C 168.76 148.41 167.82 149.47 168.06 150.87 C 169.27 153.36 174.63 153.51 172.06 156.97 C 171.11 158.29 169.58 159.09 167.96 159.27 C 165.88 158.50 164.55 156.57 162.76 155.34 C 162.82 158.54 165.57 161.79 168.97 161.32 C 171.03 161.23 172.43 159.60 173.81 158.29 C 174.98 159.52 176.18 160.91 177.96 161.23 C 181.28 162.09 185.30 158.78 184.42 155.29 C 182.54 157.75 180.05 159.85 176.77 158.62 C 176.12 157.68 175.47 156.74 174.82 155.80 C 175.17 152.91 179.48 152.93 180.56 150.13 C 179.75 149.29 178.91 148.47 178.06 147.68 C 175.41 146.72 172.49 146.66 169.87 147.73 M 129.28 160.87 C 130.03 162.06 130.47 163.76 132.10 164.04 C 136.02 165.14 141.99 165.50 143.82 160.95 C 139.86 157.28 133.24 157.14 129.28 160.87 M 207.50 158.64 C 206.35 159.00 205.32 159.68 204.47 160.52 C 203.62 162.78 206.20 164.20 208.07 164.43 C 210.92 164.74 214.10 165.04 216.66 163.51 C 217.86 162.84 218.39 160.82 217.09 159.96 C 214.53 157.60 210.64 158.08 207.50 158.64 Z" />
<path fill="#fffffe" opacity="1.00" d=" M 139.16 191.90 C 144.03 193.47 148.88 195.13 153.88 196.23 C 171.91 200.32 190.94 198.46 208.16 191.90 C 210.65 196.17 214.01 200.43 219.01 201.75 C 214.86 205.80 215.50 212.05 216.92 217.15 C 217.53 219.46 219.12 221.31 220.80 222.94 C 214.73 220.22 211.85 213.94 208.15 208.84 C 208.04 207.95 207.80 206.17 207.69 205.28 C 206.92 205.99 206.50 206.86 206.43 207.89 C 205.17 221.13 201.95 234.17 196.95 246.49 L 196.77 246.60 C 193.21 248.45 189.88 251.22 185.76 251.64 C 181.90 252.06 179.08 248.93 176.32 246.76 C 176.48 241.09 178.11 235.55 178.16 229.89 C 177.88 229.35 177.32 228.28 177.04 227.75 C 175.95 229.73 175.01 231.84 174.75 234.12 C 173.11 246.82 172.17 259.62 172.25 272.44 C 170.05 272.68 167.87 273.18 165.88 274.14 C 169.89 273.86 174.11 274.61 176.72 277.97 C 172.40 282.41 165.60 281.83 159.97 281.16 C 158.51 280.76 156.25 280.74 155.80 278.92 C 154.40 274.43 153.61 269.76 153.02 265.10 C 158.19 257.91 160.65 248.43 158.02 239.81 C 156.64 235.10 153.29 231.28 149.44 228.37 C 149.27 225.80 149.15 223.23 148.94 220.67 C 146.99 222.02 147.42 224.70 146.94 226.74 C 145.31 226.04 143.64 225.36 141.88 225.07 C 142.56 226.93 144.48 227.66 145.96 228.75 C 151.62 232.56 156.08 238.92 155.84 245.98 C 156.31 254.49 152.03 262.58 145.94 268.30 C 140.63 267.30 134.64 267.38 130.03 270.54 C 135.70 268.98 142.26 268.46 147.57 271.41 C 147.90 271.82 148.56 272.63 148.89 273.04 C 147.43 276.02 143.84 276.29 140.95 276.68 C 136.14 277.16 130.45 276.77 127.10 272.82 C 125.95 270.56 126.36 267.83 125.70 265.41 C 121.78 263.44 117.75 261.62 114.43 258.69 C 112.90 247.84 117.70 237.58 122.38 228.13 C 128.50 216.30 134.11 204.22 139.16 191.90 Z" />
</g>
<g id="#4d0e23ff">
<path fill="#4d0e23" opacity="1.00" d=" M 125.78 70.27 L 126.63 69.88 L 127.55 70.45 L 127.57 71.37 C 127.12 71.09 126.23 70.54 125.78 70.27 Z" />
</g>
<g id="#b1728bff">
<path fill="#b1728b" opacity="1.00" d=" M 118.33 72.99 C 118.19 70.84 122.88 71.04 122.67 73.19 C 121.26 72.81 119.77 72.83 118.33 72.99 Z" />
</g>
<g id="#4d0e25ff">
<path fill="#4d0e25" opacity="1.00" d=" M 118.33 72.99 C 119.77 72.83 121.26 72.81 122.67 73.19 L 122.70 73.77 C 121.27 74.40 119.46 74.66 118.21 73.49 L 118.33 72.99 Z" />
</g>
<g id="#6271b4ff">
<path fill="#6271b4" opacity="1.00" d=" M 171.38 74.06 C 172.01 72.13 177.11 71.98 177.49 74.25 C 175.46 74.09 173.42 74.02 171.38 74.06 Z" />
</g>
<g id="#070265ff">
<path fill="#070265" opacity="1.00" d=" M 209.10 85.04 C 213.48 80.06 219.19 76.46 225.04 73.46 C 227.09 72.02 230.12 72.72 231.07 75.11 C 233.19 81.52 232.29 88.46 231.61 95.04 C 231.04 98.54 230.95 102.32 229.10 105.45 C 226.21 105.66 225.51 101.83 223.89 100.05 C 220.39 93.72 213.97 90.09 209.10 85.04 M 212.92 84.96 C 216.86 88.76 221.39 91.96 224.74 96.38 C 225.49 97.95 226.27 99.52 227.31 100.93 C 228.93 101.02 228.58 99.13 228.83 98.08 C 229.85 91.16 229.81 84.14 229.51 77.18 L 229.02 77.37 C 228.78 76.87 228.30 75.87 228.06 75.36 C 222.30 77.02 217.12 80.75 212.92 84.96 Z" />
</g>
<g id="#090469ff">
<path fill="#090469" opacity="1.00" d=" M 116.12 77.87 C 116.18 76.16 117.15 74.75 118.21 73.49 C 119.46 74.66 121.27 74.40 122.70 73.77 C 123.27 73.93 124.42 74.24 124.99 74.40 C 125.32 74.62 125.97 75.07 126.29 75.29 C 126.69 75.51 127.48 75.94 127.87 76.15 C 128.30 76.45 129.16 77.05 129.60 77.35 C 130.07 77.63 131.02 78.20 131.49 78.48 C 131.53 78.50 131.59 78.54 131.63 78.57 C 134.30 80.41 136.72 82.60 138.87 85.04 C 138.43 85.48 137.54 86.37 137.10 86.82 C 136.00 87.70 134.90 88.57 133.85 89.50 C 128.82 93.53 124.57 98.51 121.56 104.22 L 121.03 104.04 C 120.33 104.14 118.92 104.33 118.22 104.43 C 117.81 102.83 117.34 101.22 117.31 99.55 C 117.31 97.73 116.95 95.95 116.45 94.20 C 115.43 88.84 115.48 83.28 116.12 77.87 M 119.11 78.06 L 118.53 77.97 C 118.13 83.33 118.15 88.71 118.77 94.05 C 118.58 96.52 119.45 98.91 120.03 101.27 C 121.29 99.80 122.42 98.20 123.25 96.44 C 126.62 91.98 131.02 88.55 135.28 85.01 C 130.75 80.89 125.63 77.12 119.79 75.09 C 119.62 75.84 119.28 77.32 119.11 78.06 Z" />
</g>
<g id="#b9768dff">
<path fill="#b9768d" opacity="1.00" d=" M 124.99 74.40 C 125.37 74.28 126.14 74.05 126.52 73.94 L 126.84 74.75 L 126.29 75.29 C 125.97 75.07 125.32 74.62 124.99 74.40 Z" />
</g>
<g id="#4176b3ff">
<path fill="#4176b3" opacity="1.00" d=" M 202.02 79.04 C 202.22 77.62 202.07 75.28 204.00 75.05 C 204.88 75.08 206.65 75.15 207.53 75.18 C 205.70 76.47 203.89 77.79 202.02 79.04 Z" />
</g>
<g id="#cb3e88ff">
<path fill="#cb3e88" opacity="1.00" d=" M 119.11 78.06 C 119.28 77.32 119.62 75.84 119.79 75.09 C 125.63 77.12 130.75 80.89 135.28 85.01 C 131.02 88.55 126.62 91.98 123.25 96.44 C 124.13 92.23 127.66 88.60 126.69 84.09 C 126.01 80.51 122.78 77.87 119.11 78.06 Z" />
</g>
<g id="#956f8fff">
<path fill="#956f8f" opacity="1.00" d=" M 127.87 76.15 L 128.76 75.81 L 129.65 76.43 L 129.60 77.35 C 129.16 77.05 128.30 76.45 127.87 76.15 Z" />
</g>
<g id="#5a101fff">
<path fill="#5a101f" opacity="1.00" d=" M 137.26 76.67 C 137.29 76.69 137.36 76.74 137.39 76.76 C 137.36 76.74 137.29 76.69 137.26 76.67 Z" />
</g>
<g id="#c8408bff">
<path fill="#c8408b" opacity="1.00" d=" M 212.92 84.96 C 217.12 80.75 222.30 77.02 228.06 75.36 C 228.30 75.87 228.78 76.87 229.02 77.37 C 226.24 78.53 222.70 79.55 221.84 82.86 C 219.64 87.64 224.21 91.74 224.74 96.38 C 221.39 91.96 216.86 88.76 212.92 84.96 Z" />
</g>
<g id="#f85090ff">
<path fill="#f85090" opacity="1.00" d=" M 229.02 77.37 L 229.51 77.18 C 229.81 84.14 229.85 91.16 228.83 98.08 C 228.83 95.96 228.77 93.84 228.73 91.72 C 228.25 93.84 227.75 95.96 227.25 98.08 C 226.62 97.66 225.37 96.81 224.74 96.38 C 224.21 91.74 219.64 87.64 221.84 82.86 C 222.70 79.55 226.24 78.53 229.02 77.37 Z" />
</g>
<g id="#f95192ff">
<path fill="#f95192" opacity="1.00" d=" M 118.53 77.97 L 119.11 78.06 C 122.78 77.87 126.01 80.51 126.69 84.09 C 127.66 88.60 124.13 92.23 123.25 96.44 C 122.17 96.87 121.09 97.30 120.01 97.74 C 119.88 95.13 119.75 92.51 119.58 89.90 C 119.30 91.28 119.01 92.66 118.77 94.05 C 118.15 88.71 118.13 83.33 118.53 77.97 Z" />
</g>
<g id="#6e539aff">
<path fill="#6e539a" opacity="1.00" d=" M 131.49 78.48 C 131.53 78.50 131.59 78.54 131.63 78.57 C 131.59 78.54 131.53 78.50 131.49 78.48 Z" />
</g>
<g id="#927ba7ff">
<path fill="#927ba7" opacity="1.00" d=" M 142.39 81.39 C 142.54 81.49 142.82 81.67 142.97 81.76 L 142.58 81.77 L 142.39 81.39 Z" />
</g>
<g id="#bc6b7aff">
<path fill="#bc6b7a" opacity="1.00" d=" M 133.85 89.50 C 134.90 88.57 136.00 87.70 137.10 86.82 C 139.38 88.02 135.34 91.09 133.85 89.50 Z" />
</g>
<g id="#a052a3ff">
<path fill="#a052a3" opacity="1.00" d=" M 118.77 94.05 C 119.01 92.66 119.30 91.28 119.58 89.90 C 119.75 92.51 119.88 95.13 120.01 97.74 C 121.09 97.30 122.17 96.87 123.25 96.44 C 122.42 98.20 121.29 99.80 120.03 101.27 C 119.45 98.91 118.58 96.52 118.77 94.05 Z" />
</g>
<g id="#9a4b9aff">
<path fill="#9a4b9a" opacity="1.00" d=" M 227.25 98.08 C 227.75 95.96 228.25 93.84 228.73 91.72 C 228.77 93.84 228.83 95.96 228.83 98.08 C 228.58 99.13 228.93 101.02 227.31 100.93 C 226.27 99.52 225.49 97.95 224.74 96.38 C 225.37 96.81 226.62 97.66 227.25 98.08 Z" />
</g>
<g id="#865682ff">
<path fill="#865682" opacity="1.00" d=" M 116.45 94.20 C 116.95 95.95 117.31 97.73 117.31 99.55 C 115.08 99.55 115.23 95.51 116.45 94.20 Z" />
</g>
<g id="#42122fff">
<path fill="#42122f" opacity="1.00" d=" M 118.22 104.43 C 118.92 104.33 120.33 104.14 121.03 104.04 C 120.37 105.01 119.45 105.40 118.28 105.21 L 118.22 104.43 Z" />
</g>
<g id="#a46981ff">
<path fill="#a46981" opacity="1.00" d=" M 121.03 104.04 L 121.56 104.22 C 123.26 106.33 118.12 107.54 118.28 105.21 C 119.45 105.40 120.37 105.01 121.03 104.04 Z" />
</g>
<g id="#5768a7ff">
<path fill="#5768a7" opacity="1.00" d=" M 111.52 109.95 C 111.65 110.45 111.90 111.47 112.03 111.98 L 111.17 111.68 L 110.91 110.64 L 111.52 109.95 Z" />
</g>
<g id="#030273ff">
<path fill="#030273" opacity="1.00" d=" M 148.36 125.48 C 152.75 123.82 157.42 126.85 158.98 130.98 C 161.81 137.35 160.39 145.47 155.40 150.39 C 152.79 152.98 148.37 153.93 145.21 151.77 C 141.35 149.29 139.91 144.37 140.07 140.00 C 139.91 134.20 142.76 127.79 148.36 125.48 M 154.05 141.54 C 157.51 139.46 157.95 133.26 154.12 131.29 C 150.96 133.50 149.52 140.32 154.05 141.54 M 144.95 145.10 C 145.89 143.44 147.54 140.62 144.93 139.49 C 143.13 140.99 142.96 143.69 144.95 145.10 Z" />
</g>
<g id="#020272ff">
<path fill="#020272" opacity="1.00" d=" M 195.43 125.53 C 200.35 123.66 205.29 127.36 207.28 131.71 C 210.14 137.41 210.16 144.99 205.97 150.05 C 203.51 153.17 198.65 153.91 195.41 151.62 C 189.92 147.89 187.91 140.46 189.18 134.17 C 189.91 130.61 191.93 126.98 195.43 125.53 M 194.98 141.46 C 197.39 141.89 198.05 138.79 197.89 136.99 C 198.09 134.64 196.64 132.74 194.99 131.27 C 191.41 133.42 191.67 139.19 194.98 141.46 M 204.22 144.67 C 206.97 144.04 205.36 140.45 203.97 139.10 C 202.88 140.80 202.53 143.21 204.22 144.67 Z" />
</g>
<g id="#fafbf9ff">
<path fill="#fafbf9" opacity="1.00" d=" M 154.05 141.54 C 149.52 140.32 150.96 133.50 154.12 131.29 C 157.95 133.26 157.51 139.46 154.05 141.54 Z" />
</g>
<g id="#fafbf8ff">
<path fill="#fafbf8" opacity="1.00" d=" M 194.98 141.46 C 191.67 139.19 191.41 133.42 194.99 131.27 C 196.64 132.74 198.09 134.64 197.89 136.99 C 198.05 138.79 197.39 141.89 194.98 141.46 Z" />
</g>
<g id="#fdfefcff">
<path fill="#fdfefc" opacity="1.00" d=" M 204.22 144.67 C 202.53 143.21 202.88 140.80 203.97 139.10 C 205.36 140.45 206.97 144.04 204.22 144.67 Z" />
<path fill="#fdfefc" opacity="1.00" d=" M 72.18 196.20 C 77.82 186.44 89.99 180.50 101.10 183.37 C 107.02 184.63 112.11 188.72 115.04 193.96 C 110.50 188.62 104.31 183.93 96.95 184.16 C 89.16 183.36 81.36 186.60 75.98 192.17 C 73.51 195.24 74.57 199.72 76.30 202.90 C 77.67 205.52 80.64 206.47 83.14 207.63 C 78.95 219.20 80.27 232.75 87.06 243.06 C 92.57 251.25 101.21 256.69 110.10 260.59 C 112.74 261.22 112.86 264.23 113.62 266.32 C 102.06 265.12 91.49 259.89 81.78 253.79 C 74.49 246.24 70.55 236.02 68.56 225.86 C 66.56 215.97 66.96 205.08 72.18 196.20 Z" />
</g>
<g id="#fbfdfaff">
<path fill="#fbfdfa" opacity="1.00" d=" M 144.95 145.10 C 142.96 143.69 143.13 140.99 144.93 139.49 C 147.54 140.62 145.89 143.44 144.95 145.10 Z" />
<path fill="#fbfdfa" opacity="1.00" d=" M 189.53 268.96 C 193.35 268.29 197.70 267.42 201.14 269.77 C 202.68 270.65 202.34 272.57 202.66 274.04 C 196.95 274.92 191.12 275.79 185.37 274.68 C 186.97 272.93 188.57 271.15 189.53 268.96 Z" />
</g>
<g id="#5c5f81ff">
<path fill="#5c5f81" opacity="1.00" d=" M 169.87 147.73 C 172.49 146.66 175.41 146.72 178.06 147.68 C 177.02 147.97 175.99 148.25 174.96 148.53 C 174.49 148.54 173.55 148.56 173.08 148.57 C 172.01 148.29 170.94 148.01 169.87 147.73 Z" />
</g>
<g id="#090473ff">
<path fill="#090473" opacity="1.00" d=" M 168.06 150.87 C 167.82 149.47 168.76 148.41 169.87 147.73 C 170.94 148.01 172.01 148.29 173.08 148.57 C 172.86 148.86 172.42 149.44 172.20 149.73 C 172.66 151.05 175.34 151.02 175.82 149.73 C 175.61 149.43 175.17 148.83 174.96 148.53 C 175.99 148.25 177.02 147.97 178.06 147.68 C 178.91 148.47 179.75 149.29 180.56 150.13 C 179.48 152.93 175.17 152.91 174.82 155.80 C 174.46 155.25 174.11 154.71 173.76 154.17 C 173.21 155.11 172.64 156.04 172.06 156.97 C 174.63 153.51 169.27 153.36 168.06 150.87 Z" />
</g>
<g id="#7279c4ff">
<path fill="#7279c4" opacity="1.00" d=" M 172.20 149.73 C 172.42 149.44 172.86 148.86 173.08 148.57 C 173.55 148.56 174.49 148.54 174.96 148.53 C 175.17 148.83 175.61 149.43 175.82 149.73 C 175.34 151.02 172.66 151.05 172.20 149.73 Z" />
</g>
<g id="#f27f82ff">
<path fill="#f27f82" opacity="1.00" d=" M 129.28 160.87 C 133.24 157.14 139.86 157.28 143.82 160.95 C 141.99 165.50 136.02 165.14 132.10 164.04 C 130.47 163.76 130.03 162.06 129.28 160.87 Z" />
</g>
<g id="#f17f82ff">
<path fill="#f17f82" opacity="1.00" d=" M 207.50 158.64 C 210.64 158.08 214.53 157.60 217.09 159.96 C 218.39 160.82 217.86 162.84 216.66 163.51 C 214.10 165.04 210.92 164.74 208.07 164.43 C 206.20 164.20 203.62 162.78 204.47 160.52 C 205.32 159.68 206.35 159.00 207.50 158.64 Z" />
</g>
<g id="#cccce4ff">
<path fill="#cccce4" opacity="1.00" d=" M 237.04 158.45 L 237.66 157.90 C 238.50 160.45 239.51 162.94 240.58 165.39 C 238.11 165.86 235.19 165.32 233.20 167.16 C 230.41 169.71 228.37 173.00 225.35 175.33 C 215.45 183.68 202.27 186.05 190.01 188.88 C 187.86 189.61 184.80 189.12 183.54 191.38 C 191.19 191.16 198.81 189.86 206.17 187.75 C 206.84 189.13 207.50 190.51 208.16 191.90 C 190.94 198.46 171.91 200.32 153.88 196.23 C 148.88 195.13 144.03 193.47 139.16 191.90 C 139.73 190.50 140.32 189.11 140.91 187.72 C 148.48 189.77 156.28 191.28 164.15 191.32 C 162.62 189.09 159.48 189.52 157.18 188.76 C 142.80 185.51 126.65 182.32 117.11 169.93 C 114.95 166.48 111.11 165.14 107.17 165.55 C 107.72 163.88 108.21 162.16 109.20 160.69 C 110.10 160.28 111.01 159.93 111.95 159.62 C 115.41 161.92 117.60 165.59 120.75 168.25 C 127.11 174.13 135.47 177.03 143.66 179.31 C 158.47 183.28 174.14 185.21 189.34 182.38 C 200.80 180.29 212.66 178.00 222.56 171.52 C 228.17 168.06 231.77 162.34 237.04 158.45 Z" />
</g>
<g id="#cccbe5ff">
<path fill="#cccbe5" opacity="1.00" d=" M 247.55 159.57 C 247.54 159.76 247.52 160.13 247.51 160.31 C 245.43 160.80 242.45 161.23 242.67 164.06 C 242.42 162.82 242.15 161.58 241.88 160.35 C 243.80 160.52 245.85 160.72 247.55 159.57 Z" />
<path fill="#cccbe5" opacity="1.00" d=" M 100.76 160.58 C 102.40 160.35 104.06 160.17 105.72 160.36 C 105.63 160.79 105.47 161.66 105.38 162.10 C 103.80 162.53 102.11 161.63 100.74 160.92 L 100.76 160.58 Z" />
<path fill="#cccbe5" opacity="1.00" d=" M 251.83 172.01 C 252.82 169.45 254.78 166.46 257.97 167.04 C 260.18 166.77 261.69 168.45 263.11 169.85 C 261.22 168.20 258.59 167.42 256.17 168.26 C 254.47 169.16 253.24 170.72 251.83 172.01 Z" />
<path fill="#cccbe5" opacity="1.00" d=" M 218.75 212.08 C 221.32 213.50 224.00 215.05 227.04 215.06 C 231.60 215.56 235.78 213.43 239.82 211.66 C 238.30 218.79 229.93 223.13 223.15 220.86 C 219.95 219.18 219.39 215.27 218.75 212.08 Z" />
<path fill="#cccbe5" opacity="1.00" d=" M 204.86 229.36 C 206.01 229.76 207.16 230.16 208.33 230.53 C 206.98 231.34 206.34 232.51 206.41 234.04 C 205.81 232.51 205.33 230.93 204.86 229.36 Z" />
</g>
<g id="#23085fff">
<path fill="#23085f" opacity="1.00" d=" M 250.59 174.20 C 249.16 168.81 255.38 163.02 260.58 165.41 C 262.40 166.82 264.07 168.47 266.18 169.48 C 265.77 169.95 264.97 170.90 264.57 171.38 L 263.84 170.60 C 263.66 170.41 263.29 170.04 263.11 169.85 C 261.69 168.45 260.18 166.77 257.97 167.04 C 254.78 166.46 252.82 169.45 251.83 172.01 C 252.64 176.73 255.96 180.43 258.13 184.57 C 258.91 185.69 259.79 186.75 260.66 187.83 C 264.91 184.36 270.74 182.86 274.16 178.47 C 275.16 175.70 275.40 171.41 272.11 170.12 L 271.48 169.81 C 269.82 169.17 267.97 169.43 266.24 169.22 C 267.98 166.73 271.56 168.15 273.73 169.28 C 277.79 171.60 278.09 177.60 274.85 180.74 C 271.33 184.20 266.42 185.71 262.55 188.73 C 259.50 190.49 257.49 187.07 256.16 184.87 C 254.29 181.33 251.53 178.14 250.59 174.20 Z" />
</g>
<g id="#fd0761ff">
<path fill="#fd0761" opacity="1.00" d=" M 256.17 168.26 C 258.59 167.42 261.22 168.20 263.11 169.85 C 263.29 170.04 263.66 170.41 263.84 170.60 C 264.21 171.20 264.93 172.40 265.29 173.00 C 265.84 172.65 266.95 171.94 267.50 171.59 L 267.91 171.61 C 269.85 171.69 271.78 171.87 273.71 172.07 C 273.80 173.33 273.90 174.59 273.99 175.85 C 268.93 179.13 264.07 183.02 258.13 184.57 C 255.96 180.43 252.64 176.73 251.83 172.01 C 253.24 170.72 254.47 169.16 256.17 168.26 Z" />
</g>
<g id="#b172aeff">
<path fill="#b172ae" opacity="1.00" d=" M 267.50 171.59 C 266.73 169.50 270.17 169.11 271.48 169.81 L 272.11 170.12 C 270.78 170.81 269.38 171.34 267.91 171.61 L 267.50 171.59 Z" />
</g>
<g id="#9b247dff">
<path fill="#9b247d" opacity="1.00" d=" M 272.11 170.12 C 275.40 171.41 275.16 175.70 274.16 178.47 C 274.12 177.81 274.03 176.50 273.99 175.85 C 273.90 174.59 273.80 173.33 273.71 172.07 C 271.78 171.87 269.85 171.69 267.91 171.61 C 269.38 171.34 270.78 170.81 272.11 170.12 Z" />
</g>
<g id="#af095bff">
<path fill="#af095b" opacity="1.00" d=" M 258.13 184.57 C 264.07 183.02 268.93 179.13 273.99 175.85 C 274.03 176.50 274.12 177.81 274.16 178.47 C 270.74 182.86 264.91 184.36 260.66 187.83 C 259.79 186.75 258.91 185.69 258.13 184.57 Z" />
</g>
<g id="#5370b7ff">
<path fill="#5370b7" opacity="1.00" d=" M 122.05 178.53 C 120.87 180.32 117.54 177.43 119.92 176.70 C 120.65 177.29 121.35 177.90 122.05 178.53 Z" />
</g>
<g id="#f9744aff">
<path fill="#f9744a" opacity="1.00" d=" M 75.98 192.17 C 81.36 186.60 89.16 183.36 96.95 184.16 C 104.31 183.93 110.50 188.62 115.04 193.96 C 118.78 200.10 119.68 209.06 114.33 214.58 C 111.92 213.70 109.23 213.30 107.12 211.78 C 102.73 207.40 104.83 200.34 101.59 195.45 C 98.54 191.37 92.75 192.60 89.10 195.11 C 85.72 197.43 84.40 201.60 83.82 205.47 C 83.73 206.05 83.54 207.19 83.45 207.77 L 83.14 207.63 C 80.64 206.47 77.67 205.52 76.30 202.90 C 74.57 199.72 73.51 195.24 75.98 192.17 Z" />
</g>
<g id="#5e49a7ff">
<path fill="#5e49a7" opacity="1.00" d=" M 137.10 186.18 C 137.37 186.59 137.91 187.40 138.19 187.80 L 137.43 188.01 C 137.35 187.55 137.18 186.64 137.10 186.18 Z" />
</g>
<g id="#6a78c0ff">
<path fill="#6a78c0" opacity="1.00" d=" M 208.77 187.30 C 209.26 186.98 210.22 186.36 210.71 186.04 C 211.17 187.53 210.62 188.16 209.06 187.94 L 208.77 187.30 Z" />
</g>
<g id="#fefdfbff">
<path fill="#fefdfb" opacity="1.00" d=" M 228.62 189.09 C 230.06 187.13 232.52 189.02 233.82 190.16 C 239.13 195.72 241.37 204.05 240.01 211.58 L 239.82 211.66 C 235.78 213.43 231.60 215.56 227.04 215.06 C 224.00 215.05 221.32 213.50 218.75 212.08 C 218.83 209.74 218.40 207.09 220.03 205.14 C 222.79 201.50 227.26 199.80 231.48 198.49 C 229.84 195.70 227.75 192.47 228.62 189.09 Z" />
</g>
<g id="#c95d51ff">
<path fill="#c95d51" opacity="1.00" d=" M 89.10 195.11 C 92.75 192.60 98.54 191.37 101.59 195.45 C 104.83 200.34 102.73 207.40 107.12 211.78 C 109.23 213.30 111.92 213.70 114.33 214.58 C 111.41 217.36 105.71 217.05 103.72 213.31 C 100.86 209.17 103.03 203.31 99.41 199.54 C 97.87 197.61 95.07 198.06 92.91 198.22 C 88.84 198.93 86.42 202.65 83.82 205.47 C 84.40 201.60 85.72 197.43 89.10 195.11 Z" />
</g>
<g id="#bda5f9ff">
<path fill="#bda5f9" opacity="1.00" d=" M 226.70 196.95 C 226.75 196.81 226.86 196.53 226.91 196.38 L 226.98 196.74 L 226.70 196.95 Z" />
</g>
<g id="#cccde6ff">
<path fill="#cccde6" opacity="1.00" d=" M 208.15 208.84 C 211.85 213.94 214.73 220.22 220.80 222.94 C 224.76 225.11 229.34 224.26 233.50 223.24 C 226.77 231.39 214.27 231.57 205.72 226.31 C 207.17 220.59 207.34 214.67 208.15 208.84 Z" />
<path fill="#cccde6" opacity="1.00" d=" M 148.96 269.04 C 149.37 268.85 150.18 268.48 150.59 268.29 C 151.41 272.68 152.02 277.13 153.54 281.35 C 152.29 281.31 151.04 281.29 149.79 281.28 C 152.31 277.70 151.83 272.31 148.96 269.04 Z" />
</g>
<g id="#605fa5ff">
<path fill="#605fa5" opacity="1.00" d=" M 105.57 218.28 C 105.59 218.29 105.64 218.30 105.66 218.31 C 105.64 218.30 105.59 218.29 105.57 218.28 Z" />
</g>
<g id="#3962a7ff">
<path fill="#3962a7" opacity="1.00" d=" M 85.85 235.40 C 87.77 234.40 89.15 237.81 87.61 238.96 C 86.86 237.86 86.20 236.68 85.85 235.40 Z" />
</g>
<g id="#fdfbf9ff">
<path fill="#fdfbf9" opacity="1.00" d=" M 203.94 234.81 C 208.00 241.59 207.15 250.31 203.69 257.15 C 200.18 259.28 196.74 261.53 193.07 263.38 C 197.40 254.15 201.37 244.71 203.94 234.81 Z" />
</g>
<g id="#cccce3ff">
<path fill="#cccce3" opacity="1.00" d=" M 176.32 246.76 C 179.08 248.93 181.90 252.06 185.76 251.64 C 189.88 251.22 193.21 248.45 196.77 246.60 C 195.53 251.08 193.33 255.21 191.42 259.43 C 188.47 265.73 184.98 272.18 178.94 276.02 C 177.70 274.92 176.43 273.84 175.15 272.79 C 175.10 264.11 175.34 255.40 176.32 246.76 Z" />
<path fill="#cccce3" opacity="1.00" d=" M 114.43 258.69 C 117.75 261.62 121.78 263.44 125.70 265.41 C 126.36 267.83 125.95 270.56 127.10 272.82 C 130.45 276.77 136.14 277.16 140.95 276.68 C 143.84 276.29 147.43 276.02 148.89 273.04 C 148.94 275.04 149.68 277.43 147.90 278.94 C 145.08 281.09 141.29 280.80 137.95 280.69 C 134.53 280.39 131.03 280.38 127.72 279.37 C 124.28 278.71 123.50 274.80 121.40 272.52 C 118.01 268.55 115.25 263.91 114.43 258.69 Z" />
</g>
<g id="#cacde0ff">
<path fill="#cacde0" opacity="1.00" d=" M 81.78 253.79 C 91.49 259.89 102.06 265.12 113.62 266.32 L 113.92 266.37 C 115.26 269.17 117.07 271.68 118.94 274.14 C 105.03 271.20 90.81 265.16 81.78 253.79 Z" />
</g>
<g id="#cbcbdeff">
<path fill="#cbcbde" opacity="1.00" d=" M 193.07 263.38 C 196.74 261.53 200.18 259.28 203.69 257.15 C 202.04 260.68 199.55 263.71 196.78 266.42 C 195.18 267.00 192.52 266.26 192.00 268.43 C 191.54 267.94 191.08 267.45 190.63 266.95 C 191.46 265.77 192.27 264.58 193.07 263.38 Z" />
</g>
<g id="#83a0dcff">
<path fill="#83a0dc" opacity="1.00" d=" M 201.08 266.26 C 201.10 266.40 201.15 266.68 201.18 266.82 L 200.90 266.57 L 201.08 266.26 Z" />
</g>
<g id="#5f3c8eff">
<path fill="#5f3c8e" opacity="1.00" d=" M 109.51 274.38 C 109.54 274.39 109.59 274.41 109.62 274.42 C 109.59 274.41 109.54 274.39 109.51 274.38 Z" />
</g>
<g id="#abafceff">
<path fill="#abafce" opacity="1.00" d=" M 180.18 278.79 C 181.90 277.40 183.63 276.03 185.37 274.68 C 191.12 275.79 196.95 274.92 202.66 274.04 C 201.85 275.71 200.97 277.71 198.91 278.07 C 192.74 279.18 186.41 278.43 180.18 278.79 Z" />
</g>
<g id="#5b73b4ff">
<path fill="#5b73b4" opacity="1.00" d=" M 202.94 278.78 C 203.17 277.65 203.81 277.00 204.85 276.82 C 205.25 278.44 204.61 279.10 202.94 278.78 Z" />
</g>
<g id="#6869a9ff">
<path fill="#6869a9" opacity="1.00" d=" M 161.40 283.75 C 162.84 283.86 164.28 283.98 165.72 284.09 C 165.60 285.92 161.07 285.81 161.40 283.75 Z" />
</g>
</svg>
