<?xml version="1.0" encoding="UTF-8" ?>
<!DOCTYPE svg PUBLIC "-//W3C//DTD SVG 1.1//EN" "http://www.w3.org/Graphics/SVG/1.1/DTD/svg11.dtd">
<svg width="411pt" height="453pt" viewBox="0 0 411 453" version="1.1" xmlns="http://www.w3.org/2000/svg">
<g id="#21211f21">
<path fill="#21211f" opacity="0.13" d=" M 162.05 13.37 C 165.38 13.37 160.63 16.41 162.05 13.37 Z" />
</g>
<g id="#58565459">
<path fill="#585654" opacity="0.35" d=" M 178.28 14.29 C 178.81 14.83 178.81 14.83 178.28 14.29 Z" />
</g>
<g id="#9d7a5fa0">
<path fill="#9d7a5f" opacity="0.63" d=" M 181.41 15.87 C 184.17 14.27 187.51 14.76 190.45 15.47 C 184.93 18.20 178.56 16.63 172.89 18.77 C 168.56 20.19 163.89 19.99 159.57 21.43 C 151.27 24.60 142.40 25.88 134.23 29.42 L 133.57 29.33 L 132.62 28.62 C 134.03 28.04 135.30 27.19 136.48 26.22 C 138.14 26.02 139.88 26.09 141.40 25.28 C 143.31 24.29 145.43 23.89 147.49 23.36 C 148.51 23.02 149.52 22.67 150.53 22.32 C 151.86 22.06 153.20 21.81 154.52 21.46 C 155.51 21.07 156.51 20.66 157.50 20.26 C 158.02 20.15 159.06 19.95 159.58 19.85 C 160.49 19.25 161.42 18.65 162.34 18.07 C 162.85 18.32 163.86 18.83 164.37 19.08 C 166.05 17.40 168.69 18.46 170.60 17.21 C 171.54 17.07 172.49 16.93 173.44 16.80 C 175.87 15.45 178.76 16.18 181.41 15.87 Z" />
</g>
<g id="#8e7e728f">
<path fill="#8e7e72" opacity="0.56" d=" M 191.01 14.02 C 201.01 14.00 211.00 14.00 220.99 14.02 L 221.02 15.14 C 211.00 15.16 200.97 15.15 190.94 15.17 L 191.01 14.02 Z" />
</g>
<g id="#e0955ce1">
<path fill="#e0955c" opacity="0.88" d=" M 172.89 18.77 C 178.56 16.63 184.93 18.20 190.45 15.47 C 201.08 15.14 211.73 15.45 222.37 15.31 C 224.20 18.35 228.00 17.66 230.98 18.17 C 244.53 19.32 257.35 24.00 270.36 27.57 C 283.52 32.80 296.23 39.18 308.07 46.96 C 314.10 51.21 320.82 54.64 325.90 60.10 C 329.27 63.74 333.24 66.73 336.87 70.10 C 350.05 83.34 361.64 98.28 370.10 114.98 C 371.38 117.66 372.81 120.26 374.52 122.70 C 374.66 122.91 374.94 123.34 375.08 123.55 C 376.65 130.59 380.54 136.78 382.52 143.68 C 386.47 156.68 389.33 170.06 390.67 183.59 C 391.92 192.69 391.20 201.89 391.37 211.04 C 390.81 220.63 389.80 230.20 388.60 239.73 C 387.41 249.52 384.11 258.85 381.62 268.34 C 379.42 276.91 375.13 284.70 371.93 292.90 C 368.26 302.84 362.25 311.65 356.78 320.65 C 353.53 326.00 349.37 330.71 345.79 335.84 C 342.54 340.51 338.26 344.32 334.68 348.72 C 330.46 353.81 325.20 357.92 321.15 363.16 C 318.08 367.16 313.51 369.50 309.78 372.78 C 304.48 377.30 299.33 382.05 293.32 385.63 C 285.96 389.70 278.90 394.27 271.90 398.92 C 269.67 400.40 267.10 401.23 264.59 402.07 C 269.80 397.19 276.47 394.37 282.28 390.32 C 293.04 384.09 302.45 375.93 312.06 368.12 C 317.87 363.94 322.05 358.03 327.34 353.27 C 333.05 346.96 339.19 340.96 344.00 333.91 C 347.16 329.75 350.67 325.82 353.29 321.27 C 355.86 316.63 359.46 312.64 361.82 307.88 C 364.26 302.99 367.52 298.52 369.29 293.31 C 372.18 285.04 376.65 277.38 378.97 268.90 C 381.75 257.78 386.15 246.97 386.67 235.40 C 390.62 209.72 390.00 183.32 384.01 158.01 C 380.91 143.78 375.04 130.36 368.58 117.37 C 363.69 108.50 358.83 99.53 352.45 91.61 C 347.38 85.65 342.32 79.69 337.21 73.76 C 333.63 69.67 329.03 66.67 325.27 62.76 C 322.13 59.50 318.69 56.51 314.82 54.15 C 303.43 46.96 292.15 39.40 279.64 34.29 C 270.73 29.49 260.71 27.64 251.16 24.57 C 225.74 18.06 198.86 17.00 173.06 21.92 C 164.39 23.30 156.17 26.41 147.68 28.52 C 137.27 31.70 127.13 36.00 117.89 41.77 C 103.24 49.49 89.56 59.20 78.15 71.25 C 67.56 80.77 58.91 92.19 51.05 103.99 C 47.45 111.10 42.54 117.54 40.11 125.21 C 35.25 134.99 31.24 145.23 28.75 155.87 C 25.11 167.57 24.55 179.89 23.14 191.98 C 22.41 196.99 23.59 202.02 23.06 207.04 C 22.68 211.06 22.97 215.10 23.57 219.09 C 24.56 225.60 24.50 232.27 26.29 238.65 C 27.87 244.45 28.50 250.53 30.90 256.10 C 33.43 262.07 34.57 268.54 37.50 274.36 C 39.87 279.09 41.92 283.97 44.26 288.71 C 53.44 304.35 63.63 319.60 76.72 332.27 C 81.87 337.15 86.90 342.21 92.60 346.47 C 99.30 351.15 105.63 356.42 112.96 360.13 C 117.76 363.21 123.30 364.80 128.09 367.89 C 134.01 371.64 140.99 372.97 147.41 375.59 C 164.10 382.18 182.10 384.40 199.89 385.41 C 202.67 385.75 205.14 387.16 207.64 388.33 C 207.59 388.77 207.51 389.66 207.47 390.11 C 206.45 389.71 205.43 389.32 204.41 388.96 C 199.61 386.68 194.21 387.57 189.11 386.87 C 178.37 385.39 167.46 384.48 157.09 381.10 C 146.32 378.15 136.10 373.57 125.57 369.94 C 125.29 369.78 124.73 369.46 124.45 369.31 C 120.45 365.74 115.33 363.98 110.72 361.40 C 102.64 357.05 95.88 350.77 88.31 345.65 C 81.58 339.39 74.25 333.72 68.36 326.60 C 60.59 317.24 52.58 307.90 46.94 297.03 C 36.53 280.71 30.00 262.31 25.09 243.68 C 20.02 220.86 19.16 197.12 22.85 174.02 C 23.45 170.74 23.60 167.40 23.61 164.08 C 27.06 158.39 26.99 151.43 29.37 145.30 C 35.09 129.81 41.79 114.59 50.69 100.65 C 57.67 91.39 64.10 81.60 72.63 73.64 C 78.01 68.69 82.65 62.92 88.63 58.65 C 92.59 55.61 96.35 52.30 100.58 49.62 C 105.08 46.40 110.16 44.08 114.48 40.61 C 114.69 40.55 115.12 40.44 115.33 40.38 C 115.51 39.86 115.68 39.35 115.86 38.84 C 121.49 36.01 126.53 31.86 132.85 30.59 C 132.52 30.33 131.88 29.82 131.55 29.56 L 130.82 28.98 C 131.51 29.07 132.88 29.25 133.57 29.33 L 134.23 29.42 C 142.40 25.88 151.27 24.60 159.57 21.43 C 163.89 19.99 168.56 20.19 172.89 18.77 Z" />
</g>
<g id="#ba7e4fbd">
<path fill="#ba7e4f" opacity="0.74" d=" M 222.37 15.31 C 225.47 15.01 228.69 14.86 231.63 16.12 C 234.98 17.20 238.47 17.65 241.95 18.12 L 242.63 18.23 C 247.74 19.55 252.89 20.78 258.01 22.05 L 259.20 22.46 C 260.78 23.71 262.69 24.33 264.72 24.11 L 265.56 24.16 C 273.32 26.85 280.50 31.02 288.44 33.18 L 288.71 33.25 C 288.94 33.43 289.40 33.79 289.63 33.96 C 291.58 35.61 293.92 36.66 296.37 37.31 L 296.57 37.37 L 297.19 37.91 C 300.66 41.21 304.99 43.36 309.33 45.27 C 309.60 45.39 310.14 45.64 310.40 45.76 C 311.76 46.48 313.12 47.20 314.48 47.92 C 314.89 48.37 315.71 49.29 316.11 49.75 C 318.44 52.45 321.49 54.45 324.84 55.64 L 324.94 56.13 C 325.00 56.53 325.11 57.32 325.16 57.72 C 327.39 59.56 329.67 61.36 332.04 63.01 C 332.96 63.55 333.67 64.28 334.16 65.21 C 334.75 66.61 335.73 68.13 337.48 67.95 L 338.40 69.19 C 339.77 71.00 341.45 72.54 343.23 73.94 C 343.72 74.34 344.70 75.15 345.20 75.55 L 345.06 73.88 L 345.93 74.11 C 345.79 74.55 345.50 75.42 345.36 75.85 C 344.61 76.99 346.03 77.61 346.88 77.91 C 348.09 78.31 348.81 79.07 349.06 80.20 C 348.91 81.59 349.77 82.91 351.27 82.18 C 352.96 81.57 352.71 83.15 352.03 84.06 L 351.79 84.61 C 352.26 86.03 353.32 87.28 354.80 87.71 L 355.99 88.18 L 356.12 89.11 C 356.16 90.30 356.76 90.91 357.93 90.93 L 358.30 92.18 C 358.52 93.40 359.28 94.52 360.53 94.87 L 360.90 95.67 C 361.86 98.11 363.38 100.26 364.95 102.34 C 367.96 109.19 373.29 115.18 374.52 122.70 C 372.81 120.26 371.38 117.66 370.10 114.98 C 361.64 98.28 350.05 83.34 336.87 70.10 C 333.24 66.73 329.27 63.74 325.90 60.10 C 320.82 54.64 314.10 51.21 308.07 46.96 C 296.23 39.18 283.52 32.80 270.36 27.57 C 257.35 24.00 244.53 19.32 230.98 18.17 C 228.00 17.66 224.20 18.35 222.37 15.31 Z" />
</g>
<g id="#917e6e94">
<path fill="#917e6e" opacity="0.58" d=" M 231.63 16.12 C 233.96 16.28 236.79 15.14 238.65 17.09 C 239.82 16.85 240.97 16.52 242.11 16.15 C 242.07 16.64 241.99 17.62 241.95 18.12 C 238.47 17.65 234.98 17.20 231.63 16.12 Z" />
</g>
<g id="#8c77658e">
<path fill="#8c7765" opacity="0.56" d=" M 242.63 18.23 C 244.59 18.25 246.99 17.26 248.58 18.93 C 249.25 18.62 249.91 18.31 250.59 18.00 C 251.02 18.47 251.90 19.40 252.33 19.87 C 253.79 20.03 255.39 19.89 256.61 20.89 C 256.93 20.77 257.56 20.53 257.88 20.41 C 257.91 20.82 257.98 21.64 258.01 22.05 C 252.89 20.78 247.74 19.55 242.63 18.23 Z" />
</g>
<g id="#fea969ff">
<path fill="#fea969" opacity="1.00" d=" M 173.06 21.92 C 198.86 17.00 225.74 18.06 251.16 24.57 C 260.71 27.64 270.73 29.49 279.64 34.29 C 292.15 39.40 303.43 46.96 314.82 54.15 C 318.69 56.51 322.13 59.50 325.27 62.76 C 329.03 66.67 333.63 69.67 337.21 73.76 C 342.32 79.69 347.38 85.65 352.45 91.61 C 358.83 99.53 363.69 108.50 368.58 117.37 C 375.04 130.36 380.91 143.78 384.01 158.01 C 390.00 183.32 390.62 209.72 386.67 235.40 C 386.15 246.97 381.75 257.78 378.97 268.90 C 376.65 277.38 372.18 285.04 369.29 293.31 C 367.52 298.52 364.26 302.99 361.82 307.88 C 359.46 312.64 355.86 316.63 353.29 321.27 C 350.67 325.82 347.16 329.75 344.00 333.91 C 339.19 340.96 333.05 346.96 327.34 353.27 C 322.05 358.03 317.87 363.94 312.06 368.12 C 302.45 375.93 293.04 384.09 282.28 390.32 C 276.47 394.37 269.80 397.19 264.59 402.07 C 258.81 404.65 253.28 407.73 247.64 410.58 C 232.35 416.65 216.97 422.62 201.10 427.02 C 191.77 429.24 182.41 432.46 172.68 431.59 C 182.81 419.46 196.44 410.52 205.31 397.29 C 206.74 395.45 207.17 393.13 207.37 390.87 L 207.47 390.11 C 207.51 389.66 207.59 388.77 207.64 388.33 C 205.14 387.16 202.67 385.75 199.89 385.41 C 182.10 384.40 164.10 382.18 147.41 375.59 C 140.99 372.97 134.01 371.64 128.09 367.89 C 123.30 364.80 117.76 363.21 112.96 360.13 C 105.63 356.42 99.30 351.15 92.60 346.47 C 86.90 342.21 81.87 337.15 76.72 332.27 C 63.63 319.60 53.44 304.35 44.26 288.71 C 41.92 283.97 39.87 279.09 37.50 274.36 C 34.57 268.54 33.43 262.07 30.90 256.10 C 28.50 250.53 27.87 244.45 26.29 238.65 C 24.50 232.27 24.56 225.60 23.57 219.09 C 22.97 215.10 22.68 211.06 23.06 207.04 C 23.59 202.02 22.41 196.99 23.14 191.98 C 24.55 179.89 25.11 167.57 28.75 155.87 C 31.24 145.23 35.25 134.99 40.11 125.21 C 42.54 117.54 47.45 111.10 51.05 103.99 C 58.91 92.19 67.56 80.77 78.15 71.25 C 89.56 59.20 103.24 49.49 117.89 41.77 C 127.13 36.00 137.27 31.70 147.68 28.52 C 156.17 26.41 164.39 23.30 173.06 21.92 M 248.58 93.77 C 236.91 95.98 226.99 104.00 220.85 113.96 C 207.59 135.35 210.00 165.93 228.07 183.88 C 235.68 191.42 246.27 196.20 257.08 195.66 C 270.02 195.33 281.95 187.60 289.10 177.06 C 298.21 164.11 300.87 147.28 297.72 131.91 C 295.03 118.98 287.75 106.67 276.54 99.39 C 268.42 93.95 258.17 91.92 248.58 93.77 M 152.44 126.56 C 139.07 130.17 131.75 144.83 132.83 157.95 C 133.17 160.53 135.42 162.59 137.93 163.04 C 141.55 163.80 145.52 160.77 145.33 156.95 C 145.49 151.27 146.70 144.98 151.33 141.18 C 155.58 137.38 162.49 137.46 166.77 141.17 C 171.33 145.04 172.68 151.27 172.78 156.99 C 172.58 161.07 177.18 164.20 180.94 162.85 C 183.85 162.05 185.71 159.01 185.41 156.05 C 185.30 147.55 182.58 138.71 176.32 132.72 C 170.19 126.63 160.76 124.17 152.44 126.56 M 171.13 201.17 C 167.17 203.52 163.78 207.31 162.93 211.95 C 161.68 219.56 165.00 227.36 170.38 232.69 C 178.30 240.61 189.12 244.86 199.81 247.57 C 200.54 252.80 199.55 258.08 198.34 263.16 C 196.37 270.71 192.49 278.45 185.43 282.38 C 175.86 287.63 164.40 289.68 153.66 287.54 C 148.41 286.28 142.74 284.05 139.81 279.22 C 138.17 276.58 138.10 272.68 134.97 271.22 C 130.95 268.90 125.37 272.39 125.70 277.02 C 126.97 286.01 133.88 293.40 142.01 296.97 C 153.42 302.27 166.54 301.73 178.55 298.99 C 179.49 307.82 182.26 317.89 190.83 322.22 C 200.27 326.86 212.06 326.81 221.61 322.51 C 230.46 318.26 233.57 308.01 234.36 298.95 C 246.39 301.82 259.55 302.22 271.01 296.98 C 279.06 293.29 286.08 285.99 287.24 276.95 C 287.52 272.44 282.13 268.97 278.15 271.16 C 274.22 272.93 274.78 278.11 271.92 280.89 C 266.42 286.83 257.78 288.48 250.00 288.40 C 241.11 287.96 231.87 285.79 224.62 280.40 C 215.32 272.50 212.82 259.41 212.80 247.77 C 224.00 244.71 235.58 240.41 243.57 231.60 C 248.64 226.22 251.32 218.39 249.84 211.06 C 247.96 204.25 241.37 200.24 235.14 197.94 C 223.29 193.71 210.46 193.04 198.00 193.85 C 188.75 194.74 179.18 196.24 171.13 201.17 Z" />
<path fill="#fea969" opacity="1.00" d=" M 197.48 207.75 C 205.84 206.77 214.62 206.71 222.64 209.53 C 224.81 210.25 228.09 212.45 226.12 215.01 C 223.48 217.58 219.57 218.22 216.07 218.85 C 207.65 220.01 198.83 220.01 190.70 217.33 C 188.68 216.55 185.38 215.07 186.40 212.35 C 189.00 209.01 193.61 208.52 197.48 207.75 Z" />
</g>
<g id="#494c4d4d">
<path fill="#494c4d" opacity="0.30" d=" M 146.23 21.31 C 146.77 21.82 146.77 21.82 146.23 21.31 Z" />
</g>
<g id="#95765d97">
<path fill="#95765d" opacity="0.59" d=" M 259.20 22.46 C 260.74 21.46 264.44 22.27 264.72 24.11 C 262.69 24.33 260.78 23.71 259.20 22.46 Z" />
</g>
<g id="#4a4f4f4f">
<path fill="#4a4f4f" opacity="0.31" d=" M 268.25 22.11 C 271.19 20.46 268.55 25.41 268.25 22.11 Z" />
</g>
<g id="#5958555a">
<path fill="#595855" opacity="0.35" d=" M 141.23 23.28 C 141.77 23.81 141.77 23.81 141.23 23.28 Z" />
</g>
<g id="#4c4f5050">
<path fill="#4c4f50" opacity="0.31" d=" M 137.22 24.22 C 137.75 24.75 137.75 24.75 137.22 24.22 Z" />
</g>
<g id="#9783729a">
<path fill="#978372" opacity="0.60" d=" M 265.56 24.16 C 266.93 23.98 268.26 24.12 269.55 24.59 C 270.54 24.99 271.53 25.40 272.53 25.81 C 273.51 25.94 274.50 26.07 275.49 26.20 C 276.50 26.94 277.52 27.68 278.57 28.37 C 279.53 28.86 280.49 29.35 281.45 29.86 C 281.97 29.94 283.01 30.10 283.53 30.18 C 285.25 31.03 286.97 31.92 288.44 33.18 C 280.50 31.02 273.32 26.85 265.56 24.16 Z" />
</g>
<g id="#565b5b5b">
<path fill="#565b5b" opacity="0.36" d=" M 273.21 24.23 C 273.74 24.77 273.74 24.77 273.21 24.23 Z" />
</g>
<g id="#5958545a">
<path fill="#595854" opacity="0.35" d=" M 129.26 28.30 C 129.82 28.81 129.82 28.81 129.26 28.30 Z" />
</g>
<g id="#43433e43">
<path fill="#43433e" opacity="0.26" d=" M 287.31 29.24 C 287.82 29.76 287.82 29.76 287.31 29.24 Z" />
</g>
<g id="#96796199">
<path fill="#967961" opacity="0.60" d=" M 125.46 31.67 C 127.19 30.22 129.34 29.76 131.55 29.56 C 131.88 29.82 132.52 30.33 132.85 30.59 C 126.53 31.86 121.49 36.01 115.86 38.84 C 115.68 39.35 115.51 39.86 115.33 40.38 C 115.12 40.44 114.69 40.55 114.48 40.61 C 111.68 41.07 109.01 42.09 106.70 43.74 C 101.20 47.50 95.56 51.07 90.42 55.32 C 86.94 58.22 82.91 60.49 79.97 64.01 C 75.54 69.20 70.20 73.53 65.73 78.69 C 59.95 85.34 54.68 92.41 49.58 99.59 C 45.59 104.93 43.27 111.31 39.13 116.57 C 38.71 113.72 41.06 111.68 42.32 109.40 C 43.37 106.38 47.25 103.34 45.20 100.03 L 45.52 100.27 C 46.13 100.51 47.34 100.99 47.95 101.23 C 47.97 100.51 48.01 99.07 48.03 98.35 C 49.32 97.13 50.61 95.91 51.92 94.71 C 50.05 93.16 52.54 92.43 53.59 91.56 C 55.45 88.76 58.02 86.51 59.66 83.55 L 59.23 83.95 C 59.22 83.18 59.20 81.65 59.18 80.89 C 59.93 81.42 60.67 81.94 61.43 82.45 C 62.08 81.46 62.74 80.47 63.43 79.51 C 63.83 78.33 64.17 77.14 64.45 75.93 C 65.03 76.44 65.61 76.94 66.20 77.44 C 66.12 76.54 65.98 74.74 65.91 73.84 C 66.43 74.18 67.46 74.86 67.98 75.20 C 67.99 74.75 68.02 73.85 68.04 73.40 C 69.55 72.89 70.71 71.84 71.41 70.42 C 76.07 67.34 79.58 62.78 82.42 58.03 C 82.69 58.28 83.24 58.77 83.52 59.02 C 85.59 57.84 87.59 56.39 88.49 54.08 C 89.00 54.04 90.02 53.95 90.53 53.91 C 91.73 52.68 93.01 51.53 94.38 50.49 C 94.26 50.11 94.02 49.35 93.91 48.97 C 94.29 49.16 95.06 49.55 95.44 49.74 C 99.68 47.00 104.06 44.27 107.02 40.06 C 106.98 40.72 106.90 42.03 106.86 42.68 C 107.51 42.16 108.81 41.11 109.47 40.59 C 110.09 40.38 111.34 39.97 111.97 39.76 C 112.00 39.39 112.06 38.65 112.09 38.29 C 116.58 37.69 119.67 33.83 124.00 32.67 C 123.97 32.27 123.92 31.45 123.90 31.05 C 124.29 31.20 125.07 31.52 125.46 31.67 Z" />
</g>
<g id="#4d4b494d">
<path fill="#4d4b49" opacity="0.30" d=" M 121.30 31.27 C 121.81 31.81 121.81 31.81 121.30 31.27 Z" />
</g>
<g id="#91827294">
<path fill="#918272" opacity="0.58" d=" M 289.63 33.96 C 292.40 33.63 294.58 35.46 296.37 37.31 C 293.92 36.66 291.58 35.61 289.63 33.96 Z" />
</g>
<g id="#927e6e96">
<path fill="#927e6e" opacity="0.59" d=" M 297.19 37.91 C 300.16 37.91 302.13 40.35 304.50 41.77 C 304.80 41.62 305.39 41.31 305.69 41.16 C 306.98 42.46 308.21 43.81 309.33 45.27 C 304.99 43.36 300.66 41.21 297.19 37.91 Z" />
</g>
<g id="#c78451ca">
<path fill="#c78451" opacity="0.79" d=" M 106.70 43.74 C 109.01 42.09 111.68 41.07 114.48 40.61 C 110.16 44.08 105.08 46.40 100.58 49.62 C 96.35 52.30 92.59 55.61 88.63 58.65 C 82.65 62.92 78.01 68.69 72.63 73.64 C 64.10 81.60 57.67 91.39 50.69 100.65 C 41.79 114.59 35.09 129.81 29.37 145.30 C 26.99 151.43 27.06 158.39 23.61 164.08 C 24.34 159.16 25.72 154.35 26.26 149.40 C 29.91 138.23 35.54 127.83 39.10 116.63 L 39.13 116.57 C 43.27 111.31 45.59 104.93 49.58 99.59 C 54.68 92.41 59.95 85.34 65.73 78.69 C 70.20 73.53 75.54 69.20 79.97 64.01 C 82.91 60.49 86.94 58.22 90.42 55.32 C 95.56 51.07 101.20 47.50 106.70 43.74 Z" />
</g>
<g id="#52514e53">
<path fill="#52514e" opacity="0.33" d=" M 90.34 50.10 C 93.34 48.55 90.51 53.40 90.34 50.10 Z" />
</g>
<g id="#7f756b81">
<path fill="#7f756b" opacity="0.51" d=" M 316.11 49.75 C 317.47 50.05 318.52 50.96 319.54 51.85 C 320.69 52.01 321.84 52.15 323.00 52.28 L 323.00 54.15 C 323.50 53.84 324.49 53.23 324.99 52.92 L 324.88 53.56 L 324.12 54.43 C 324.30 54.73 324.66 55.34 324.84 55.64 C 321.49 54.45 318.44 52.45 316.11 49.75 Z" />
</g>
<g id="#39393a3c">
<path fill="#39393a" opacity="0.24" d=" M 83.29 55.27 C 83.83 55.76 83.83 55.76 83.29 55.27 Z" />
</g>
<g id="#7e6d5e81">
<path fill="#7e6d5e" opacity="0.51" d=" M 324.96 54.99 C 325.97 55.63 327.53 56.16 327.39 57.68 C 328.40 58.78 330.04 59.54 329.99 61.31 C 330.56 60.82 331.13 60.33 331.70 59.83 C 331.79 60.62 331.96 62.21 332.04 63.01 C 329.67 61.36 327.39 59.56 325.16 57.72 C 325.11 57.32 325.00 56.53 324.94 56.13 L 324.96 54.99 Z" />
</g>
<g id="#302f2d30">
<path fill="#302f2d" opacity="0.19" d=" M 337.29 62.30 C 337.79 62.81 337.79 62.81 337.29 62.30 Z" />
</g>
<g id="#41434545">
<path fill="#414345" opacity="0.27" d=" M 74.27 64.31 C 74.78 64.84 74.78 64.84 74.27 64.31 Z" />
</g>
<g id="#4e515152">
<path fill="#4e5151" opacity="0.32" d=" M 337.28 64.27 C 337.77 64.83 337.77 64.83 337.28 64.27 Z" />
</g>
<g id="#8c7c6e8f">
<path fill="#8c7c6e" opacity="0.56" d=" M 334.16 65.21 C 335.41 64.47 337.24 65.44 337.86 66.63 C 337.77 66.96 337.57 67.62 337.48 67.95 C 335.73 68.13 334.75 66.61 334.16 65.21 Z" />
</g>
<g id="#9888799b">
<path fill="#988879" opacity="0.61" d=" M 338.40 69.19 C 338.71 68.86 339.32 68.20 339.63 67.87 C 340.93 69.83 342.36 71.74 343.23 73.94 C 341.45 72.54 339.77 71.00 338.40 69.19 Z" />
</g>
<g id="#45454347">
<path fill="#454543" opacity="0.28" d=" M 342.21 68.24 C 342.71 68.77 342.71 68.77 342.21 68.24 Z" />
</g>
<g id="#42413e43">
<path fill="#42413e" opacity="0.26" d=" M 344.23 70.30 C 344.79 70.76 344.79 70.76 344.23 70.30 Z" />
</g>
<g id="#8c7e6f8e">
<path fill="#8c7e6f" opacity="0.56" d=" M 346.88 77.91 C 346.03 77.61 344.61 76.99 345.36 75.85 C 346.75 74.87 348.84 77.17 346.88 77.91 Z" />
</g>
<g id="#81756a85">
<path fill="#81756a" opacity="0.52" d=" M 349.06 80.20 C 349.69 80.19 350.94 80.18 351.56 80.17 C 351.49 80.67 351.35 81.68 351.27 82.18 C 349.77 82.91 348.91 81.59 349.06 80.20 Z" />
</g>
<g id="#9b826ca0">
<path fill="#9b826c" opacity="0.63" d=" M 352.03 84.06 L 352.40 83.84 C 353.59 84.60 355.42 86.13 354.80 87.71 C 353.32 87.28 352.26 86.03 351.79 84.61 L 352.03 84.06 Z" />
</g>
<g id="#40444444">
<path fill="#404444" opacity="0.27" d=" M 356.25 84.29 C 356.79 84.78 356.79 84.78 356.25 84.29 Z" />
</g>
<g id="#61605b62">
<path fill="#61605b" opacity="0.38" d=" M 357.22 87.24 C 357.78 87.76 357.78 87.76 357.22 87.24 Z" />
</g>
<g id="#918c8795">
<path fill="#918c87" opacity="0.58" d=" M 356.12 89.11 C 357.70 88.75 358.31 89.36 357.93 90.93 C 356.76 90.91 356.16 90.30 356.12 89.11 Z" />
</g>
<g id="#6c696570">
<path fill="#6c6965" opacity="0.44" d=" M 358.30 92.18 C 358.98 91.30 359.79 91.05 360.71 91.43 C 361.23 92.62 361.18 93.77 360.53 94.87 C 359.28 94.52 358.52 93.40 358.30 92.18 Z" />
</g>
<g id="#2f2e3eff">
<path fill="#2f2e3e" opacity="1.00" d=" M 248.58 93.77 C 258.17 91.92 268.42 93.95 276.54 99.39 C 287.75 106.67 295.03 118.98 297.72 131.91 C 300.87 147.28 298.21 164.11 289.10 177.06 C 281.95 187.60 270.02 195.33 257.08 195.66 C 246.27 196.20 235.68 191.42 228.07 183.88 C 210.00 165.93 207.59 135.35 220.85 113.96 C 226.99 104.00 236.91 95.98 248.58 93.77 M 247.54 126.62 C 237.02 129.41 229.72 139.40 228.23 149.90 C 227.87 153.64 226.47 158.36 229.64 161.30 C 232.82 164.61 239.34 162.66 239.90 158.01 C 240.35 153.08 240.54 147.79 243.64 143.65 C 247.19 138.19 255.33 136.44 260.65 140.32 C 265.77 143.69 267.58 150.15 267.63 155.98 C 267.31 159.56 270.28 163.30 274.05 162.92 C 277.25 163.04 280.00 160.13 280.11 157.01 C 280.25 148.26 277.49 139.05 271.05 132.87 C 265.02 126.87 255.76 124.28 247.54 126.62 Z" />
<path fill="#2f2e3e" opacity="1.00" d=" M 152.44 126.56 C 160.76 124.17 170.19 126.63 176.32 132.72 C 182.58 138.71 185.30 147.55 185.41 156.05 C 185.71 159.01 183.85 162.05 180.94 162.85 C 177.18 164.20 172.58 161.07 172.78 156.99 C 172.68 151.27 171.33 145.04 166.77 141.17 C 162.49 137.46 155.58 137.38 151.33 141.18 C 146.70 144.98 145.49 151.27 145.33 156.95 C 145.52 160.77 141.55 163.80 137.93 163.04 C 135.42 162.59 133.17 160.53 132.83 157.95 C 131.75 144.83 139.07 130.17 152.44 126.56 Z" />
<path fill="#2f2e3e" opacity="1.00" d=" M 171.13 201.17 C 179.18 196.24 188.75 194.74 198.00 193.85 C 210.46 193.04 223.29 193.71 235.14 197.94 C 241.37 200.24 247.96 204.25 249.84 211.06 C 251.32 218.39 248.64 226.22 243.57 231.60 C 235.58 240.41 224.00 244.71 212.80 247.77 C 212.82 259.41 215.32 272.50 224.62 280.40 C 231.87 285.79 241.11 287.96 250.00 288.40 C 257.78 288.48 266.42 286.83 271.92 280.89 C 274.78 278.11 274.22 272.93 278.15 271.16 C 282.13 268.97 287.52 272.44 287.24 276.95 C 286.08 285.99 279.06 293.29 271.01 296.98 C 259.55 302.22 246.39 301.82 234.36 298.95 C 233.57 308.01 230.46 318.26 221.61 322.51 C 212.06 326.81 200.27 326.86 190.83 322.22 C 182.26 317.89 179.49 307.82 178.55 298.99 C 166.54 301.73 153.42 302.27 142.01 296.97 C 133.88 293.40 126.97 286.01 125.70 277.02 C 125.37 272.39 130.95 268.90 134.97 271.22 C 138.10 272.68 138.17 276.58 139.81 279.22 C 142.74 284.05 148.41 286.28 153.66 287.54 C 164.40 289.68 175.86 287.63 185.43 282.38 C 192.49 278.45 196.37 270.71 198.34 263.16 C 199.55 258.08 200.54 252.80 199.81 247.57 C 189.12 244.86 178.30 240.61 170.38 232.69 C 165.00 227.36 161.68 219.56 162.93 211.95 C 163.78 207.31 167.17 203.52 171.13 201.17 M 197.48 207.75 C 193.61 208.52 189.00 209.01 186.40 212.35 C 185.38 215.07 188.68 216.55 190.70 217.33 C 198.83 220.01 207.65 220.01 216.07 218.85 C 219.57 218.22 223.48 217.58 226.12 215.01 C 228.09 212.45 224.81 210.25 222.64 209.53 C 214.62 206.71 205.84 206.77 197.48 207.75 M 206.36 277.86 C 202.79 284.55 197.54 290.49 190.71 293.97 C 191.60 299.16 191.38 305.04 194.71 309.43 C 199.83 314.10 207.70 313.25 213.97 312.02 C 221.67 309.78 221.10 300.35 222.24 294.02 C 215.35 290.49 210.26 284.42 206.36 277.86 Z" />
</g>
<g id="#907c6b92">
<path fill="#907c6b" opacity="0.57" d=" M 360.90 95.67 C 363.33 97.11 364.61 99.59 364.95 102.34 C 363.38 100.26 361.86 98.11 360.90 95.67 Z" />
</g>
<g id="#8c74608f">
<path fill="#8c7460" opacity="0.56" d=" M 364.95 102.34 C 365.42 101.93 366.36 101.12 366.83 100.71 L 367.08 102.07 L 365.56 101.83 C 367.29 104.21 368.10 109.01 371.86 108.35 L 371.92 109.02 C 371.39 108.94 370.33 108.78 369.81 108.70 C 370.31 109.65 370.80 110.61 371.29 111.57 C 372.12 113.26 373.00 114.92 373.97 116.54 L 374.01 115.02 L 375.00 114.88 C 374.63 115.71 374.28 116.55 373.93 117.39 C 374.56 118.36 375.17 119.34 375.79 120.33 C 376.70 122.49 377.62 124.69 379.21 126.46 C 379.27 127.49 379.00 128.64 379.81 129.50 C 379.90 130.00 380.07 130.99 380.15 131.49 C 380.44 132.03 381.00 133.11 381.29 133.65 C 382.45 135.60 383.68 137.52 384.85 139.47 C 383.42 140.72 384.16 142.09 385.60 142.73 C 385.44 143.30 385.29 143.88 385.15 144.45 C 385.79 145.53 386.14 146.71 386.20 147.99 C 386.66 147.98 387.56 147.95 388.01 147.94 C 387.52 149.03 387.04 150.12 386.57 151.22 C 384.49 145.73 383.09 139.98 380.61 134.63 C 378.90 130.87 378.06 126.61 375.08 123.55 C 374.94 123.34 374.66 122.91 374.52 122.70 C 373.29 115.18 367.96 109.19 364.95 102.34 Z" />
</g>
<g id="#57545157">
<path fill="#575451" opacity="0.34" d=" M 39.29 110.24 C 39.81 110.78 39.81 110.78 39.29 110.24 Z" />
</g>
<g id="#5c5a575c">
<path fill="#5c5a57" opacity="0.36" d=" M 38.25 112.26 C 38.82 112.76 38.82 112.76 38.25 112.26 Z" />
</g>
<g id="#61676868">
<path fill="#616768" opacity="0.41" d=" M 37.28 115.26 C 37.85 115.80 37.85 115.80 37.28 115.26 Z" />
</g>
<g id="#292c2c2c">
<path fill="#292c2c" opacity="0.17" d=" M 34.28 116.22 C 34.74 116.77 34.74 116.77 34.28 116.22 Z" />
</g>
<g id="#96775e9a">
<path fill="#96775e" opacity="0.60" d=" M 36.68 119.61 C 37.10 118.31 37.65 117.04 39.10 116.63 C 35.54 127.83 29.91 138.23 26.26 149.40 C 25.65 147.60 25.83 146.01 26.80 144.62 C 25.53 143.30 26.83 142.31 27.87 141.54 C 27.93 141.01 28.05 139.94 28.11 139.40 C 28.70 138.46 29.30 137.52 29.90 136.58 C 29.95 136.04 30.06 134.95 30.12 134.41 C 30.68 133.49 31.22 132.56 31.76 131.63 C 32.04 128.99 33.46 126.76 34.86 124.59 C 34.94 124.05 35.09 122.99 35.17 122.46 C 35.68 121.51 36.18 120.56 36.68 119.61 Z" />
</g>
<g id="#bf7f4ec1">
<path fill="#bf7f4e" opacity="0.76" d=" M 375.08 123.55 C 378.06 126.61 378.90 130.87 380.61 134.63 C 383.09 139.98 384.49 145.73 386.57 151.22 L 386.72 151.85 C 387.36 158.71 389.65 165.24 390.73 172.02 C 391.51 176.17 390.76 180.66 392.75 184.54 L 392.74 185.04 C 392.51 191.02 393.30 196.99 393.21 202.98 C 393.15 208.49 392.54 213.99 392.81 219.50 C 392.78 220.06 392.71 221.17 392.68 221.72 C 392.27 224.32 391.85 226.93 391.81 229.57 C 391.74 230.24 391.59 231.57 391.51 232.23 C 390.95 234.05 390.65 235.94 390.87 237.84 L 390.52 239.11 C 390.04 240.30 389.74 241.56 389.83 242.85 L 389.67 244.13 C 388.90 246.76 388.28 249.43 387.96 252.16 C 387.89 252.68 387.75 253.73 387.68 254.25 C 385.94 255.51 385.82 257.70 385.92 259.66 L 385.75 260.51 C 383.73 265.99 382.58 271.75 380.23 277.11 C 374.63 290.41 369.57 304.11 361.34 316.08 C 358.90 321.51 354.62 325.75 351.86 331.00 L 351.57 331.50 L 350.71 332.27 C 347.45 335.23 345.54 339.32 342.43 342.42 C 339.12 346.25 334.95 349.52 332.89 354.26 L 332.61 354.85 L 331.80 355.13 C 330.41 355.37 329.67 356.61 329.12 357.78 C 328.26 359.55 326.64 360.73 325.13 361.92 C 321.26 365.15 317.47 368.53 314.02 372.22 L 313.52 372.80 L 312.69 372.92 C 310.98 372.88 309.65 374.14 309.23 375.73 L 308.84 376.69 L 308.28 376.93 C 306.26 377.63 304.43 378.82 303.30 380.67 L 302.59 381.66 L 302.29 381.83 C 299.01 383.51 295.91 385.53 292.79 387.49 L 293.32 385.63 C 299.33 382.05 304.48 377.30 309.78 372.78 C 313.51 369.50 318.08 367.16 321.15 363.16 C 325.20 357.92 330.46 353.81 334.68 348.72 C 338.26 344.32 342.54 340.51 345.79 335.84 C 349.37 330.71 353.53 326.00 356.78 320.65 C 362.25 311.65 368.26 302.84 371.93 292.90 C 375.13 284.70 379.42 276.91 381.62 268.34 C 384.11 258.85 387.41 249.52 388.60 239.73 C 389.80 230.20 390.81 220.63 391.37 211.04 C 391.20 201.89 391.92 192.69 390.67 183.59 C 389.33 170.06 386.47 156.68 382.52 143.68 C 380.54 136.78 376.65 130.59 375.08 123.55 Z" />
</g>
<g id="#58565358">
<path fill="#585653" opacity="0.35" d=" M 379.24 124.30 C 379.75 124.86 379.75 124.86 379.24 124.30 Z" />
</g>
<g id="#fea968ff">
<path fill="#fea968" opacity="1.00" d=" M 247.54 126.62 C 255.76 124.28 265.02 126.87 271.05 132.87 C 277.49 139.05 280.25 148.26 280.11 157.01 C 280.00 160.13 277.25 163.04 274.05 162.92 C 270.28 163.30 267.31 159.56 267.63 155.98 C 267.58 150.15 265.77 143.69 260.65 140.32 C 255.33 136.44 247.19 138.19 243.64 143.65 C 240.54 147.79 240.35 153.08 239.90 158.01 C 239.34 162.66 232.82 164.61 229.64 161.30 C 226.47 158.36 227.87 153.64 228.23 149.90 C 229.72 139.40 237.02 129.41 247.54 126.62 Z" />
</g>
<g id="#504d4950">
<path fill="#504d49" opacity="0.31" d=" M 382.28 131.25 C 382.76 131.82 382.76 131.82 382.28 131.25 Z" />
</g>
<g id="#5558595a">
<path fill="#555859" opacity="0.35" d=" M 383.26 134.25 C 383.76 134.81 383.76 134.81 383.26 134.25 Z" />
</g>
<g id="#9c77599f">
<path fill="#9c7759" opacity="0.62" d=" M 24.09 147.86 C 24.63 148.24 25.72 149.01 26.26 149.40 C 25.72 154.35 24.34 159.16 23.61 164.08 C 22.93 166.02 22.10 167.90 21.34 169.81 C 21.16 168.06 20.56 166.13 21.61 164.53 C 21.60 163.08 22.10 161.72 22.80 160.47 C 22.94 159.49 23.08 158.52 23.21 157.55 C 23.75 155.85 24.17 154.10 24.84 152.44 C 24.92 151.31 24.99 150.18 25.05 149.05 L 23.98 148.95 L 24.09 147.86 Z" />
</g>
<g id="#4f4e4b4f">
<path fill="#4f4e4b" opacity="0.31" d=" M 22.08 151.33 C 25.40 151.45 20.58 154.35 22.08 151.33 Z" />
<path fill="#4f4e4b" opacity="0.31" d=" M 356.28 329.26 C 356.78 329.82 356.78 329.82 356.28 329.26 Z" />
</g>
<g id="#55535055">
<path fill="#555350" opacity="0.33" d=" M 389.06 151.31 C 392.37 151.36 387.62 154.37 389.06 151.31 Z" />
</g>
<g id="#99785d9b">
<path fill="#99785d" opacity="0.61" d=" M 386.72 151.85 L 388.00 151.94 C 388.00 153.28 388.00 154.62 388.00 155.97 C 388.48 155.96 389.43 155.95 389.91 155.95 C 389.09 157.39 388.50 159.16 389.80 160.56 C 389.93 161.52 390.07 162.48 390.21 163.44 C 391.46 167.30 391.79 171.42 392.19 175.44 C 393.75 178.20 392.79 181.54 392.75 184.54 C 390.76 180.66 391.51 176.17 390.73 172.02 C 389.65 165.24 387.36 158.71 386.72 151.85 Z" />
</g>
<g id="#62686868">
<path fill="#626868" opacity="0.41" d=" M 22.28 155.23 C 22.81 155.81 22.81 155.81 22.28 155.23 Z" />
</g>
<g id="#2c303030">
<path fill="#2c3030" opacity="0.19" d=" M 19.28 156.24 C 19.79 156.73 19.79 156.73 19.28 156.24 Z" />
</g>
<g id="#4d4e4c4f">
<path fill="#4d4e4c" opacity="0.31" d=" M 18.60 163.01 C 19.97 162.46 20.65 164.86 19.86 165.73 C 18.54 166.18 17.91 163.86 18.60 163.01 Z" />
</g>
<g id="#bd7e4dbf">
<path fill="#bd7e4d" opacity="0.75" d=" M 21.34 169.81 C 22.10 167.90 22.93 166.02 23.61 164.08 C 23.60 167.40 23.45 170.74 22.85 174.02 C 19.16 197.12 20.02 220.86 25.09 243.68 C 25.34 246.52 25.48 249.38 25.97 252.20 C 25.33 251.23 24.68 250.28 24.00 249.35 C 24.04 248.98 24.13 248.24 24.18 247.87 C 24.36 246.84 24.10 245.91 23.38 245.10 L 23.24 244.51 C 22.91 241.37 22.26 238.27 21.32 235.25 C 21.28 234.96 21.19 234.36 21.15 234.06 C 20.46 228.81 21.49 223.27 19.48 218.26 L 19.41 218.02 C 18.81 208.17 18.81 198.32 19.16 188.47 C 19.20 187.92 19.27 186.81 19.31 186.26 C 19.75 183.54 20.13 180.82 20.25 178.07 C 20.31 177.50 20.42 176.36 20.48 175.79 C 21.01 174.04 21.38 172.25 21.30 170.41 L 21.34 169.81 Z" />
</g>
<g id="#80736784">
<path fill="#807367" opacity="0.52" d=" M 20.48 175.79 C 19.40 174.46 19.04 170.42 21.30 170.41 C 21.38 172.25 21.01 174.04 20.48 175.79 Z" />
</g>
<g id="#8c756290">
<path fill="#8c7562" opacity="0.56" d=" M 18.97 177.98 L 20.25 178.07 C 20.13 180.82 19.75 183.54 19.31 186.26 C 19.02 183.51 18.97 180.74 18.97 177.98 Z" />
</g>
<g id="#8f766490">
<path fill="#8f7664" opacity="0.56" d=" M 392.74 185.04 L 393.89 184.05 C 394.03 196.17 394.01 208.29 393.90 220.41 L 392.81 219.50 C 392.54 213.99 393.15 208.49 393.21 202.98 C 393.30 196.99 392.51 191.02 392.74 185.04 Z" />
</g>
<g id="#8e7a6b8f">
<path fill="#8e7a6b" opacity="0.56" d=" M 18.12 187.58 L 19.16 188.47 C 18.81 198.32 18.81 208.17 19.41 218.02 L 18.01 217.99 C 18.07 207.85 17.91 197.71 18.12 187.58 Z" />
</g>
<g id="#9c7a5e9f">
<path fill="#9c7a5e" opacity="0.62" d=" M 19.48 218.26 C 21.49 223.27 20.46 228.81 21.15 234.06 L 20.19 233.98 C 20.07 231.64 18.90 229.35 19.68 227.02 C 18.84 224.16 18.82 221.16 19.48 218.26 Z" />
</g>
<g id="#8d76648f">
<path fill="#8d7664" opacity="0.56" d=" M 391.81 229.57 C 391.85 226.93 392.27 224.32 392.68 221.72 C 393.00 224.60 393.07 227.50 392.95 230.39 L 391.81 229.57 Z" />
</g>
<g id="#8b7c7090">
<path fill="#8b7c70" opacity="0.56" d=" M 390.87 237.84 C 390.65 235.94 390.95 234.05 391.51 232.23 C 392.48 233.63 393.03 237.56 390.87 237.84 Z" />
</g>
<g id="#59585459">
<path fill="#595854" opacity="0.35" d=" M 19.08 236.25 C 22.39 236.39 17.57 239.27 19.08 236.25 Z" />
</g>
<g id="#90817695">
<path fill="#908176" opacity="0.58" d=" M 21.32 235.25 C 22.26 238.27 22.91 241.37 23.24 244.51 C 21.55 243.30 22.32 240.89 21.04 239.40 C 21.09 238.01 21.18 236.63 21.32 235.25 Z" />
</g>
<g id="#9886789c">
<path fill="#988678" opacity="0.61" d=" M 389.83 242.85 C 389.74 241.56 390.04 240.30 390.52 239.11 C 391.75 239.91 391.73 243.24 389.83 242.85 Z" />
</g>
<g id="#5a57555a">
<path fill="#5a5755" opacity="0.35" d=" M 392.08 241.32 C 395.37 241.31 390.69 244.41 392.08 241.32 Z" />
</g>
<g id="#c68451c8">
<path fill="#c68451" opacity="0.78" d=" M 25.09 243.68 C 30.00 262.31 36.53 280.71 46.94 297.03 C 52.58 307.90 60.59 317.24 68.36 326.60 C 74.25 333.72 81.58 339.39 88.31 345.65 C 95.88 350.77 102.64 357.05 110.72 361.40 C 115.33 363.98 120.45 365.74 124.45 369.31 C 117.64 367.08 111.50 363.32 105.26 359.88 C 103.15 358.61 101.08 357.28 98.94 356.06 C 97.63 355.28 96.27 354.59 94.93 353.87 C 93.66 353.11 92.64 352.02 91.57 351.02 C 89.03 348.37 86.13 346.10 83.02 344.17 L 82.43 343.78 L 82.07 343.25 C 79.86 339.43 76.04 337.06 73.06 333.92 C 68.85 329.95 65.70 324.98 61.24 321.29 L 60.31 320.54 L 60.17 320.26 C 57.77 315.10 53.77 310.97 50.70 306.23 C 43.73 295.50 37.47 284.27 32.77 272.36 C 30.34 265.70 28.16 258.95 25.97 252.20 C 25.48 249.38 25.34 246.52 25.09 243.68 Z" />
</g>
<g id="#93807097">
<path fill="#938070" opacity="0.59" d=" M 387.96 252.16 C 388.28 249.43 388.90 246.76 389.67 244.13 L 391.05 243.71 C 390.60 245.31 390.13 246.92 389.65 248.52 C 389.26 249.68 388.97 250.87 388.79 252.09 L 387.96 252.16 Z" />
</g>
<g id="#92806e94">
<path fill="#92806e" opacity="0.58" d=" M 23.38 245.10 C 24.10 245.91 24.36 246.84 24.18 247.87 L 23.40 247.89 L 22.79 247.03 C 22.93 246.55 23.23 245.58 23.38 245.10 Z" />
</g>
<g id="#45494949">
<path fill="#454949" opacity="0.29" d=" M 21.29 248.28 C 21.82 248.79 21.82 248.79 21.29 248.28 Z" />
</g>
<g id="#987a639b">
<path fill="#987a63" opacity="0.61" d=" M 24.00 249.35 C 24.68 250.28 25.33 251.23 25.97 252.20 C 28.16 258.95 30.34 265.70 32.77 272.36 C 37.47 284.27 43.73 295.50 50.70 306.23 C 53.77 310.97 57.77 315.10 60.17 320.26 C 57.64 318.62 55.75 316.23 54.33 313.61 C 53.54 311.91 52.21 310.59 50.69 309.54 C 50.78 309.16 50.96 308.38 51.05 308.00 C 50.32 308.00 48.86 308.01 48.14 308.02 C 48.45 307.14 49.07 305.40 49.38 304.52 C 48.69 305.04 48.02 305.57 47.36 306.12 C 47.14 304.56 46.90 303.01 46.46 301.50 C 45.27 299.96 44.18 298.34 43.34 296.59 C 41.39 293.89 39.13 291.33 38.83 287.84 C 38.41 288.12 37.56 288.68 37.13 288.96 L 36.89 288.01 L 38.29 287.96 C 38.04 287.36 37.56 286.16 37.31 285.56 C 36.43 283.84 35.57 282.11 34.79 280.34 C 34.01 279.04 33.18 277.77 32.30 276.54 C 33.42 274.40 30.80 272.44 30.11 270.52 C 30.04 269.49 29.97 268.45 29.91 267.42 C 29.31 266.48 28.72 265.54 28.12 264.60 C 28.04 264.08 27.88 263.03 27.80 262.51 C 27.40 261.52 27.02 260.53 26.65 259.53 C 26.33 258.50 26.02 257.47 25.72 256.45 C 24.35 254.31 23.68 251.89 24.00 249.35 Z" />
</g>
<g id="#59575259">
<path fill="#595752" opacity="0.35" d=" M 390.10 252.26 C 393.39 252.48 388.51 255.24 390.10 252.26 Z" />
</g>
<g id="#9c806b9e">
<path fill="#9c806b" opacity="0.62" d=" M 385.92 259.66 C 385.82 257.70 385.94 255.51 387.68 254.25 C 388.42 255.82 387.65 259.33 385.92 259.66 Z" />
</g>
<g id="#5c5b575c">
<path fill="#5c5b57" opacity="0.36" d=" M 389.26 256.25 C 389.78 256.80 389.78 256.80 389.26 256.25 Z" />
</g>
<g id="#3f434343">
<path fill="#3f4343" opacity="0.26" d=" M 389.22 259.31 C 389.72 259.83 389.72 259.83 389.22 259.31 Z" />
</g>
<g id="#8975648c">
<path fill="#897564" opacity="0.55" d=" M 380.23 277.11 C 382.58 271.75 383.73 265.99 385.75 260.51 C 386.14 261.98 385.95 263.33 385.17 264.57 C 385.04 265.86 384.94 267.15 384.84 268.45 C 383.97 270.57 383.43 272.87 381.96 274.69 C 382.31 275.49 382.67 276.28 383.03 277.08 C 382.60 277.06 381.73 277.02 381.29 277.00 C 381.05 277.63 380.57 278.91 380.33 279.55 C 380.07 280.61 379.65 281.61 379.08 282.54 C 379.35 282.90 379.91 283.63 380.19 283.99 C 379.65 284.00 378.58 284.02 378.04 284.03 C 378.00 284.66 377.94 285.94 377.90 286.57 C 377.35 287.50 376.81 288.44 376.28 289.38 C 375.99 289.90 375.42 290.96 375.13 291.49 C 375.07 292.02 374.96 293.07 374.90 293.59 C 374.32 294.52 373.75 295.44 373.18 296.37 C 372.07 300.82 369.79 304.78 367.08 308.44 C 367.05 309.07 367.00 310.34 366.98 310.97 L 364.71 311.06 C 365.24 311.61 366.29 312.70 366.82 313.24 L 367.28 312.04 L 368.19 312.44 C 367.62 312.87 367.06 313.31 366.51 313.75 C 365.99 313.53 364.95 313.09 364.43 312.87 C 363.45 315.37 361.78 317.51 360.05 319.53 C 360.33 319.86 360.90 320.53 361.18 320.86 L 360.11 321.15 C 359.96 322.74 358.78 323.88 357.38 324.50 C 357.11 326.52 352.97 327.88 355.03 329.83 C 353.96 330.20 352.91 330.59 351.86 331.00 C 354.62 325.75 358.90 321.51 361.34 316.08 C 369.57 304.11 374.63 290.41 380.23 277.11 Z" />
</g>
<g id="#53514d53">
<path fill="#53514d" opacity="0.33" d=" M 27.10 266.24 C 30.40 266.43 25.54 269.24 27.10 266.24 Z" />
</g>
<g id="#ea6580ff">
<path fill="#ea6580" opacity="1.00" d=" M 206.36 277.86 C 210.26 284.42 215.35 290.49 222.24 294.02 C 221.10 300.35 221.67 309.78 213.97 312.02 C 207.70 313.25 199.83 314.10 194.71 309.43 C 191.38 305.04 191.60 299.16 190.71 293.97 C 197.54 290.49 202.79 284.55 206.36 277.86 Z" />
</g>
<g id="#5b59565b">
<path fill="#5b5956" opacity="0.36" d=" M 382.26 278.29 C 382.77 278.85 382.77 278.85 382.26 278.29 Z" />
</g>
<g id="#4c4e4f50">
<path fill="#4c4e4f" opacity="0.31" d=" M 373.21 300.29 C 373.73 300.82 373.73 300.82 373.21 300.29 Z" />
</g>
<g id="#51504c51">
<path fill="#51504c" opacity="0.32" d=" M 365.29 315.29 C 365.81 315.83 365.81 315.83 365.29 315.29 Z" />
</g>
<g id="#2d303030">
<path fill="#2d3030" opacity="0.19" d=" M 367.23 315.26 C 367.77 315.72 367.77 315.72 367.23 315.26 Z" />
</g>
<g id="#947e6b98">
<path fill="#947e6b" opacity="0.60" d=" M 61.24 321.29 C 65.70 324.98 68.85 329.95 73.06 333.92 C 76.04 337.06 79.86 339.43 82.07 343.25 C 80.35 343.00 79.11 342.02 78.64 340.34 C 78.10 340.01 77.03 339.36 76.49 339.04 C 76.12 339.31 75.37 339.85 75.00 340.12 C 74.99 339.45 74.98 338.11 74.98 337.44 C 71.63 334.29 68.31 331.10 65.55 327.42 C 65.17 327.21 64.43 326.79 64.05 326.58 L 64.01 328.07 L 62.93 327.85 L 63.94 326.81 C 63.68 326.16 63.16 324.88 62.90 324.24 C 61.58 322.50 59.62 323.42 57.91 323.81 C 58.97 322.91 60.10 322.08 61.24 321.29 Z" />
</g>
<g id="#4c4c494d">
<path fill="#4c4c49" opacity="0.30" d=" M 358.25 326.21 C 358.77 326.73 358.77 326.73 358.25 326.21 Z" />
</g>
<g id="#4e4f4d50">
<path fill="#4e4f4d" opacity="0.31" d=" M 354.19 331.12 C 357.14 329.48 354.47 334.42 354.19 331.12 Z" />
</g>
<g id="#8e756091">
<path fill="#8e7560" opacity="0.57" d=" M 342.43 342.42 C 345.54 339.32 347.45 335.23 350.71 332.27 C 351.06 332.61 351.75 333.28 352.09 333.62 C 349.59 334.22 348.20 336.41 346.99 338.48 C 347.25 338.78 347.78 339.38 348.04 339.68 C 346.68 340.24 345.31 340.79 343.99 341.44 C 344.29 342.06 344.87 343.32 345.17 343.95 C 342.52 341.89 340.75 346.08 339.57 347.91 C 339.28 347.96 338.70 348.04 338.41 348.09 C 337.36 350.75 335.10 352.58 332.89 354.26 C 334.95 349.52 339.12 346.25 342.43 342.42 Z" />
</g>
<g id="#59575459">
<path fill="#595754" opacity="0.35" d=" M 69.22 334.26 C 69.79 334.76 69.79 334.76 69.22 334.26 Z" />
<path fill="#595754" opacity="0.35" d=" M 71.22 336.31 C 71.80 336.80 71.80 336.80 71.22 336.31 Z" />
<path fill="#595754" opacity="0.35" d=" M 209.23 430.27 C 209.78 430.79 209.78 430.79 209.23 430.27 Z" />
</g>
<g id="#36343236">
<path fill="#363432" opacity="0.21" d=" M 351.33 337.24 C 351.85 337.74 351.85 337.74 351.33 337.24 Z" />
</g>
<g id="#6a6a656b">
<path fill="#6a6a65" opacity="0.42" d=" M 77.20 341.22 C 77.78 341.75 77.78 341.75 77.20 341.22 Z" />
</g>
<g id="#4f535454">
<path fill="#4f5354" opacity="0.33" d=" M 78.27 343.28 C 78.81 343.80 78.81 343.80 78.27 343.28 Z" />
</g>
<g id="#7e726680">
<path fill="#7e7266" opacity="0.50" d=" M 83.02 344.17 C 86.13 346.10 89.03 348.37 91.57 351.02 C 88.84 351.46 87.41 348.82 85.65 347.28 C 84.37 346.81 83.10 346.35 81.83 345.87 L 84.15 345.97 L 83.02 344.17 Z" />
</g>
<g id="#695f576b">
<path fill="#695f57" opacity="0.42" d=" M 94.93 353.87 C 96.27 354.59 97.63 355.28 98.94 356.06 C 99.21 356.44 99.77 357.21 100.04 357.59 L 100.26 359.10 L 98.80 358.84 L 99.08 359.99 L 98.36 360.09 C 98.35 358.81 98.21 357.56 97.94 356.31 C 96.45 356.16 95.63 355.04 94.93 353.87 Z" />
</g>
<g id="#8b80788f">
<path fill="#8b8078" opacity="0.56" d=" M 329.12 357.78 C 329.67 356.61 330.41 355.37 331.80 355.13 C 332.95 356.56 330.53 358.91 329.12 357.78 Z" />
</g>
<g id="#80675282">
<path fill="#806752" opacity="0.51" d=" M 98.94 356.06 C 101.08 357.28 103.15 358.61 105.26 359.88 L 104.19 359.91 L 102.69 359.95 L 103.21 360.92 C 102.12 361.33 101.02 361.73 99.93 362.12 C 100.99 361.18 102.07 360.27 103.16 359.36 C 102.38 358.92 100.82 358.03 100.04 357.59 C 99.77 357.21 99.21 356.44 98.94 356.06 Z" />
</g>
<g id="#9b785c9e">
<path fill="#9b785c" opacity="0.62" d=" M 104.19 359.91 L 105.26 359.88 C 111.50 363.32 117.64 367.08 124.45 369.31 C 124.73 369.46 125.29 369.78 125.57 369.94 C 131.07 374.41 138.20 375.79 144.63 378.42 C 150.58 380.89 156.96 382.07 162.88 384.59 C 161.48 387.08 159.92 385.42 158.52 384.17 C 158.03 384.07 157.04 383.88 156.55 383.79 C 155.47 382.66 154.28 383.22 153.16 383.80 C 152.80 383.35 152.08 382.46 151.72 382.01 C 151.05 382.00 149.72 381.97 149.05 381.96 L 148.68 383.48 C 148.74 382.89 148.85 381.70 148.90 381.11 C 147.04 380.82 145.24 380.28 143.48 379.64 C 142.47 379.30 141.46 378.99 140.44 378.71 C 139.49 378.21 138.54 377.72 137.59 377.24 C 135.74 376.97 133.96 376.38 132.49 375.19 C 132.00 375.09 131.03 374.88 130.54 374.77 C 129.52 374.38 128.49 374.02 127.47 373.67 C 126.46 372.97 125.45 372.29 124.43 371.62 C 123.07 370.98 121.72 370.34 120.38 369.70 C 119.45 369.21 118.53 368.72 117.60 368.25 C 115.12 367.15 112.69 365.91 110.51 364.30 C 109.53 363.97 108.55 363.64 107.57 363.31 L 106.14 363.85 L 107.02 362.08 C 105.97 361.01 104.85 361.19 103.73 362.05 C 103.85 361.52 104.07 360.44 104.19 359.91 Z" />
</g>
<g id="#2d2f3030">
<path fill="#2d2f30" opacity="0.19" d=" M 98.27 361.34 C 98.79 361.83 98.79 361.83 98.27 361.34 Z" />
</g>
<g id="#43423f43">
<path fill="#43423f" opacity="0.26" d=" M 329.32 361.17 C 329.81 361.71 329.81 361.71 329.32 361.17 Z" />
</g>
<g id="#857a6f88">
<path fill="#857a6f" opacity="0.53" d=" M 314.02 372.22 C 317.47 368.53 321.26 365.15 325.13 361.92 C 324.11 363.69 323.44 366.24 320.91 366.31 C 321.24 366.72 321.89 367.55 322.22 367.97 C 321.33 367.99 319.55 368.04 318.66 368.06 C 319.31 368.54 320.63 369.49 321.28 369.97 C 320.03 370.00 318.79 370.04 317.54 370.09 C 316.51 371.02 315.45 371.99 314.02 372.22 Z" />
</g>
<g id="#43413f43">
<path fill="#43413f" opacity="0.26" d=" M 327.31 363.20 C 327.80 363.74 327.80 363.74 327.31 363.20 Z" />
</g>
<g id="#c68350c8">
<path fill="#c68350" opacity="0.78" d=" M 125.57 369.94 C 136.10 373.57 146.32 378.15 157.09 381.10 C 167.46 384.48 178.37 385.39 189.11 386.87 C 194.21 387.57 199.61 386.68 204.41 388.96 C 204.09 389.12 203.46 389.45 203.15 389.61 L 202.51 389.95 C 195.45 387.50 187.81 388.45 180.48 387.74 C 180.07 387.73 179.25 387.71 178.83 387.70 C 174.01 385.27 168.36 385.59 163.15 384.62 L 162.88 384.59 C 156.96 382.07 150.58 380.89 144.63 378.42 C 138.20 375.79 131.07 374.41 125.57 369.94 Z" />
</g>
<g id="#92766095">
<path fill="#927660" opacity="0.58" d=" M 309.23 375.73 C 309.65 374.14 310.98 372.88 312.69 372.92 C 313.28 374.51 310.69 376.38 309.23 375.73 Z" />
</g>
<g id="#5f5d595f">
<path fill="#5f5d59" opacity="0.37" d=" M 131.39 376.20 C 131.93 376.75 131.93 376.75 131.39 376.20 Z" />
</g>
<g id="#88735f8c">
<path fill="#88735f" opacity="0.55" d=" M 303.30 380.67 C 304.43 378.82 306.26 377.63 308.28 376.93 C 307.13 378.38 305.88 379.75 304.64 381.12 L 306.09 380.99 L 305.97 382.06 C 305.08 381.59 304.19 381.13 303.30 380.67 Z" />
</g>
<g id="#66635e66">
<path fill="#66635e" opacity="0.40" d=" M 310.23 377.21 C 310.77 377.76 310.77 377.76 310.23 377.21 Z" />
</g>
<g id="#474c4c4c">
<path fill="#474c4c" opacity="0.30" d=" M 309.27 379.26 C 309.77 379.80 309.77 379.80 309.27 379.26 Z" />
</g>
<g id="#997f6a9d">
<path fill="#997f6a" opacity="0.62" d=" M 292.79 387.49 C 295.91 385.53 299.01 383.51 302.29 381.83 C 301.57 382.70 300.84 383.57 300.10 384.44 L 300.99 385.98 L 299.49 385.19 C 298.85 385.46 297.57 385.99 296.93 386.25 C 297.24 386.70 297.84 387.60 298.15 388.04 C 295.42 385.41 293.48 389.28 291.64 390.91 C 291.09 390.96 289.98 391.05 289.42 391.09 C 286.68 393.99 283.17 396.01 279.57 397.67 C 277.66 398.86 276.01 400.60 273.69 401.00 C 274.21 401.60 274.73 402.20 275.26 402.82 C 274.28 402.81 273.37 402.57 272.54 402.10 C 271.16 402.87 269.76 403.60 268.35 404.32 C 268.04 405.79 266.74 406.07 265.44 406.26 C 263.32 407.20 261.30 408.36 259.49 409.83 C 258.99 409.91 257.98 410.07 257.47 410.15 C 256.94 410.43 255.87 410.98 255.33 411.26 C 253.36 412.41 251.45 413.66 249.56 414.94 C 248.37 414.97 247.18 415.00 246.00 415.03 L 246.24 414.02 C 262.53 406.62 278.03 397.58 292.79 387.49 Z" />
</g>
<g id="#9b7c629e">
<path fill="#9b7c62" opacity="0.62" d=" M 163.15 384.62 C 168.36 385.59 174.01 385.27 178.83 387.70 C 176.71 387.73 174.22 388.70 172.42 387.09 C 171.80 387.33 171.19 387.57 170.58 387.83 C 169.21 387.26 167.83 386.72 166.49 386.11 C 165.31 386.05 164.15 386.00 162.98 385.96 L 163.15 384.62 Z" />
</g>
<g id="#302f2e31">
<path fill="#302f2e" opacity="0.19" d=" M 304.23 385.28 C 304.78 385.72 304.78 385.72 304.23 385.28 Z" />
</g>
<g id="#dc935bdd">
<path fill="#dc935b" opacity="0.87" d=" M 271.90 398.92 C 278.90 394.27 285.96 389.70 293.32 385.63 L 292.79 387.49 C 278.03 397.58 262.53 406.62 246.24 414.02 C 236.74 416.91 227.79 421.32 218.32 424.28 C 200.57 429.86 182.33 434.86 163.66 435.70 C 168.04 429.85 175.16 426.80 179.48 420.82 C 180.41 419.75 181.17 418.54 181.94 417.35 L 182.37 416.89 C 185.08 415.16 187.74 413.32 189.88 410.90 C 192.78 407.64 196.21 404.75 198.28 400.84 L 198.04 400.80 L 198.26 400.27 L 198.92 399.85 C 201.58 398.51 203.43 396.12 204.69 393.48 L 204.74 392.82 L 205.23 392.11 C 205.77 391.80 206.84 391.18 207.37 390.87 C 207.17 393.13 206.74 395.45 205.31 397.29 C 196.44 410.52 182.81 419.46 172.68 431.59 C 182.41 432.46 191.77 429.24 201.10 427.02 C 216.97 422.62 232.35 416.65 247.64 410.58 C 253.28 407.73 258.81 404.65 264.59 402.07 C 267.10 401.23 269.67 400.40 271.90 398.92 Z" />
</g>
<g id="#36363438">
<path fill="#363634" opacity="0.22" d=" M 302.25 386.25 C 302.78 386.73 302.78 386.73 302.25 386.25 Z" />
</g>
<g id="#9d795da0">
<path fill="#9d795d" opacity="0.63" d=" M 180.48 387.74 C 187.81 388.45 195.45 387.50 202.51 389.95 C 197.88 389.97 193.23 390.07 188.60 389.86 C 185.87 388.28 182.58 389.23 179.60 388.87 L 180.48 387.74 Z" />
</g>
<g id="#c8ab95cd">
<path fill="#c8ab95" opacity="0.80" d=" M 203.15 389.61 C 203.46 389.45 204.09 389.12 204.41 388.96 C 205.43 389.32 206.45 389.71 207.47 390.11 L 207.37 390.87 C 206.84 391.18 205.77 391.80 205.23 392.11 C 205.11 391.53 204.87 390.37 204.75 389.79 C 204.17 390.96 203.37 391.96 202.37 392.79 C 202.56 391.99 202.95 390.41 203.15 389.61 Z" />
</g>
<g id="#a4846aa8">
<path fill="#a4846a" opacity="0.66" d=" M 199.78 398.14 C 201.57 396.55 201.88 392.73 204.74 392.82 L 204.69 393.48 C 203.43 396.12 201.58 398.51 198.92 399.85 C 198.36 399.29 197.98 398.33 197.78 396.94 C 198.28 397.24 199.28 397.84 199.78 398.14 Z" />
</g>
<g id="#47484749">
<path fill="#474847" opacity="0.29" d=" M 195.30 397.14 C 198.26 395.53 195.52 400.45 195.30 397.14 Z" />
</g>
<g id="#716d6771">
<path fill="#716d67" opacity="0.44" d=" M 196.36 399.82 C 196.66 399.99 196.66 399.99 196.36 399.82 Z" />
</g>
<g id="#4f545454">
<path fill="#4f5454" opacity="0.33" d=" M 194.24 400.24 C 194.77 400.77 194.77 400.77 194.24 400.24 Z" />
</g>
<g id="#403f3c40">
<path fill="#403f3c" opacity="0.25" d=" M 278.20 400.12 C 279.60 399.82 280.14 400.36 279.83 401.74 C 278.43 402.02 277.89 401.48 278.20 400.12 Z" />
</g>
<g id="#8c746090">
<path fill="#8c7460" opacity="0.56" d=" M 192.84 406.18 C 194.23 404.11 195.91 402.12 198.04 400.80 L 198.28 400.84 C 196.21 404.75 192.78 407.64 189.88 410.90 C 187.74 413.32 185.08 415.16 182.37 416.89 C 183.32 413.84 186.07 411.91 188.84 410.64 C 188.93 410.16 189.13 409.20 189.22 408.73 L 187.55 408.80 C 188.66 407.80 189.85 406.89 191.12 406.09 C 190.83 405.27 190.54 404.46 190.24 403.65 C 191.11 404.48 191.97 405.34 192.84 406.18 M 190.00 407.92 C 190.53 408.51 190.53 408.51 190.00 407.92 Z" />
</g>
<g id="#2b2d2c2d">
<path fill="#2b2d2c" opacity="0.18" d=" M 281.10 401.25 C 284.42 401.51 279.46 404.18 281.10 401.25 Z" />
</g>
<g id="#4a505050">
<path fill="#4a5050" opacity="0.31" d=" M 276.29 402.24 C 276.82 402.76 276.82 402.76 276.29 402.24 Z" />
</g>
<g id="#36353236">
<path fill="#363532" opacity="0.21" d=" M 186.31 406.32 C 186.81 406.82 186.81 406.82 186.31 406.32 Z" />
</g>
<g id="#474b4c4c">
<path fill="#474b4c" opacity="0.30" d=" M 186.26 408.24 C 186.78 408.76 186.78 408.76 186.26 408.24 Z" />
</g>
<g id="#33343335">
<path fill="#333433" opacity="0.21" d=" M 263.09 410.20 C 266.41 410.31 261.58 413.20 263.09 410.20 Z" />
</g>
<g id="#44413e44">
<path fill="#44413e" opacity="0.27" d=" M 179.25 414.32 C 179.77 414.84 179.77 414.84 179.25 414.32 Z" />
</g>
<g id="#a37653a6">
<path fill="#a37653" opacity="0.65" d=" M 218.32 424.28 C 227.79 421.32 236.74 416.91 246.24 414.02 L 246.00 415.03 L 245.79 415.92 L 247.02 416.04 L 247.12 416.88 C 246.07 416.32 244.96 416.07 243.79 416.13 C 242.44 416.09 241.29 416.98 240.18 417.63 C 238.98 418.38 237.78 419.11 236.58 419.85 C 236.04 419.91 234.95 420.03 234.41 420.09 C 233.46 420.67 232.51 421.26 231.56 421.85 C 231.05 421.92 230.01 422.07 229.49 422.15 C 228.16 422.71 226.80 423.24 225.47 423.81 L 227.11 424.16 L 226.95 424.82 C 225.85 424.39 224.70 424.11 223.55 423.91 C 221.91 425.02 220.18 425.95 218.46 426.91 C 218.22 426.70 217.76 426.28 217.53 426.07 C 216.23 426.71 214.87 427.24 213.50 427.70 C 212.10 427.92 210.67 428.13 209.44 428.89 C 209.07 428.91 208.32 428.96 207.95 428.98 C 207.36 429.17 206.18 429.53 205.59 429.71 C 205.09 430.01 204.10 430.60 203.60 430.89 C 202.58 430.96 201.56 431.05 200.54 431.15 C 199.83 431.31 198.40 431.64 197.69 431.80 C 196.41 431.59 195.13 431.92 194.08 432.66 C 192.44 433.76 190.51 434.23 188.55 433.87 C 187.18 433.66 185.74 433.99 184.76 435.02 C 184.28 434.99 183.31 434.93 182.82 434.91 C 181.26 434.76 179.48 434.62 178.18 435.67 C 177.77 435.97 176.94 436.56 176.53 436.85 C 174.35 436.90 172.16 436.89 169.99 437.08 C 167.23 437.31 164.50 437.72 161.78 438.21 C 161.40 437.65 160.63 436.53 160.25 435.97 C 161.23 434.65 162.20 433.33 163.26 432.08 C 164.19 431.60 165.15 431.18 166.14 430.82 C 167.03 430.59 167.59 430.04 167.84 429.17 L 168.13 428.43 C 171.86 426.64 174.29 422.70 178.03 421.15 L 179.48 420.82 C 175.16 426.80 168.04 429.85 163.66 435.70 C 182.33 434.86 200.57 429.86 218.32 424.28 Z" />
</g>
<g id="#998a7a9d">
<path fill="#998a7a" opacity="0.62" d=" M 179.90 419.18 C 179.47 417.55 179.76 416.56 180.79 416.20 C 181.08 416.49 181.65 417.06 181.94 417.35 C 181.17 418.54 180.41 419.75 179.48 420.82 L 178.03 421.15 C 178.02 420.34 178.00 418.72 177.98 417.91 C 178.46 418.23 179.42 418.87 179.90 419.18 Z" />
</g>
<g id="#6c6a6670">
<path fill="#6c6a66" opacity="0.44" d=" M 240.18 417.63 C 241.29 416.98 242.44 416.09 243.79 416.13 C 243.96 417.15 243.63 417.99 242.79 418.66 C 241.72 418.84 240.85 418.50 240.18 417.63 Z" />
</g>
<g id="#65625f65">
<path fill="#65625f" opacity="0.40" d=" M 173.20 422.28 C 173.75 422.82 173.75 422.82 173.20 422.28 Z" />
</g>
<g id="#3738383a">
<path fill="#373838" opacity="0.23" d=" M 162.12 428.31 C 165.43 428.64 160.42 431.21 162.12 428.31 Z" />
</g>
<g id="#857f768a">
<path fill="#857f76" opacity="0.54" d=" M 165.39 429.10 C 166.00 429.12 167.23 429.15 167.84 429.17 C 167.59 430.04 167.03 430.59 166.14 430.82 C 165.95 430.39 165.58 429.53 165.39 429.10 Z" />
</g>
<g id="#817f7c85">
<path fill="#817f7c" opacity="0.52" d=" M 205.59 429.71 C 206.18 429.53 207.36 429.17 207.95 428.98 C 209.45 430.82 205.51 432.03 205.59 429.71 Z" />
</g>
<g id="#725a4874">
<path fill="#725a48" opacity="0.45" d=" M 155.83 437.47 C 158.15 435.47 160.60 433.60 163.26 432.08 C 162.20 433.33 161.23 434.65 160.25 435.97 C 160.63 436.53 161.40 437.65 161.78 438.21 C 160.62 438.41 159.45 438.59 158.29 438.75 C 156.96 438.83 155.64 438.75 154.31 438.73 C 154.28 438.06 154.22 436.73 154.20 436.06 C 154.60 436.41 155.42 437.12 155.83 437.47 Z" />
</g>
<g id="#78716b7b">
<path fill="#78716b" opacity="0.48" d=" M 194.08 432.66 C 195.13 431.92 196.41 431.59 197.69 431.80 C 197.99 433.55 194.94 433.79 194.08 432.66 Z" />
</g>
<g id="#4948464a">
<path fill="#494846" opacity="0.29" d=" M 204.27 432.27 C 204.83 432.75 204.83 432.75 204.27 432.27 Z" />
</g>
<g id="#7b766e7d">
<path fill="#7b766e" opacity="0.49" d=" M 184.76 435.02 C 185.74 433.99 187.18 433.66 188.55 433.87 C 188.89 435.35 185.15 436.70 184.76 435.02 Z" />
</g>
<g id="#8e7e6f91">
<path fill="#8e7e6f" opacity="0.57" d=" M 178.18 435.67 C 179.48 434.62 181.26 434.76 182.82 434.91 C 182.76 436.79 179.37 436.48 178.18 435.67 Z" />
</g>
<g id="#7e766f81">
<path fill="#7e766f" opacity="0.51" d=" M 161.78 438.21 C 164.50 437.72 167.23 437.31 169.99 437.08 L 170.04 437.96 C 168.88 438.01 167.72 438.06 166.57 438.14 C 164.72 439.02 162.67 440.40 160.56 439.49 C 159.80 439.23 159.04 438.99 158.29 438.75 C 159.45 438.59 160.62 438.41 161.78 438.21 Z" />
</g>
<g id="#46454246">
<path fill="#464542" opacity="0.27" d=" M 170.31 439.32 C 170.79 439.87 170.79 439.87 170.31 439.32 Z" />
</g>
</svg>
