<?xml version="1.0" encoding="UTF-8" ?>
<!DOCTYPE svg PUBLIC "-//W3C//DTD SVG 1.1//EN" "http://www.w3.org/Graphics/SVG/1.1/DTD/svg11.dtd">
<svg width="512pt" height="512pt" viewBox="0 0 512 512" version="1.1" xmlns="http://www.w3.org/2000/svg">
<g id="#72cabeff">
<path fill="#72cabe" opacity="1.00" d=" M 14.99 14.07 C 18.28 11.21 22.94 11.63 27.00 11.58 C 102.33 11.61 177.67 11.59 253.00 11.58 C 257.80 11.49 263.38 11.19 266.85 15.17 C 312.22 60.46 357.52 105.84 402.85 151.18 C 405.60 153.66 407.00 157.25 406.81 160.95 C 406.82 197.89 406.80 234.84 406.82 271.79 C 414.57 264.20 422.02 256.31 429.91 248.88 C 438.37 240.87 450.31 236.69 461.92 237.76 C 473.36 238.66 484.31 244.60 491.25 253.74 C 497.97 262.22 501.05 273.45 499.70 284.18 C 498.68 293.71 493.93 302.53 487.25 309.31 C 460.48 336.19 433.58 362.97 406.80 389.85 C 406.84 421.58 406.78 453.31 406.84 485.04 C 406.82 489.36 406.86 494.33 403.62 497.63 C 401.12 500.17 397.38 500.51 394.02 500.51 C 272.03 500.49 150.04 500.50 28.05 500.51 C 23.64 500.41 18.51 501.11 14.91 497.95 C 12.01 495.55 11.48 491.56 11.49 488.02 C 11.50 333.33 11.50 178.65 11.49 23.96 C 11.48 20.42 12.06 16.44 14.99 14.07 M 32.32 32.41 C 32.31 181.50 32.31 330.59 32.32 479.68 C 150.24 479.69 268.16 479.69 386.08 479.68 C 386.09 456.63 386.10 433.58 386.08 410.53 C 372.62 423.94 359.23 437.44 345.76 450.84 C 323.17 453.72 300.59 456.68 278.00 459.59 C 280.90 437.39 283.75 415.17 286.68 392.98 C 286.68 391.56 287.99 390.75 288.80 389.78 C 321.24 357.45 353.56 324.99 385.98 292.64 C 386.02 251.65 385.99 210.67 385.99 169.69 C 344.33 169.69 302.66 169.69 260.99 169.69 C 257.63 169.69 253.92 169.18 251.51 166.58 C 249.04 164.06 248.70 160.35 248.67 157.01 C 248.70 115.48 248.68 73.94 248.68 32.41 C 176.56 32.41 104.44 32.41 32.32 32.41 M 269.51 46.93 C 269.50 80.89 269.49 114.85 269.51 148.81 C 303.47 148.81 337.43 148.82 371.39 148.80 C 337.44 114.83 303.48 80.87 269.51 46.93 M 451.39 259.57 C 446.36 261.32 442.80 265.44 439.13 269.08 C 396.29 311.91 353.47 354.76 310.60 397.57 C 309.16 399.18 306.92 400.48 306.79 402.87 C 305.02 413.95 303.19 425.01 301.42 436.09 C 313.04 434.11 324.75 432.49 336.33 430.29 C 353.53 413.54 370.33 396.33 387.39 379.41 C 414.56 352.23 441.73 325.05 468.91 297.87 C 472.26 294.52 475.96 291.22 477.71 286.69 C 480.92 279.10 478.89 269.74 472.89 264.11 C 467.37 258.64 458.65 256.75 451.39 259.57 Z" />
<path fill="#72cabe" opacity="1.00" d=" M 82.31 96.92 C 118.71 96.90 155.10 96.90 191.50 96.91 C 191.51 103.83 191.49 110.75 191.51 117.67 C 155.11 117.72 118.71 117.68 82.31 117.69 C 82.31 110.76 82.31 103.84 82.31 96.92 Z" />
<path fill="#72cabe" opacity="1.00" d=" M 82.31 158.19 C 118.70 158.17 155.10 158.19 191.49 158.18 C 191.51 165.12 191.50 172.06 191.50 179.00 C 155.10 179.00 118.70 179.01 82.31 178.99 C 82.31 172.06 82.31 165.12 82.31 158.19 Z" />
<path fill="#72cabe" opacity="1.00" d=" M 82.32 239.41 C 82.30 232.47 82.30 225.53 82.33 218.59 C 167.95 218.60 253.56 218.58 339.18 218.60 C 339.19 225.53 339.19 232.47 339.18 239.40 C 253.56 239.42 167.94 239.40 82.32 239.41 Z" />
<path fill="#72cabe" opacity="1.00" d=" M 82.31 278.92 C 167.94 278.90 253.56 278.90 339.18 278.91 C 339.19 285.84 339.19 292.76 339.18 299.69 C 253.56 299.69 167.94 299.69 82.31 299.69 C 82.31 292.76 82.31 285.84 82.31 278.92 Z" />
</g>
</svg>
