<?xml version="1.0" encoding="utf-8"?>
<!-- Generator: Adobe Illustrator 17.0.0, SVG Export Plug-In . SVG Version: 6.00 Build 0)  -->
<!DOCTYPE svg PUBLIC "-//W3C//DTD SVG 1.1//EN" "http://www.w3.org/Graphics/SVG/1.1/DTD/svg11.dtd">
<svg version="1.1" id="Capa_1" xmlns="http://www.w3.org/2000/svg" xmlns:xlink="http://www.w3.org/1999/xlink" x="0px" y="0px"
	 width="40px" height="40px" viewBox="520 940 40 40" enable-background="new 520 940 40 40" xml:space="preserve">
<path fill="#FFFFFF" d="M559.319,942.398v5.152c0,0.944-0.773,1.717-1.717,1.717h-35.203c-0.944,0-1.717-0.773-1.717-1.717v-5.581
	c0-0.73,0.558-1.288,1.288-1.288h35.633C558.546,940.681,559.319,941.454,559.319,942.398z M557.602,970.733h-35.633
	c-0.73,0-1.288,0.558-1.288,1.288v5.581c0,0.944,0.773,1.717,1.717,1.717h35.203c0.944,0,1.717-0.773,1.717-1.717v-5.152
	C559.319,971.505,558.546,970.733,557.602,970.733z M557.602,955.707h-35.633c-0.73,0-1.288,0.558-1.288,1.288v5.581
	c0,0.944,0.773,1.717,1.717,1.717h35.203c0.944,0,1.717-0.773,1.717-1.717v-5.152C559.319,956.48,558.546,955.707,557.602,955.707z"
	/>
</svg>
