<?xml version="1.0" encoding="utf-8"?>
<!-- Generator: Adobe Illustrator 17.0.0, SVG Export Plug-In . SVG Version: 6.00 Build 0)  -->
<!DOCTYPE svg PUBLIC "-//W3C//DTD SVG 1.1//EN" "http://www.w3.org/Graphics/SVG/1.1/DTD/svg11.dtd">
<svg version="1.1" id="Capa_1" xmlns="http://www.w3.org/2000/svg" xmlns:xlink="http://www.w3.org/1999/xlink" x="0px" y="0px"
	 width="60px" height="60px" viewBox="510 930 60 60" enable-background="new 510 930 60 60" xml:space="preserve">
<g>
	<path fill="#FFFFFF" d="M568.058,940.76l-0.244-0.244c-0.304-0.304-0.913-0.792-1.766-0.792h-41.524l-0.061-0.548
		c-0.487-3.105-3.166-5.358-6.332-5.358h-4.262c-1.339,0-2.375,1.035-2.375,2.375s1.035,2.375,2.375,2.375h4.323
		c0.792,0,1.461,0.548,1.583,1.339l3.653,21.919c0,0.183,0.061,0.426,0.122,0.609l0.609,3.714c0.609,3.592,3.836,6.332,7.489,6.332
		h28.251c1.339,0,2.375-1.035,2.375-2.375c0-1.339-1.035-2.375-2.375-2.375h-28.312c-1.4,0-2.557-0.974-2.74-2.314l-0.244-1.339
		h32.148c0.426,0.061,0.913,0,1.339-0.183c0.609-0.304,1.035-0.913,1.218-1.522l5.114-19.544
		C568.606,942.161,568.484,941.43,568.058,940.76z"/>
	<path fill="#FFFFFF" d="M532.135,972.969c-3.653,0-6.576,2.983-6.576,6.576c0,3.592,2.922,6.637,6.576,6.637
		s6.576-2.983,6.576-6.576C538.711,976.013,535.788,972.969,532.135,972.969z M532.135,977.779c0.974,0,1.705,0.792,1.705,1.766
		s-0.792,1.766-1.766,1.766s-1.705-0.792-1.705-1.766S531.161,977.779,532.135,977.779z"/>
	<path fill="#FFFFFF" d="M551.862,972.969c-3.653,0-6.576,2.983-6.576,6.576c0,3.592,2.923,6.637,6.576,6.637
		s6.576-2.983,6.576-6.576C558.438,976.013,555.454,972.969,551.862,972.969z M551.801,977.779c1.035,0,1.766,0.792,1.766,1.766
		s-0.792,1.766-1.766,1.766s-1.766-0.792-1.766-1.766C549.975,978.57,550.766,977.779,551.801,977.779z"/>
</g>
<text transform="matrix(1 0 0 1 0.9984 1526.0007)" font-family="'HelveticaNeue-Bold'" font-size="54">Created by Fantastic</text>
<text transform="matrix(1 0 0 1 0.9984 1580.0007)" font-family="'HelveticaNeue-Bold'" font-size="54">from the Noun Project</text>
</svg>
