<?xml version="1.0" encoding="utf-8"?>
<!-- Generator: Adobe Illustrator 17.0.0, SVG Export Plug-In . SVG Version: 6.00 Build 0)  -->
<!DOCTYPE svg PUBLIC "-//W3C//DTD SVG 1.1//EN" "http://www.w3.org/Graphics/SVG/1.1/DTD/svg11.dtd">
<svg version="1.1" id="Capa_1" xmlns="http://www.w3.org/2000/svg" xmlns:xlink="http://www.w3.org/1999/xlink" x="0px" y="0px"
	 width="25px" height="25px" viewBox="17.5 17.5 25 25" enable-background="new 17.5 17.5 25 25" xml:space="preserve">
<g>
	<path fill="#72cabe" d="M31.439,32.877c0,0.381,0.319,0.646,0.959,0.831v-1.729C31.846,32.115,31.439,32.47,31.439,32.877z"/>
	<path fill="#72cabe" d="M33.357,34.923v1.729c0.551-0.135,0.959-0.49,0.959-0.898C34.316,35.374,33.995,35.108,33.357,34.923z"/>
	<path fill="#72cabe" d="M36.713,18.492h-0.959c-0.265,0-0.48,0.215-0.48,0.48c0,0.265-0.216,0.48-0.48,0.48
		c-0.264,0-0.48-0.215-0.48-0.48c0-0.265-0.215-0.48-0.48-0.48s-0.48,0.215-0.48,0.48c0,0.265-0.216,0.48-0.48,0.48
		s-0.48-0.215-0.48-0.48c0-0.265-0.215-0.48-0.48-0.48s-0.48,0.215-0.48,0.48c0,0.265-0.216,0.48-0.48,0.48
		c-0.264,0-0.48-0.215-0.48-0.48c0-0.265-0.215-0.48-0.48-0.48s-0.48,0.215-0.48,0.48c0,0.265-0.216,0.48-0.48,0.48
		c-0.264,0-0.48-0.215-0.48-0.48c0-0.265-0.215-0.48-0.48-0.48c-0.265,0-0.48,0.215-0.48,0.48c0,0.265-0.216,0.48-0.48,0.48
		c-0.264,0-0.48-0.215-0.48-0.48c0-0.265-0.215-0.48-0.48-0.48c-0.265,0-0.48,0.215-0.48,0.48c0,0.265-0.216,0.48-0.48,0.48
		s-0.48-0.215-0.48-0.48c0-0.265-0.215-0.48-0.48-0.48h-0.959c-0.265,0-0.48,0.215-0.48,0.48v22.058c0,0.265,0.215,0.48,0.48,0.48
		h0.959c0.265,0,0.48-0.215,0.48-0.48s0.216-0.48,0.48-0.48s0.48,0.215,0.48,0.48s0.215,0.48,0.48,0.48
		c0.265,0,0.48-0.215,0.48-0.48s0.216-0.48,0.48-0.48c0.264,0,0.48,0.215,0.48,0.48s0.215,0.48,0.48,0.48
		c0.265,0,0.48-0.215,0.48-0.48s0.216-0.48,0.48-0.48c0.264,0,0.48,0.215,0.48,0.48s0.215,0.48,0.48,0.48s0.48-0.215,0.48-0.48
		s0.216-0.48,0.48-0.48c0.264,0,0.48,0.215,0.48,0.48s0.215,0.48,0.48,0.48s0.48-0.215,0.48-0.48s0.216-0.48,0.48-0.48
		s0.48,0.215,0.48,0.48s0.215,0.48,0.48,0.48s0.48-0.215,0.48-0.48s0.216-0.48,0.48-0.48c0.264,0,0.48,0.215,0.48,0.48
		s0.215,0.48,0.48,0.48h0.959c0.265,0,0.48-0.215,0.48-0.48V18.971C37.193,18.706,36.978,18.492,36.713,18.492z M25.205,21.369
		h3.836c0.265,0,0.48,0.215,0.48,0.48c0,0.265-0.215,0.48-0.48,0.48h-3.836c-0.265,0-0.48-0.215-0.48-0.48
		C24.725,21.583,24.94,21.369,25.205,21.369z M29.041,36.713h-3.836c-0.265,0-0.48-0.215-0.48-0.48s0.215-0.48,0.48-0.48h3.836
		c0.265,0,0.48,0.215,0.48,0.48S29.306,36.713,29.041,36.713z M29.041,33.836h-3.836c-0.265,0-0.48-0.215-0.48-0.48
		c0-0.265,0.215-0.48,0.48-0.48h3.836c0.265,0,0.48,0.215,0.48,0.48C29.52,33.621,29.306,33.836,29.041,33.836z M30,30.959h-4.795
		c-0.265,0-0.48-0.215-0.48-0.48c0-0.265,0.215-0.48,0.48-0.48H30c0.265,0,0.48,0.215,0.48,0.48
		C30.48,30.744,30.265,30.959,30,30.959z M33.357,37.633v0.519c0,0.265-0.215,0.48-0.48,0.48s-0.48-0.215-0.48-0.48v-0.517
		c-1.049-0.164-1.841-0.86-1.916-1.748c-0.022-0.264,0.174-0.496,0.437-0.518c0.24-0.031,0.497,0.173,0.518,0.437
		c0.033,0.389,0.433,0.719,0.961,0.848v-1.955c-1.289-0.317-1.918-0.923-1.918-1.821c0-0.926,0.825-1.7,1.918-1.879V30.48
		c0-0.265,0.215-0.48,0.48-0.48s0.48,0.215,0.48,0.48v0.517c1.049,0.164,1.841,0.86,1.916,1.747
		c0.022,0.264-0.174,0.497-0.437,0.519c-0.248,0.018-0.497-0.173-0.518-0.437c-0.033-0.389-0.433-0.719-0.961-0.848v1.955
		c1.29,0.317,1.918,0.923,1.918,1.821C35.275,36.681,34.45,37.455,33.357,37.633z M34.795,28.082h-9.59
		c-0.265,0-0.48-0.215-0.48-0.48c0-0.265,0.215-0.48,0.48-0.48h9.59c0.265,0,0.48,0.215,0.48,0.48
		C35.275,27.867,35.06,28.082,34.795,28.082z M34.795,25.205h-9.59c-0.265,0-0.48-0.215-0.48-0.48c0-0.265,0.215-0.48,0.48-0.48
		h9.59c0.265,0,0.48,0.215,0.48,0.48C35.275,24.99,35.06,25.205,34.795,25.205z"/>
</g>
</svg>
