<?xml version="1.0" encoding="UTF-8" ?>
<!DOCTYPE svg PUBLIC "-//W3C//DTD SVG 1.1//EN" "http://www.w3.org/Graphics/SVG/1.1/DTD/svg11.dtd">
<svg width="222pt" height="224pt" viewBox="0 0 222 224" version="1.1" xmlns="http://www.w3.org/2000/svg">
<g id="#ffffffff">
</g>
<g id="#72cabeff">
<path fill="#72cabe" opacity="1.00" d=" M 96.99 3.45 C 99.75 3.62 102.49 3.48 105.11 2.55 C 109.73 2.58 114.52 1.85 118.98 3.33 C 133.68 3.57 148.15 8.20 161.15 14.96 C 186.27 28.09 205.95 51.38 214.30 78.53 C 217.11 85.70 217.79 93.39 219.33 100.87 C 219.60 107.25 219.59 113.64 219.44 120.02 C 217.11 148.95 203.32 177.18 180.78 195.72 C 166.23 208.35 147.93 216.64 128.94 219.69 C 134.14 204.10 129.99 186.61 120.45 173.55 C 115.69 166.40 108.55 161.08 104.65 153.33 C 102.27 148.67 100.17 143.38 101.29 138.07 C 101.78 136.97 103.05 136.75 104.10 136.52 C 115.52 134.77 126.83 132.16 137.84 128.66 C 141.40 127.66 144.30 125.11 146.16 121.97 C 151.13 113.75 154.24 104.62 157.51 95.64 C 158.61 92.59 159.80 89.33 159.15 86.04 C 158.58 82.50 155.45 79.62 151.97 79.07 C 143.32 78.73 134.63 79.48 126.01 78.43 C 121.00 77.74 115.51 78.89 111.02 75.99 C 104.68 72.89 101.36 66.26 95.94 62.06 C 89.37 57.81 81.20 58.42 73.80 57.17 C 75.36 47.48 78.83 38.16 80.49 28.48 C 69.83 31.91 59.34 37.70 52.48 46.77 C 53.32 37.09 54.27 27.40 54.50 17.69 L 54.49 17.55 C 58.35 16.66 61.39 13.64 65.21 12.47 C 75.26 7.83 86.08 4.83 96.99 3.45 Z" />
<path fill="#72cabe" opacity="1.00" d=" M 42.00 167.38 C 50.48 171.89 60.83 172.61 70.06 170.26 C 70.85 169.90 71.59 169.47 72.29 168.97 C 73.01 172.06 74.76 174.76 77.19 176.79 C 73.29 178.21 69.03 177.28 64.97 177.55 C 56.35 178.22 46.89 174.78 42.00 167.38 Z" />
</g>
<g id="#477f77ff">
<path fill="#477f77" opacity="1.00" d=" M 38.18 29.19 C 43.29 24.93 48.49 20.62 54.50 17.69 C 54.27 27.40 53.32 37.09 52.48 46.77 C 59.34 37.70 69.83 31.91 80.49 28.48 C 78.83 38.16 75.36 47.48 73.80 57.17 C 81.20 58.42 89.37 57.81 95.94 62.06 C 101.36 66.26 104.68 72.89 111.02 75.99 C 115.51 78.89 121.00 77.74 126.01 78.43 C 134.63 79.48 143.32 78.73 151.97 79.07 C 155.45 79.62 158.58 82.50 159.15 86.04 C 159.80 89.33 158.61 92.59 157.51 95.64 C 154.24 104.62 151.13 113.75 146.16 121.97 C 144.30 125.11 141.40 127.66 137.84 128.66 C 126.83 132.16 115.52 134.77 104.10 136.52 C 103.05 136.75 101.78 136.97 101.29 138.07 C 100.17 143.38 102.27 148.67 104.65 153.33 C 108.55 161.08 115.69 166.40 120.45 173.55 C 129.99 186.61 134.14 204.10 128.94 219.69 L 128.24 220.43 C 123.68 204.61 111.83 191.27 97.25 183.88 C 90.94 180.46 83.29 180.70 77.19 176.79 C 74.76 174.76 73.01 172.06 72.29 168.97 C 79.24 165.52 86.58 160.33 87.88 152.10 C 89.61 144.20 85.35 136.97 81.75 130.32 C 79.21 125.97 80.11 120.84 80.00 116.07 C 80.12 112.03 79.03 108.12 78.66 104.12 C 77.63 104.06 76.68 104.30 75.83 104.86 C 71.39 107.67 67.49 111.23 63.97 115.11 C 60.56 115.04 57.15 115.01 53.75 115.06 C 51.57 109.44 49.71 103.42 45.99 98.62 C 34.21 105.39 26.60 117.57 22.00 130.04 C 17.04 143.64 17.36 158.48 20.24 172.50 C 18.27 171.62 17.21 169.66 16.08 167.95 C 9.70 157.18 5.29 145.28 2.89 133.00 C 1.43 126.41 1.71 119.58 0.30 112.99 C 0.82 109.02 1.66 105.09 1.84 101.08 C 4.40 73.72 17.38 47.28 38.18 29.19 M 83.19 75.21 C 78.62 77.17 78.88 84.90 83.82 86.18 C 88.25 88.11 93.28 82.91 91.29 78.53 C 90.17 75.18 86.28 74.20 83.19 75.21 Z" />
<path fill="#477f77" opacity="1.00" d=" M 39.41 136.76 C 45.50 134.10 53.40 136.02 57.02 141.78 C 50.97 145.38 43.23 141.96 39.41 136.76 Z" />
<path fill="#477f77" opacity="1.00" d=" M 67.84 142.35 C 71.11 139.06 76.54 135.44 81.00 138.75 C 79.20 143.69 71.60 146.23 67.84 142.35 Z" />
<path fill="#477f77" opacity="1.00" d=" M 59.90 147.06 C 63.13 146.59 66.57 146.84 69.80 147.28 C 70.78 149.14 68.63 150.59 67.62 151.85 C 64.46 153.66 60.97 150.52 59.30 148.10 L 59.90 147.06 Z" />
</g>
</svg>
