<?xml version="1.0" encoding="utf-8"?>
<!-- Generator: Adobe Illustrator 17.0.0, SVG Export Plug-In . SVG Version: 6.00 Build 0)  -->
<!DOCTYPE svg PUBLIC "-//W3C//DTD SVG 1.1//EN" "http://www.w3.org/Graphics/SVG/1.1/DTD/svg11.dtd">
<svg version="1.1" id="Capa_1" xmlns="http://www.w3.org/2000/svg" xmlns:xlink="http://www.w3.org/1999/xlink" x="0px" y="0px"
	 width="25px" height="25px" viewBox="17.5 17.5 25 25" enable-background="new 17.5 17.5 25 25" xml:space="preserve">
<g>
	
		<rect x="22.848" y="26.276" transform="matrix(-0.7972 0.6037 -0.6037 -0.7972 62.0577 32.9272)" fill="#72cabe" width="5.302" height="1.221"/>
	<path fill="#72cabe" d="M25.987,23.453c-0.161-0.985-0.442-2.056-0.923-2.324c-0.36-0.201-0.71,0.301-1.001,1.028
		c-0.234-0.401-0.489-0.708-0.755-0.8c-0.501-0.174-0.767,0.78-0.886,1.866c-5.346,2.41-4.019,2.03-3.647,3.104
		c0.551,1.591,2.353,1.027,3.217,1.237c0.207,0.051,0.38,0.113,0.539,0.179l4.365-3.302C26.62,24.094,26.321,23.746,25.987,23.453z"
		/>
	<path fill="#72cabe" d="M41.315,32.044c0-1.358-0.146-2.343-0.456-3.074c0.279-0.714,0.368-1.505,0.305-2.169
		c-0.137-1.424-1.112-1.339-1.183-0.54c-0.041,0.461-0.477,0.776-1.08,1c-1.994-0.631-5.321-0.32-10.365-1.015
		c-0.07-0.01-0.144-0.048-0.22-0.097l-4.271,3.232c0.281,0.666,0.791,2.783,0.887,4.023c0.033,0.432,0.589,4.47,0.589,4.47
		c0.176,1.447,1.866,1.185,2.054,0.429c0.252-1.009,1.313-3.92,1.313-3.92c4.511,0.824,7.452-0.369,7.452-0.369
		s2.604,3.41,3.518,4.478c0.653,0.761,1.785,0.447,1.785-0.55C41.645,37.94,41.315,33.255,41.315,32.044z"/>
</g>
</svg>
