<?xml version="1.0" encoding="utf-8"?>
<!-- Generator: Adobe Illustrator 17.0.0, SVG Export Plug-In . SVG Version: 6.00 Build 0)  -->
<!DOCTYPE svg PUBLIC "-//W3C//DTD SVG 1.1//EN" "http://www.w3.org/Graphics/SVG/1.1/DTD/svg11.dtd">
<svg version="1.1" id="Capa_1" xmlns="http://www.w3.org/2000/svg" xmlns:xlink="http://www.w3.org/1999/xlink" x="0px" y="0px"
	 width="25px" height="25px" viewBox="17.5 17.5 25 25" enable-background="new 17.5 17.5 25 25" xml:space="preserve">
<path fill="#72cabe" d="M34.604,20.155h-8.591c-4.229,0-7.782,3.58-7.782,7.809v0.224c0,3.529,2.522,6.493,5.044,7.38v0.277v2.948
	c0,0.582,0.832,1.051,1.409,1.051c0.294,0,0.742-0.261,0.93-0.454l3.864-3.823h0.291h4.835c4.229,0,7.165-3.149,7.165-7.378v-0.224
	C41.769,23.736,38.833,20.155,34.604,20.155z M25.76,26.702c0.724,0,1.312,0.588,1.312,1.313s-0.587,1.312-1.312,1.312
	c-0.725,0-1.313-0.587-1.313-1.312S25.035,26.702,25.76,26.702z M30.485,29.327c-0.725,0-1.313-0.587-1.313-1.312
	s0.588-1.313,1.313-1.313s1.312,0.588,1.312,1.313C31.797,28.74,31.21,29.327,30.485,29.327z M35.21,29.327
	c-0.725,0-1.312-0.587-1.312-1.312s0.587-1.313,1.312-1.313c0.724,0,1.313,0.588,1.313,1.313S35.935,29.327,35.21,29.327z"/>
</svg>
