<?xml version="1.0" encoding="utf-8"?>
<!-- Generator: Adobe Illustrator 17.0.0, SVG Export Plug-In . SVG Version: 6.00 Build 0)  -->
<!DOCTYPE svg PUBLIC "-//W3C//DTD SVG 1.1//EN" "http://www.w3.org/Graphics/SVG/1.1/DTD/svg11.dtd">
<svg version="1.1"
	 id="Capa_1" xmlns:rdf="http://www.w3.org/1999/02/22-rdf-syntax-ns#" xmlns:dc="http://purl.org/dc/elements/1.1/" xmlns:cc="http://creativecommons.org/ns#" xmlns:inkscape="http://www.inkscape.org/namespaces/inkscape" xmlns:sodipodi="http://sodipodi.sourceforge.net/DTD/sodipodi-0.dtd" xmlns:svg="http://www.w3.org/2000/svg"
	 xmlns="http://www.w3.org/2000/svg" xmlns:xlink="http://www.w3.org/1999/xlink" x="0px" y="0px" width="25px" height="25px"
	 viewBox="17.5 17.5 25 25" enable-background="new 17.5 17.5 25 25" xml:space="preserve">
<g transform="translate(0,-952.36216)">
	<path fill="#72cabe" d="M38.004,970.816L38.004,970.816c-0.019-0.001-0.039-0.001-0.058,0c-0.923,0.03-1.766,0.518-2.253,1.303
		c-0.486,0.785-0.548,1.757-0.164,2.597c0.212,0.463,0.531,0.83,0.876,1.119c0.343,0.288,0.707,0.497,1.052,0.674
		c0.689,0.352,1.305,0.594,1.722,0.927c0.51,0.407,0.862,1.051,0.93,1.699c0.037,0.358-0.011,0.733-0.131,1.082
		c-0.143,0.334-0.39,0.516-0.738,0.516H36.73h-2.022h-6.321v1.607c0,1.522-0.685,2.797-1.747,3.563
		c-0.617,0.445-1.329,0.73-2.09,0.889c0.66,1.266,1.954,2.147,3.462,2.224c0.306,1.271,0.215,2.586-0.052,3.437
		c-0.191,0.582,0.127,1.209,0.709,1.4c0.582,0.191,1.209-0.127,1.4-0.709c0.003-0.009,0.006-0.017,0.008-0.026
		c0.364-1.158,0.48-2.599,0.205-4.096h6.448c0.266,0,0.525-0.025,0.777-0.073c0.209,1.26,0.097,2.501-0.169,3.351
		c-0.191,0.582,0.125,1.209,0.707,1.401c0.582,0.191,1.209-0.125,1.401-0.707c0.003-0.01,0.006-0.019,0.009-0.029
		c0.387-1.234,0.519-2.772,0.246-4.373c-0.08-0.415,0-0.782,0.222-1.071c0.016-0.019,0.031-0.038,0.047-0.057
		c0.002-0.003,0.004-0.005,0.007-0.008h0c0.562-0.707,0.898-1.602,0.898-2.577v-2.466c0-0.231,0.03-0.404,0.198-0.681h0
		c0.545-0.808,0.795-1.792,0.693-2.768c-0.116-1.108-0.676-2.133-1.547-2.827c-0.692-0.552-1.429-0.815-2.004-1.109
		c-0.286-0.146-0.538-0.298-0.739-0.466c-0.198-0.166-0.349-0.354-0.432-0.536c-0.14-0.307-0.113-0.742,0.065-1.029
		c0.178-0.287,0.555-0.505,0.892-0.516c0.46-0.009,0.825-0.388,0.817-0.848C38.809,971.186,38.45,970.826,38.004,970.816
		L38.004,970.816z M18.486,975.317c-0.152,0.002-0.273,0.126-0.273,0.277v6.747c0,1.288,0.542,2.268,1.402,2.888
		s2.014,0.895,3.269,0.895c1.254,0,2.409-0.275,3.269-0.895s1.402-1.6,1.402-2.888v-6.747c0-0.153-0.124-0.277-0.278-0.277
		c-0.073,0-0.144,0.029-0.196,0.081l-2.566,2.566c-0.508-0.189-1.058-0.294-1.631-0.294c-0.573,0-1.123,0.104-1.631,0.294
		l-2.566-2.566C18.633,975.345,18.561,975.316,18.486,975.317z M24.944,988.613c0.259,1.216,0.164,2.452-0.091,3.265
		c-0.192,0.582,0.125,1.209,0.707,1.401s1.209-0.125,1.401-0.707c0.003-0.01,0.006-0.02,0.009-0.03
		c0.254-0.811,0.388-1.76,0.35-2.77C26.421,989.605,25.605,989.195,24.944,988.613L24.944,988.613z M36.737,989.855
		c-0.003,0-0.005,0-0.008,0h-2.222c-0.013,0.71-0.117,1.36-0.277,1.869c-0.192,0.582,0.125,1.209,0.707,1.401
		s1.209-0.125,1.401-0.707c0.003-0.01,0.006-0.019,0.009-0.029C36.583,991.638,36.724,990.775,36.737,989.855L36.737,989.855z"/>
</g>
</svg>
