<?xml version="1.0" encoding="UTF-8" ?>
<!DOCTYPE svg PUBLIC "-//W3C//DTD SVG 1.1//EN" "http://www.w3.org/Graphics/SVG/1.1/DTD/svg11.dtd">
<svg width="660pt" height="660pt" viewBox="0 0 660 660" version="1.1" xmlns="http://www.w3.org/2000/svg">
<g id="#ffffffff">
<path fill="#ffffff" opacity="1.00" d=" M 389.34 249.43 C 392.77 248.29 396.50 248.39 400.06 248.69 C 405.47 250.13 407.95 255.93 408.45 261.02 C 409.13 265.72 404.43 269.51 400.06 269.61 C 396.40 269.70 392.18 270.41 389.19 267.76 C 385.27 264.45 382.41 259.19 383.50 253.95 C 384.50 251.57 386.99 250.22 389.34 249.43 Z" />
<path fill="#ffffff" opacity="1.00" d=" M 379.52 275.82 C 381.11 275.28 382.86 275.31 384.50 275.61 C 388.81 277.98 388.69 284.99 384.42 287.35 C 380.55 290.30 374.08 286.78 374.41 282.00 C 373.80 278.80 376.97 276.84 379.52 275.82 Z" />
<path fill="#ffffff" opacity="1.00" d=" M 275.65 298.78 C 278.01 296.80 281.21 297.33 284.05 297.29 C 288.09 297.15 291.56 299.98 293.95 302.99 C 296.14 305.75 295.74 309.50 295.43 312.78 C 294.28 316.66 290.59 319.46 286.80 320.48 C 282.89 320.66 278.39 321.45 275.08 318.83 C 270.94 316.08 268.82 310.96 269.44 306.08 C 269.38 302.44 273.15 300.67 275.65 298.78 Z" />
<path fill="#ffffff" opacity="1.00" d=" M 260.57 324.78 C 263.67 324.11 267.28 324.09 269.84 326.24 C 272.10 327.81 273.07 330.76 272.25 333.38 C 270.66 335.84 268.16 338.10 265.00 337.62 C 260.88 338.21 256.69 334.20 257.39 330.03 C 257.11 327.71 258.79 325.96 260.57 324.78 Z" />
</g>
<g id="#c8871fff">
<path fill="#c8871f" opacity="1.00" d=" M 237.42 23.47 C 281.13 10.33 327.68 6.74 372.89 12.94 C 427.18 20.24 479.45 41.84 523.13 74.88 C 579.83 117.53 621.56 179.60 639.49 248.27 C 650.89 291.56 653.11 337.27 645.73 381.43 C 638.60 425.02 622.18 467.05 597.99 504.00 C 557.48 566.26 494.56 613.55 423.40 634.93 C 423.53 623.76 430.49 614.11 431.30 603.03 C 431.64 596.03 431.14 589.02 431.39 582.02 C 431.63 573.63 434.88 565.77 436.82 557.69 C 439.60 546.44 444.11 535.74 448.01 524.85 C 450.95 516.73 456.57 510.02 460.47 502.40 C 463.78 495.91 467.01 489.32 468.93 482.26 C 470.72 475.24 475.15 469.38 477.94 462.79 C 480.74 456.06 485.02 450.10 489.19 444.18 C 492.67 439.65 495.48 434.59 499.51 430.50 C 507.78 422.10 516.08 413.74 524.53 405.53 C 530.41 399.30 537.32 393.25 545.96 391.55 C 553.00 391.33 560.05 391.82 567.09 391.52 C 559.64 391.16 552.14 391.84 544.74 390.74 C 552.50 390.25 560.28 390.69 568.05 390.48 C 574.45 390.34 580.55 388.16 586.67 386.49 C 593.72 384.49 599.47 379.56 604.28 374.21 C 607.30 370.74 610.35 366.78 610.56 361.99 C 610.77 355.45 611.52 348.18 607.52 342.52 C 603.08 334.83 596.26 328.06 587.37 326.02 C 578.02 324.35 568.47 324.33 559.01 324.47 C 551.28 324.52 543.79 326.82 536.60 329.46 C 528.83 332.26 522.38 337.61 514.91 341.03 C 508.66 343.83 503.35 348.31 497.07 351.05 C 499.43 344.23 503.26 338.02 505.31 331.08 C 509.31 318.20 511.68 304.42 509.46 290.97 C 507.71 279.49 504.61 268.13 499.44 257.70 C 495.62 250.01 492.15 242.02 486.74 235.28 C 482.65 230.06 478.57 224.80 473.60 220.38 C 471.87 218.55 469.25 216.83 469.50 213.98 C 469.42 204.42 470.37 194.75 468.54 185.29 C 467.07 177.43 466.90 169.27 464.03 161.72 C 461.32 154.36 459.57 145.99 453.41 140.61 C 450.72 138.27 447.19 140.30 444.58 141.67 C 438.07 145.46 431.25 148.80 425.16 153.28 C 417.85 158.84 411.34 165.37 405.07 172.06 C 401.34 176.07 398.50 180.79 394.85 184.85 C 393.02 187.28 389.64 186.36 387.03 186.56 C 357.38 185.45 328.10 192.21 300.06 201.27 C 295.47 203.00 290.88 204.73 286.19 206.18 C 274.39 209.84 263.55 215.88 252.50 221.29 C 234.53 230.03 218.44 242.24 204.19 256.19 C 202.61 257.64 201.10 259.34 199.04 260.11 C 193.38 258.85 187.90 256.53 182.00 256.55 C 169.67 256.43 157.15 256.23 145.06 258.98 C 137.43 260.98 129.10 261.82 122.55 266.59 C 119.60 268.55 120.88 272.28 121.65 275.04 C 124.13 282.64 125.08 290.78 128.91 297.89 C 133.34 306.19 137.02 314.91 142.29 322.74 C 147.22 330.10 151.58 337.88 157.32 344.66 C 158.92 346.65 160.79 348.46 162.04 350.70 C 162.86 353.02 162.48 355.56 162.57 357.98 C 162.36 365.48 163.29 372.95 164.35 380.36 C 165.94 390.02 167.87 399.85 172.65 408.51 C 176.81 416.85 183.27 423.68 189.49 430.51 C 197.55 439.38 207.51 446.50 218.33 451.61 C 229.16 456.40 240.47 460.41 252.26 461.95 C 254.85 462.58 258.47 462.30 259.78 465.17 C 262.75 471.03 263.23 478.01 262.12 484.41 C 259.64 492.71 254.16 499.66 250.67 507.53 C 246.71 516.38 242.21 524.97 237.43 533.40 C 230.36 545.84 227.23 559.93 222.39 573.27 C 218.75 584.03 219.41 595.66 216.24 606.54 C 214.20 613.28 213.48 620.31 213.56 627.33 C 143.47 600.54 83.62 548.05 47.90 482.05 C 28.46 446.54 15.98 407.24 11.21 367.04 C 5.52 319.48 10.80 270.65 26.48 225.39 C 41.45 181.98 65.96 141.89 97.78 108.79 C 135.88 68.88 184.55 39.22 237.42 23.47 Z" />
</g>
<g id="#202020ff">
<path fill="#202020" opacity="1.00" d=" M 444.58 141.67 C 447.19 140.30 450.72 138.27 453.41 140.61 C 459.57 145.99 461.32 154.36 464.03 161.72 C 466.90 169.27 467.07 177.43 468.54 185.29 C 470.37 194.75 469.42 204.42 469.50 213.98 C 469.25 216.83 471.87 218.55 473.60 220.38 C 478.57 224.80 482.65 230.06 486.74 235.28 C 492.15 242.02 495.62 250.01 499.44 257.70 C 504.61 268.13 507.71 279.49 509.46 290.97 C 511.68 304.42 509.31 318.20 505.31 331.08 C 503.26 338.02 499.43 344.23 497.07 351.05 C 503.35 348.31 508.66 343.83 514.91 341.03 C 522.38 337.61 528.83 332.26 536.60 329.46 C 543.79 326.82 551.28 324.52 559.01 324.47 C 568.47 324.33 578.02 324.35 587.37 326.02 C 596.26 328.06 603.08 334.83 607.52 342.52 C 611.52 348.18 610.77 355.45 610.56 361.99 C 610.35 366.78 607.30 370.74 604.28 374.21 C 599.47 379.56 593.72 384.49 586.67 386.49 C 580.55 388.16 574.45 390.34 568.05 390.48 C 560.28 390.69 552.50 390.25 544.74 390.74 C 552.14 391.84 559.64 391.16 567.09 391.52 C 560.05 391.82 553.00 391.33 545.96 391.55 C 537.32 393.25 530.41 399.30 524.53 405.53 C 516.08 413.74 507.78 422.10 499.51 430.50 C 495.48 434.59 492.67 439.65 489.19 444.18 C 485.02 450.10 480.74 456.06 477.94 462.79 C 475.15 469.38 470.72 475.24 468.93 482.26 C 467.01 489.32 463.78 495.91 460.47 502.40 C 456.57 510.02 450.95 516.73 448.01 524.85 C 444.11 535.74 439.60 546.44 436.82 557.69 C 434.88 565.77 431.63 573.63 431.39 582.02 C 431.14 589.02 431.64 596.03 431.30 603.03 C 430.49 614.11 423.53 623.76 423.40 634.93 C 420.16 635.96 416.91 636.96 413.61 637.80 C 413.44 634.66 413.27 631.40 414.51 628.43 C 417.62 620.50 421.26 612.59 422.14 604.02 C 422.81 596.54 421.89 589.03 422.59 581.55 C 423.26 573.46 426.38 565.88 428.09 558.01 C 429.63 550.98 431.74 544.08 434.51 537.44 C 437.86 529.43 440.16 520.98 444.31 513.31 C 447.91 506.32 452.88 500.09 455.90 492.79 C 458.97 486.17 460.67 479.05 463.32 472.28 C 468.21 461.33 474.43 451.04 481.04 441.05 C 485.97 432.28 493.37 425.38 499.53 417.54 C 505.56 411.24 511.49 404.76 518.42 399.40 C 523.41 395.40 527.35 389.99 533.28 387.24 C 538.51 384.78 543.90 381.67 549.90 382.12 C 559.13 382.68 568.52 382.51 577.58 380.50 C 586.36 377.96 595.96 374.01 600.46 365.49 C 604.29 356.03 601.69 343.88 593.27 337.72 C 587.83 333.79 580.87 333.34 574.42 332.65 C 564.82 332.01 554.85 331.39 545.63 334.69 C 535.09 337.89 526.07 344.40 516.34 349.35 C 507.23 353.94 498.90 359.82 490.41 365.43 C 483.84 369.72 478.93 375.94 473.28 381.28 C 452.42 401.79 427.18 417.24 400.99 429.97 C 394.79 433.05 388.08 435.20 382.44 439.31 C 391.51 439.72 401.23 435.35 409.71 440.26 C 417.22 444.84 424.74 451.21 426.85 460.15 C 428.29 465.97 429.09 472.56 426.05 478.02 C 423.04 483.56 417.44 486.86 412.58 490.58 C 404.00 497.13 394.31 501.98 384.57 506.52 C 377.10 510.00 370.38 514.88 364.01 520.05 C 357.84 525.06 354.41 532.39 349.46 538.43 C 347.83 540.67 344.28 542.51 342.10 539.90 C 339.50 537.67 341.93 534.49 343.33 532.35 C 348.38 525.79 352.95 518.73 359.23 513.23 C 367.56 505.82 377.09 499.78 387.34 495.35 C 397.68 491.06 407.00 484.66 415.63 477.60 C 419.67 474.38 420.21 468.75 419.02 464.05 C 417.86 457.62 413.00 452.79 408.10 448.89 C 405.58 446.78 402.27 445.93 399.03 446.08 C 390.23 446.33 381.29 448.06 373.59 452.49 C 356.44 460.93 341.94 473.56 326.22 484.23 C 323.15 486.38 320.53 489.28 317.00 490.70 C 313.06 490.82 311.78 485.82 314.28 483.27 C 319.41 477.21 326.98 474.03 333.03 469.04 C 343.50 460.56 355.46 454.19 365.96 445.77 C 357.73 447.15 350.32 451.26 342.22 453.11 C 324.00 457.35 305.80 462.48 287.01 463.30 C 280.76 463.67 274.24 462.31 268.28 464.82 C 270.82 474.27 272.08 484.94 266.93 493.78 C 259.33 506.88 253.79 521.02 246.25 534.16 C 238.33 547.86 233.62 563.06 229.44 578.24 C 227.19 586.30 227.00 594.74 224.97 602.85 C 222.73 611.89 222.92 621.28 221.86 630.49 C 219.09 629.46 216.33 628.37 213.56 627.33 C 213.48 620.31 214.20 613.28 216.24 606.54 C 219.41 595.66 218.75 584.03 222.39 573.27 C 227.23 559.93 230.36 545.84 237.43 533.40 C 242.21 524.97 246.71 516.38 250.67 507.53 C 254.16 499.66 259.64 492.71 262.12 484.41 C 263.23 478.01 262.75 471.03 259.78 465.17 C 258.47 462.30 254.85 462.58 252.26 461.95 C 240.47 460.41 229.16 456.40 218.33 451.61 C 207.51 446.50 197.55 439.38 189.49 430.51 C 183.27 423.68 176.81 416.85 172.65 408.51 C 167.87 399.85 165.94 390.02 164.35 380.36 C 163.29 372.95 162.36 365.48 162.57 357.98 C 162.48 355.56 162.86 353.02 162.04 350.70 C 160.79 348.46 158.92 346.65 157.32 344.66 C 151.58 337.88 147.22 330.10 142.29 322.74 C 137.02 314.91 133.34 306.19 128.91 297.89 C 125.08 290.78 124.13 282.64 121.65 275.04 C 120.88 272.28 119.60 268.55 122.55 266.59 C 129.10 261.82 137.43 260.98 145.06 258.98 C 157.15 256.23 169.67 256.43 182.00 256.55 C 187.90 256.53 193.38 258.85 199.04 260.11 C 201.10 259.34 202.61 257.64 204.19 256.19 C 218.44 242.24 234.53 230.03 252.50 221.29 C 263.55 215.88 274.39 209.84 286.19 206.18 C 290.88 204.73 295.47 203.00 300.06 201.27 C 328.10 192.21 357.38 185.45 387.03 186.56 C 389.64 186.36 393.02 187.28 394.85 184.85 C 398.50 180.79 401.34 176.07 405.07 172.06 C 411.34 165.37 417.85 158.84 425.16 153.28 C 431.25 148.80 438.07 145.46 444.58 141.67 M 444.33 151.40 C 433.92 157.20 423.95 164.03 415.74 172.74 C 411.59 177.20 406.41 181.36 404.91 187.53 C 414.05 188.49 422.69 191.56 431.47 194.03 C 437.29 196.14 443.02 198.54 448.46 201.51 C 452.72 203.73 456.48 206.87 461.06 208.47 C 461.92 199.72 461.49 190.87 459.76 182.25 C 458.44 171.99 456.12 161.66 451.35 152.43 C 451.47 151.92 451.71 150.89 451.84 150.38 C 449.28 150.09 446.59 149.95 444.33 151.40 M 369.44 194.64 C 339.39 197.19 310.07 205.25 282.06 216.22 C 274.25 220.13 266.09 223.31 258.32 227.30 C 246.53 233.89 234.68 240.57 224.28 249.29 C 208.60 262.05 194.49 277.31 185.58 295.63 C 176.14 313.52 170.47 333.67 171.15 354.00 C 170.61 367.28 172.15 380.59 175.66 393.41 C 178.22 402.74 183.92 410.74 189.52 418.48 C 192.40 422.81 195.94 426.69 199.92 430.06 C 208.85 437.55 218.75 444.10 229.76 448.11 C 242.91 453.01 256.92 456.08 271.00 455.72 C 277.34 455.63 283.68 455.86 290.02 455.59 C 326.79 452.45 361.70 439.17 394.96 423.87 C 400.39 420.97 405.81 418.07 411.33 415.33 C 430.55 405.00 448.89 392.80 464.81 377.81 C 469.71 373.02 474.00 367.67 478.62 362.62 C 491.57 346.56 500.72 326.82 501.98 306.04 C 502.85 289.95 497.92 274.16 491.35 259.65 C 481.00 237.78 464.10 218.64 442.34 207.65 C 419.88 196.56 394.27 192.95 369.44 194.64 M 134.90 269.77 C 133.26 270.27 131.63 270.78 130.00 271.29 C 131.02 281.29 134.48 290.93 139.27 299.72 C 144.77 311.17 151.66 321.87 158.52 332.54 C 159.73 334.31 161.34 335.73 162.92 337.17 C 165.12 330.86 165.57 324.12 167.61 317.77 C 169.32 311.50 172.60 305.79 174.07 299.45 C 178.67 290.74 182.93 281.79 188.99 273.96 C 190.68 271.98 191.90 269.68 193.06 267.37 C 182.82 263.44 171.66 264.87 160.97 265.26 C 152.10 265.57 143.60 268.32 134.90 269.77 Z" />
<path fill="#202020" opacity="1.00" d=" M 384.39 229.54 C 398.09 227.63 412.81 230.46 423.78 239.20 C 436.15 248.04 442.67 263.76 441.58 278.76 C 440.90 286.97 437.63 294.70 433.93 301.97 C 431.44 306.93 426.71 310.09 422.51 313.47 C 411.74 322.01 397.71 326.37 383.99 325.21 C 372.16 324.41 360.45 319.40 352.19 310.81 C 343.00 301.91 338.21 288.72 339.24 276.00 C 339.85 266.16 343.72 256.58 350.02 249.00 C 358.30 238.29 371.07 231.43 384.39 229.54 M 384.41 236.66 C 373.81 238.28 364.21 244.19 356.95 251.95 C 348.93 259.99 345.53 271.87 346.50 283.04 C 348.36 302.71 367.31 318.84 387.00 317.79 C 397.13 318.38 407.31 315.34 415.70 309.71 C 421.66 305.11 426.89 299.39 430.50 292.75 C 433.46 285.95 435.08 278.40 434.35 270.98 C 432.82 259.81 426.53 249.17 416.96 243.07 C 407.49 236.85 395.53 234.43 384.41 236.66 Z" />
<path fill="#202020" opacity="1.00" d=" M 387.34 239.29 C 401.47 236.12 416.97 243.57 423.73 256.30 C 429.43 266.35 429.23 279.49 423.38 289.43 C 416.37 301.80 401.03 308.97 387.08 305.72 C 376.02 303.46 366.41 295.31 362.36 284.78 C 359.89 279.24 359.97 273.00 360.48 267.08 C 362.56 253.45 373.78 241.81 387.34 239.29 M 389.34 249.43 C 386.99 250.22 384.50 251.57 383.50 253.95 C 382.41 259.19 385.27 264.45 389.19 267.76 C 392.18 270.41 396.40 269.70 400.06 269.61 C 404.43 269.51 409.13 265.72 408.45 261.02 C 407.95 255.93 405.47 250.13 400.06 248.69 C 396.50 248.39 392.77 248.29 389.34 249.43 M 379.52 275.82 C 376.97 276.84 373.80 278.80 374.41 282.00 C 374.08 286.78 380.55 290.30 384.42 287.35 C 388.69 284.99 388.81 277.98 384.50 275.61 C 382.86 275.31 381.11 275.28 379.52 275.82 Z" />
<path fill="#202020" opacity="1.00" d=" M 266.41 274.50 C 281.04 273.07 296.35 277.77 307.20 287.80 C 313.96 294.72 319.37 303.41 320.84 313.11 C 323.85 327.74 319.02 343.25 309.73 354.71 C 302.52 363.00 292.97 369.06 282.66 372.72 C 275.34 375.28 267.49 375.52 259.82 375.43 C 252.20 375.37 245.36 371.52 238.68 368.31 C 230.10 363.12 222.90 355.31 219.08 345.98 C 214.02 333.88 214.60 319.78 219.84 307.84 C 227.67 289.28 246.54 276.43 266.41 274.50 M 263.32 282.15 C 254.68 284.03 246.06 287.30 239.59 293.53 C 232.37 299.34 226.94 307.29 224.40 316.22 C 222.88 321.33 223.22 326.72 223.25 331.99 C 223.29 339.13 226.23 345.96 230.43 351.63 C 236.16 359.87 245.54 364.87 255.07 367.33 C 261.68 368.05 268.40 367.94 275.04 367.47 C 289.14 364.83 302.25 355.89 308.98 343.08 C 314.76 332.59 316.42 319.52 311.97 308.25 C 308.42 298.15 300.54 289.81 290.86 285.35 C 282.25 281.63 272.55 280.48 263.32 282.15 Z" />
<path fill="#202020" opacity="1.00" d=" M 270.30 286.01 C 276.22 284.87 282.32 286.06 287.90 288.14 C 298.19 292.17 305.90 301.71 308.32 312.42 C 309.61 320.55 309.01 329.35 304.51 336.47 C 297.17 350.05 279.63 356.85 265.02 351.92 C 253.47 348.44 244.52 338.19 241.81 326.54 C 240.83 319.73 240.91 312.46 244.05 306.18 C 248.57 295.52 258.78 287.55 270.30 286.01 M 275.65 298.78 C 273.15 300.67 269.38 302.44 269.44 306.08 C 268.82 310.96 270.94 316.08 275.08 318.83 C 278.39 321.45 282.89 320.66 286.80 320.48 C 290.59 319.46 294.28 316.66 295.43 312.78 C 295.74 309.50 296.14 305.75 293.95 302.99 C 291.56 299.98 288.09 297.15 284.05 297.29 C 281.21 297.33 278.01 296.80 275.65 298.78 M 260.57 324.78 C 258.79 325.96 257.11 327.71 257.39 330.03 C 256.69 334.20 260.88 338.21 265.00 337.62 C 268.16 338.10 270.66 335.84 272.25 333.38 C 273.07 330.76 272.10 327.81 269.84 326.24 C 267.28 324.09 263.67 324.11 260.57 324.78 Z" />
<path fill="#202020" opacity="1.00" d=" M 351.89 342.98 C 357.05 340.95 362.32 338.08 368.06 338.91 C 368.14 342.62 368.23 346.40 367.01 349.96 C 365.70 354.61 361.88 358.35 361.53 363.29 C 361.89 367.17 363.90 370.72 363.81 374.69 C 362.32 374.76 360.10 375.50 359.32 373.68 C 357.10 369.63 356.99 363.93 352.26 361.72 C 348.51 358.82 342.43 358.47 340.18 354.02 C 341.28 348.21 346.90 345.08 351.89 342.98 Z" />
</g>
<g id="#38363bff">
<path fill="#38363b" opacity="1.00" d=" M 444.33 151.40 C 446.59 149.95 449.28 150.09 451.84 150.38 C 451.71 150.89 451.47 151.92 451.35 152.43 C 448.06 155.82 444.56 159.12 442.49 163.45 C 437.72 173.14 429.64 182.47 431.47 194.03 C 422.69 191.56 414.05 188.49 404.91 187.53 C 406.41 181.36 411.59 177.20 415.74 172.74 C 423.95 164.03 433.92 157.20 444.33 151.40 Z" />
<path fill="#38363b" opacity="1.00" d=" M 369.44 194.64 C 394.27 192.95 419.88 196.56 442.34 207.65 C 464.10 218.64 481.00 237.78 491.35 259.65 C 497.92 274.16 502.85 289.95 501.98 306.04 C 500.72 326.82 491.57 346.56 478.62 362.62 C 474.00 367.67 469.71 373.02 464.81 377.81 C 448.89 392.80 430.55 405.00 411.33 415.33 C 405.81 418.07 400.39 420.97 394.96 423.87 C 361.70 439.17 326.79 452.45 290.02 455.59 C 283.68 455.86 277.34 455.63 271.00 455.72 C 256.92 456.08 242.91 453.01 229.76 448.11 C 218.75 444.10 208.85 437.55 199.92 430.06 C 195.94 426.69 192.40 422.81 189.52 418.48 C 183.92 410.74 178.22 402.74 175.66 393.41 C 172.15 380.59 170.61 367.28 171.15 354.00 C 170.47 333.67 176.14 313.52 185.58 295.63 C 194.49 277.31 208.60 262.05 224.28 249.29 C 234.68 240.57 246.53 233.89 258.32 227.30 C 266.09 223.31 274.25 220.13 282.06 216.22 C 310.07 205.25 339.39 197.19 369.44 194.64 M 384.39 229.54 C 371.07 231.43 358.30 238.29 350.02 249.00 C 343.72 256.58 339.85 266.16 339.24 276.00 C 338.21 288.72 343.00 301.91 352.19 310.81 C 360.45 319.40 372.16 324.41 383.99 325.21 C 397.71 326.37 411.74 322.01 422.51 313.47 C 426.71 310.09 431.44 306.93 433.93 301.97 C 437.63 294.70 440.90 286.97 441.58 278.76 C 442.67 263.76 436.15 248.04 423.78 239.20 C 412.81 230.46 398.09 227.63 384.39 229.54 M 266.41 274.50 C 246.54 276.43 227.67 289.28 219.84 307.84 C 214.60 319.78 214.02 333.88 219.08 345.98 C 222.90 355.31 230.10 363.12 238.68 368.31 C 245.36 371.52 252.20 375.37 259.82 375.43 C 267.49 375.52 275.34 375.28 282.66 372.72 C 292.97 369.06 302.52 363.00 309.73 354.71 C 319.02 343.25 323.85 327.74 320.84 313.11 C 319.37 303.41 313.96 294.72 307.20 287.80 C 296.35 277.77 281.04 273.07 266.41 274.50 M 351.89 342.98 C 346.90 345.08 341.28 348.21 340.18 354.02 C 342.43 358.47 348.51 358.82 352.26 361.72 C 356.99 363.93 357.10 369.63 359.32 373.68 C 360.10 375.50 362.32 374.76 363.81 374.69 C 363.90 370.72 361.89 367.17 361.53 363.29 C 361.88 358.35 365.70 354.61 367.01 349.96 C 368.23 346.40 368.14 342.62 368.06 338.91 C 362.32 338.08 357.05 340.95 351.89 342.98 Z" />
<path fill="#38363b" opacity="1.00" d=" M 130.00 271.29 C 131.63 270.78 133.26 270.27 134.90 269.77 C 134.14 270.67 133.39 271.57 132.64 272.47 C 134.58 274.50 136.48 276.57 138.60 278.42 C 145.59 284.12 151.87 290.86 159.95 295.08 C 164.31 297.48 169.23 298.53 174.07 299.45 C 172.60 305.79 169.32 311.50 167.61 317.77 C 165.57 324.12 165.12 330.86 162.92 337.17 C 161.34 335.73 159.73 334.31 158.52 332.54 C 151.66 321.87 144.77 311.17 139.27 299.72 C 134.48 290.93 131.02 281.29 130.00 271.29 Z" />
<path fill="#38363b" opacity="1.00" d=" M 545.63 334.69 C 554.85 331.39 564.82 332.01 574.42 332.65 C 580.87 333.34 587.83 333.79 593.27 337.72 C 601.69 343.88 604.29 356.03 600.46 365.49 C 595.96 374.01 586.36 377.96 577.58 380.50 C 568.52 382.51 559.13 382.68 549.90 382.12 C 543.90 381.67 538.51 384.78 533.28 387.24 C 527.35 389.99 523.41 395.40 518.42 399.40 C 511.49 404.76 505.56 411.24 499.53 417.54 C 493.37 425.38 485.97 432.28 481.04 441.05 C 474.43 451.04 468.21 461.33 463.32 472.28 C 460.67 479.05 458.97 486.17 455.90 492.79 C 452.88 500.09 447.91 506.32 444.31 513.31 C 440.16 520.98 437.86 529.43 434.51 537.44 C 431.74 544.08 429.63 550.98 428.09 558.01 C 426.38 565.88 423.26 573.46 422.59 581.55 C 421.89 589.03 422.81 596.54 422.14 604.02 C 421.26 612.59 417.62 620.50 414.51 628.43 C 413.27 631.40 413.44 634.66 413.61 637.80 C 350.93 654.94 283.07 652.30 221.86 630.49 C 222.92 621.28 222.73 611.89 224.97 602.85 C 227.00 594.74 227.19 586.30 229.44 578.24 C 233.62 563.06 238.33 547.86 246.25 534.16 C 253.79 521.02 259.33 506.88 266.93 493.78 C 272.08 484.94 270.82 474.27 268.28 464.82 C 274.24 462.31 280.76 463.67 287.01 463.30 C 305.80 462.48 324.00 457.35 342.22 453.11 C 350.32 451.26 357.73 447.15 365.96 445.77 C 355.46 454.19 343.50 460.56 333.03 469.04 C 326.98 474.03 319.41 477.21 314.28 483.27 C 311.78 485.82 313.06 490.82 317.00 490.70 C 320.53 489.28 323.15 486.38 326.22 484.23 C 341.94 473.56 356.44 460.93 373.59 452.49 C 381.29 448.06 390.23 446.33 399.03 446.08 C 402.27 445.93 405.58 446.78 408.10 448.89 C 413.00 452.79 417.86 457.62 419.02 464.05 C 420.21 468.75 419.67 474.38 415.63 477.60 C 407.00 484.66 397.68 491.06 387.34 495.35 C 377.09 499.78 367.56 505.82 359.23 513.23 C 352.95 518.73 348.38 525.79 343.33 532.35 C 341.93 534.49 339.50 537.67 342.10 539.90 C 344.28 542.51 347.83 540.67 349.46 538.43 C 354.41 532.39 357.84 525.06 364.01 520.05 C 370.38 514.88 377.10 510.00 384.57 506.52 C 394.31 501.98 404.00 497.13 412.58 490.58 C 417.44 486.86 423.04 483.56 426.05 478.02 C 429.09 472.56 428.29 465.97 426.85 460.15 C 424.74 451.21 417.22 444.84 409.71 440.26 C 401.23 435.35 391.51 439.72 382.44 439.31 C 388.08 435.20 394.79 433.05 400.99 429.97 C 427.18 417.24 452.42 401.79 473.28 381.28 C 478.93 375.94 483.84 369.72 490.41 365.43 C 498.90 359.82 507.23 353.94 516.34 349.35 C 526.07 344.40 535.09 337.89 545.63 334.69 Z" />
</g>
<g id="#5d4c54ff">
<path fill="#5d4c54" opacity="1.00" d=" M 442.49 163.45 C 444.56 159.12 448.06 155.82 451.35 152.43 C 456.12 161.66 458.44 171.99 459.76 182.25 C 461.49 190.87 461.92 199.72 461.06 208.47 C 456.48 206.87 452.72 203.73 448.46 201.51 C 443.02 198.54 437.29 196.14 431.47 194.03 C 429.64 182.47 437.72 173.14 442.49 163.45 Z" />
<path fill="#5d4c54" opacity="1.00" d=" M 134.90 269.77 C 143.60 268.32 152.10 265.57 160.97 265.26 C 171.66 264.87 182.82 263.44 193.06 267.37 C 191.90 269.68 190.68 271.98 188.99 273.96 C 182.93 281.79 178.67 290.74 174.07 299.45 C 169.23 298.53 164.31 297.48 159.95 295.08 C 151.87 290.86 145.59 284.12 138.60 278.42 C 136.48 276.57 134.58 274.50 132.64 272.47 C 133.39 271.57 134.14 270.67 134.90 269.77 Z" />
</g>
<g id="#e2b44aff">
<path fill="#e2b44a" opacity="1.00" d=" M 384.41 236.66 C 395.53 234.43 407.49 236.85 416.96 243.07 C 426.53 249.17 432.82 259.81 434.35 270.98 C 435.08 278.40 433.46 285.95 430.50 292.75 C 426.89 299.39 421.66 305.11 415.70 309.71 C 407.31 315.34 397.13 318.38 387.00 317.79 C 367.31 318.84 348.36 302.71 346.50 283.04 C 345.53 271.87 348.93 259.99 356.95 251.95 C 364.21 244.19 373.81 238.28 384.41 236.66 M 387.34 239.29 C 373.78 241.81 362.56 253.45 360.48 267.08 C 359.97 273.00 359.89 279.24 362.36 284.78 C 366.41 295.31 376.02 303.46 387.08 305.72 C 401.03 308.97 416.37 301.80 423.38 289.43 C 429.23 279.49 429.43 266.35 423.73 256.30 C 416.97 243.57 401.47 236.12 387.34 239.29 Z" />
<path fill="#e2b44a" opacity="1.00" d=" M 263.32 282.15 C 272.55 280.48 282.25 281.63 290.86 285.35 C 300.54 289.81 308.42 298.15 311.97 308.25 C 316.42 319.52 314.76 332.59 308.98 343.08 C 302.25 355.89 289.14 364.83 275.04 367.47 C 268.40 367.94 261.68 368.05 255.07 367.33 C 245.54 364.87 236.16 359.87 230.43 351.63 C 226.23 345.96 223.29 339.13 223.25 331.99 C 223.22 326.72 222.88 321.33 224.40 316.22 C 226.94 307.29 232.37 299.34 239.59 293.53 C 246.06 287.30 254.68 284.03 263.32 282.15 M 270.30 286.01 C 258.78 287.55 248.57 295.52 244.05 306.18 C 240.91 312.46 240.83 319.73 241.81 326.54 C 244.52 338.19 253.47 348.44 265.02 351.92 C 279.63 356.85 297.17 350.05 304.51 336.47 C 309.01 329.35 309.61 320.55 308.32 312.42 C 305.90 301.71 298.19 292.17 287.90 288.14 C 282.32 286.06 276.22 284.87 270.30 286.01 Z" />
</g>
</svg>
