<?xml version="1.0" encoding="UTF-8" ?>
<!DOCTYPE svg PUBLIC "-//W3C//DTD SVG 1.1//EN" "http://www.w3.org/Graphics/SVG/1.1/DTD/svg11.dtd">
<svg width="660pt" height="660pt" viewBox="0 0 660 660" version="1.1" xmlns="http://www.w3.org/2000/svg">
<g id="#000000ff">
</g>
<g id="#ffffffff">
<path fill="#ffffff" opacity="1.00" d=" M 266.80 15.86 C 286.95 11.98 307.45 9.55 328.00 10.00 C 363.68 9.24 399.36 15.48 433.16 26.81 C 479.66 42.56 522.38 69.20 557.07 103.93 C 583.36 130.39 605.09 161.40 620.74 195.28 C 636.14 228.55 645.82 264.51 648.98 301.04 C 650.60 314.97 649.84 329.01 649.99 343.01 C 647.65 399.98 629.71 456.34 598.35 504.02 C 597.44 492.58 594.54 481.48 591.99 470.34 C 587.77 449.31 580.92 428.91 573.15 408.95 C 570.93 402.43 567.41 396.44 565.52 389.81 C 571.53 389.31 577.58 389.69 583.60 389.39 C 588.77 388.71 589.41 380.03 584.57 378.39 C 582.40 377.29 579.97 378.09 577.68 378.21 C 571.57 378.65 565.42 378.50 559.31 378.89 C 551.73 361.82 540.93 346.43 531.72 330.25 C 537.47 327.61 543.53 325.70 549.40 323.35 C 555.25 321.00 561.50 319.98 567.56 318.39 C 570.64 317.79 573.22 314.28 571.85 311.24 C 571.05 308.37 567.78 306.95 565.00 307.60 C 551.16 309.93 538.26 315.69 525.33 320.90 C 514.41 305.03 504.13 288.62 496.19 271.02 C 492.07 261.09 490.69 250.34 487.07 240.25 C 479.29 214.51 466.41 190.38 449.67 169.37 C 443.66 162.89 437.30 155.65 428.36 153.49 C 422.98 151.93 417.27 153.78 412.72 156.70 C 400.71 164.42 391.27 175.25 381.21 185.21 C 376.28 189.97 372.43 195.71 367.47 200.44 C 361.76 206.59 356.39 213.05 351.02 219.50 C 346.34 219.57 341.65 219.60 337.00 219.14 C 328.71 218.10 320.31 218.86 312.04 217.65 C 304.01 217.56 296.04 216.47 288.01 216.43 C 285.49 216.32 282.88 216.41 280.51 215.48 C 279.13 214.16 278.17 212.49 277.13 210.92 C 269.40 198.49 261.27 186.29 252.27 174.74 C 249.25 170.79 246.57 166.54 242.92 163.11 C 238.56 159.05 234.90 153.74 228.96 151.88 C 222.29 148.94 215.16 152.36 209.02 155.06 C 186.17 167.16 168.55 187.00 154.01 208.01 C 145.52 220.03 138.30 232.91 132.13 246.26 C 119.76 270.65 111.88 297.02 105.38 323.51 C 104.93 323.55 104.04 323.63 103.60 323.67 C 96.19 320.44 88.60 317.62 80.90 315.17 C 73.70 313.12 66.48 310.65 58.94 310.37 C 56.82 310.09 55.07 311.47 53.27 312.37 C 52.89 315.54 53.26 319.86 57.24 320.33 C 72.11 322.17 86.17 327.64 99.94 333.25 C 100.84 334.09 101.77 334.94 102.33 336.06 C 99.74 349.90 96.84 363.72 95.30 377.75 L 94.74 378.29 C 90.14 378.81 85.63 377.45 81.05 377.36 C 69.45 375.93 57.72 376.37 46.06 376.31 C 40.29 375.64 39.32 385.96 45.00 386.50 C 54.27 386.66 63.57 386.21 72.84 386.75 C 78.17 387.32 83.48 388.02 88.82 388.54 C 90.44 388.76 92.04 389.10 93.65 389.42 C 92.89 401.32 90.38 413.06 90.28 425.01 C 89.18 433.97 89.51 443.00 89.39 452.00 C 89.49 460.72 89.14 469.48 90.32 478.14 C 90.61 493.09 93.01 507.89 94.73 522.72 C 95.83 529.70 97.23 536.63 98.58 543.57 C 99.37 546.87 99.84 550.34 101.45 553.38 C 104.11 556.97 107.93 559.50 110.53 563.15 C 55.37 512.46 19.48 441.44 10.97 367.05 C 9.72 356.41 8.73 345.72 9.00 335.00 C 9.19 325.16 8.49 315.27 9.67 305.47 C 14.61 236.06 43.33 168.62 89.83 116.85 C 135.71 65.10 198.94 29.14 266.80 15.86 Z" />
</g>
<g id="#775126ff">
<path fill="#775126" opacity="1.00" d=" M 209.02 155.06 C 215.16 152.36 222.29 148.94 228.96 151.88 C 234.90 153.74 238.56 159.05 242.92 163.11 C 246.57 166.54 249.25 170.79 252.27 174.74 C 261.27 186.29 269.40 198.49 277.13 210.92 C 278.17 212.49 279.13 214.16 280.51 215.48 C 282.88 216.41 285.49 216.32 288.01 216.43 C 296.04 216.47 304.01 217.56 312.04 217.65 C 320.31 218.86 328.71 218.10 337.00 219.14 C 341.65 219.60 346.34 219.57 351.02 219.50 C 356.39 213.05 361.76 206.59 367.47 200.44 C 372.43 195.71 376.28 189.97 381.21 185.21 C 391.27 175.25 400.71 164.42 412.72 156.70 C 417.27 153.78 422.98 151.93 428.36 153.49 C 437.30 155.65 443.66 162.89 449.67 169.37 C 466.41 190.38 479.29 214.51 487.07 240.25 C 490.69 250.34 492.07 261.09 496.19 271.02 C 504.13 288.62 514.41 305.03 525.33 320.90 C 522.18 322.40 519.19 324.23 516.07 325.78 C 504.01 305.76 489.41 286.60 483.36 263.62 C 480.10 250.79 476.70 237.91 471.22 225.80 C 464.85 210.10 456.62 195.11 446.41 181.58 C 441.09 175.00 435.74 167.92 428.06 163.95 C 423.82 161.80 419.19 164.18 415.77 166.77 C 403.09 176.28 392.37 188.05 381.68 199.67 C 373.59 208.91 364.91 217.73 357.85 227.82 C 356.54 229.04 354.98 230.23 353.07 230.04 C 346.67 229.91 340.25 229.85 333.88 229.16 C 330.00 228.61 326.08 228.59 322.18 228.77 C 315.73 229.21 309.46 227.27 303.04 227.29 C 295.35 227.27 287.68 226.55 280.00 226.34 C 277.36 226.38 274.90 225.42 272.75 223.98 C 271.79 220.17 269.32 217.02 267.21 213.79 C 257.28 198.61 247.25 183.39 235.31 169.69 C 231.95 166.28 228.74 162.06 223.95 160.72 C 217.42 161.10 211.72 165.01 206.22 168.24 C 185.80 182.25 169.68 201.68 156.48 222.45 C 137.87 252.22 125.25 285.38 116.43 319.26 C 114.86 325.01 114.35 330.99 112.76 336.74 C 107.96 353.74 105.96 371.37 104.42 388.92 C 101.42 404.43 100.67 420.28 99.66 436.03 C 99.65 444.68 99.65 453.34 99.63 462.00 C 99.48 470.99 100.70 479.92 101.01 488.89 C 101.55 495.32 102.01 501.76 102.92 508.14 C 104.62 517.35 105.29 526.72 107.27 535.89 C 108.42 541.06 109.47 546.25 110.43 551.45 C 111.21 555.95 113.19 560.38 112.41 565.02 C 111.74 564.43 111.11 563.81 110.53 563.15 C 107.93 559.50 104.11 556.97 101.45 553.38 C 99.84 550.34 99.37 546.87 98.58 543.57 C 97.23 536.63 95.83 529.70 94.73 522.72 C 93.01 507.89 90.61 493.09 90.32 478.14 C 89.14 469.48 89.49 460.72 89.39 452.00 C 89.51 443.00 89.18 433.97 90.28 425.01 C 90.38 413.06 92.89 401.32 93.65 389.42 C 92.04 389.10 90.44 388.76 88.82 388.54 C 90.55 388.37 92.28 388.16 94.01 387.97 C 94.54 385.06 94.82 382.05 93.78 379.22 C 94.02 378.99 94.50 378.52 94.74 378.29 L 95.30 377.75 C 96.84 363.72 99.74 349.90 102.33 336.06 C 101.77 334.94 100.84 334.09 99.94 333.25 C 100.67 333.21 102.13 333.12 102.86 333.08 C 103.90 330.05 105.35 326.74 103.60 323.67 C 104.04 323.63 104.93 323.55 105.38 323.51 C 111.88 297.02 119.76 270.65 132.13 246.26 C 138.30 232.91 145.52 220.03 154.01 208.01 C 168.55 187.00 186.17 167.16 209.02 155.06 Z" />
</g>
<g id="#e7b465ff">
<path fill="#e7b465" opacity="1.00" d=" M 206.22 168.24 C 211.72 165.01 217.42 161.10 223.95 160.72 C 228.74 162.06 231.95 166.28 235.31 169.69 C 247.25 183.39 257.28 198.61 267.21 213.79 C 269.32 217.02 271.79 220.17 272.75 223.98 C 271.40 233.32 273.76 242.57 275.26 251.73 C 276.48 258.04 277.45 264.45 279.53 270.54 C 279.85 270.62 280.49 270.79 280.81 270.87 C 282.09 268.98 282.92 266.85 283.77 264.75 C 288.48 252.43 293.83 240.36 298.20 227.92 C 301.42 227.51 304.67 227.54 307.89 227.98 C 309.16 233.88 310.26 239.83 311.33 245.77 C 311.60 247.78 312.51 249.60 313.66 251.26 C 316.58 243.80 320.43 236.63 322.18 228.77 C 326.08 228.59 330.00 228.61 333.88 229.16 C 337.15 238.73 339.62 248.55 342.87 258.12 C 344.83 263.90 346.15 269.93 348.99 275.39 C 351.52 268.87 352.52 261.92 354.32 255.20 C 356.36 246.23 358.39 237.08 357.85 227.82 C 364.91 217.73 373.59 208.91 381.68 199.67 C 392.37 188.05 403.09 176.28 415.77 166.77 C 419.19 164.18 423.82 161.80 428.06 163.95 C 435.74 167.92 441.09 175.00 446.41 181.58 C 456.62 195.11 464.85 210.10 471.22 225.80 C 476.70 237.91 480.10 250.79 483.36 263.62 C 489.41 286.60 504.01 305.76 516.07 325.78 C 507.22 330.02 499.59 336.24 491.28 341.36 C 483.66 346.54 476.85 352.86 470.65 359.66 C 468.12 362.46 464.94 364.62 462.54 367.54 C 462.07 369.15 462.09 370.90 462.51 372.53 C 464.42 376.93 471.52 376.95 473.90 372.97 C 479.14 366.21 485.89 360.92 491.96 354.96 C 495.92 351.07 501.00 348.68 505.39 345.35 C 510.02 341.75 515.48 339.50 520.28 336.16 C 520.91 336.12 522.19 336.04 522.82 336.00 C 532.37 349.68 540.54 364.30 548.39 379.01 C 547.61 379.70 546.86 380.42 546.13 381.14 C 535.75 382.32 525.46 384.28 515.26 386.51 C 506.05 389.46 497.14 393.32 488.50 397.65 C 486.42 398.72 484.02 399.56 482.61 401.53 C 482.07 403.46 482.03 405.57 482.52 407.52 C 484.14 410.28 488.04 411.51 490.80 409.68 C 502.37 402.42 515.42 397.59 528.77 394.85 C 537.24 394.48 545.47 392.03 553.92 391.67 C 557.92 396.62 559.60 403.10 562.20 408.86 C 555.96 416.69 549.94 424.76 542.75 431.76 C 530.72 445.57 518.23 459.02 504.66 471.34 C 507.88 476.77 515.23 475.80 520.61 475.49 C 540.50 472.80 559.36 465.45 577.90 458.07 C 578.50 459.34 579.12 460.61 579.79 461.86 C 583.08 473.02 585.17 484.48 587.36 495.89 C 588.83 502.25 588.91 508.87 590.88 515.12 C 545.21 579.71 474.55 625.86 397.19 642.18 C 383.91 644.93 370.47 647.20 356.93 648.09 C 343.03 649.84 328.98 648.64 315.01 649.02 C 240.47 645.88 167.16 615.82 112.41 565.02 C 113.19 560.38 111.21 555.95 110.43 551.45 C 109.47 546.25 108.42 541.06 107.27 535.89 C 105.29 526.72 104.62 517.35 102.92 508.14 C 102.01 501.76 101.55 495.32 101.01 488.89 C 114.62 489.79 128.26 489.98 141.90 489.56 C 151.19 488.85 160.70 488.00 169.39 484.40 C 172.34 483.25 174.84 481.15 176.17 478.24 C 166.25 472.90 155.83 468.54 146.00 463.03 C 130.36 454.37 114.62 445.81 99.66 436.03 C 100.67 420.28 101.42 404.43 104.42 388.92 C 105.96 371.37 107.96 353.74 112.76 336.74 C 114.35 330.99 114.86 325.01 116.43 319.26 C 125.25 285.38 137.87 252.22 156.48 222.45 C 169.68 201.68 185.80 182.25 206.22 168.24 M 205.36 322.53 C 198.88 324.17 193.41 329.65 192.15 336.28 C 189.47 346.53 198.36 357.90 208.96 357.78 C 218.72 358.74 227.76 349.63 227.53 340.00 C 227.73 333.87 224.14 328.18 219.21 324.78 C 215.29 321.80 210.01 321.82 205.36 322.53 M 285.38 332.46 C 283.77 333.82 283.05 335.99 281.39 337.35 C 278.61 339.42 278.54 343.71 280.74 346.23 C 284.19 350.55 287.64 354.98 291.90 358.54 C 291.68 366.35 286.21 372.80 280.22 377.23 C 272.52 382.60 261.18 383.30 253.45 377.63 C 251.49 376.03 248.80 376.11 246.45 376.59 C 243.56 378.10 243.98 381.90 244.51 384.59 C 247.28 387.99 251.48 389.81 255.47 391.39 C 261.39 393.70 267.85 392.10 274.00 392.63 C 281.37 396.46 284.38 406.14 293.04 408.06 C 301.54 409.39 310.92 409.08 318.37 404.29 C 322.44 400.96 325.45 396.55 329.02 392.73 C 333.66 392.59 338.52 393.12 342.86 391.09 C 346.88 389.33 351.73 388.29 354.42 384.54 C 355.12 381.54 355.13 376.35 350.92 376.37 C 347.03 375.41 344.66 379.19 341.27 380.16 C 335.11 382.09 328.19 381.96 322.14 379.71 C 314.71 375.03 307.86 367.96 306.55 358.91 C 311.00 357.01 315.12 354.38 319.55 352.41 C 320.36 349.19 322.34 346.54 324.20 343.86 C 325.47 340.85 322.55 339.00 320.60 337.37 C 319.00 336.17 319.52 333.19 317.40 332.61 C 311.68 331.23 305.93 329.46 299.98 329.70 C 294.95 329.50 290.28 331.67 285.38 332.46 M 391.39 332.61 C 381.31 334.82 374.67 346.56 378.58 356.24 C 381.17 364.82 391.14 369.94 399.67 367.61 C 405.89 366.05 411.10 360.91 412.65 354.67 C 414.99 346.89 410.68 338.14 403.74 334.28 C 400.07 332.01 395.52 331.98 391.39 332.61 Z" />
</g>
<g id="#c88b31ff">
<path fill="#c88b31" opacity="1.00" d=" M 272.75 223.98 C 274.90 225.42 277.36 226.38 280.00 226.34 C 287.68 226.55 295.35 227.27 303.04 227.29 C 309.46 227.27 315.73 229.21 322.18 228.77 C 320.43 236.63 316.58 243.80 313.66 251.26 C 312.51 249.60 311.60 247.78 311.33 245.77 C 310.26 239.83 309.16 233.88 307.89 227.98 C 304.67 227.54 301.42 227.51 298.20 227.92 C 293.83 240.36 288.48 252.43 283.77 264.75 C 282.92 266.85 282.09 268.98 280.81 270.87 C 280.49 270.79 279.85 270.62 279.53 270.54 C 277.45 264.45 276.48 258.04 275.26 251.73 C 273.76 242.57 271.40 233.32 272.75 223.98 Z" />
<path fill="#c88b31" opacity="1.00" d=" M 353.07 230.04 C 354.98 230.23 356.54 229.04 357.85 227.82 C 358.39 237.08 356.36 246.23 354.32 255.20 C 352.52 261.92 351.52 268.87 348.99 275.39 C 346.15 269.93 344.83 263.90 342.87 258.12 C 339.62 248.55 337.15 238.73 333.88 229.16 C 340.25 229.85 346.67 229.91 353.07 230.04 Z" />
</g>
<g id="#3d240aff">
<path fill="#3d240a" opacity="1.00" d=" M 525.33 320.90 C 538.26 315.69 551.16 309.93 565.00 307.60 C 567.78 306.95 571.05 308.37 571.85 311.24 C 573.22 314.28 570.64 317.79 567.56 318.39 C 561.50 319.98 555.25 321.00 549.40 323.35 C 543.53 325.70 537.47 327.61 531.72 330.25 C 527.95 332.31 524.05 334.11 520.28 336.16 C 515.48 339.50 510.02 341.75 505.39 345.35 C 501.00 348.68 495.92 351.07 491.96 354.96 C 485.89 360.92 479.14 366.21 473.90 372.97 C 471.52 376.95 464.42 376.93 462.51 372.53 C 462.09 370.90 462.07 369.15 462.54 367.54 C 464.94 364.62 468.12 362.46 470.65 359.66 C 476.85 352.86 483.66 346.54 491.28 341.36 C 499.59 336.24 507.22 330.02 516.07 325.78 C 519.19 324.23 522.18 322.40 525.33 320.90 Z" />
<path fill="#3d240a" opacity="1.00" d=" M 577.68 378.21 C 579.97 378.09 582.40 377.29 584.57 378.39 C 589.41 380.03 588.77 388.71 583.60 389.39 C 577.58 389.69 571.53 389.31 565.52 389.81 C 553.21 390.94 540.73 391.45 528.77 394.85 C 515.42 397.59 502.37 402.42 490.80 409.68 C 488.04 411.51 484.14 410.28 482.52 407.52 C 482.03 405.57 482.07 403.46 482.61 401.53 C 484.02 399.56 486.42 398.72 488.50 397.65 C 497.14 393.32 506.05 389.46 515.26 386.51 C 525.46 384.28 535.75 382.32 546.13 381.14 C 550.54 380.55 554.90 379.56 559.31 378.89 C 565.42 378.50 571.57 378.65 577.68 378.21 Z" />
</g>
<g id="#3c240aff">
<path fill="#3c240a" opacity="1.00" d=" M 53.27 312.37 C 55.07 311.47 56.82 310.09 58.94 310.37 C 66.48 310.65 73.70 313.12 80.90 315.17 C 88.60 317.62 96.19 320.44 103.60 323.67 C 105.35 326.74 103.90 330.05 102.86 333.08 C 102.13 333.12 100.67 333.21 99.94 333.25 C 86.17 327.64 72.11 322.17 57.24 320.33 C 53.26 319.86 52.89 315.54 53.27 312.37 Z" />
</g>
<g id="#3d240bff">
<path fill="#3d240b" opacity="1.00" d=" M 205.36 322.53 C 210.01 321.82 215.29 321.80 219.21 324.78 C 224.14 328.18 227.73 333.87 227.53 340.00 C 227.76 349.63 218.72 358.74 208.96 357.78 C 198.36 357.90 189.47 346.53 192.15 336.28 C 193.41 329.65 198.88 324.17 205.36 322.53 Z" />
</g>
<g id="#dd8d98ff">
<path fill="#dd8d98" opacity="1.00" d=" M 285.38 332.46 C 290.28 331.67 294.95 329.50 299.98 329.70 C 305.93 329.46 311.68 331.23 317.40 332.61 C 319.52 333.19 319.00 336.17 320.60 337.37 C 322.55 339.00 325.47 340.85 324.20 343.86 C 322.34 346.54 320.36 349.19 319.55 352.41 C 315.12 354.38 311.00 357.01 306.55 358.91 C 304.37 359.42 302.15 359.88 299.91 359.96 C 297.20 359.69 294.67 358.35 291.90 358.54 C 287.64 354.98 284.19 350.55 280.74 346.23 C 278.54 343.71 278.61 339.42 281.39 337.35 C 283.05 335.99 283.77 333.82 285.38 332.46 Z" />
</g>
<g id="#785126ff">
<path fill="#785126" opacity="1.00" d=" M 520.28 336.16 C 524.05 334.11 527.95 332.31 531.72 330.25 C 540.93 346.43 551.73 361.82 559.31 378.89 C 554.90 379.56 550.54 380.55 546.13 381.14 C 546.86 380.42 547.61 379.70 548.39 379.01 C 540.54 364.30 532.37 349.68 522.82 336.00 C 522.19 336.04 520.91 336.12 520.28 336.16 Z" />
</g>
<g id="#3d250aff">
<path fill="#3d250a" opacity="1.00" d=" M 391.39 332.61 C 395.52 331.98 400.07 332.01 403.74 334.28 C 410.68 338.14 414.99 346.89 412.65 354.67 C 411.10 360.91 405.89 366.05 399.67 367.61 C 391.14 369.94 381.17 364.82 378.58 356.24 C 374.67 346.56 381.31 334.82 391.39 332.61 Z" />
<path fill="#3d250a" opacity="1.00" d=" M 291.90 358.54 C 294.67 358.35 297.20 359.69 299.91 359.96 C 302.15 359.88 304.37 359.42 306.55 358.91 C 307.86 367.96 314.71 375.03 322.14 379.71 C 328.19 381.96 335.11 382.09 341.27 380.16 C 344.66 379.19 347.03 375.41 350.92 376.37 C 355.13 376.35 355.12 381.54 354.42 384.54 C 351.73 388.29 346.88 389.33 342.86 391.09 C 338.52 393.12 333.66 392.59 329.02 392.73 C 325.45 396.55 322.44 400.96 318.37 404.29 C 310.92 409.08 301.54 409.39 293.04 408.06 C 284.38 406.14 281.37 396.46 274.00 392.63 C 267.85 392.10 261.39 393.70 255.47 391.39 C 251.48 389.81 247.28 387.99 244.51 384.59 C 243.98 381.90 243.56 378.10 246.45 376.59 C 248.80 376.11 251.49 376.03 253.45 377.63 C 261.18 383.30 272.52 382.60 280.22 377.23 C 286.21 372.80 291.68 366.35 291.90 358.54 M 292.45 381.44 C 290.37 383.90 287.29 385.44 285.47 388.04 C 288.35 391.56 291.20 395.29 294.84 398.06 C 298.81 399.24 303.26 399.05 307.30 398.20 C 311.49 396.68 316.65 394.41 317.78 389.66 C 310.41 386.23 304.33 380.41 299.74 373.78 C 296.82 375.83 295.17 379.16 292.45 381.44 Z" />
</g>
<g id="#e7b466ff">
<path fill="#e7b466" opacity="1.00" d=" M 292.45 381.44 C 295.17 379.16 296.82 375.83 299.74 373.78 C 304.33 380.41 310.41 386.23 317.78 389.66 C 316.65 394.41 311.49 396.68 307.30 398.20 C 303.26 399.05 298.81 399.24 294.84 398.06 C 291.20 395.29 288.35 391.56 285.47 388.04 C 287.29 385.44 290.37 383.90 292.45 381.44 Z" />
</g>
<g id="#3c2409ff">
<path fill="#3c2409" opacity="1.00" d=" M 45.00 386.50 C 39.32 385.96 40.29 375.64 46.06 376.31 C 57.72 376.37 69.45 375.93 81.05 377.36 C 85.63 377.45 90.14 378.81 94.74 378.29 C 94.50 378.52 94.02 378.99 93.78 379.22 C 94.82 382.05 94.54 385.06 94.01 387.97 C 92.28 388.16 90.55 388.37 88.82 388.54 C 83.48 388.02 78.17 387.32 72.84 386.75 C 63.57 386.21 54.27 386.66 45.00 386.50 Z" />
</g>
<g id="#775125ff">
<path fill="#775125" opacity="1.00" d=" M 528.77 394.85 C 540.73 391.45 553.21 390.94 565.52 389.81 C 567.41 396.44 570.93 402.43 573.15 408.95 C 580.92 428.91 587.77 449.31 591.99 470.34 C 594.54 481.48 597.44 492.58 598.35 504.02 C 596.36 508.01 593.70 511.67 590.88 515.12 C 588.91 508.87 588.83 502.25 587.36 495.89 C 585.17 484.48 583.08 473.02 579.79 461.86 C 575.23 443.80 569.23 426.11 562.20 408.86 C 559.60 403.10 557.92 396.62 553.92 391.67 C 545.47 392.03 537.24 394.48 528.77 394.85 Z" />
</g>
<g id="#c88b30ff">
<path fill="#c88b30" opacity="1.00" d=" M 562.20 408.86 C 569.23 426.11 575.23 443.80 579.79 461.86 C 579.12 460.61 578.50 459.34 577.90 458.07 C 559.36 465.45 540.50 472.80 520.61 475.49 C 515.23 475.80 507.88 476.77 504.66 471.34 C 518.23 459.02 530.72 445.57 542.75 431.76 C 549.94 424.76 555.96 416.69 562.20 408.86 Z" />
<path fill="#c88b30" opacity="1.00" d=" M 99.66 436.03 C 114.62 445.81 130.36 454.37 146.00 463.03 C 155.83 468.54 166.25 472.90 176.17 478.24 C 174.84 481.15 172.34 483.25 169.39 484.40 C 160.70 488.00 151.19 488.85 141.90 489.56 C 128.26 489.98 114.62 489.79 101.01 488.89 C 100.70 479.92 99.48 470.99 99.63 462.00 C 99.65 453.34 99.65 444.68 99.66 436.03 Z" />
</g>
</svg>
