<?xml version="1.0" encoding="UTF-8" ?>
<!DOCTYPE svg PUBLIC "-//W3C//DTD SVG 1.1//EN" "http://www.w3.org/Graphics/SVG/1.1/DTD/svg11.dtd">
<svg width="660pt" height="660pt" viewBox="0 0 660 660" version="1.1" xmlns="http://www.w3.org/2000/svg">
<g id="#fae83fff">
<path fill="#fae83f" opacity="1.00" d=" M 0.00 0.00 L 0.39 0.00 C 0.29 0.10 0.10 0.29 0.00 0.39 L 0.00 0.00 Z" />
<path fill="#fae83f" opacity="1.00" d=" M 183.03 297.05 C 201.69 297.59 220.80 295.64 239.19 298.03 C 227.79 311.72 216.33 327.40 216.15 346.00 C 216.18 364.35 226.74 380.33 238.76 393.14 C 237.57 393.97 235.83 394.53 234.58 393.51 C 232.10 391.56 228.93 391.13 225.88 390.95 C 224.66 391.07 223.80 390.60 223.29 389.54 C 222.95 388.43 222.22 387.92 221.10 388.00 C 198.86 378.04 188.99 350.95 186.02 327.93 C 185.81 327.44 185.38 326.47 185.17 325.99 C 185.14 325.21 185.07 323.64 185.04 322.86 C 185.26 321.81 185.04 320.86 184.38 320.01 C 183.28 312.42 182.66 304.72 183.03 297.05 Z" />
<path fill="#fae83f" opacity="1.00" d=" M 424.81 297.74 C 442.11 296.14 459.57 297.30 476.94 297.06 C 477.00 301.75 477.23 306.47 476.98 311.17 C 476.98 311.58 476.99 312.42 476.99 312.83 C 477.50 321.60 477.10 330.46 474.65 338.93 C 474.48 339.43 474.15 340.44 473.98 340.95 C 471.95 357.32 464.51 374.97 450.81 384.87 C 449.73 384.98 449.03 385.56 448.71 386.60 C 446.57 388.73 443.58 389.87 440.78 390.86 C 439.71 390.69 438.80 390.98 438.04 391.72 C 435.15 393.97 431.15 393.96 427.70 394.22 C 425.79 393.96 423.91 393.64 422.03 393.27 L 422.02 392.30 C 436.10 377.38 447.98 356.64 442.54 335.46 C 439.69 322.32 431.29 311.90 423.87 301.18 C 423.60 299.77 422.27 297.40 424.81 297.74 Z" />
<path fill="#fae83f" opacity="1.00" d=" M 240.87 298.02 C 274.43 295.64 294.89 331.62 295.99 361.23 C 295.80 362.81 295.98 364.40 296.50 365.92 C 297.02 367.64 297.00 369.46 297.00 371.24 C 296.91 373.46 297.04 375.67 297.41 377.89 C 298.09 382.99 298.30 388.21 297.90 393.37 C 296.74 394.04 295.55 394.66 294.33 395.22 C 292.87 395.19 291.41 395.14 289.95 395.07 C 276.29 394.88 262.63 394.97 248.98 395.03 C 246.23 394.89 243.18 395.75 240.90 393.95 C 250.28 382.75 260.90 371.34 263.26 356.31 C 268.04 334.19 255.19 313.57 240.87 298.02 Z" />
<path fill="#fae83f" opacity="1.00" d=" M 395.95 307.05 C 401.44 303.26 408.35 299.86 415.22 298.98 C 415.65 299.00 416.52 299.04 416.95 299.06 L 418.13 299.12 C 407.37 312.67 395.16 327.49 395.88 346.00 C 394.93 364.93 407.31 379.95 418.13 394.05 C 417.86 394.29 417.33 394.75 417.07 394.99 C 399.71 395.02 382.35 394.98 364.99 395.01 C 363.17 395.36 362.50 394.64 362.99 392.83 C 362.99 392.42 362.98 391.58 362.97 391.17 C 362.89 387.75 362.53 384.27 363.47 380.95 C 364.00 379.77 364.21 378.48 364.02 377.21 C 363.72 372.72 364.27 368.23 365.56 363.94 C 366.58 362.23 367.25 360.32 367.01 358.30 C 367.61 352.75 368.80 346.92 371.36 341.92 C 372.19 340.83 372.88 339.60 372.98 338.21 C 376.03 326.45 384.08 315.55 393.99 308.91 C 395.02 308.69 395.67 308.07 395.95 307.05 Z" />
</g>
<g id="#000000ff">
</g>
<g id="#48332eff">
<path fill="#48332e" opacity="1.00" d=" M 304.29 11.00 C 304.71 10.81 305.55 10.43 305.97 10.24 L 306.00 11.03 C 305.57 11.02 304.72 11.01 304.29 11.00 Z" />
<path fill="#48332e" opacity="1.00" d=" M 353.03 10.25 C 353.45 10.44 354.29 10.82 354.70 11.01 C 354.28 11.01 353.42 11.03 352.99 11.04 L 353.03 10.25 Z" />
<path fill="#48332e" opacity="1.00" d=" M 110.33 95.99 C 108.79 94.45 111.52 91.81 113.04 93.32 C 112.23 94.31 111.32 95.20 110.33 95.99 Z" />
<path fill="#48332e" opacity="1.00" d=" M 545.96 93.32 C 547.48 91.82 550.19 94.46 548.68 96.00 C 547.67 95.20 546.76 94.31 545.96 93.32 Z" />
<path fill="#48332e" opacity="1.00" d=" M 92.18 114.11 C 91.63 112.35 92.24 111.69 94.01 112.13 C 93.70 113.07 93.09 113.73 92.18 114.11 Z" />
<path fill="#48332e" opacity="1.00" d=" M 565.01 112.11 C 566.77 111.69 567.37 112.36 566.81 114.11 C 565.89 113.72 565.29 113.05 565.01 112.11 Z" />
<path fill="#48332e" opacity="1.00" d=" M 84.17 123.13 C 83.72 121.35 84.39 120.70 86.18 121.18 C 85.76 122.09 85.09 122.74 84.17 123.13 Z" />
<path fill="#48332e" opacity="1.00" d=" M 572.82 121.18 C 574.61 120.71 575.27 121.36 574.83 123.13 C 573.90 122.74 573.23 122.09 572.82 121.18 Z" />
<path fill="#48332e" opacity="1.00" d=" M 418.13 299.12 C 419.30 295.02 421.88 300.21 423.87 301.18 C 431.29 311.90 439.69 322.32 442.54 335.46 C 447.98 356.64 436.10 377.38 422.02 392.30 C 420.98 393.35 419.72 394.37 418.13 394.05 C 407.31 379.95 394.93 364.93 395.88 346.00 C 395.16 327.49 407.37 312.67 418.13 299.12 Z" />
<path fill="#48332e" opacity="1.00" d=" M 239.19 298.03 C 239.61 298.03 240.45 298.03 240.87 298.02 C 255.19 313.57 268.04 334.19 263.26 356.31 C 260.90 371.34 250.28 382.75 240.90 393.95 C 240.12 395.49 238.83 394.55 238.76 393.14 C 226.74 380.33 216.18 364.35 216.15 346.00 C 216.33 327.40 227.79 311.72 239.19 298.03 Z" />
<path fill="#48332e" opacity="1.00" d=" M 9.22 306.13 C 9.41 305.68 9.78 304.80 9.96 304.36 C 9.97 304.79 9.98 305.67 9.98 306.11 L 9.22 306.13 Z" />
<path fill="#48332e" opacity="1.00" d=" M 649.04 304.36 C 649.22 304.80 649.59 305.68 649.78 306.13 L 649.02 306.11 C 649.02 305.67 649.03 304.80 649.04 304.36 Z" />
<path fill="#48332e" opacity="1.00" d=" M 9.22 352.87 L 9.98 352.89 C 9.98 353.33 9.96 354.21 9.95 354.64 C 9.77 354.20 9.40 353.32 9.22 352.87 Z" />
<path fill="#48332e" opacity="1.00" d=" M 649.02 352.89 L 649.78 352.87 C 649.60 353.32 649.23 354.20 649.05 354.64 C 649.04 354.21 649.03 353.33 649.02 352.89 Z" />
<path fill="#48332e" opacity="1.00" d=" M 302.41 411.40 C 322.28 410.95 342.81 410.29 362.32 411.69 C 369.00 432.95 343.91 442.62 333.23 457.38 C 334.70 479.17 357.97 493.72 377.02 494.09 C 362.90 510.34 336.28 509.69 316.03 508.90 C 305.56 505.80 287.69 504.72 283.98 493.17 C 304.24 494.03 322.75 477.37 326.74 458.31 C 317.46 442.07 290.94 434.34 297.08 412.10 C 298.41 411.92 301.08 411.57 302.41 411.40 Z" />
<path fill="#48332e" opacity="1.00" d=" M 167.18 519.20 C 171.14 515.90 173.79 510.27 178.00 507.96 C 271.42 554.13 387.03 554.06 480.59 508.48 C 485.84 508.16 488.18 515.59 492.03 518.75 L 492.52 519.35 C 495.31 522.57 497.23 526.58 500.68 529.20 C 500.99 529.73 501.62 530.79 501.93 531.32 C 501.85 532.79 502.54 533.36 504.00 533.04 C 503.52 534.46 504.54 535.76 505.94 536.01 C 506.20 536.59 506.71 537.76 506.96 538.34 C 506.23 539.75 507.31 541.16 508.83 541.12 C 509.08 541.70 509.59 542.86 509.84 543.44 C 511.03 546.25 512.30 549.17 514.72 551.18 L 515.09 551.86 C 514.38 553.32 515.06 555.07 516.75 555.36 C 517.04 555.81 517.62 556.71 517.91 557.16 C 519.16 559.81 520.50 562.44 521.94 565.01 C 522.21 566.00 522.49 567.00 522.80 567.99 C 523.29 570.17 524.18 572.25 525.57 574.03 C 525.99 575.06 526.47 576.08 527.02 577.07 C 527.22 577.51 527.60 578.41 527.80 578.85 L 528.08 579.71 C 500.31 601.75 468.07 617.28 435.90 631.05 C 435.64 631.26 435.13 631.68 434.87 631.89 C 434.22 630.49 433.64 630.51 433.13 631.97 C 432.84 632.17 432.25 632.57 431.95 632.77 C 431.19 631.47 430.59 631.54 430.16 632.98 C 429.87 633.17 429.28 633.55 428.99 633.74 C 428.21 632.45 427.61 632.51 427.19 633.93 C 426.97 634.07 426.52 634.35 426.30 634.49 C 422.91 633.63 419.44 634.79 416.94 637.14 C 416.68 637.22 416.16 637.38 415.90 637.47 C 415.12 636.50 413.45 636.47 413.21 637.90 C 412.97 638.04 412.50 638.30 412.27 638.44 C 408.38 638.44 403.96 638.48 400.91 641.18 C 400.65 641.26 400.14 641.40 399.88 641.48 C 399.10 640.50 397.54 640.44 397.01 641.72 C 396.49 641.94 395.46 642.40 394.94 642.62 C 394.23 641.52 392.63 641.45 392.04 642.70 C 391.51 642.93 390.46 643.39 389.94 643.63 C 389.23 642.51 387.64 642.47 387.03 643.69 C 386.51 643.89 385.46 644.30 384.94 644.50 C 383.75 643.64 382.15 643.58 381.07 644.64 C 380.51 644.82 379.39 645.19 378.83 645.37 C 377.66 645.40 375.32 645.45 374.15 645.47 C 373.56 645.70 372.39 646.16 371.80 646.39 C 369.63 645.34 367.75 645.40 366.14 646.58 C 365.65 646.83 364.66 647.34 364.17 647.60 C 361.35 647.34 358.42 646.44 355.82 647.88 C 355.01 648.33 354.15 648.59 353.26 648.67 C 348.39 648.39 343.46 647.47 338.65 648.58 C 332.54 649.24 326.37 649.26 320.26 648.73 C 315.42 648.19 310.49 647.56 305.68 648.54 C 304.79 648.49 303.93 648.30 303.09 647.97 C 300.33 647.28 297.57 647.05 294.78 647.40 C 294.28 647.19 293.29 646.79 292.79 646.58 C 290.94 645.76 289.06 645.67 287.13 646.31 C 286.56 646.10 285.42 645.69 284.85 645.48 C 283.68 645.45 281.34 645.40 280.17 645.37 C 279.61 645.19 278.50 644.83 277.95 644.65 C 276.87 643.58 275.29 643.65 274.08 644.42 C 273.75 644.28 273.09 643.99 272.75 643.84 C 271.45 642.78 269.73 642.82 268.14 642.91 L 267.07 642.78 C 266.46 641.52 264.87 641.58 264.08 642.60 C 263.56 642.38 262.51 641.94 261.99 641.72 C 261.45 640.44 259.89 640.50 259.12 641.48 C 258.86 641.40 258.34 641.25 258.08 641.17 C 254.99 638.51 250.63 638.44 246.76 638.43 C 246.52 638.30 246.04 638.03 245.80 637.90 C 245.53 636.47 243.87 636.50 243.10 637.47 C 242.84 637.39 242.32 637.22 242.06 637.14 C 239.56 634.79 236.08 633.63 232.70 634.49 C 232.48 634.35 232.03 634.07 231.81 633.93 C 231.38 632.51 230.78 632.45 230.01 633.74 C 229.72 633.55 229.13 633.17 228.84 632.98 C 228.40 631.54 227.80 631.47 227.05 632.77 C 226.75 632.57 226.16 632.17 225.87 631.97 C 225.35 630.51 224.77 630.49 224.13 631.89 C 223.87 631.68 223.36 631.26 223.10 631.05 C 215.82 626.54 207.19 623.53 198.86 621.34 C 198.64 621.24 198.19 621.05 197.97 620.96 C 186.07 613.76 173.34 607.13 160.89 601.37 C 160.71 601.24 160.34 600.99 160.16 600.86 C 152.73 591.84 135.56 588.69 132.68 577.10 C 133.38 576.14 133.99 575.12 134.50 574.05 C 135.82 572.25 136.71 570.19 137.13 568.00 L 137.51 567.11 C 139.52 563.47 141.24 559.68 142.95 555.91 C 143.73 554.29 144.40 552.62 145.05 550.96 C 146.75 551.29 147.80 549.58 146.96 548.14 C 147.39 547.70 148.26 546.82 148.70 546.39 C 149.81 545.83 150.47 544.61 149.97 543.40 C 150.28 542.84 150.91 541.72 151.22 541.17 C 152.71 541.06 153.74 539.62 152.99 538.22 C 153.25 537.95 153.79 537.40 154.06 537.13 C 158.43 531.75 162.71 526.16 166.30 520.22 C 166.52 519.96 166.96 519.46 167.18 519.20 Z" />
<path fill="#48332e" opacity="1.00" d=" M 84.19 535.85 C 85.10 536.25 85.76 536.90 86.17 537.82 C 84.38 538.28 83.72 537.62 84.19 535.85 Z" />
<path fill="#48332e" opacity="1.00" d=" M 572.83 537.82 C 573.23 536.90 573.89 536.25 574.81 535.85 C 575.27 537.62 574.61 538.28 572.83 537.82 Z" />
<path fill="#48332e" opacity="1.00" d=" M 92.19 544.89 C 93.10 545.27 93.70 545.94 93.99 546.89 C 92.22 547.30 91.62 546.63 92.19 544.89 Z" />
<path fill="#48332e" opacity="1.00" d=" M 564.99 546.87 C 565.29 545.93 565.90 545.26 566.82 544.89 C 567.36 546.64 566.75 547.30 564.99 546.87 Z" />
<path fill="#48332e" opacity="1.00" d=" M 110.32 563.00 C 111.32 563.79 112.23 564.68 113.04 565.68 C 111.51 567.17 108.80 564.53 110.32 563.00 Z" />
<path fill="#48332e" opacity="1.00" d=" M 545.96 565.67 C 546.75 564.67 547.66 563.79 548.68 563.02 C 550.19 564.55 547.46 567.16 545.96 565.67 Z" />
</g>
<g id="#8c6e64ff">
<path fill="#8c6e64" opacity="1.00" d=" M 305.97 10.24 C 306.40 10.39 307.25 10.68 307.68 10.83 C 307.26 10.88 306.42 10.98 306.00 11.03 L 305.97 10.24 Z" />
<path fill="#8c6e64" opacity="1.00" d=" M 351.32 10.80 C 351.75 10.66 352.60 10.39 353.03 10.25 L 352.99 11.04 C 352.57 10.98 351.74 10.86 351.32 10.80 Z" />
<path fill="#8c6e64" opacity="1.00" d=" M 294.28 11.96 C 294.71 11.78 295.59 11.43 296.02 11.25 L 295.94 12.07 C 295.52 12.04 294.69 11.99 294.28 11.96 Z" />
<path fill="#8c6e64" opacity="1.00" d=" M 118.21 89.30 C 117.64 87.48 118.25 86.78 120.05 87.20 C 119.67 88.10 119.06 88.80 118.21 89.30 Z" />
<path fill="#8c6e64" opacity="1.00" d=" M 538.95 87.20 C 540.74 86.78 541.35 87.48 540.79 89.30 C 539.93 88.80 539.32 88.10 538.95 87.20 Z" />
<path fill="#8c6e64" opacity="1.00" d=" M 94.01 112.13 C 97.75 106.19 104.66 100.28 110.33 95.99 C 106.14 102.49 100.10 107.49 94.01 112.13 Z" />
<path fill="#8c6e64" opacity="1.00" d=" M 548.68 96.00 C 554.34 100.15 560.94 106.41 565.01 112.11 C 558.51 107.94 553.30 102.12 548.68 96.00 Z" />
<path fill="#8c6e64" opacity="1.00" d=" M 86.18 121.18 C 85.95 119.48 86.67 118.87 88.34 119.37 C 87.95 120.37 87.23 120.98 86.18 121.18 Z" />
<path fill="#8c6e64" opacity="1.00" d=" M 570.66 119.37 C 572.32 118.87 573.04 119.48 572.82 121.18 C 571.76 120.98 571.04 120.37 570.66 119.37 Z" />
<path fill="#8c6e64" opacity="1.00" d=" M 184.08 120.88 C 206.21 139.49 225.21 162.01 246.31 181.79 C 250.56 181.85 254.35 178.70 258.33 177.26 C 258.70 177.14 259.46 176.89 259.83 176.77 C 265.95 175.34 272.17 174.21 278.11 172.11 L 278.88 171.89 C 284.10 171.55 289.20 170.33 294.30 169.22 C 294.94 169.12 296.23 168.93 296.87 168.83 C 298.40 168.60 301.45 168.14 302.98 167.91 L 303.77 167.83 C 321.25 167.68 338.68 166.66 356.15 167.93 L 356.98 167.99 C 358.52 168.20 361.59 168.62 363.13 168.83 C 363.80 168.90 365.13 169.05 365.80 169.12 C 369.52 170.09 373.33 170.88 377.20 170.81 L 377.98 170.98 C 378.67 172.19 379.68 172.53 381.02 172.01 L 381.80 172.15 C 384.48 173.16 387.30 173.81 390.18 173.84 L 390.99 173.92 C 391.49 174.21 392.50 174.79 393.01 175.08 L 393.82 175.16 C 396.11 176.20 398.56 176.80 401.09 176.89 L 401.79 177.17 C 403.90 178.95 406.63 179.42 409.30 179.76 L 410.08 179.95 C 410.55 180.31 411.50 181.04 411.98 181.40 L 412.82 181.46 C 434.77 163.94 453.62 139.21 475.98 120.86 C 468.61 148.23 460.12 175.35 453.11 202.79 C 480.25 222.40 501.71 249.09 517.78 278.32 C 518.84 280.52 519.93 282.72 521.09 284.88 C 522.43 288.40 523.43 292.19 525.82 295.20 L 526.20 295.83 C 527.05 299.55 528.27 303.26 530.81 306.21 L 531.13 306.89 C 531.32 307.44 531.71 308.54 531.90 309.08 L 532.26 309.75 C 532.58 312.39 533.08 315.08 534.78 317.23 L 535.10 317.90 C 535.36 320.58 536.03 323.26 537.87 325.32 L 538.09 325.99 C 537.52 327.66 538.10 329.49 539.80 330.21 C 540.16 331.85 540.56 333.49 540.99 335.12 C 540.48 337.31 541.06 339.52 542.80 341.01 C 542.89 341.39 543.09 342.16 543.18 342.54 C 543.78 345.52 544.22 348.61 545.73 351.31 C 545.87 351.65 546.16 352.33 546.30 352.67 C 546.74 355.52 547.26 358.35 547.77 361.21 L 547.84 362.03 C 548.14 362.54 548.76 363.54 549.07 364.04 C 549.09 364.47 549.13 365.32 549.15 365.74 C 548.97 368.99 549.64 372.19 550.86 375.20 L 550.99 375.99 C 550.47 377.32 550.82 378.34 552.04 379.03 L 552.16 379.82 C 552.26 384.01 552.96 388.14 553.83 392.25 L 553.94 393.01 C 553.46 394.45 553.67 396.09 554.95 397.06 C 555.03 397.47 555.19 398.27 555.27 398.67 C 554.94 404.87 555.12 411.21 556.84 417.22 C 556.92 417.61 557.08 418.39 557.16 418.78 C 557.29 421.56 557.13 424.47 557.87 427.22 C 557.96 427.61 558.14 428.39 558.23 428.78 C 563.00 445.54 548.45 455.94 538.37 466.41 C 530.93 474.44 521.59 480.37 513.67 487.77 L 513.13 488.10 C 511.58 488.39 510.37 489.47 509.99 491.01 L 509.39 491.28 C 506.09 492.42 502.92 494.11 500.65 496.84 L 500.19 497.28 C 498.33 497.25 496.31 497.80 495.67 499.76 L 495.32 500.25 C 493.43 500.21 491.37 500.77 490.72 502.76 L 490.10 502.86 C 488.58 502.71 487.24 503.60 486.84 505.08 L 486.15 505.20 C 483.82 504.81 482.06 507.08 484.77 508.23 C 485.89 509.40 486.98 510.60 488.06 511.81 C 488.52 512.16 489.44 512.87 489.90 513.22 C 490.59 514.56 491.31 515.88 492.04 517.20 C 492.03 517.59 492.03 518.36 492.03 518.75 C 488.18 515.59 485.84 508.16 480.59 508.48 C 387.03 554.06 271.42 554.13 178.00 507.96 C 173.79 510.27 171.14 515.90 167.18 519.20 C 167.33 518.56 167.64 517.28 167.79 516.64 C 168.17 515.79 168.56 514.94 168.95 514.11 C 170.45 514.35 171.72 513.35 172.05 511.91 C 173.08 510.00 176.18 508.12 175.10 505.80 C 174.38 503.56 171.77 503.57 169.85 503.35 L 169.37 502.89 C 161.53 496.48 152.50 491.42 143.87 486.09 L 143.29 485.71 C 140.69 482.56 137.31 480.22 133.83 478.17 L 133.29 477.75 C 121.27 462.51 97.08 451.67 101.88 428.71 C 101.95 428.27 102.09 427.39 102.15 426.95 C 103.95 424.51 104.15 422.21 102.78 420.05 C 102.84 419.60 102.95 418.71 103.01 418.27 C 104.08 411.81 104.67 405.30 104.91 398.77 C 104.95 398.35 105.05 397.50 105.10 397.08 C 106.36 396.06 106.51 394.38 105.94 392.96 L 106.06 392.16 C 107.01 388.10 107.56 383.97 107.84 379.82 L 107.96 379.03 C 109.18 378.30 109.51 377.26 108.95 375.93 C 109.00 375.51 109.09 374.69 109.13 374.27 C 110.46 371.61 111.06 368.71 110.85 365.74 C 110.87 365.32 110.92 364.47 110.94 364.05 C 111.22 363.53 111.79 362.50 112.07 361.98 L 112.19 361.16 C 112.76 358.35 113.40 355.60 113.77 352.77 C 113.89 352.41 114.12 351.68 114.24 351.31 C 115.84 348.70 116.12 345.58 116.76 342.65 C 116.94 342.11 117.29 341.03 117.46 340.49 C 118.44 337.58 119.32 334.65 119.75 331.61 C 119.88 331.29 120.14 330.64 120.27 330.31 C 122.27 329.84 122.63 327.69 121.97 326.02 C 122.42 324.80 122.86 323.59 123.30 322.38 C 124.82 320.06 125.44 317.35 125.79 314.64 L 126.09 314.01 C 127.43 313.07 128.24 311.53 127.96 309.88 L 127.98 309.15 C 128.22 308.61 128.68 307.53 128.92 306.99 L 129.15 306.24 C 131.60 303.27 132.51 299.43 133.77 295.88 L 134.11 295.21 C 136.73 291.44 138.88 287.31 139.95 282.82 C 140.42 281.99 140.89 281.16 141.36 280.33 C 156.39 251.38 177.46 225.36 203.37 205.44 C 207.72 203.53 205.75 198.13 205.14 194.76 C 197.82 170.22 190.66 145.62 184.08 120.88 M 183.03 297.05 C 182.66 304.72 183.28 312.42 184.38 320.01 C 183.21 321.42 183.43 322.37 185.04 322.86 C 185.07 323.64 185.14 325.21 185.17 325.99 C 185.38 326.47 185.81 327.44 186.02 327.93 C 188.99 350.95 198.86 378.04 221.10 388.00 C 220.99 389.62 221.72 390.13 223.29 389.54 C 223.80 390.60 224.66 391.07 225.88 390.95 C 228.06 393.13 231.68 392.99 234.58 393.51 C 235.83 394.53 237.57 393.97 238.76 393.14 C 238.83 394.55 240.12 395.49 240.90 393.95 C 243.18 395.75 246.23 394.89 248.98 395.03 C 260.34 396.91 278.75 396.47 289.95 395.07 C 291.41 395.14 292.87 395.19 294.33 395.22 C 294.94 397.52 299.37 395.54 297.90 393.37 C 298.30 388.21 298.09 382.99 297.41 377.89 C 298.78 376.26 299.24 372.02 297.00 371.24 C 297.00 369.46 297.02 367.64 296.50 365.92 C 297.71 364.86 297.97 361.33 295.99 361.23 C 294.89 331.62 274.43 295.64 240.87 298.02 C 240.45 298.03 239.61 298.03 239.19 298.03 C 220.80 295.64 201.69 297.59 183.03 297.05 M 418.13 299.12 L 416.95 299.06 C 416.38 297.48 415.80 297.45 415.22 298.98 C 408.35 299.86 401.44 303.26 395.95 307.05 C 394.26 306.59 393.60 307.21 393.99 308.91 C 384.08 315.55 376.03 326.45 372.98 338.21 C 371.09 337.48 369.99 340.79 371.36 341.92 C 368.80 346.92 367.61 352.75 367.01 358.30 C 365.11 358.79 364.35 362.34 365.56 363.94 C 364.27 368.23 363.72 372.72 364.02 377.21 C 362.18 377.02 362.20 380.19 363.47 380.95 C 362.53 384.27 362.89 387.75 362.97 391.17 C 361.41 391.72 361.41 392.28 362.99 392.83 C 362.50 394.64 363.17 395.36 364.99 395.01 C 380.01 397.00 401.95 396.47 417.07 394.99 C 417.33 394.75 417.86 394.29 418.13 394.05 C 419.72 394.37 420.98 393.35 422.02 392.30 L 422.03 393.27 C 421.80 395.80 426.86 395.91 427.70 394.22 C 431.15 393.96 435.15 393.97 438.04 391.72 C 439.49 392.80 440.40 392.51 440.78 390.86 C 443.58 389.87 446.57 388.73 448.71 386.60 C 450.35 387.12 451.05 386.54 450.81 384.87 C 464.51 374.97 471.95 357.32 473.98 340.95 C 474.15 340.44 474.48 339.43 474.65 338.93 C 477.10 330.46 477.50 321.60 476.99 312.83 C 478.55 312.26 478.54 311.71 476.98 311.17 C 477.23 306.47 477.00 301.75 476.94 297.06 C 459.57 297.30 442.11 296.14 424.81 297.74 C 422.27 297.40 423.60 299.77 423.87 301.18 C 421.88 300.21 419.30 295.02 418.13 299.12 M 302.41 411.40 C 301.08 411.57 298.41 411.92 297.08 412.10 C 290.94 434.34 317.46 442.07 326.74 458.31 C 322.75 477.37 304.24 494.03 283.98 493.17 C 287.69 504.72 305.56 505.80 316.03 508.90 C 336.28 509.69 362.90 510.34 377.02 494.09 C 357.97 493.72 334.70 479.17 333.23 457.38 C 343.91 442.62 369.00 432.95 362.32 411.69 C 342.81 410.29 322.28 410.95 302.41 411.40 Z" />
<path fill="#8c6e64" opacity="1.00" d=" M 11.35 288.98 C 10.21 287.55 10.44 286.61 12.05 286.14 C 12.27 287.20 12.03 288.14 11.35 288.98 Z" />
<path fill="#8c6e64" opacity="1.00" d=" M 646.95 286.14 C 648.55 286.61 648.79 287.55 647.65 288.98 C 646.96 288.14 646.72 287.20 646.95 286.14 Z" />
<path fill="#8c6e64" opacity="1.00" d=" M 9.22 306.13 L 9.98 306.11 C 10.00 306.54 10.03 307.40 10.04 307.82 L 9.24 307.91 C 9.24 307.46 9.23 306.57 9.22 306.13 Z" />
<path fill="#8c6e64" opacity="1.00" d=" M 649.02 306.11 L 649.78 306.13 C 649.77 306.57 649.76 307.46 649.76 307.90 L 648.96 307.83 C 648.98 307.40 649.00 306.54 649.02 306.11 Z" />
<path fill="#8c6e64" opacity="1.00" d=" M 9.24 351.10 L 10.04 351.17 C 10.02 351.60 10.00 352.46 9.98 352.89 L 9.22 352.87 C 9.23 352.43 9.24 351.54 9.24 351.10 Z" />
<path fill="#8c6e64" opacity="1.00" d=" M 648.96 351.18 L 649.76 351.09 C 649.76 351.54 649.77 352.43 649.78 352.87 L 649.02 352.89 C 649.00 352.46 648.97 351.60 648.96 351.18 Z" />
<path fill="#8c6e64" opacity="1.00" d=" M 492.52 519.35 C 493.68 519.85 494.87 520.30 496.06 520.76 C 496.30 521.28 496.78 522.34 497.01 522.87 C 497.48 523.21 498.40 523.88 498.87 524.21 C 498.95 524.59 499.11 525.33 499.19 525.70 C 499.12 526.97 499.68 527.84 500.86 528.30 L 500.68 529.20 C 497.23 526.58 495.31 522.57 492.52 519.35 Z" />
<path fill="#8c6e64" opacity="1.00" d=" M 161.31 524.40 C 162.95 522.97 164.62 521.58 166.30 520.22 C 162.71 526.16 158.43 531.75 154.06 537.13 C 154.58 535.59 155.07 534.04 155.58 532.50 C 155.71 532.17 155.98 531.50 156.11 531.17 C 156.55 530.82 157.44 530.10 157.88 529.75 C 157.95 529.38 158.07 528.63 158.13 528.26 C 159.66 528.39 160.75 527.17 160.77 525.71 C 160.90 525.39 161.18 524.73 161.31 524.40 Z" />
<path fill="#8c6e64" opacity="1.00" d=" M 80.22 530.91 C 81.12 531.29 81.79 531.92 82.23 532.80 C 80.43 533.33 79.76 532.70 80.22 530.91 Z" />
<path fill="#8c6e64" opacity="1.00" d=" M 501.93 531.32 L 502.74 531.01 C 503.05 531.52 503.69 532.53 504.00 533.04 C 502.54 533.36 501.85 532.79 501.93 531.32 Z" />
<path fill="#8c6e64" opacity="1.00" d=" M 86.17 537.82 C 87.23 538.01 87.95 538.62 88.34 539.63 C 86.67 540.12 85.95 539.52 86.17 537.82 Z" />
<path fill="#8c6e64" opacity="1.00" d=" M 152.15 538.09 L 152.99 538.22 C 153.74 539.62 152.71 541.06 151.22 541.17 C 151.31 540.07 151.63 539.04 152.15 538.09 Z" />
<path fill="#8c6e64" opacity="1.00" d=" M 506.96 538.34 L 507.76 538.13 C 508.34 539.04 508.69 540.03 508.83 541.12 C 507.31 541.16 506.23 539.75 506.96 538.34 Z" />
<path fill="#8c6e64" opacity="1.00" d=" M 570.66 539.63 C 571.04 538.62 571.76 538.01 572.83 537.82 C 573.04 539.52 572.32 540.12 570.66 539.63 Z" />
<path fill="#8c6e64" opacity="1.00" d=" M 149.13 543.19 L 149.97 543.40 C 150.47 544.61 149.81 545.83 148.70 546.39 C 148.64 545.72 148.52 544.38 148.46 543.71 L 149.13 543.19 Z" />
<path fill="#8c6e64" opacity="1.00" d=" M 509.84 543.44 L 510.70 543.17 L 510.94 543.92 C 511.41 544.24 512.35 544.89 512.82 545.22 C 513.42 547.21 514.05 549.20 514.72 551.18 C 512.30 549.17 511.03 546.25 509.84 543.44 Z" />
<path fill="#8c6e64" opacity="1.00" d=" M 93.99 546.89 C 100.49 551.06 105.70 556.88 110.32 563.00 C 104.66 558.84 98.06 552.59 93.99 546.89 Z" />
<path fill="#8c6e64" opacity="1.00" d=" M 548.68 563.02 C 552.85 556.51 558.89 551.50 564.99 546.87 C 561.25 552.81 554.34 558.71 548.68 563.02 Z" />
<path fill="#8c6e64" opacity="1.00" d=" M 146.31 548.01 L 146.96 548.14 C 147.80 549.58 146.75 551.29 145.05 550.96 C 145.36 549.92 145.78 548.94 146.31 548.01 Z" />
<path fill="#8c6e64" opacity="1.00" d=" M 515.09 551.86 C 516.27 552.62 516.87 553.95 516.75 555.36 C 515.06 555.07 514.38 553.32 515.09 551.86 Z" />
<path fill="#8c6e64" opacity="1.00" d=" M 141.06 556.18 C 141.53 556.11 142.48 555.98 142.95 555.91 C 141.24 559.68 139.52 563.47 137.51 567.11 L 137.08 566.26 C 138.29 562.86 139.65 559.50 141.06 556.18 Z" />
<path fill="#8c6e64" opacity="1.00" d=" M 517.91 557.16 L 518.91 557.12 C 520.12 559.31 521.21 561.58 522.12 563.92 L 521.94 565.01 C 520.50 562.44 519.16 559.81 517.91 557.16 Z" />
<path fill="#8c6e64" opacity="1.00" d=" M 136.21 568.11 L 137.13 568.00 C 136.71 570.19 135.82 572.25 134.50 574.05 L 134.15 573.31 C 134.80 571.55 135.50 569.82 136.21 568.11 Z" />
<path fill="#8c6e64" opacity="1.00" d=" M 522.80 567.99 C 523.56 568.69 524.33 569.40 525.10 570.11 C 525.37 571.17 525.63 572.24 525.88 573.32 L 525.57 574.03 C 524.18 572.25 523.29 570.17 522.80 567.99 Z" />
<path fill="#8c6e64" opacity="1.00" d=" M 118.38 569.54 C 119.38 569.96 119.94 570.72 120.04 571.80 C 118.37 571.95 117.82 571.20 118.38 569.54 Z" />
<path fill="#8c6e64" opacity="1.00" d=" M 538.89 571.77 C 539.02 570.69 539.60 569.98 540.64 569.63 C 541.14 571.29 540.56 572.00 538.89 571.77 Z" />
<path fill="#8c6e64" opacity="1.00" d=" M 532.90 576.79 C 532.99 575.64 533.60 575.00 534.74 574.85 C 535.12 576.44 534.50 577.09 532.90 576.79 Z" />
<path fill="#8c6e64" opacity="1.00" d=" M 132.06 576.95 L 132.68 577.10 C 135.56 588.69 152.73 591.84 160.16 600.86 C 149.72 595.23 138.40 587.84 130.22 579.90 C 130.82 578.91 131.45 577.93 132.06 576.95 Z" />
<path fill="#8c6e64" opacity="1.00" d=" M 527.02 577.07 L 527.80 577.11 L 528.21 578.05 L 527.80 578.85 C 527.60 578.41 527.22 577.51 527.02 577.07 Z" />
<path fill="#8c6e64" opacity="1.00" d=" M 435.90 631.05 C 468.07 617.28 500.31 601.75 528.08 579.71 L 528.97 580.08 C 501.43 602.17 469.65 620.24 435.90 631.05 Z" />
<path fill="#8c6e64" opacity="1.00" d=" M 160.89 601.37 C 173.34 607.13 186.07 613.76 197.97 620.96 C 184.87 616.19 172.18 609.42 160.89 601.37 Z" />
<path fill="#8c6e64" opacity="1.00" d=" M 198.86 621.34 C 207.19 623.53 215.82 626.54 223.10 631.05 C 214.75 628.83 206.36 625.58 198.86 621.34 Z" />
<path fill="#8c6e64" opacity="1.00" d=" M 224.13 631.89 C 224.77 630.49 225.35 630.51 225.87 631.97 C 225.43 631.95 224.56 631.91 224.13 631.89 Z" />
<path fill="#8c6e64" opacity="1.00" d=" M 433.13 631.97 C 433.64 630.51 434.22 630.49 434.87 631.89 C 434.44 631.91 433.57 631.95 433.13 631.97 Z" />
<path fill="#8c6e64" opacity="1.00" d=" M 227.05 632.77 C 227.80 631.47 228.40 631.54 228.84 632.98 C 228.39 632.93 227.50 632.82 227.05 632.77 Z" />
<path fill="#8c6e64" opacity="1.00" d=" M 430.16 632.98 C 430.59 631.54 431.19 631.47 431.95 632.77 C 431.50 632.82 430.61 632.93 430.16 632.98 Z" />
<path fill="#8c6e64" opacity="1.00" d=" M 230.01 633.74 C 230.78 632.45 231.38 632.51 231.81 633.93 C 231.36 633.88 230.46 633.79 230.01 633.74 Z" />
<path fill="#8c6e64" opacity="1.00" d=" M 427.19 633.93 C 427.61 632.51 428.21 632.45 428.99 633.74 C 428.54 633.79 427.64 633.88 427.19 633.93 Z" />
<path fill="#8c6e64" opacity="1.00" d=" M 232.70 634.49 C 236.08 633.63 239.56 634.79 242.06 637.14 C 238.84 636.65 235.67 635.82 232.70 634.49 Z" />
<path fill="#8c6e64" opacity="1.00" d=" M 416.94 637.14 C 419.44 634.79 422.91 633.63 426.30 634.49 C 423.32 635.82 420.15 636.65 416.94 637.14 Z" />
<path fill="#8c6e64" opacity="1.00" d=" M 243.10 637.47 C 243.87 636.50 245.53 636.47 245.80 637.90 C 245.12 637.79 243.78 637.57 243.10 637.47 Z" />
<path fill="#8c6e64" opacity="1.00" d=" M 413.21 637.90 C 413.45 636.47 415.12 636.50 415.90 637.47 C 415.23 637.57 413.88 637.79 413.21 637.90 Z" />
<path fill="#8c6e64" opacity="1.00" d=" M 246.76 638.43 C 250.63 638.44 254.99 638.51 258.08 641.17 C 254.23 640.57 250.45 639.60 246.76 638.43 Z" />
<path fill="#8c6e64" opacity="1.00" d=" M 400.91 641.18 C 403.96 638.48 408.38 638.44 412.27 638.44 C 408.54 639.60 404.76 640.57 400.91 641.18 Z" />
<path fill="#8c6e64" opacity="1.00" d=" M 259.12 641.48 C 259.89 640.50 261.45 640.44 261.99 641.72 C 261.27 641.66 259.84 641.54 259.12 641.48 Z" />
<path fill="#8c6e64" opacity="1.00" d=" M 397.01 641.72 C 397.54 640.44 399.10 640.50 399.88 641.48 C 399.17 641.54 397.73 641.66 397.01 641.72 Z" />
<path fill="#8c6e64" opacity="1.00" d=" M 264.08 642.60 C 264.87 641.58 266.46 641.52 267.07 642.78 C 266.32 642.74 264.83 642.64 264.08 642.60 Z" />
<path fill="#8c6e64" opacity="1.00" d=" M 392.04 642.70 C 392.63 641.45 394.23 641.52 394.94 642.62 C 394.21 642.64 392.76 642.68 392.04 642.70 Z" />
<path fill="#8c6e64" opacity="1.00" d=" M 268.14 642.91 C 269.73 642.82 271.45 642.78 272.75 643.84 C 271.53 644.77 268.35 644.73 268.14 642.91 Z" />
<path fill="#8c6e64" opacity="1.00" d=" M 387.03 643.69 C 387.64 642.47 389.23 642.51 389.94 643.63 C 389.21 643.64 387.76 643.68 387.03 643.69 Z" />
<path fill="#8c6e64" opacity="1.00" d=" M 274.08 644.42 C 275.29 643.65 276.87 643.58 277.95 644.65 C 276.60 645.72 275.31 645.64 274.08 644.42 Z" />
<path fill="#8c6e64" opacity="1.00" d=" M 381.07 644.64 C 382.15 643.58 383.75 643.64 384.94 644.50 C 383.67 645.66 382.38 645.70 381.07 644.64 Z" />
<path fill="#8c6e64" opacity="1.00" d=" M 280.17 645.37 C 281.34 645.40 283.68 645.45 284.85 645.48 C 284.03 647.23 280.99 647.00 280.17 645.37 Z" />
<path fill="#8c6e64" opacity="1.00" d=" M 374.15 645.47 C 375.32 645.45 377.66 645.40 378.83 645.37 C 378.01 647.01 374.95 647.23 374.15 645.47 Z" />
<path fill="#8c6e64" opacity="1.00" d=" M 287.13 646.31 C 289.06 645.67 290.94 645.76 292.79 646.58 C 291.46 648.12 288.36 647.88 287.13 646.31 Z" />
<path fill="#8c6e64" opacity="1.00" d=" M 366.14 646.58 C 367.75 645.40 369.63 645.34 371.80 646.39 C 370.47 647.84 367.52 648.02 366.14 646.58 Z" />
<path fill="#8c6e64" opacity="1.00" d=" M 294.78 647.40 C 297.57 647.05 300.33 647.28 303.09 647.97 C 300.31 648.03 297.48 648.16 294.78 647.40 Z" />
<path fill="#8c6e64" opacity="1.00" d=" M 355.82 647.88 C 358.42 646.44 361.35 647.34 364.17 647.60 C 361.41 648.06 358.60 648.08 355.82 647.88 Z" />
<path fill="#8c6e64" opacity="1.00" d=" M 305.68 648.54 C 310.49 647.56 315.42 648.19 320.26 648.73 C 315.41 648.78 310.47 649.51 305.68 648.54 Z" />
<path fill="#8c6e64" opacity="1.00" d=" M 338.65 648.58 C 343.46 647.47 348.39 648.39 353.26 648.67 C 348.39 648.86 343.47 649.43 338.65 648.58 Z" />
</g>
<g id="#eee8f6ff">
<path fill="#eee8f6" opacity="1.00" d=" M 307.68 10.83 C 322.09 9.55 336.95 9.30 351.32 10.80 C 351.74 10.86 352.57 10.98 352.99 11.04 C 353.42 11.03 354.28 11.01 354.70 11.01 C 356.79 10.85 358.91 10.85 360.98 11.20 C 361.46 11.41 362.44 11.82 362.92 12.03 C 364.69 12.06 368.23 12.13 370.00 12.16 C 370.48 12.38 371.44 12.81 371.92 13.03 C 373.60 12.90 375.31 12.90 376.99 13.19 C 377.47 13.40 378.44 13.82 378.93 14.03 C 435.43 22.26 489.92 46.72 533.70 83.39 C 534.02 84.44 534.72 85.01 535.81 85.11 C 537.09 85.33 538.04 86.34 538.95 87.20 C 539.32 88.10 539.93 88.80 540.79 89.30 C 541.20 90.68 542.16 91.88 543.67 92.07 C 544.25 92.38 545.39 93.01 545.96 93.32 C 546.76 94.31 547.67 95.20 548.68 96.00 C 553.30 102.12 558.51 107.94 565.01 112.11 C 565.29 113.05 565.89 113.72 566.81 114.11 C 567.71 114.97 568.66 115.95 568.91 117.22 C 569.03 118.29 569.61 119.01 570.66 119.37 C 571.04 120.37 571.76 120.98 572.82 121.18 C 573.23 122.09 573.90 122.74 574.83 123.13 L 574.95 124.03 C 574.94 125.15 575.48 125.90 576.56 126.29 C 614.74 171.16 639.25 227.75 646.95 286.14 C 646.72 287.20 646.96 288.14 647.65 288.98 C 647.73 290.75 647.89 294.30 647.97 296.08 C 648.18 296.56 648.59 297.54 648.79 298.02 C 649.14 300.11 649.14 302.24 649.04 304.36 C 649.03 304.80 649.02 305.67 649.02 306.11 C 649.00 306.54 648.98 307.40 648.96 307.83 C 649.18 308.32 649.61 309.32 649.83 309.82 C 650.03 322.92 650.31 336.07 649.81 349.17 C 649.60 349.67 649.17 350.67 648.96 351.18 C 648.97 351.60 649.00 352.46 649.02 352.89 C 649.03 353.33 649.04 354.21 649.05 354.64 C 649.14 356.78 649.18 358.98 648.53 361.05 C 647.99 362.22 647.77 363.50 647.97 364.79 C 642.50 426.14 616.63 486.33 576.75 532.92 C 575.54 533.05 574.94 533.72 574.95 534.93 L 574.81 535.85 C 573.89 536.25 573.23 536.90 572.83 537.82 C 571.76 538.01 571.04 538.62 570.66 539.63 C 569.61 539.98 569.03 540.70 568.91 541.78 C 568.65 543.04 567.71 544.02 566.82 544.89 C 565.90 545.26 565.29 545.93 564.99 546.87 C 558.89 551.50 552.85 556.51 548.68 563.02 C 547.66 563.79 546.75 564.67 545.96 565.67 C 545.05 566.57 544.11 567.67 542.79 567.91 C 541.70 568.02 540.99 568.60 540.64 569.63 C 539.60 569.98 539.02 570.69 538.89 571.77 C 538.35 573.45 536.26 574.20 534.74 574.85 C 533.60 575.00 532.99 575.64 532.90 576.79 C 532.80 578.18 531.05 578.44 530.09 579.08 C 529.62 578.83 528.68 578.31 528.21 578.05 L 527.80 577.11 C 528.24 575.51 527.48 573.84 525.88 573.32 C 525.63 572.24 525.37 571.17 525.10 570.11 C 524.72 567.78 523.51 565.77 522.12 563.92 C 521.21 561.58 520.12 559.31 518.91 557.12 C 517.94 554.91 517.77 551.42 514.72 551.18 C 514.05 549.20 513.42 547.21 512.82 545.22 C 512.35 544.89 511.41 544.24 510.94 543.92 L 510.70 543.17 C 510.81 541.83 510.18 541.14 508.83 541.12 C 508.69 540.03 508.34 539.04 507.76 538.13 C 507.89 536.78 507.29 536.07 505.94 536.01 C 506.38 534.58 505.44 533.23 504.00 533.04 C 503.69 532.53 503.05 531.52 502.74 531.01 C 502.79 529.58 502.11 528.97 500.68 529.20 L 500.86 528.30 C 501.28 526.82 500.72 525.95 499.19 525.70 C 499.11 525.33 498.95 524.59 498.87 524.21 C 498.40 523.88 497.48 523.21 497.01 522.87 C 496.78 522.34 496.30 521.28 496.06 520.76 C 495.65 518.73 494.01 517.49 492.04 517.20 C 491.31 515.88 490.59 514.56 489.90 513.22 C 489.44 512.87 488.52 512.16 488.06 511.81 C 486.98 510.60 485.89 509.40 484.77 508.23 C 485.30 507.25 485.76 506.24 486.15 505.20 L 486.84 505.08 C 488.36 505.30 489.77 504.39 490.10 502.86 L 490.72 502.76 C 492.59 502.76 494.62 502.19 495.32 500.25 L 495.67 499.76 C 497.52 499.82 499.57 499.26 500.19 497.28 L 500.65 496.84 C 503.98 495.72 507.10 494.00 509.39 491.28 L 509.99 491.01 C 511.80 491.31 513.34 489.96 513.13 488.10 L 513.67 487.77 C 529.82 478.78 542.82 464.71 554.70 450.74 C 560.86 445.34 559.64 436.07 558.23 428.78 C 558.14 428.39 557.96 427.61 557.87 427.22 C 557.61 424.36 557.81 421.54 557.16 418.78 C 557.08 418.39 556.92 417.61 556.84 417.22 C 557.29 410.98 556.72 404.74 555.27 398.67 C 555.19 398.27 555.03 397.47 554.95 397.06 C 555.51 395.62 555.36 393.88 553.94 393.01 L 553.83 392.25 C 553.91 388.01 553.51 383.85 552.16 379.82 L 552.04 379.03 C 552.54 377.69 552.19 376.68 550.99 375.99 L 550.86 375.20 C 550.97 371.95 550.34 368.76 549.15 365.74 C 549.13 365.32 549.09 364.47 549.07 364.04 C 548.76 363.54 548.14 362.54 547.84 362.03 L 547.77 361.21 C 547.73 358.23 548.28 355.10 546.30 352.67 C 546.16 352.33 545.87 351.65 545.73 351.31 C 545.12 348.32 544.83 345.16 543.18 342.54 C 543.09 342.16 542.89 341.39 542.80 341.01 C 543.31 338.82 542.65 336.62 540.99 335.12 C 540.56 333.49 540.16 331.85 539.80 330.21 C 540.18 328.55 539.52 326.89 538.09 325.99 L 537.87 325.32 C 537.38 322.70 536.54 320.16 535.10 317.90 L 534.78 317.23 C 534.40 314.60 533.88 311.92 532.26 309.75 L 531.90 309.08 C 531.71 308.54 531.32 307.44 531.13 306.89 L 530.81 306.21 C 529.97 302.48 528.75 298.76 526.20 295.83 L 525.82 295.20 C 525.20 291.39 523.36 287.95 521.09 284.88 C 519.93 282.72 518.84 280.52 517.78 278.32 C 511.30 267.44 523.58 257.44 523.23 246.05 C 535.69 199.29 515.33 149.08 479.04 118.96 C 475.68 116.13 472.93 121.89 470.27 123.27 C 451.20 142.76 431.56 161.66 412.82 181.46 L 411.98 181.40 C 411.50 181.04 410.55 180.31 410.08 179.95 L 409.30 179.76 C 407.08 178.18 404.43 177.58 401.79 177.17 L 401.09 176.89 C 398.84 175.70 396.36 175.12 393.82 175.16 L 393.01 175.08 C 392.50 174.79 391.49 174.21 390.99 173.92 L 390.18 173.84 C 387.57 172.52 384.71 171.97 381.80 172.15 L 381.02 172.01 C 380.32 170.80 379.31 170.46 377.98 170.98 L 377.20 170.81 C 373.55 169.45 369.64 169.34 365.80 169.12 C 365.13 169.05 363.80 168.90 363.13 168.83 C 361.59 168.62 358.52 168.20 356.98 167.99 L 356.15 167.93 C 338.77 165.77 321.15 165.45 303.77 167.83 L 302.98 167.91 C 301.45 168.14 298.40 168.60 296.87 168.83 C 296.23 168.93 294.94 169.12 294.30 169.22 C 289.02 168.80 283.69 169.68 278.88 171.89 L 278.11 172.11 C 271.70 171.87 265.63 174.32 259.83 176.77 C 259.46 176.89 258.70 177.14 258.33 177.26 C 254.20 177.02 250.66 180.14 246.84 180.17 C 224.81 160.22 205.67 135.80 182.08 117.93 C 146.43 146.52 126.84 194.51 135.17 239.94 C 136.00 253.70 147.87 266.81 141.36 280.33 C 140.89 281.16 140.42 281.99 139.95 282.82 C 137.07 286.44 134.93 290.62 134.11 295.21 L 133.77 295.88 C 131.66 299.05 129.77 302.44 129.15 306.24 L 128.92 306.99 C 128.68 307.53 128.22 308.61 127.98 309.15 L 127.96 309.88 C 126.12 310.41 125.51 312.30 126.09 314.01 L 125.79 314.64 C 124.08 316.87 123.57 319.65 123.30 322.38 C 122.86 323.59 122.42 324.80 121.97 326.02 C 120.70 327.08 120.23 328.70 120.27 330.31 C 120.14 330.64 119.88 331.29 119.75 331.61 C 118.28 334.34 118.11 337.50 117.46 340.49 C 117.29 341.03 116.94 342.11 116.76 342.65 C 115.20 345.27 114.85 348.36 114.24 351.31 C 114.12 351.68 113.89 352.41 113.77 352.77 C 112.53 355.40 112.40 358.27 112.19 361.16 L 112.07 361.98 C 111.79 362.50 111.22 363.53 110.94 364.05 C 110.92 364.47 110.87 365.32 110.85 365.74 C 109.84 368.48 109.18 371.34 109.13 374.27 C 109.09 374.69 109.00 375.51 108.95 375.93 C 107.79 376.67 107.46 377.70 107.96 379.03 L 107.84 379.82 C 106.70 383.84 106.41 388.00 106.06 392.16 L 105.94 392.96 C 104.62 393.94 104.49 395.64 105.10 397.08 C 105.05 397.50 104.95 398.35 104.91 398.77 C 103.31 405.16 103.26 411.73 103.01 418.27 C 102.95 418.71 102.84 419.60 102.78 420.05 C 101.09 422.46 100.88 424.76 102.15 426.95 C 102.09 427.39 101.95 428.27 101.88 428.71 C 96.43 450.54 118.59 465.42 133.29 477.75 L 133.83 478.17 C 135.88 481.86 139.48 484.14 143.29 485.71 L 143.87 486.09 C 150.99 493.37 160.25 498.47 169.37 502.89 L 169.85 503.35 C 170.75 505.44 173.03 505.95 175.10 505.80 C 176.18 508.12 173.08 510.00 172.05 511.91 C 170.55 511.66 169.19 512.59 168.95 514.11 C 168.56 514.94 168.17 515.79 167.79 516.64 C 164.99 518.62 162.31 520.99 161.31 524.40 C 161.18 524.73 160.90 525.39 160.77 525.71 C 159.35 525.73 158.02 526.73 158.13 528.26 C 158.07 528.63 157.95 529.38 157.88 529.75 C 157.44 530.10 156.55 530.82 156.11 531.17 C 155.98 531.50 155.71 532.17 155.58 532.50 C 153.72 533.86 152.75 535.92 152.15 538.09 C 151.63 539.04 151.31 540.07 151.22 541.17 C 149.83 541.14 149.13 541.81 149.13 543.19 L 148.46 543.71 C 146.84 544.53 146.41 546.34 146.31 548.01 C 145.78 548.94 145.36 549.92 145.05 550.96 C 142.82 551.85 141.85 554.08 141.06 556.18 C 139.65 559.50 138.29 562.86 137.08 566.26 C 136.86 566.72 136.43 567.65 136.21 568.11 C 135.50 569.82 134.80 571.55 134.15 573.31 C 132.10 573.21 131.52 575.32 132.06 576.95 C 131.45 577.93 130.82 578.91 130.22 579.90 C 130.12 578.66 129.46 578.05 128.22 578.06 C 126.76 578.16 125.20 577.39 125.09 575.79 C 125.01 574.63 124.39 573.99 123.25 573.86 C 122.17 573.33 120.10 573.33 120.04 571.80 C 119.94 570.72 119.38 569.96 118.38 569.54 C 117.77 568.26 116.78 567.15 115.32 566.93 C 114.75 566.62 113.61 565.99 113.04 565.68 C 112.23 564.68 111.32 563.79 110.32 563.00 C 105.70 556.88 100.49 551.06 93.99 546.89 C 93.70 545.94 93.10 545.27 92.19 544.89 C 91.29 544.02 90.33 543.04 90.09 541.78 C 89.96 540.70 89.38 539.98 88.34 539.63 C 87.95 538.62 87.23 538.01 86.17 537.82 C 85.76 536.90 85.10 536.25 84.19 535.85 L 84.02 534.93 C 83.97 533.77 83.38 533.06 82.23 532.80 C 81.79 531.92 81.12 531.29 80.22 530.91 C 41.66 484.02 16.42 425.40 11.02 364.80 C 11.23 363.51 11.00 362.22 10.47 361.05 C 9.81 358.98 9.85 356.78 9.95 354.64 C 9.96 354.21 9.98 353.33 9.98 352.89 C 10.00 352.46 10.02 351.60 10.04 351.17 C 9.82 350.68 9.39 349.68 9.17 349.18 C 8.96 336.07 8.69 322.92 9.19 309.83 C 9.40 309.33 9.83 308.33 10.04 307.82 C 10.03 307.40 10.00 306.54 9.98 306.11 C 9.98 305.67 9.97 304.79 9.96 304.36 C 9.85 302.24 9.86 300.11 10.21 298.02 C 10.41 297.54 10.82 296.56 11.03 296.08 C 11.11 294.30 11.27 290.75 11.35 288.98 C 12.03 288.14 12.27 287.20 12.05 286.14 C 19.71 227.77 44.30 171.13 82.46 126.30 C 83.53 125.90 84.06 125.15 84.05 124.03 L 84.17 123.13 C 85.09 122.74 85.76 122.09 86.18 121.18 C 87.23 120.98 87.95 120.37 88.34 119.37 C 89.38 119.01 89.96 118.29 90.09 117.22 C 90.34 115.95 91.29 114.97 92.18 114.11 C 93.09 113.73 93.70 113.07 94.01 112.13 C 100.10 107.49 106.14 102.49 110.33 95.99 C 111.32 95.20 112.23 94.31 113.04 93.32 C 113.61 93.01 114.75 92.38 115.33 92.07 C 116.83 91.88 117.80 90.68 118.21 89.30 C 119.06 88.80 119.67 88.10 120.05 87.20 C 120.95 86.34 121.90 85.33 123.19 85.11 C 124.27 85.01 124.97 84.44 125.30 83.39 C 169.08 46.71 223.56 22.28 280.07 14.03 C 280.56 13.82 281.53 13.40 282.01 13.19 C 283.68 12.90 285.39 12.89 287.08 13.04 C 287.56 12.83 288.53 12.41 289.01 12.20 C 290.74 11.88 292.52 11.85 294.28 11.96 C 294.69 11.99 295.52 12.04 295.94 12.07 C 296.43 11.85 297.40 11.41 297.89 11.19 C 300.00 10.86 302.16 10.85 304.29 11.00 C 304.72 11.01 305.57 11.02 306.00 11.03 C 306.42 10.98 307.26 10.88 307.68 10.83 Z" />
</g>
<g id="#e79c9cff">
<path fill="#e79c9c" opacity="1.00" d=" M 296.02 11.25 C 296.49 11.23 297.42 11.20 297.89 11.19 C 297.40 11.41 296.43 11.85 295.94 12.07 L 296.02 11.25 Z" />
<path fill="#e79c9c" opacity="1.00" d=" M 360.98 11.20 C 361.46 11.41 362.44 11.82 362.92 12.03 C 362.44 11.82 361.46 11.41 360.98 11.20 Z" />
<path fill="#e79c9c" opacity="1.00" d=" M 287.08 13.04 C 287.56 12.83 288.53 12.41 289.01 12.20 C 288.53 12.41 287.56 12.83 287.08 13.04 Z" />
<path fill="#e79c9c" opacity="1.00" d=" M 370.00 12.16 C 370.48 12.38 371.44 12.81 371.92 13.03 C 371.44 12.81 370.48 12.38 370.00 12.16 Z" />
<path fill="#e79c9c" opacity="1.00" d=" M 280.07 14.03 C 280.56 13.82 281.53 13.40 282.01 13.19 C 281.53 13.40 280.56 13.82 280.07 14.03 Z" />
<path fill="#e79c9c" opacity="1.00" d=" M 376.99 13.19 C 377.47 13.40 378.44 13.82 378.93 14.03 C 378.44 13.82 377.47 13.40 376.99 13.19 Z" />
<path fill="#e79c9c" opacity="1.00" d=" M 123.19 85.11 C 122.96 83.44 123.66 82.87 125.30 83.39 C 124.97 84.44 124.27 85.01 123.19 85.11 Z" />
<path fill="#e79c9c" opacity="1.00" d=" M 533.70 83.39 C 535.33 82.87 536.04 83.44 535.81 85.11 C 534.72 85.01 534.02 84.44 533.70 83.39 Z" />
<path fill="#e79c9c" opacity="1.00" d=" M 115.33 92.07 C 114.55 90.61 116.78 88.55 118.21 89.30 C 117.80 90.68 116.83 91.88 115.33 92.07 Z" />
<path fill="#e79c9c" opacity="1.00" d=" M 540.79 89.30 C 542.21 88.55 544.44 90.61 543.67 92.07 C 542.16 91.88 541.20 90.68 540.79 89.30 Z" />
<path fill="#e79c9c" opacity="1.00" d=" M 88.34 119.37 C 87.84 117.71 88.42 117.00 90.09 117.22 C 89.96 118.29 89.38 119.01 88.34 119.37 Z" />
<path fill="#e79c9c" opacity="1.00" d=" M 568.91 117.22 C 570.57 117.00 571.15 117.71 570.66 119.37 C 569.61 119.01 569.03 118.29 568.91 117.22 Z" />
<path fill="#e79c9c" opacity="1.00" d=" M 135.17 239.94 C 126.84 194.51 146.43 146.52 182.08 117.93 C 205.67 135.80 224.81 160.22 246.84 180.17 C 250.66 180.14 254.20 177.02 258.33 177.26 C 254.35 178.70 250.56 181.85 246.31 181.79 C 225.21 162.01 206.21 139.49 184.08 120.88 C 190.66 145.62 197.82 170.22 205.14 194.76 C 205.75 198.13 207.72 203.53 203.37 205.44 C 177.46 225.36 156.39 251.38 141.36 280.33 C 147.87 266.81 136.00 253.70 135.17 239.94 Z" />
<path fill="#e79c9c" opacity="1.00" d=" M 470.27 123.27 C 472.93 121.89 475.68 116.13 479.04 118.96 C 515.33 149.08 535.69 199.29 523.23 246.05 C 523.58 257.44 511.30 267.44 517.78 278.32 C 501.71 249.09 480.25 222.40 453.11 202.79 C 460.12 175.35 468.61 148.23 475.98 120.86 C 453.62 139.21 434.77 163.94 412.82 181.46 C 431.56 161.66 451.20 142.76 470.27 123.27 Z" />
<path fill="#e79c9c" opacity="1.00" d=" M 82.46 126.30 C 81.88 124.71 82.41 123.96 84.05 124.03 C 84.06 125.15 83.53 125.90 82.46 126.30 Z" />
<path fill="#e79c9c" opacity="1.00" d=" M 574.95 124.03 C 576.58 123.95 577.12 124.70 576.56 126.29 C 575.48 125.90 574.94 125.15 574.95 124.03 Z" />
<path fill="#e79c9c" opacity="1.00" d=" M 303.77 167.83 C 321.15 165.45 338.77 165.77 356.15 167.93 C 338.68 166.66 321.25 167.68 303.77 167.83 Z" />
<path fill="#e79c9c" opacity="1.00" d=" M 296.87 168.83 C 298.40 168.60 301.45 168.14 302.98 167.91 C 301.45 168.14 298.40 168.60 296.87 168.83 Z" />
<path fill="#e79c9c" opacity="1.00" d=" M 356.98 167.99 C 358.52 168.20 361.59 168.62 363.13 168.83 C 361.59 168.62 358.52 168.20 356.98 167.99 Z" />
<path fill="#e79c9c" opacity="1.00" d=" M 278.88 171.89 C 283.69 169.68 289.02 168.80 294.30 169.22 C 289.20 170.33 284.10 171.55 278.88 171.89 Z" />
<path fill="#e79c9c" opacity="1.00" d=" M 365.80 169.12 C 369.64 169.34 373.55 169.45 377.20 170.81 C 373.33 170.88 369.52 170.09 365.80 169.12 Z" />
<path fill="#e79c9c" opacity="1.00" d=" M 377.98 170.98 C 379.31 170.46 380.32 170.80 381.02 172.01 C 379.68 172.53 378.67 172.19 377.98 170.98 Z" />
<path fill="#e79c9c" opacity="1.00" d=" M 259.83 176.77 C 265.63 174.32 271.70 171.87 278.11 172.11 C 272.17 174.21 265.95 175.34 259.83 176.77 Z" />
<path fill="#e79c9c" opacity="1.00" d=" M 381.80 172.15 C 384.71 171.97 387.57 172.52 390.18 173.84 C 387.30 173.81 384.48 173.16 381.80 172.15 Z" />
<path fill="#e79c9c" opacity="1.00" d=" M 390.99 173.92 C 391.49 174.21 392.50 174.79 393.01 175.08 C 392.50 174.79 391.49 174.21 390.99 173.92 Z" />
<path fill="#e79c9c" opacity="1.00" d=" M 393.82 175.16 C 396.36 175.12 398.84 175.70 401.09 176.89 C 398.56 176.80 396.11 176.20 393.82 175.16 Z" />
<path fill="#e79c9c" opacity="1.00" d=" M 401.79 177.17 C 404.43 177.58 407.08 178.18 409.30 179.76 C 406.63 179.42 403.90 178.95 401.79 177.17 Z" />
<path fill="#e79c9c" opacity="1.00" d=" M 410.08 179.95 C 410.55 180.31 411.50 181.04 411.98 181.40 C 411.50 181.04 410.55 180.31 410.08 179.95 Z" />
<path fill="#e79c9c" opacity="1.00" d=" M 134.11 295.21 C 134.93 290.62 137.07 286.44 139.95 282.82 C 138.88 287.31 136.73 291.44 134.11 295.21 Z" />
<path fill="#e79c9c" opacity="1.00" d=" M 521.09 284.88 C 523.36 287.95 525.20 291.39 525.82 295.20 C 523.43 292.19 522.43 288.40 521.09 284.88 Z" />
<path fill="#e79c9c" opacity="1.00" d=" M 10.21 298.02 C 10.41 297.54 10.82 296.56 11.03 296.08 C 10.82 296.56 10.41 297.54 10.21 298.02 Z" />
<path fill="#e79c9c" opacity="1.00" d=" M 129.15 306.24 C 129.77 302.44 131.66 299.05 133.77 295.88 C 132.51 299.43 131.60 303.27 129.15 306.24 Z" />
<path fill="#e79c9c" opacity="1.00" d=" M 526.20 295.83 C 528.75 298.76 529.97 302.48 530.81 306.21 C 528.27 303.26 527.05 299.55 526.20 295.83 Z" />
<path fill="#e79c9c" opacity="1.00" d=" M 647.97 296.08 C 648.18 296.56 648.59 297.54 648.79 298.02 C 648.59 297.54 648.18 296.56 647.97 296.08 Z" />
<path fill="#e79c9c" opacity="1.00" d=" M 415.22 298.98 C 415.80 297.45 416.38 297.48 416.95 299.06 C 416.52 299.04 415.65 299.00 415.22 298.98 Z" />
<path fill="#e79c9c" opacity="1.00" d=" M 127.98 309.15 C 128.22 308.61 128.68 307.53 128.92 306.99 C 128.68 307.53 128.22 308.61 127.98 309.15 Z" />
<path fill="#e79c9c" opacity="1.00" d=" M 393.99 308.91 C 393.60 307.21 394.26 306.59 395.95 307.05 C 395.67 308.07 395.02 308.69 393.99 308.91 Z" />
<path fill="#e79c9c" opacity="1.00" d=" M 531.13 306.89 C 531.32 307.44 531.71 308.54 531.90 309.08 C 531.71 308.54 531.32 307.44 531.13 306.89 Z" />
<path fill="#e79c9c" opacity="1.00" d=" M 9.24 307.91 L 10.04 307.82 C 9.83 308.33 9.40 309.33 9.19 309.83 C 9.20 309.35 9.23 308.39 9.24 307.91 Z" />
<path fill="#e79c9c" opacity="1.00" d=" M 648.96 307.83 L 649.76 307.90 C 649.78 308.38 649.81 309.34 649.83 309.82 C 649.61 309.32 649.18 308.32 648.96 307.83 Z" />
<path fill="#e79c9c" opacity="1.00" d=" M 126.09 314.01 C 125.51 312.30 126.12 310.41 127.96 309.88 C 128.24 311.53 127.43 313.07 126.09 314.01 Z" />
<path fill="#e79c9c" opacity="1.00" d=" M 532.26 309.75 C 533.88 311.92 534.40 314.60 534.78 317.23 C 533.08 315.08 532.58 312.39 532.26 309.75 Z" />
<path fill="#e79c9c" opacity="1.00" d=" M 476.98 311.17 C 478.54 311.71 478.55 312.26 476.99 312.83 C 476.99 312.42 476.98 311.58 476.98 311.17 Z" />
<path fill="#e79c9c" opacity="1.00" d=" M 123.30 322.38 C 123.57 319.65 124.08 316.87 125.79 314.64 C 125.44 317.35 124.82 320.06 123.30 322.38 Z" />
<path fill="#e79c9c" opacity="1.00" d=" M 535.10 317.90 C 536.54 320.16 537.38 322.70 537.87 325.32 C 536.03 323.26 535.36 320.58 535.10 317.90 Z" />
<path fill="#e79c9c" opacity="1.00" d=" M 184.38 320.01 C 185.04 320.86 185.26 321.81 185.04 322.86 C 183.43 322.37 183.21 321.42 184.38 320.01 Z" />
<path fill="#e79c9c" opacity="1.00" d=" M 120.27 330.31 C 120.23 328.70 120.70 327.08 121.97 326.02 C 122.63 327.69 122.27 329.84 120.27 330.31 Z" />
<path fill="#e79c9c" opacity="1.00" d=" M 185.17 325.99 C 185.38 326.47 185.81 327.44 186.02 327.93 C 185.81 327.44 185.38 326.47 185.17 325.99 Z" />
<path fill="#e79c9c" opacity="1.00" d=" M 538.09 325.99 C 539.52 326.89 540.18 328.55 539.80 330.21 C 538.10 329.49 537.52 327.66 538.09 325.99 Z" />
<path fill="#e79c9c" opacity="1.00" d=" M 117.46 340.49 C 118.11 337.50 118.28 334.34 119.75 331.61 C 119.32 334.65 118.44 337.58 117.46 340.49 Z" />
<path fill="#e79c9c" opacity="1.00" d=" M 540.99 335.12 C 542.65 336.62 543.31 338.82 542.80 341.01 C 541.06 339.52 540.48 337.31 540.99 335.12 Z" />
<path fill="#e79c9c" opacity="1.00" d=" M 371.36 341.92 C 369.99 340.79 371.09 337.48 372.98 338.21 C 372.88 339.60 372.19 340.83 371.36 341.92 Z" />
<path fill="#e79c9c" opacity="1.00" d=" M 473.98 340.95 C 474.15 340.44 474.48 339.43 474.65 338.93 C 474.48 339.43 474.15 340.44 473.98 340.95 Z" />
<path fill="#e79c9c" opacity="1.00" d=" M 114.24 351.31 C 114.85 348.36 115.20 345.27 116.76 342.65 C 116.12 345.58 115.84 348.70 114.24 351.31 Z" />
<path fill="#e79c9c" opacity="1.00" d=" M 543.18 342.54 C 544.83 345.16 545.12 348.32 545.73 351.31 C 544.22 348.61 543.78 345.52 543.18 342.54 Z" />
<path fill="#e79c9c" opacity="1.00" d=" M 9.17 349.18 C 9.39 349.68 9.82 350.68 10.04 351.17 L 9.24 351.10 C 9.22 350.62 9.19 349.66 9.17 349.18 Z" />
<path fill="#e79c9c" opacity="1.00" d=" M 648.96 351.18 C 649.17 350.67 649.60 349.67 649.81 349.17 C 649.80 349.65 649.77 350.61 649.76 351.09 L 648.96 351.18 Z" />
<path fill="#e79c9c" opacity="1.00" d=" M 112.19 361.16 C 112.40 358.27 112.53 355.40 113.77 352.77 C 113.40 355.60 112.76 358.35 112.19 361.16 Z" />
<path fill="#e79c9c" opacity="1.00" d=" M 546.30 352.67 C 548.28 355.10 547.73 358.23 547.77 361.21 C 547.26 358.35 546.74 355.52 546.30 352.67 Z" />
<path fill="#e79c9c" opacity="1.00" d=" M 365.56 363.94 C 364.35 362.34 365.11 358.79 367.01 358.30 C 367.25 360.32 366.58 362.23 365.56 363.94 Z" />
<path fill="#e79c9c" opacity="1.00" d=" M 10.47 361.05 C 11.00 362.22 11.23 363.51 11.02 364.80 C 9.19 364.97 9.21 361.80 10.47 361.05 Z" />
<path fill="#e79c9c" opacity="1.00" d=" M 295.99 361.23 C 297.97 361.33 297.71 364.86 296.50 365.92 C 295.98 364.40 295.80 362.81 295.99 361.23 Z" />
<path fill="#e79c9c" opacity="1.00" d=" M 647.97 364.79 C 647.77 363.50 647.99 362.22 648.53 361.05 C 649.79 361.80 649.80 364.98 647.97 364.79 Z" />
<path fill="#e79c9c" opacity="1.00" d=" M 110.94 364.05 C 111.22 363.53 111.79 362.50 112.07 361.98 C 111.79 362.50 111.22 363.53 110.94 364.05 Z" />
<path fill="#e79c9c" opacity="1.00" d=" M 547.84 362.03 C 548.14 362.54 548.76 363.54 549.07 364.04 C 548.76 363.54 548.14 362.54 547.84 362.03 Z" />
<path fill="#e79c9c" opacity="1.00" d=" M 109.13 374.27 C 109.18 371.34 109.84 368.48 110.85 365.74 C 111.06 368.71 110.46 371.61 109.13 374.27 Z" />
<path fill="#e79c9c" opacity="1.00" d=" M 549.15 365.74 C 550.34 368.76 550.97 371.95 550.86 375.20 C 549.64 372.19 548.97 368.99 549.15 365.74 Z" />
<path fill="#e79c9c" opacity="1.00" d=" M 297.00 371.24 C 299.24 372.02 298.78 376.26 297.41 377.89 C 297.04 375.67 296.91 373.46 297.00 371.24 Z" />
<path fill="#e79c9c" opacity="1.00" d=" M 107.96 379.03 C 107.46 377.70 107.79 376.67 108.95 375.93 C 109.51 377.26 109.18 378.30 107.96 379.03 Z" />
<path fill="#e79c9c" opacity="1.00" d=" M 550.99 375.99 C 552.19 376.68 552.54 377.69 552.04 379.03 C 550.82 378.34 550.47 377.32 550.99 375.99 Z" />
<path fill="#e79c9c" opacity="1.00" d=" M 363.47 380.95 C 362.20 380.19 362.18 377.02 364.02 377.21 C 364.21 378.48 364.00 379.77 363.47 380.95 Z" />
<path fill="#e79c9c" opacity="1.00" d=" M 106.06 392.16 C 106.41 388.00 106.70 383.84 107.84 379.82 C 107.56 383.97 107.01 388.10 106.06 392.16 Z" />
<path fill="#e79c9c" opacity="1.00" d=" M 552.16 379.82 C 553.51 383.85 553.91 388.01 553.83 392.25 C 552.96 388.14 552.26 384.01 552.16 379.82 Z" />
<path fill="#e79c9c" opacity="1.00" d=" M 448.71 386.60 C 449.03 385.56 449.73 384.98 450.81 384.87 C 451.05 386.54 450.35 387.12 448.71 386.60 Z" />
<path fill="#e79c9c" opacity="1.00" d=" M 221.10 388.00 C 222.22 387.92 222.95 388.43 223.29 389.54 C 221.72 390.13 220.99 389.62 221.10 388.00 Z" />
<path fill="#e79c9c" opacity="1.00" d=" M 225.88 390.95 C 228.93 391.13 232.10 391.56 234.58 393.51 C 231.68 392.99 228.06 393.13 225.88 390.95 Z" />
<path fill="#e79c9c" opacity="1.00" d=" M 362.99 392.83 C 361.41 392.28 361.41 391.72 362.97 391.17 C 362.98 391.58 362.99 392.42 362.99 392.83 Z" />
<path fill="#e79c9c" opacity="1.00" d=" M 438.04 391.72 C 438.80 390.98 439.71 390.69 440.78 390.86 C 440.40 392.51 439.49 392.80 438.04 391.72 Z" />
<path fill="#e79c9c" opacity="1.00" d=" M 105.10 397.08 C 104.49 395.64 104.62 393.94 105.94 392.96 C 106.51 394.38 106.36 396.06 105.10 397.08 Z" />
<path fill="#e79c9c" opacity="1.00" d=" M 294.33 395.22 C 295.55 394.66 296.74 394.04 297.90 393.37 C 299.37 395.54 294.94 397.52 294.33 395.22 Z" />
<path fill="#e79c9c" opacity="1.00" d=" M 422.03 393.27 C 423.91 393.64 425.79 393.96 427.70 394.22 C 426.86 395.91 421.80 395.80 422.03 393.27 Z" />
<path fill="#e79c9c" opacity="1.00" d=" M 553.94 393.01 C 555.36 393.88 555.51 395.62 554.95 397.06 C 553.67 396.09 553.46 394.45 553.94 393.01 Z" />
<path fill="#e79c9c" opacity="1.00" d=" M 248.98 395.03 C 262.63 394.97 276.29 394.88 289.95 395.07 C 278.75 396.47 260.34 396.91 248.98 395.03 Z" />
<path fill="#e79c9c" opacity="1.00" d=" M 364.99 395.01 C 382.35 394.98 399.71 395.02 417.07 394.99 C 401.95 396.47 380.01 397.00 364.99 395.01 Z" />
<path fill="#e79c9c" opacity="1.00" d=" M 103.01 418.27 C 103.26 411.73 103.31 405.16 104.91 398.77 C 104.67 405.30 104.08 411.81 103.01 418.27 Z" />
<path fill="#e79c9c" opacity="1.00" d=" M 555.27 398.67 C 556.72 404.74 557.29 410.98 556.84 417.22 C 555.12 411.21 554.94 404.87 555.27 398.67 Z" />
<path fill="#e79c9c" opacity="1.00" d=" M 557.16 418.78 C 557.81 421.54 557.61 424.36 557.87 427.22 C 557.13 424.47 557.29 421.56 557.16 418.78 Z" />
<path fill="#e79c9c" opacity="1.00" d=" M 102.15 426.95 C 100.88 424.76 101.09 422.46 102.78 420.05 C 104.15 422.21 103.95 424.51 102.15 426.95 Z" />
<path fill="#e79c9c" opacity="1.00" d=" M 133.29 477.75 C 118.59 465.42 96.43 450.54 101.88 428.71 C 97.08 451.67 121.27 462.51 133.29 477.75 Z" />
<path fill="#e79c9c" opacity="1.00" d=" M 558.23 428.78 C 559.64 436.07 560.86 445.34 554.70 450.74 C 542.82 464.71 529.82 478.78 513.67 487.77 C 521.59 480.37 530.93 474.44 538.37 466.41 C 548.45 455.94 563.00 445.54 558.23 428.78 Z" />
<path fill="#e79c9c" opacity="1.00" d=" M 133.83 478.17 C 137.31 480.22 140.69 482.56 143.29 485.71 C 139.48 484.14 135.88 481.86 133.83 478.17 Z" />
<path fill="#e79c9c" opacity="1.00" d=" M 143.87 486.09 C 152.50 491.42 161.53 496.48 169.37 502.89 C 160.25 498.47 150.99 493.37 143.87 486.09 Z" />
<path fill="#e79c9c" opacity="1.00" d=" M 509.99 491.01 C 510.37 489.47 511.58 488.39 513.13 488.10 C 513.34 489.96 511.80 491.31 509.99 491.01 Z" />
<path fill="#e79c9c" opacity="1.00" d=" M 500.65 496.84 C 502.92 494.11 506.09 492.42 509.39 491.28 C 507.10 494.00 503.98 495.72 500.65 496.84 Z" />
<path fill="#e79c9c" opacity="1.00" d=" M 495.67 499.76 C 496.31 497.80 498.33 497.25 500.19 497.28 C 499.57 499.26 497.52 499.82 495.67 499.76 Z" />
<path fill="#e79c9c" opacity="1.00" d=" M 490.72 502.76 C 491.37 500.77 493.43 500.21 495.32 500.25 C 494.62 502.19 492.59 502.76 490.72 502.76 Z" />
<path fill="#e79c9c" opacity="1.00" d=" M 169.85 503.35 C 171.77 503.57 174.38 503.56 175.10 505.80 C 173.03 505.95 170.75 505.44 169.85 503.35 Z" />
<path fill="#e79c9c" opacity="1.00" d=" M 486.84 505.08 C 487.24 503.60 488.58 502.71 490.10 502.86 C 489.77 504.39 488.36 505.30 486.84 505.08 Z" />
<path fill="#e79c9c" opacity="1.00" d=" M 484.77 508.23 C 482.06 507.08 483.82 504.81 486.15 505.20 C 485.76 506.24 485.30 507.25 484.77 508.23 Z" />
<path fill="#e79c9c" opacity="1.00" d=" M 168.95 514.11 C 169.19 512.59 170.55 511.66 172.05 511.91 C 171.72 513.35 170.45 514.35 168.95 514.11 Z" />
<path fill="#e79c9c" opacity="1.00" d=" M 488.06 511.81 C 488.52 512.16 489.44 512.87 489.90 513.22 C 489.44 512.87 488.52 512.16 488.06 511.81 Z" />
<path fill="#e79c9c" opacity="1.00" d=" M 161.31 524.40 C 162.31 520.99 164.99 518.62 167.79 516.64 C 167.64 517.28 167.33 518.56 167.18 519.20 C 166.96 519.46 166.52 519.96 166.30 520.22 C 164.62 521.58 162.95 522.97 161.31 524.40 Z" />
<path fill="#e79c9c" opacity="1.00" d=" M 492.04 517.20 C 494.01 517.49 495.65 518.73 496.06 520.76 C 494.87 520.30 493.68 519.85 492.52 519.35 L 492.03 518.75 C 492.03 518.36 492.03 517.59 492.04 517.20 Z" />
<path fill="#e79c9c" opacity="1.00" d=" M 497.01 522.87 C 497.48 523.21 498.40 523.88 498.87 524.21 C 498.40 523.88 497.48 523.21 497.01 522.87 Z" />
<path fill="#e79c9c" opacity="1.00" d=" M 158.13 528.26 C 158.02 526.73 159.35 525.73 160.77 525.71 C 160.75 527.17 159.66 528.39 158.13 528.26 Z" />
<path fill="#e79c9c" opacity="1.00" d=" M 499.19 525.70 C 500.72 525.95 501.28 526.82 500.86 528.30 C 499.68 527.84 499.12 526.97 499.19 525.70 Z" />
<path fill="#e79c9c" opacity="1.00" d=" M 500.68 529.20 C 502.11 528.97 502.79 529.58 502.74 531.01 L 501.93 531.32 C 501.62 530.79 500.99 529.73 500.68 529.20 Z" />
<path fill="#e79c9c" opacity="1.00" d=" M 156.11 531.17 C 156.55 530.82 157.44 530.10 157.88 529.75 C 157.44 530.10 156.55 530.82 156.11 531.17 Z" />
<path fill="#e79c9c" opacity="1.00" d=" M 82.23 532.80 C 83.38 533.06 83.97 533.77 84.02 534.93 C 82.42 535.10 81.83 534.39 82.23 532.80 Z" />
<path fill="#e79c9c" opacity="1.00" d=" M 152.15 538.09 C 152.75 535.92 153.72 533.86 155.58 532.50 C 155.07 534.04 154.58 535.59 154.06 537.13 C 153.79 537.40 153.25 537.95 152.99 538.22 L 152.15 538.09 Z" />
<path fill="#e79c9c" opacity="1.00" d=" M 504.00 533.04 C 505.44 533.23 506.38 534.58 505.94 536.01 C 504.54 535.76 503.52 534.46 504.00 533.04 Z" />
<path fill="#e79c9c" opacity="1.00" d=" M 574.95 534.93 C 574.94 533.72 575.54 533.05 576.75 532.92 C 577.11 534.46 576.51 535.13 574.95 534.93 Z" />
<path fill="#e79c9c" opacity="1.00" d=" M 505.94 536.01 C 507.29 536.07 507.89 536.78 507.76 538.13 L 506.96 538.34 C 506.71 537.76 506.20 536.59 505.94 536.01 Z" />
<path fill="#e79c9c" opacity="1.00" d=" M 88.34 539.63 C 89.38 539.98 89.96 540.70 90.09 541.78 C 88.42 541.99 87.84 541.28 88.34 539.63 Z" />
<path fill="#e79c9c" opacity="1.00" d=" M 568.91 541.78 C 569.03 540.70 569.61 539.98 570.66 539.63 C 571.15 541.28 570.57 541.99 568.91 541.78 Z" />
<path fill="#e79c9c" opacity="1.00" d=" M 149.13 543.19 C 149.13 541.81 149.83 541.14 151.22 541.17 C 150.91 541.72 150.28 542.84 149.97 543.40 L 149.13 543.19 Z" />
<path fill="#e79c9c" opacity="1.00" d=" M 508.83 541.12 C 510.18 541.14 510.81 541.83 510.70 543.17 L 509.84 543.44 C 509.59 542.86 509.08 541.70 508.83 541.12 Z" />
<path fill="#e79c9c" opacity="1.00" d=" M 146.31 548.01 C 146.41 546.34 146.84 544.53 148.46 543.71 C 148.52 544.38 148.64 545.72 148.70 546.39 C 148.26 546.82 147.39 547.70 146.96 548.14 L 146.31 548.01 Z" />
<path fill="#e79c9c" opacity="1.00" d=" M 510.94 543.92 C 511.41 544.24 512.35 544.89 512.82 545.22 C 512.35 544.89 511.41 544.24 510.94 543.92 Z" />
<path fill="#e79c9c" opacity="1.00" d=" M 141.06 556.18 C 141.85 554.08 142.82 551.85 145.05 550.96 C 144.40 552.62 143.73 554.29 142.95 555.91 C 142.48 555.98 141.53 556.11 141.06 556.18 Z" />
<path fill="#e79c9c" opacity="1.00" d=" M 514.72 551.18 C 517.77 551.42 517.94 554.91 518.91 557.12 L 517.91 557.16 C 517.62 556.71 517.04 555.81 516.75 555.36 C 516.87 553.95 516.27 552.62 515.09 551.86 L 514.72 551.18 Z" />
<path fill="#e79c9c" opacity="1.00" d=" M 522.12 563.92 C 523.51 565.77 524.72 567.78 525.10 570.11 C 524.33 569.40 523.56 568.69 522.80 567.99 C 522.49 567.00 522.21 566.00 521.94 565.01 L 522.12 563.92 Z" />
<path fill="#e79c9c" opacity="1.00" d=" M 136.21 568.11 C 136.43 567.65 136.86 566.72 137.08 566.26 L 137.51 567.11 L 137.13 568.00 L 136.21 568.11 Z" />
<path fill="#e79c9c" opacity="1.00" d=" M 115.32 566.93 C 116.78 567.15 117.77 568.26 118.38 569.54 C 116.96 570.45 114.50 568.47 115.32 566.93 Z" />
<path fill="#e79c9c" opacity="1.00" d=" M 540.64 569.63 C 540.99 568.60 541.70 568.02 542.79 567.91 C 543.00 569.58 542.28 570.15 540.64 569.63 Z" />
<path fill="#e79c9c" opacity="1.00" d=" M 132.06 576.95 C 131.52 575.32 132.10 573.21 134.15 573.31 L 134.50 574.05 C 133.99 575.12 133.38 576.14 132.68 577.10 L 132.06 576.95 Z" />
<path fill="#e79c9c" opacity="1.00" d=" M 525.88 573.32 C 527.48 573.84 528.24 575.51 527.80 577.11 L 527.02 577.07 C 526.47 576.08 525.99 575.06 525.57 574.03 L 525.88 573.32 Z" />
<path fill="#e79c9c" opacity="1.00" d=" M 123.25 573.86 C 124.39 573.99 125.01 574.63 125.09 575.79 C 123.49 576.09 122.87 575.45 123.25 573.86 Z" />
<path fill="#e79c9c" opacity="1.00" d=" M 128.22 578.06 C 129.46 578.05 130.12 578.66 130.22 579.90 C 128.66 580.17 127.99 579.56 128.22 578.06 Z" />
<path fill="#e79c9c" opacity="1.00" d=" M 528.21 578.05 C 528.68 578.31 529.62 578.83 530.09 579.08 C 529.81 579.33 529.25 579.83 528.97 580.08 L 528.08 579.71 L 527.80 578.85 L 528.21 578.05 Z" />
</g>
</svg>
