<?xml version="1.0" encoding="UTF-8" ?>
<!DOCTYPE svg PUBLIC "-//W3C//DTD SVG 1.1//EN" "http://www.w3.org/Graphics/SVG/1.1/DTD/svg11.dtd">
<svg width="660pt" height="660pt" viewBox="0 0 660 660" version="1.1" xmlns="http://www.w3.org/2000/svg">
<g id="#000000ff">
</g>
<g id="#eec825ff">
<path fill="#eec825" opacity="1.00" d=" M 158.66 58.65 C 268.20 -11.80 420.41 -5.44 523.40 74.53 C 578.57 116.05 620.56 176.22 638.07 243.05 C 631.88 240.17 628.87 233.41 624.85 228.21 C 628.01 216.48 617.22 209.94 611.52 201.53 C 606.94 189.40 591.52 189.23 583.06 180.96 C 576.87 174.00 563.90 177.55 562.63 166.35 C 555.49 162.84 548.04 159.67 542.59 153.41 C 527.08 148.51 517.21 134.09 501.65 129.33 C 492.81 118.97 479.10 114.52 465.70 116.21 C 446.50 106.16 425.82 99.10 407.29 87.77 C 399.35 82.03 392.12 75.16 383.39 70.60 C 356.08 68.58 328.61 71.05 301.25 70.98 C 288.10 57.21 274.01 75.49 260.02 77.06 C 251.27 83.11 242.84 89.70 234.77 96.64 C 219.53 94.14 207.77 104.86 195.12 111.09 C 189.83 115.42 179.48 111.84 178.89 120.91 C 165.52 120.07 158.76 133.52 147.01 137.07 C 136.12 141.41 128.86 151.55 118.10 156.05 C 102.11 157.60 95.28 174.72 80.98 179.98 C 72.94 187.56 62.31 191.13 53.78 197.75 C 50.03 207.78 36.29 211.86 36.55 223.56 C 36.51 239.43 31.44 255.62 30.94 270.96 C 41.31 288.01 44.83 309.80 61.16 322.78 C 75.63 354.90 102.93 382.06 109.86 418.07 C 116.05 429.86 129.91 436.27 131.72 450.26 C 142.56 460.06 154.99 447.48 164.12 442.07 C 165.25 420.32 164.70 398.23 163.15 376.35 C 171.47 362.90 177.14 380.30 178.03 388.02 C 180.38 400.58 181.08 413.44 175.17 425.11 C 177.97 433.01 184.65 444.27 176.23 451.20 C 172.67 453.50 173.99 457.17 176.72 459.34 C 186.43 474.93 172.00 496.66 184.75 511.22 C 190.59 516.41 190.29 529.28 201.17 525.96 C 232.90 565.81 264.51 605.96 296.97 645.09 C 297.06 646.25 296.52 647.00 295.34 647.35 C 227.54 640.76 162.22 610.99 112.15 564.86 C 13.67 477.48 -19.05 326.15 33.59 205.62 C 58.72 145.26 103.12 93.15 158.66 58.65 Z" />
</g>
<g id="#ebbd44ff">
<path fill="#ebbd44" opacity="1.00" d=" M 260.02 77.06 C 274.01 75.49 288.10 57.21 301.25 70.98 C 294.11 72.37 286.85 71.78 279.65 71.63 C 269.58 72.55 265.33 82.77 256.99 87.00 C 230.43 103.49 200.03 112.86 172.81 128.01 C 131.49 150.69 92.84 180.35 52.09 205.03 C 32.18 237.12 33.24 281.86 59.52 310.44 C 85.13 350.61 107.49 392.61 128.82 435.17 C 130.86 448.99 147.65 448.68 157.10 444.04 C 157.26 403.57 155.84 362.57 159.97 322.07 C 163.18 316.55 167.60 323.34 168.08 326.96 C 174.45 349.48 179.61 372.41 185.87 395.03 C 183.99 431.25 185.33 467.62 185.13 503.89 C 188.14 511.78 196.14 516.33 200.00 523.83 C 200.29 524.36 200.88 525.43 201.17 525.96 C 190.29 529.28 190.59 516.41 184.75 511.22 C 172.00 496.66 186.43 474.93 176.72 459.34 C 173.99 457.17 172.67 453.50 176.23 451.20 C 184.65 444.27 177.97 433.01 175.17 425.11 C 181.08 413.44 180.38 400.58 178.03 388.02 C 177.14 380.30 171.47 362.90 163.15 376.35 C 164.70 398.23 165.25 420.32 164.12 442.07 C 154.99 447.48 142.56 460.06 131.72 450.26 C 129.91 436.27 116.05 429.86 109.86 418.07 C 102.93 382.06 75.63 354.90 61.16 322.78 C 44.83 309.80 41.31 288.01 30.94 270.96 C 31.44 255.62 36.51 239.43 36.55 223.56 C 36.29 211.86 50.03 207.78 53.78 197.75 C 62.31 191.13 72.94 187.56 80.98 179.98 C 95.28 174.72 102.11 157.60 118.10 156.05 C 128.86 151.55 136.12 141.41 147.01 137.07 C 158.76 133.52 165.52 120.07 178.89 120.91 C 179.48 111.84 189.83 115.42 195.12 111.09 C 207.77 104.86 219.53 94.14 234.77 96.64 C 242.84 89.70 251.27 83.11 260.02 77.06 Z" />
</g>
<g id="#c29535ff">
<path fill="#c29535" opacity="1.00" d=" M 301.25 70.98 C 328.61 71.05 356.08 68.58 383.39 70.60 C 392.12 75.16 399.35 82.03 407.29 87.77 C 425.82 99.10 446.50 106.16 465.70 116.21 C 474.98 120.91 484.55 125.06 494.29 128.71 C 529.51 154.35 566.97 176.74 603.22 200.90 C 614.06 206.57 615.25 220.43 623.99 227.95 C 625.24 247.32 633.33 268.82 621.64 286.52 C 616.08 297.50 613.06 309.70 605.58 319.66 C 601.45 326.50 593.03 329.71 590.85 337.86 C 586.72 343.29 585.30 352.23 577.62 353.78 C 577.87 361.85 576.55 370.59 568.86 374.94 C 559.80 390.60 551.97 407.22 546.55 424.63 C 537.08 435.19 530.52 448.66 516.13 453.22 C 507.35 456.93 504.81 445.04 499.43 440.51 C 494.60 413.96 503.44 386.20 495.27 359.92 C 494.76 358.06 492.84 351.31 490.78 355.75 C 487.95 373.08 485.39 390.56 482.26 407.82 C 485.52 417.42 481.16 426.98 482.23 436.70 C 485.48 451.89 482.86 466.32 484.69 481.67 C 483.50 486.87 486.39 506.22 476.81 497.92 C 477.22 456.12 471.54 413.33 480.28 372.20 C 484.98 355.16 489.67 338.12 494.23 321.00 C 496.23 319.46 498.31 316.49 501.15 317.81 C 505.18 359.64 505.44 401.71 504.25 443.69 C 509.36 449.14 519.84 445.17 526.24 445.31 C 547.20 404.81 567.87 363.82 591.94 325.04 C 604.27 305.50 620.84 287.20 622.04 262.98 C 624.30 243.39 619.05 222.54 607.66 206.36 C 582.53 189.25 557.05 172.61 531.19 156.65 C 520.42 149.36 509.54 142.22 498.30 135.68 C 496.25 133.97 494.26 132.20 492.06 130.70 C 456.03 113.93 416.91 100.94 385.96 75.04 C 368.23 71.76 349.89 74.49 331.88 73.95 C 307.41 73.35 279.28 71.26 259.39 88.41 C 256.40 99.81 242.82 94.36 237.50 102.53 C 219.23 114.40 197.63 119.47 177.87 128.00 C 176.66 128.39 175.45 128.77 174.25 129.15 C 173.89 128.87 173.17 128.30 172.81 128.01 C 200.03 112.86 230.43 103.49 256.99 87.00 C 265.33 82.77 269.58 72.55 279.65 71.63 C 286.85 71.78 294.11 72.37 301.25 70.98 Z" />
</g>
<g id="#a55c4cff">
<path fill="#a55c4c" opacity="1.00" d=" M 331.88 73.95 C 349.89 74.49 368.23 71.76 385.96 75.04 C 416.91 100.94 456.03 113.93 492.06 130.70 C 489.88 130.94 486.36 131.19 486.26 134.06 C 487.05 156.86 467.90 178.36 477.32 200.95 C 486.54 231.06 492.41 262.00 498.23 292.90 C 498.10 293.74 497.84 295.44 497.70 296.29 C 487.87 260.68 485.16 222.55 470.37 188.60 C 449.28 199.21 422.77 205.70 400.99 217.91 C 379.59 225.94 358.36 234.55 337.36 243.45 C 330.98 245.82 330.36 235.94 331.63 232.04 C 330.02 179.40 331.46 126.38 331.88 73.95 Z" />
</g>
<g id="#bb6f57ff">
<path fill="#bb6f57" opacity="1.00" d=" M 259.39 88.41 C 279.28 71.26 307.41 73.35 331.88 73.95 C 331.46 126.38 330.02 179.40 331.63 232.04 C 330.36 235.94 330.98 245.82 337.36 243.45 C 358.36 234.55 379.59 225.94 400.99 217.91 C 422.77 205.70 449.28 199.21 470.37 188.60 C 485.16 222.55 487.87 260.68 497.70 296.29 C 497.23 303.78 501.81 310.28 501.15 317.81 C 498.31 316.49 496.23 319.46 494.23 321.00 C 494.02 318.75 491.75 316.82 490.70 319.74 C 483.02 346.44 477.69 372.85 471.20 399.86 C 449.08 406.13 427.69 414.45 405.18 419.24 C 388.55 425.83 370.77 431.53 352.63 429.84 C 356.58 425.19 365.21 432.26 367.98 425.97 C 358.32 419.18 331.89 433.77 331.74 415.31 C 332.56 360.03 331.28 304.69 332.47 249.41 C 331.08 245.27 326.83 241.96 327.31 237.33 C 329.95 187.26 328.72 137.00 328.79 86.92 C 333.26 69.90 309.14 77.26 300.23 76.11 C 291.35 83.56 276.00 76.07 268.43 86.46 C 260.99 92.41 256.45 102.85 245.02 101.09 C 237.57 105.70 229.51 109.97 222.51 115.52 C 215.51 118.52 206.01 116.93 201.68 124.59 C 198.01 128.04 189.85 126.04 188.37 131.75 C 187.13 133.96 192.70 135.90 189.45 136.49 C 183.53 139.15 181.91 130.69 177.87 128.00 C 197.63 119.47 219.23 114.40 237.50 102.53 C 242.82 94.36 256.40 99.81 259.39 88.41 Z" />
</g>
<g id="#c17864ff">
<path fill="#c17864" opacity="1.00" d=" M 268.43 86.46 C 276.00 76.07 291.35 83.56 300.23 76.11 C 309.14 77.26 333.26 69.90 328.79 86.92 C 328.72 137.00 329.95 187.26 327.31 237.33 C 326.83 241.96 331.08 245.27 332.47 249.41 C 331.28 304.69 332.56 360.03 331.74 415.31 C 331.89 433.77 358.32 419.18 367.98 425.97 C 365.21 432.26 356.58 425.19 352.63 429.84 C 344.37 430.10 336.12 429.94 327.87 430.00 C 333.35 426.10 329.72 419.73 328.74 414.47 C 329.30 362.99 328.82 311.48 329.03 259.99 C 328.63 255.57 331.36 250.04 327.52 246.42 C 311.10 235.56 291.60 231.52 274.11 222.89 C 251.88 217.15 233.34 202.94 210.56 198.41 C 206.59 192.49 197.15 198.93 195.18 190.80 C 188.14 181.85 185.91 199.98 185.25 205.48 C 173.39 240.22 168.89 278.30 160.19 314.28 C 160.10 312.80 160.02 311.33 159.95 309.85 C 167.06 268.76 175.49 227.78 187.72 187.86 C 184.32 169.44 176.59 151.79 174.03 133.18 C 174.13 131.84 174.21 130.50 174.25 129.15 C 175.45 128.77 176.66 128.39 177.87 128.00 C 181.91 130.69 183.53 139.15 189.45 136.49 C 192.70 135.90 187.13 133.96 188.37 131.75 C 189.85 126.04 198.01 128.04 201.68 124.59 C 206.01 116.93 215.51 118.52 222.51 115.52 C 229.51 109.97 237.57 105.70 245.02 101.09 C 256.45 102.85 260.99 92.41 268.43 86.46 Z" />
</g>
<g id="#ebc144ff">
<path fill="#ebc144" opacity="1.00" d=" M 465.70 116.21 C 479.10 114.52 492.81 118.97 501.65 129.33 C 517.21 134.09 527.08 148.51 542.59 153.41 C 548.04 159.67 555.49 162.84 562.63 166.35 C 563.90 177.55 576.87 174.00 583.06 180.96 C 591.52 189.23 606.94 189.40 611.52 201.53 C 617.22 209.94 628.01 216.48 624.85 228.21 L 623.99 227.95 C 615.25 220.43 614.06 206.57 603.22 200.90 C 566.97 176.74 529.51 154.35 494.29 128.71 C 484.55 125.06 474.98 120.91 465.70 116.21 Z" />
</g>
<g id="#ac7d2eff">
<path fill="#ac7d2e" opacity="1.00" d=" M 52.09 205.03 C 92.84 180.35 131.49 150.69 172.81 128.01 C 173.17 128.30 173.89 128.87 174.25 129.15 C 174.21 130.50 174.13 131.84 174.03 133.18 C 172.93 131.91 171.67 128.84 169.65 130.58 C 132.65 154.93 95.67 179.30 58.58 203.55 C 50.63 207.82 48.09 216.95 45.70 224.93 C 38.10 246.58 38.18 271.19 49.51 291.51 C 81.09 337.26 106.60 386.68 131.92 436.02 C 133.43 446.56 149.43 447.31 155.39 441.40 C 155.42 401.14 152.78 360.39 158.14 320.22 C 158.67 316.75 159.27 313.29 159.95 309.85 C 160.02 311.33 160.10 312.80 160.19 314.28 C 160.14 316.87 160.06 319.47 159.97 322.07 C 155.84 362.57 157.26 403.57 157.10 444.04 C 147.65 448.68 130.86 448.99 128.82 435.17 C 107.49 392.61 85.13 350.61 59.52 310.44 C 33.24 281.86 32.18 237.12 52.09 205.03 Z" />
</g>
<g id="#7f472aff">
<path fill="#7f472a" opacity="1.00" d=" M 169.65 130.58 C 171.67 128.84 172.93 131.91 174.03 133.18 C 176.59 151.79 184.32 169.44 187.72 187.86 C 175.49 227.78 167.06 268.76 159.95 309.85 C 159.27 313.29 158.67 316.75 158.14 320.22 C 158.23 315.64 158.01 311.05 158.63 306.51 C 165.16 271.34 172.23 236.23 181.63 201.67 C 191.24 183.15 177.34 164.10 174.52 145.52 C 175.17 141.54 167.87 129.90 165.46 137.82 C 164.22 140.87 162.29 143.55 160.14 146.02 C 148.54 144.49 147.18 157.69 138.95 162.00 C 118.39 165.04 105.93 183.99 86.99 191.04 C 81.37 204.15 65.41 199.93 58.96 211.29 L 58.28 210.58 C 55.07 200.41 50.04 221.15 45.70 224.93 C 48.09 216.95 50.63 207.82 58.58 203.55 C 95.67 179.30 132.65 154.93 169.65 130.58 Z" />
</g>
<g id="#68332eff">
<path fill="#68332e" opacity="1.00" d=" M 486.26 134.06 C 486.36 131.19 489.88 130.94 492.06 130.70 C 494.26 132.20 496.25 133.97 498.30 135.68 C 501.41 140.25 496.50 145.67 499.67 150.23 C 510.95 163.50 516.34 180.16 523.04 195.96 C 536.65 223.87 550.28 252.26 563.69 280.30 C 572.46 287.40 573.36 271.16 576.14 266.06 C 585.14 252.93 588.84 236.88 598.00 224.04 C 606.63 223.95 603.57 214.59 600.06 209.97 C 592.05 204.03 585.30 196.26 575.54 193.03 C 579.35 187.77 582.90 195.60 587.32 195.85 C 595.31 204.34 609.05 208.00 612.72 220.14 C 622.07 241.29 622.49 266.35 612.10 287.19 C 584.49 329.72 560.70 374.28 537.05 419.10 C 538.42 413.03 537.38 407.29 534.05 402.11 C 539.09 392.43 544.38 382.70 543.63 371.45 C 554.04 345.40 556.69 316.10 563.46 288.59 C 544.78 248.82 525.01 209.49 507.93 168.92 C 503.85 157.66 488.57 149.39 494.78 136.35 C 485.66 128.23 492.45 146.35 487.89 150.97 C 482.46 158.64 483.03 168.36 479.82 176.87 C 472.43 188.06 479.60 201.75 484.28 212.66 C 487.54 239.79 498.88 266.38 499.06 293.54 L 498.23 292.90 C 492.41 262.00 486.54 231.06 477.32 200.95 C 467.90 178.36 487.05 156.86 486.26 134.06 Z" />
</g>
<g id="#5e2625ff">
<path fill="#5e2625" opacity="1.00" d=" M 487.89 150.97 C 492.45 146.35 485.66 128.23 494.78 136.35 C 488.57 149.39 503.85 157.66 507.93 168.92 C 525.01 209.49 544.78 248.82 563.46 288.59 C 556.69 316.10 554.04 345.40 543.63 371.45 C 544.38 382.70 539.09 392.43 534.05 402.11 C 537.38 407.29 538.42 413.03 537.05 419.10 C 529.40 427.58 530.38 448.46 514.03 444.06 C 510.46 445.52 507.95 443.02 506.20 440.57 C 505.92 391.59 509.04 341.78 499.06 293.54 C 498.88 266.38 487.54 239.79 484.28 212.66 C 479.60 201.75 472.43 188.06 479.82 176.87 C 483.03 168.36 482.46 158.64 487.89 150.97 Z" />
</g>
<g id="#5f2528ff">
<path fill="#5f2528" opacity="1.00" d=" M 165.46 137.82 C 167.87 129.90 175.17 141.54 174.52 145.52 C 177.34 164.10 191.24 183.15 181.63 201.67 C 172.23 236.23 165.16 271.34 158.63 306.51 C 146.54 317.39 152.95 336.77 150.99 351.01 C 148.77 372.84 151.20 394.86 147.58 416.52 C 145.76 424.21 152.66 432.12 150.16 439.11 C 132.47 444.64 131.94 418.07 125.88 409.33 C 129.52 398.55 114.75 389.12 120.69 377.95 C 114.46 370.05 114.53 359.23 109.34 351.04 C 112.21 340.44 107.09 330.76 105.74 320.47 C 106.71 308.92 95.12 301.10 97.41 289.38 C 115.71 250.03 133.65 210.96 153.10 172.12 C 157.47 160.86 165.81 150.01 165.46 137.82 Z" />
</g>
<g id="#764142ff">
<path fill="#764142" opacity="1.00" d=" M 498.30 135.68 C 509.54 142.22 520.42 149.36 531.19 156.65 C 533.05 168.73 547.39 166.98 554.40 174.53 C 563.56 178.29 566.62 188.88 575.54 193.03 C 585.30 196.26 592.05 204.03 600.06 209.97 C 603.57 214.59 606.63 223.95 598.00 224.04 C 588.84 236.88 585.14 252.93 576.14 266.06 C 573.36 271.16 572.46 287.40 563.69 280.30 C 550.28 252.26 536.65 223.87 523.04 195.96 C 516.34 180.16 510.95 163.50 499.67 150.23 C 496.50 145.67 501.41 140.25 498.30 135.68 Z" />
</g>
<g id="#663331ff">
<path fill="#663331" opacity="1.00" d=" M 165.46 137.82 C 165.81 150.01 157.47 160.86 153.10 172.12 C 133.65 210.96 115.71 250.03 97.41 289.38 C 95.12 301.10 106.71 308.92 105.74 320.47 C 107.09 330.76 112.21 340.44 109.34 351.04 C 114.53 359.23 114.46 370.05 120.69 377.95 C 114.75 389.12 129.52 398.55 125.88 409.33 C 117.12 399.89 113.10 386.00 106.24 374.84 C 99.87 362.13 89.77 351.18 86.90 337.01 C 76.59 320.22 64.72 304.71 53.50 288.53 C 49.19 270.78 39.35 248.15 51.45 231.54 C 52.06 224.32 52.91 215.96 58.28 210.58 L 58.96 211.29 C 56.03 219.71 61.60 226.29 66.32 232.67 C 78.91 248.10 83.51 268.65 95.12 284.43 C 111.17 255.86 121.58 225.72 137.10 197.13 C 144.84 180.05 154.28 163.87 160.14 146.02 C 162.29 143.55 164.22 140.87 165.46 137.82 Z" />
</g>
<g id="#764143ff">
<path fill="#764143" opacity="1.00" d=" M 138.95 162.00 C 147.18 157.69 148.54 144.49 160.14 146.02 C 154.28 163.87 144.84 180.05 137.10 197.13 C 121.58 225.72 111.17 255.86 95.12 284.43 C 83.51 268.65 78.91 248.10 66.32 232.67 C 61.60 226.29 56.03 219.71 58.96 211.29 C 65.41 199.93 81.37 204.15 86.99 191.04 C 105.93 183.99 118.39 165.04 138.95 162.00 Z" />
</g>
<g id="#87591eff">
<path fill="#87591e" opacity="1.00" d=" M 531.19 156.65 C 557.05 172.61 582.53 189.25 607.66 206.36 C 619.05 222.54 624.30 243.39 622.04 262.98 C 620.84 287.20 604.27 305.50 591.94 325.04 C 567.87 363.82 547.20 404.81 526.24 445.31 C 519.84 445.17 509.36 449.14 504.25 443.69 C 505.44 401.71 505.18 359.64 501.15 317.81 C 501.81 310.28 497.23 303.78 497.70 296.29 C 497.84 295.44 498.10 293.74 498.23 292.90 L 499.06 293.54 C 509.04 341.78 505.92 391.59 506.20 440.57 C 507.95 443.02 510.46 445.52 514.03 444.06 C 530.38 448.46 529.40 427.58 537.05 419.10 C 560.70 374.28 584.49 329.72 612.10 287.19 C 622.49 266.35 622.07 241.29 612.72 220.14 C 609.05 208.00 595.31 204.34 587.32 195.85 C 582.90 195.60 579.35 187.77 575.54 193.03 C 566.62 188.88 563.56 178.29 554.40 174.53 C 547.39 166.98 533.05 168.73 531.19 156.65 Z" />
</g>
<g id="#cf876eff">
<path fill="#cf876e" opacity="1.00" d=" M 185.25 205.48 C 185.91 199.98 188.14 181.85 195.18 190.80 C 197.15 198.93 206.59 192.49 210.56 198.41 C 233.34 202.94 251.88 217.15 274.11 222.89 C 291.60 231.52 311.10 235.56 327.52 246.42 C 331.36 250.04 328.63 255.57 329.03 259.99 C 328.82 311.48 329.30 362.99 328.74 414.47 C 329.72 419.73 333.35 426.10 327.87 430.00 L 326.90 430.04 C 300.30 433.67 275.22 426.14 250.53 417.52 C 233.93 415.48 219.19 406.99 202.81 404.24 C 198.81 403.57 195.14 401.64 192.28 398.80 C 191.04 396.52 188.80 392.44 185.87 395.03 C 179.61 372.41 174.45 349.48 168.08 326.96 C 167.60 323.34 163.18 316.55 159.97 322.07 C 160.06 319.47 160.14 316.87 160.19 314.28 C 168.89 278.30 173.39 240.22 185.25 205.48 Z" />
</g>
<g id="#673411ff">
<path fill="#673411" opacity="1.00" d=" M 45.70 224.93 C 50.04 221.15 55.07 200.41 58.28 210.58 C 52.91 215.96 52.06 224.32 51.45 231.54 C 39.35 248.15 49.19 270.78 53.50 288.53 C 64.72 304.71 76.59 320.22 86.90 337.01 C 89.77 351.18 99.87 362.13 106.24 374.84 C 113.10 386.00 117.12 399.89 125.88 409.33 C 131.94 418.07 132.47 444.64 150.16 439.11 C 152.66 432.12 145.76 424.21 147.58 416.52 C 151.20 394.86 148.77 372.84 150.99 351.01 C 152.95 336.77 146.54 317.39 158.63 306.51 C 158.01 311.05 158.23 315.64 158.14 320.22 C 152.78 360.39 155.42 401.14 155.39 441.40 C 149.43 447.31 133.43 446.56 131.92 436.02 C 106.60 386.68 81.09 337.26 49.51 291.51 C 38.18 271.19 38.10 246.58 45.70 224.93 Z" />
</g>
<g id="#c4a318ff">
<path fill="#c4a318" opacity="1.00" d=" M 623.99 227.95 L 624.85 228.21 C 628.87 233.41 631.88 240.17 638.07 243.05 C 675.03 364.22 628.22 505.61 526.80 581.84 C 462.33 632.97 374.97 656.68 295.34 647.35 C 296.52 647.00 297.06 646.25 296.97 645.09 C 264.51 605.96 232.90 565.81 201.17 525.96 C 200.88 525.43 200.29 524.36 200.00 523.83 C 214.01 524.00 218.31 542.58 232.65 542.47 C 246.19 555.91 267.44 548.24 284.05 553.84 C 303.90 558.27 324.02 569.95 344.68 562.79 C 364.48 558.82 383.91 547.14 404.67 552.34 C 413.54 556.83 416.95 544.61 425.53 545.39 C 440.77 539.58 451.98 526.80 465.10 518.13 C 472.54 517.84 476.69 510.77 476.01 503.86 C 476.22 501.86 476.52 499.89 476.81 497.92 C 486.39 506.22 483.50 486.87 484.69 481.67 C 482.86 466.32 485.48 451.89 482.23 436.70 C 481.16 426.98 485.52 417.42 482.26 407.82 C 485.39 390.56 487.95 373.08 490.78 355.75 C 492.84 351.31 494.76 358.06 495.27 359.92 C 503.44 386.20 494.60 413.96 499.43 440.51 C 504.81 445.04 507.35 456.93 516.13 453.22 C 530.52 448.66 537.08 435.19 546.55 424.63 C 551.97 407.22 559.80 390.60 568.86 374.94 C 576.55 370.59 577.87 361.85 577.62 353.78 C 585.30 352.23 586.72 343.29 590.85 337.86 C 593.03 329.71 601.45 326.50 605.58 319.66 C 613.06 309.70 616.08 297.50 621.64 286.52 C 633.33 268.82 625.24 247.32 623.99 227.95 Z" />
</g>
<g id="#a97234ff">
<path fill="#a97234" opacity="1.00" d=" M 490.70 319.74 C 491.75 316.82 494.02 318.75 494.23 321.00 C 489.67 338.12 484.98 355.16 480.28 372.20 C 471.54 413.33 477.22 456.12 476.81 497.92 C 476.52 499.89 476.22 501.86 476.01 503.86 C 461.19 518.58 441.28 527.06 424.33 539.31 C 419.12 541.78 414.80 548.05 408.49 547.60 C 380.64 541.36 355.56 560.22 328.47 562.43 C 311.39 558.38 294.94 552.13 277.85 548.15 C 275.56 547.57 274.17 545.50 272.52 543.99 C 275.62 543.55 278.72 543.13 281.86 542.87 C 281.46 544.40 279.99 547.16 282.61 547.36 C 298.56 551.31 313.98 557.07 329.81 561.42 C 346.23 556.40 363.40 552.74 379.25 546.25 C 383.75 543.65 378.14 540.61 374.80 541.10 C 395.27 542.43 416.53 543.49 432.32 528.40 C 445.62 522.53 453.75 506.65 469.47 506.17 C 476.75 498.83 469.00 487.81 471.15 479.08 C 472.47 452.74 472.63 426.17 471.20 399.86 C 477.69 372.85 483.02 346.44 490.70 319.74 Z" />
</g>
<g id="#c28f35ff">
<path fill="#c28f35" opacity="1.00" d=" M 185.87 395.03 C 188.80 392.44 191.04 396.52 192.28 398.80 C 182.67 430.89 191.30 465.14 187.93 497.98 C 188.26 501.57 191.68 503.78 193.78 506.39 C 200.52 511.68 211.58 511.36 214.00 521.94 C 222.37 530.54 234.74 534.15 243.63 542.40 C 253.11 542.59 262.89 544.31 272.52 543.99 C 274.17 545.50 275.56 547.57 277.85 548.15 C 294.94 552.13 311.39 558.38 328.47 562.43 C 355.56 560.22 380.64 541.36 408.49 547.60 C 414.80 548.05 419.12 541.78 424.33 539.31 C 441.28 527.06 461.19 518.58 476.01 503.86 C 476.69 510.77 472.54 517.84 465.10 518.13 C 451.98 526.80 440.77 539.58 425.53 545.39 C 416.95 544.61 413.54 556.83 404.67 552.34 C 383.91 547.14 364.48 558.82 344.68 562.79 C 324.02 569.95 303.90 558.27 284.05 553.84 C 267.44 548.24 246.19 555.91 232.65 542.47 C 218.31 542.58 214.01 524.00 200.00 523.83 C 196.14 516.33 188.14 511.78 185.13 503.89 C 185.33 467.62 183.99 431.25 185.87 395.03 Z" />
</g>
<g id="#af6854ff">
<path fill="#af6854" opacity="1.00" d=" M 192.28 398.80 C 195.14 401.64 198.81 403.57 202.81 404.24 C 219.19 406.99 233.93 415.48 250.53 417.52 C 275.22 426.14 300.30 433.67 326.90 430.04 L 327.04 430.99 C 315.64 433.49 294.54 423.57 291.25 440.23 C 290.70 438.45 292.16 434.00 289.05 435.01 C 271.23 450.58 250.95 462.97 230.80 474.82 C 220.83 488.48 198.55 488.94 193.78 506.39 C 191.68 503.78 188.26 501.57 187.93 497.98 C 191.30 465.14 182.67 430.89 192.28 398.80 Z" />
</g>
<g id="#a05647ff">
<path fill="#a05647" opacity="1.00" d=" M 405.18 419.24 C 427.69 414.45 449.08 406.13 471.20 399.86 C 472.63 426.17 472.47 452.74 471.15 479.08 C 469.00 487.81 476.75 498.83 469.47 506.17 C 466.48 498.18 457.69 495.29 451.35 490.59 C 424.81 472.02 396.61 455.29 372.13 434.36 C 370.63 435.65 370.18 437.92 370.77 441.17 C 366.47 421.76 340.68 434.58 327.04 430.99 L 326.90 430.04 L 327.87 430.00 C 336.12 429.94 344.37 430.10 352.63 429.84 C 370.77 431.53 388.55 425.83 405.18 419.24 Z" />
</g>
<g id="#6c3c32ff">
<path fill="#6c3c32" opacity="1.00" d=" M 291.25 440.23 C 294.54 423.57 315.64 433.49 327.04 430.99 C 340.68 434.58 366.47 421.76 370.77 441.17 C 375.79 453.12 369.58 466.69 364.79 477.83 C 352.28 483.46 342.12 495.97 328.38 497.78 C 317.38 488.83 303.19 483.92 293.89 472.93 C 292.07 462.11 283.58 450.70 291.25 440.23 M 298.35 433.18 C 290.74 440.51 288.00 452.83 293.47 462.25 C 294.54 479.55 314.14 483.63 325.24 492.76 C 326.85 495.39 329.83 498.29 333.15 495.23 C 342.61 487.78 353.45 482.23 363.23 475.27 C 369.97 462.08 374.84 445.49 363.84 433.10 C 342.02 432.96 320.17 432.82 298.35 433.18 Z" />
</g>
<g id="#290f0cff">
<path fill="#290f0c" opacity="1.00" d=" M 298.35 433.18 C 320.17 432.82 342.02 432.96 363.84 433.10 C 374.84 445.49 369.97 462.08 363.23 475.27 C 353.45 482.23 342.61 487.78 333.15 495.23 C 329.83 498.29 326.85 495.39 325.24 492.76 C 314.14 483.63 294.54 479.55 293.47 462.25 C 288.00 452.83 290.74 440.51 298.35 433.18 Z" />
</g>
<g id="#ae6657ff">
<path fill="#ae6657" opacity="1.00" d=" M 372.13 434.36 C 396.61 455.29 424.81 472.02 451.35 490.59 C 457.69 495.29 466.48 498.18 469.47 506.17 C 453.75 506.65 445.62 522.53 432.32 528.40 C 416.53 543.49 395.27 542.43 374.80 541.10 C 354.80 542.39 335.25 529.67 315.38 537.32 C 304.16 538.91 293.24 542.56 281.86 542.87 C 278.72 543.13 275.62 543.55 272.52 543.99 C 276.03 539.13 282.58 541.77 287.70 540.69 C 299.77 538.50 311.47 534.38 323.82 533.75 C 326.74 533.04 332.95 531.76 331.31 527.71 C 329.33 519.28 328.88 510.41 330.66 501.90 C 321.29 489.97 299.90 487.33 293.89 472.93 C 303.19 483.92 317.38 488.83 328.38 497.78 C 342.12 495.97 352.28 483.46 364.79 477.83 C 369.58 466.69 375.79 453.12 370.77 441.17 C 370.18 437.92 370.63 435.65 372.13 434.36 Z" />
</g>
<g id="#c07865ff">
<path fill="#c07865" opacity="1.00" d=" M 230.80 474.82 C 250.95 462.97 271.23 450.58 289.05 435.01 C 292.16 434.00 290.70 438.45 291.25 440.23 C 283.58 450.70 292.07 462.11 293.89 472.93 C 299.90 487.33 321.29 489.97 330.66 501.90 C 328.88 510.41 329.33 519.28 331.31 527.71 C 332.95 531.76 326.74 533.04 323.82 533.75 C 311.47 534.38 299.77 538.50 287.70 540.69 C 282.58 541.77 276.03 539.13 272.52 543.99 C 262.89 544.31 253.11 542.59 243.63 542.40 C 234.74 534.15 222.37 530.54 214.00 521.94 C 211.58 511.36 200.52 511.68 193.78 506.39 C 198.55 488.94 220.83 488.48 230.80 474.82 Z" />
</g>
<g id="#6d3828ff">
<path fill="#6d3828" opacity="1.00" d=" M 315.38 537.32 C 335.25 529.67 354.80 542.39 374.80 541.10 C 378.14 540.61 383.75 543.65 379.25 546.25 C 363.40 552.74 346.23 556.40 329.81 561.42 C 313.98 557.07 298.56 551.31 282.61 547.36 C 279.99 547.16 281.46 544.40 281.86 542.87 C 293.24 542.56 304.16 538.91 315.38 537.32 Z" />
</g>
</svg>
