<?xml version="1.0" encoding="UTF-8" ?>
<!DOCTYPE svg PUBLIC "-//W3C//DTD SVG 1.1//EN" "http://www.w3.org/Graphics/SVG/1.1/DTD/svg11.dtd">
<svg width="660pt" height="660pt" viewBox="0 0 660 660" version="1.1" xmlns="http://www.w3.org/2000/svg">
<g id="#fffffeff">
</g>
<g id="#efc825ff">
<path fill="#efc825" opacity="1.00" d=" M 107.02 99.91 C 194.77 12.88 335.54 -14.35 449.64 33.39 C 547.18 71.93 623.73 161.86 642.86 265.23 C 589.99 211.88 538.24 157.07 486.29 102.74 C 483.78 99.92 482.46 95.05 477.85 96.00 C 471.52 88.07 466.02 79.50 459.02 72.12 C 459.37 63.12 450.59 58.39 442.20 61.06 C 425.50 67.10 416.75 82.36 409.13 97.09 C 408.42 107.67 395.67 112.36 397.78 123.84 C 391.93 136.56 372.78 136.06 361.02 135.89 C 332.90 132.20 304.05 141.22 276.33 134.72 C 264.24 127.66 262.16 111.42 254.41 100.66 C 249.64 85.08 239.44 59.62 218.69 66.48 C 216.25 67.21 213.76 67.77 211.25 68.16 C 195.67 65.15 189.85 83.15 185.58 94.58 C 181.14 115.77 176.16 136.23 175.83 157.93 C 173.00 177.59 178.28 197.65 174.06 217.07 C 168.61 220.90 166.02 228.14 160.13 231.11 C 148.12 232.72 150.50 248.65 141.37 254.35 C 122.41 274.28 107.67 300.71 105.24 328.28 C 100.13 339.07 92.26 349.25 93.35 361.81 C 93.75 369.89 100.10 376.46 105.84 381.08 C 122.07 379.83 114.49 399.73 112.24 408.18 C 110.17 425.43 104.76 446.86 115.88 462.09 C 141.36 507.73 164.68 554.84 190.80 600.15 C 193.45 607.84 199.76 613.79 201.03 622.01 C 81.02 572.07 -0.03 441.70 10.10 312.14 C 16.50 297.61 17.96 281.76 18.08 265.98 C 21.55 248.77 32.77 233.75 31.83 215.60 C 43.19 204.35 40.52 185.04 54.53 175.75 C 66.05 168.70 63.95 153.64 72.04 143.98 C 75.46 134.42 89.49 134.12 90.15 123.03 C 91.22 112.07 110.61 112.26 107.02 99.91 Z" />
</g>
<g id="#edc244ff">
<path fill="#edc244" opacity="1.00" d=" M 409.13 97.09 C 416.75 82.36 425.50 67.10 442.20 61.06 C 450.59 58.39 459.37 63.12 459.02 72.12 C 452.03 64.57 438.54 64.99 432.67 73.67 C 417.25 90.52 408.74 112.28 398.53 132.45 C 390.34 148.38 369.24 140.31 355.17 141.80 C 327.76 136.24 299.82 146.93 272.66 140.31 C 249.41 120.13 250.23 78.05 218.69 66.48 C 239.44 59.62 249.64 85.08 254.41 100.66 C 262.16 111.42 264.24 127.66 276.33 134.72 C 304.05 141.22 332.90 132.20 361.02 135.89 C 372.78 136.06 391.93 136.56 397.78 123.84 C 395.67 112.36 408.42 107.67 409.13 97.09 Z" />
</g>
<g id="#b78633ff">
<path fill="#b78633" opacity="1.00" d=" M 211.25 68.16 C 213.76 67.77 216.25 67.21 218.69 66.48 C 250.23 78.05 249.41 120.13 272.66 140.31 C 299.82 146.93 327.76 136.24 355.17 141.80 C 369.24 140.31 390.34 148.38 398.53 132.45 C 408.74 112.28 417.25 90.52 432.67 73.67 L 433.69 73.60 C 431.13 77.47 428.14 81.08 426.02 85.23 C 415.57 101.65 407.99 119.62 398.86 136.71 C 387.76 149.36 368.75 142.72 354.01 143.94 C 327.13 139.65 300.09 146.45 273.14 143.87 C 267.07 142.23 265.18 135.00 261.01 130.84 C 255.65 119.10 249.83 107.56 244.20 95.95 C 237.97 84.81 226.83 61.69 211.06 71.21 C 207.39 72.51 204.49 75.11 201.93 77.93 C 201.89 72.53 207.41 70.68 211.25 68.16 Z" />
</g>
<g id="#c6972fff">
<path fill="#c6972f" opacity="1.00" d=" M 432.67 73.67 C 438.54 64.99 452.03 64.57 459.02 72.12 C 466.02 79.50 471.52 88.07 477.85 96.00 C 485.98 122.87 488.78 150.88 488.03 179.00 C 488.93 193.80 483.77 212.36 496.25 223.74 C 507.73 232.63 511.24 251.46 527.31 253.77 C 540.74 257.15 534.59 275.77 542.54 284.39 C 555.93 297.29 555.54 316.90 560.33 333.52 C 562.98 348.49 573.59 366.49 561.81 379.80 C 558.17 383.44 545.05 381.57 548.17 389.58 C 550.82 407.14 554.92 424.70 552.71 442.53 C 556.27 449.02 556.79 458.52 547.08 459.13 C 549.20 434.76 547.98 410.16 541.50 386.49 C 536.49 371.51 556.23 381.84 560.81 372.57 C 562.65 347.74 552.06 324.61 545.88 301.12 C 537.22 277.05 517.46 260.48 502.67 240.27 C 495.68 230.05 480.07 221.52 483.69 206.95 C 482.57 163.85 488.68 114.19 461.17 77.82 C 455.34 68.69 441.95 64.59 433.69 73.60 L 432.67 73.67 Z" />
</g>
<g id="#e9b845ff">
<path fill="#e9b845" opacity="1.00" d=" M 185.58 94.58 C 189.85 83.15 195.67 65.15 211.25 68.16 C 207.41 70.68 201.89 72.53 201.93 77.93 C 174.90 117.89 181.55 169.96 180.81 215.86 C 179.61 220.11 177.17 223.94 173.79 226.79 C 155.87 247.90 135.80 267.90 122.82 292.72 C 113.12 316.76 102.89 341.76 103.98 368.20 C 103.99 379.88 118.88 372.63 124.28 377.89 C 116.31 405.31 113.71 433.59 115.88 462.09 C 104.76 446.86 110.17 425.43 112.24 408.18 C 114.49 399.73 122.07 379.83 105.84 381.08 C 100.10 376.46 93.75 369.89 93.35 361.81 C 92.26 349.25 100.13 339.07 105.24 328.28 C 107.67 300.71 122.41 274.28 141.37 254.35 C 150.50 248.65 148.12 232.72 160.13 231.11 C 166.02 228.14 168.61 220.90 174.06 217.07 C 178.28 197.65 173.00 177.59 175.83 157.93 C 176.16 136.23 181.14 115.77 185.58 94.58 Z" />
</g>
<g id="#a15e2bff">
<path fill="#a15e2b" opacity="1.00" d=" M 211.06 71.21 C 226.83 61.69 237.97 84.81 244.20 95.95 C 235.23 87.95 231.53 73.62 219.07 69.86 C 216.50 70.31 216.77 72.94 218.02 74.59 C 202.90 80.19 197.77 99.14 194.80 113.39 C 186.20 141.03 186.00 170.35 188.05 199.00 C 185.84 207.08 192.52 218.87 182.29 223.21 C 183.33 174.71 177.20 121.46 201.93 77.93 C 204.49 75.11 207.39 72.51 211.06 71.21 Z" />
</g>
<g id="#8e4d20ff">
<path fill="#8e4d20" opacity="1.00" d=" M 433.69 73.60 C 441.95 64.59 455.34 68.69 461.17 77.82 C 486.73 118.75 480.41 169.04 480.94 214.96 L 480.03 215.42 C 477.31 214.11 473.95 211.99 476.01 207.99 C 475.84 176.06 479.30 143.28 468.34 112.54 C 467.28 98.47 460.51 77.45 443.99 77.93 C 445.40 75.55 447.93 69.68 443.09 70.02 C 435.72 72.95 432.59 81.27 426.02 85.23 C 428.14 81.08 431.13 77.47 433.69 73.60 Z" />
</g>
<g id="#68312aff">
<path fill="#68312a" opacity="1.00" d=" M 218.02 74.59 C 216.77 72.94 216.50 70.31 219.07 69.86 C 231.53 73.62 235.23 87.95 244.20 95.95 C 249.83 107.56 255.65 119.10 261.01 130.84 C 261.90 135.15 264.44 138.85 265.95 142.95 C 254.77 145.61 251.94 159.76 240.99 164.03 C 237.26 168.80 235.79 163.16 233.74 160.89 C 232.84 151.71 231.75 142.30 228.16 133.73 C 224.45 121.84 226.01 109.22 222.92 97.23 C 220.80 89.80 221.32 81.40 218.02 74.59 Z" />
</g>
<g id="#64332aff">
<path fill="#64332a" opacity="1.00" d=" M 426.02 85.23 C 432.59 81.27 435.72 72.95 443.09 70.02 C 447.93 69.68 445.40 75.55 443.99 77.93 C 443.60 78.78 443.24 79.64 442.91 80.52 C 430.70 107.97 437.02 140.10 425.35 167.34 C 410.94 167.41 409.46 150.21 397.70 145.23 C 393.54 143.60 398.36 139.40 398.86 136.71 C 407.99 119.62 415.57 101.65 426.02 85.23 Z" />
</g>
<g id="#a5524aff">
<path fill="#a5524a" opacity="1.00" d=" M 194.80 113.39 C 197.77 99.14 202.90 80.19 218.02 74.59 C 221.32 81.40 220.80 89.80 222.92 97.23 C 221.26 94.78 220.70 90.03 217.15 89.98 C 208.72 95.73 206.09 106.35 203.60 115.61 C 194.63 135.98 195.74 159.50 197.91 181.07 C 205.80 188.30 218.29 178.90 227.91 177.94 C 232.72 177.15 231.96 171.59 232.16 167.84 C 234.45 176.30 243.93 173.52 250.62 175.29 C 275.15 175.99 299.43 180.95 324.04 181.49 C 329.22 181.42 333.12 187.06 331.95 192.02 C 331.66 241.15 332.87 293.06 331.22 340.83 C 339.44 346.49 350.01 345.03 359.22 347.85 C 346.12 349.06 333.51 341.75 320.46 345.54 C 302.44 349.78 281.44 348.14 267.79 362.77 C 251.39 375.76 238.74 394.95 237.34 416.26 C 239.47 401.24 228.16 412.59 226.14 419.04 C 219.84 430.95 204.80 439.24 208.38 454.60 C 206.33 465.86 209.13 477.32 206.49 488.46 C 201.56 497.05 209.12 507.32 202.65 514.69 C 193.79 517.19 193.30 532.28 183.25 530.85 C 177.01 518.50 165.15 509.73 162.25 495.67 C 148.65 484.78 156.52 462.37 140.97 453.96 C 140.25 451.95 138.88 449.89 139.69 447.70 C 146.60 416.72 149.21 384.99 154.79 353.81 C 158.52 337.50 176.39 331.10 181.60 315.80 C 183.47 300.93 181.65 285.68 183.91 270.95 C 187.89 265.48 198.47 264.56 195.81 255.22 C 191.68 244.64 191.24 231.45 181.85 223.70 L 182.29 223.21 C 192.52 218.87 185.84 207.08 188.05 199.00 C 186.00 170.35 186.20 141.03 194.80 113.39 Z" />
</g>
<g id="#8e413bff">
<path fill="#8e413b" opacity="1.00" d=" M 443.99 77.93 C 460.51 77.45 467.28 98.47 468.34 112.54 C 479.30 143.28 475.84 176.06 476.01 207.99 C 473.95 211.99 477.31 214.11 480.03 215.42 C 480.59 230.88 468.72 244.01 466.31 258.53 C 467.97 266.09 478.24 265.68 480.67 272.43 C 480.79 286.91 482.24 301.40 481.04 315.86 C 486.45 330.70 503.17 336.21 509.64 350.41 C 509.39 386.49 524.13 421.05 521.22 457.14 C 512.98 453.61 516.58 471.06 510.30 474.26 C 495.33 483.49 505.27 507.36 489.58 515.59 C 485.65 520.90 483.96 532.57 474.60 528.46 C 469.79 526.07 468.53 520.23 465.93 515.93 C 451.34 505.00 462.35 485.20 457.05 469.96 C 452.67 455.52 459.01 436.61 444.32 426.68 C 438.04 417.70 431.27 408.71 427.15 398.82 C 423.05 409.51 432.35 421.25 426.10 431.12 C 431.21 391.71 397.82 352.24 359.22 347.85 C 350.01 345.03 339.44 346.49 331.22 340.83 C 332.87 293.06 331.66 241.15 331.95 192.02 C 333.12 187.06 329.22 181.42 324.04 181.49 C 299.43 180.95 275.15 175.99 250.62 175.29 C 243.93 173.52 234.45 176.30 232.16 167.84 C 230.91 156.46 227.60 145.28 228.16 133.73 C 231.75 142.30 232.84 151.71 233.74 160.89 C 231.23 166.01 235.79 172.46 241.67 169.80 C 247.69 161.95 256.27 156.61 260.29 147.20 C 273.65 145.73 285.16 156.91 298.92 151.87 C 308.93 153.36 319.33 146.79 328.94 150.90 C 334.21 159.87 323.92 176.45 335.43 181.70 C 366.17 180.97 395.60 175.47 425.66 173.64 C 430.34 171.68 429.36 164.78 431.87 160.74 C 432.05 165.12 428.82 169.49 431.29 173.67 C 433.45 180.11 442.14 177.01 446.96 180.03 C 452.45 180.48 461.78 187.78 465.41 180.34 C 467.71 159.10 464.88 137.51 459.20 116.97 C 458.82 107.45 453.97 98.23 446.59 92.29 C 443.31 90.98 441.42 94.95 439.98 97.19 C 437.49 90.27 453.62 83.27 442.91 80.52 C 443.24 79.64 443.60 78.78 443.99 77.93 Z" />
</g>
<g id="#be8233ff">
<path fill="#be8233" opacity="1.00" d=" M 180.81 215.86 C 181.55 169.96 174.90 117.89 201.93 77.93 C 177.20 121.46 183.33 174.71 182.29 223.21 L 181.85 223.70 C 181.13 224.42 180.43 225.14 179.72 225.86 C 177.74 226.15 175.76 226.45 173.79 226.79 C 177.17 223.94 179.61 220.11 180.81 215.86 Z" />
</g>
<g id="#b27736ff">
<path fill="#b27736" opacity="1.00" d=" M 461.17 77.82 C 488.68 114.19 482.57 163.85 483.69 206.95 C 480.07 221.52 495.68 230.05 502.67 240.27 C 517.46 260.48 537.22 277.05 545.88 301.12 C 552.06 324.61 562.65 347.74 560.81 372.57 C 556.23 381.84 536.49 371.51 541.50 386.49 C 547.98 410.16 549.20 434.76 547.08 459.13 C 539.50 466.03 521.18 455.92 518.79 470.75 C 518.25 471.59 517.71 472.44 517.17 473.28 C 516.69 467.88 520.12 463.31 521.18 458.18 C 523.76 447.06 538.06 460.47 542.06 452.01 C 548.09 428.29 541.78 403.40 536.87 379.94 C 537.31 367.52 557.74 379.10 556.30 365.55 C 561.53 354.08 550.86 343.68 550.82 332.14 C 545.50 320.44 544.45 306.56 537.01 295.99 C 528.21 289.41 532.21 272.26 519.24 271.74 C 514.24 257.99 502.09 249.65 494.58 237.25 C 492.17 232.51 487.88 229.10 483.28 226.64 C 482.74 222.69 482.01 218.79 480.94 214.96 C 480.41 169.04 486.73 118.75 461.17 77.82 Z" />
</g>
<g id="#81392fff">
<path fill="#81392f" opacity="1.00" d=" M 425.35 167.34 C 437.02 140.10 430.70 107.97 442.91 80.52 C 453.62 83.27 437.49 90.27 439.98 97.19 C 438.96 118.57 433.88 139.46 431.87 160.74 C 429.36 164.78 430.34 171.68 425.66 173.64 C 395.60 175.47 366.17 180.97 335.43 181.70 C 323.92 176.45 334.21 159.87 328.94 150.90 C 319.33 146.79 308.93 153.36 298.92 151.87 C 285.16 156.91 273.65 145.73 260.29 147.20 C 256.27 156.61 247.69 161.95 241.67 169.80 C 235.79 172.46 231.23 166.01 233.74 160.89 C 235.79 163.16 237.26 168.80 240.99 164.03 C 251.94 159.76 254.77 145.61 265.95 142.95 C 264.44 138.85 261.90 135.15 261.01 130.84 C 265.18 135.00 267.07 142.23 273.14 143.87 C 300.09 146.45 327.13 139.65 354.01 143.94 C 368.75 142.72 387.76 149.36 398.86 136.71 C 398.36 139.40 393.54 143.60 397.70 145.23 C 409.46 150.21 410.94 167.41 425.35 167.34 Z" />
</g>
<g id="#c3585fff">
<path fill="#c3585f" opacity="1.00" d=" M 203.60 115.61 C 206.09 106.35 208.72 95.73 217.15 89.98 C 220.70 90.03 221.26 94.78 222.92 97.23 C 226.01 109.22 224.45 121.84 228.16 133.73 C 227.60 145.28 230.91 156.46 232.16 167.84 C 231.96 171.59 232.72 177.15 227.91 177.94 C 218.29 178.90 205.80 188.30 197.91 181.07 C 195.74 159.50 194.63 135.98 203.60 115.61 M 217.35 95.23 C 201.03 118.67 198.84 150.70 201.68 178.32 C 212.29 178.99 234.54 176.65 229.51 159.79 C 223.59 139.38 227.84 112.14 217.35 95.23 Z" />
</g>
<g id="#b85056ff">
<path fill="#b85056" opacity="1.00" d=" M 439.98 97.19 C 441.42 94.95 443.31 90.98 446.59 92.29 C 453.97 98.23 458.82 107.45 459.20 116.97 C 464.88 137.51 467.71 159.10 465.41 180.34 C 461.78 187.78 452.45 180.48 446.96 180.03 C 442.14 177.01 433.45 180.11 431.29 173.67 C 428.82 169.49 432.05 165.12 431.87 160.74 C 433.88 139.46 438.96 118.57 439.98 97.19 M 445.30 95.22 C 443.73 95.89 442.11 96.88 441.60 98.62 C 438.34 119.37 437.26 140.61 432.91 160.98 C 427.84 177.04 445.82 174.96 455.02 179.02 C 462.45 181.97 464.62 173.99 462.59 168.80 C 461.70 144.35 462.15 113.48 445.30 95.22 Z" />
</g>
<g id="#ee697bff">
<path fill="#ee697b" opacity="1.00" d=" M 217.35 95.23 C 227.84 112.14 223.59 139.38 229.51 159.79 C 234.54 176.65 212.29 178.99 201.68 178.32 C 198.84 150.70 201.03 118.67 217.35 95.23 Z" />
</g>
<g id="#ee687aff">
<path fill="#ee687a" opacity="1.00" d=" M 445.30 95.22 C 462.15 113.48 461.70 144.35 462.59 168.80 C 464.62 173.99 462.45 181.97 455.02 179.02 C 445.82 174.96 427.84 177.04 432.91 160.98 C 437.26 140.61 438.34 119.37 441.60 98.62 C 442.11 96.88 443.73 95.89 445.30 95.22 Z" />
</g>
<g id="#c5a317ff">
<path fill="#c5a317" opacity="1.00" d=" M 477.85 96.00 C 482.46 95.05 483.78 99.92 486.29 102.74 C 538.24 157.07 589.99 211.88 642.86 265.23 C 672.00 390.78 612.20 530.05 503.04 598.11 C 414.70 655.51 297.19 665.49 201.03 622.01 C 199.76 613.79 193.45 607.84 190.80 600.15 C 164.68 554.84 141.36 507.73 115.88 462.09 C 122.53 469.25 132.54 465.04 140.62 468.38 C 145.74 478.01 143.00 490.54 150.79 499.21 C 153.76 514.63 166.92 524.45 173.92 538.11 C 177.50 546.87 189.18 544.99 196.87 545.97 C 202.91 542.45 196.59 523.39 209.00 529.02 C 226.69 544.19 249.24 551.00 267.38 565.60 C 279.43 563.52 282.90 575.33 294.01 575.98 C 306.66 588.78 328.79 599.70 345.50 589.61 C 366.95 589.94 377.49 566.80 397.21 563.23 C 400.39 556.42 407.66 557.80 413.61 555.53 C 422.64 547.29 433.08 541.41 444.59 537.48 C 447.42 531.25 457.87 524.51 461.82 533.13 C 464.03 544.40 477.77 551.21 487.82 545.83 C 494.57 537.08 491.43 522.47 504.30 518.26 C 507.55 505.89 519.46 496.01 517.81 482.30 C 517.35 478.39 518.12 474.56 518.79 470.75 C 521.18 455.92 539.50 466.03 547.08 459.13 C 556.79 458.52 556.27 449.02 552.71 442.53 C 554.92 424.70 550.82 407.14 548.17 389.58 C 545.05 381.57 558.17 383.44 561.81 379.80 C 573.59 366.49 562.98 348.49 560.33 333.52 C 555.54 316.90 555.93 297.29 542.54 284.39 C 534.59 275.77 540.74 257.15 527.31 253.77 C 511.24 251.46 507.73 232.63 496.25 223.74 C 483.77 212.36 488.93 193.80 488.03 179.00 C 488.78 150.88 485.98 122.87 477.85 96.00 Z" />
</g>
<g id="#e4c844ff">
<path fill="#e4c844" opacity="1.00" d=" M 10.10 312.14 C 12.68 232.46 49.51 154.71 107.02 99.91 C 110.61 112.26 91.22 112.07 90.15 123.03 C 89.49 134.12 75.46 134.42 72.04 143.98 C 63.95 153.64 66.05 168.70 54.53 175.75 C 40.52 185.04 43.19 204.35 31.83 215.60 C 32.77 233.75 21.55 248.77 18.08 265.98 C 17.96 281.76 16.50 297.61 10.10 312.14 Z" />
</g>
<g id="#a35348ff">
<path fill="#a35348" opacity="1.00" d=" M 480.03 215.42 L 480.94 214.96 C 482.01 218.79 482.74 222.69 483.28 226.64 C 476.12 235.25 475.64 247.11 468.98 256.05 C 469.50 265.20 481.71 265.16 485.90 272.13 C 498.66 281.78 513.43 288.84 525.78 299.15 C 529.80 311.39 538.50 321.87 540.12 334.97 C 547.21 344.32 547.40 357.46 556.30 365.55 C 557.74 379.10 537.31 367.52 536.87 379.94 C 541.78 403.40 548.09 428.29 542.06 452.01 C 538.06 460.47 523.76 447.06 521.18 458.18 L 521.22 457.14 C 524.13 421.05 509.39 386.49 509.64 350.41 C 503.17 336.21 486.45 330.70 481.04 315.86 C 482.24 301.40 480.79 286.91 480.67 272.43 C 478.24 265.68 467.97 266.09 466.31 258.53 C 468.72 244.01 480.59 230.88 480.03 215.42 Z" />
</g>
<g id="#b46a60ff">
<path fill="#b46a60" opacity="1.00" d=" M 179.72 225.86 C 180.43 225.14 181.13 224.42 181.85 223.70 C 191.24 231.45 191.68 244.64 195.81 255.22 C 198.47 264.56 187.89 265.48 183.91 270.95 C 181.65 285.68 183.47 300.93 181.60 315.80 C 176.39 331.10 158.52 337.50 154.79 353.81 C 149.21 384.99 146.60 416.72 139.69 447.70 C 138.88 449.89 140.25 451.95 140.97 453.96 C 140.98 454.49 140.99 455.55 141.00 456.08 C 138.22 450.08 130.31 449.67 127.57 455.86 C 112.00 457.56 119.62 434.78 118.03 425.99 C 121.03 412.26 119.60 396.60 128.11 385.02 C 127.67 382.30 125.84 380.07 124.28 377.89 C 118.88 372.63 103.99 379.88 103.98 368.20 C 110.09 365.38 108.72 357.99 112.17 353.15 C 123.28 336.63 128.30 317.09 137.87 299.78 C 150.78 286.51 170.37 282.08 182.38 267.46 C 187.56 263.09 199.25 258.51 190.86 251.12 C 187.38 242.75 187.88 231.99 179.72 225.86 Z" />
</g>
<g id="#c27f6eff">
<path fill="#c27f6e" opacity="1.00" d=" M 173.79 226.79 C 175.76 226.45 177.74 226.15 179.72 225.86 C 187.88 231.99 187.38 242.75 190.86 251.12 C 199.25 258.51 187.56 263.09 182.38 267.46 C 170.37 282.08 150.78 286.51 137.87 299.78 C 128.30 317.09 123.28 336.63 112.17 353.15 C 108.72 357.99 110.09 365.38 103.98 368.20 C 102.89 341.76 113.12 316.76 122.82 292.72 C 135.80 267.90 155.87 247.90 173.79 226.79 Z" />
</g>
<g id="#b46960ff">
<path fill="#b46960" opacity="1.00" d=" M 483.28 226.64 C 487.88 229.10 492.17 232.51 494.58 237.25 C 502.09 249.65 514.24 257.99 519.24 271.74 C 532.21 272.26 528.21 289.41 537.01 295.99 C 544.45 306.56 545.50 320.44 550.82 332.14 C 550.86 343.68 561.53 354.08 556.30 365.55 C 547.40 357.46 547.21 344.32 540.12 334.97 C 538.50 321.87 529.80 311.39 525.78 299.15 C 513.43 288.84 498.66 281.78 485.90 272.13 C 481.71 265.16 469.50 265.20 468.98 256.05 C 475.64 247.11 476.12 235.25 483.28 226.64 Z" />
</g>
<g id="#c49278ff">
<path fill="#c49278" opacity="1.00" d=" M 320.46 345.54 C 333.51 341.75 346.12 349.06 359.22 347.85 C 397.82 352.24 431.21 391.71 426.10 431.12 C 422.31 445.76 414.01 458.44 399.98 464.91 C 395.23 467.28 389.33 470.97 384.02 467.92 C 370.75 458.02 373.32 482.63 360.13 481.07 C 348.61 480.02 338.24 489.01 326.68 486.35 C 315.72 482.48 301.97 482.56 292.87 475.19 C 293.82 459.91 279.50 468.23 271.17 467.83 C 264.56 464.83 258.52 460.70 251.74 458.07 C 240.47 447.89 235.39 431.04 237.34 416.26 C 238.74 394.95 251.39 375.76 267.79 362.77 C 281.44 348.14 302.44 349.78 320.46 345.54 M 286.13 353.27 C 255.17 368.76 227.61 407.99 244.21 442.84 C 247.09 456.89 262.15 461.12 273.33 466.70 C 291.43 461.25 311.30 456.43 327.45 446.41 C 325.60 430.64 308.35 426.83 294.87 426.22 C 281.75 426.05 266.09 412.31 275.00 398.98 C 300.34 364.07 360.98 363.85 387.35 397.66 C 395.53 407.78 387.52 421.44 376.13 424.21 C 363.41 430.58 343.63 423.87 337.00 439.95 C 336.19 442.34 335.12 444.63 334.13 446.95 C 352.57 455.12 370.73 462.40 389.90 466.86 C 398.32 462.45 408.76 459.13 414.62 451.51 C 434.59 422.89 419.82 383.42 393.76 364.23 C 377.35 347.96 353.08 351.54 332.42 346.50 C 316.80 346.82 301.74 352.49 286.13 353.27 M 300.44 379.47 C 289.58 386.42 275.63 394.71 274.13 408.91 C 279.62 428.70 304.61 423.63 319.56 429.43 C 324.44 434.53 330.12 452.60 337.00 439.95 C 343.41 415.68 380.71 434.38 388.94 410.89 C 389.93 397.45 376.85 389.65 367.82 382.20 C 346.69 372.33 322.52 373.36 300.44 379.47 Z" />
</g>
<g id="#f4c5a7ff">
<path fill="#f4c5a7" opacity="1.00" d=" M 286.13 353.27 C 301.74 352.49 316.80 346.82 332.42 346.50 C 353.08 351.54 377.35 347.96 393.76 364.23 C 419.82 383.42 434.59 422.89 414.62 451.51 C 408.76 459.13 398.32 462.45 389.90 466.86 C 370.73 462.40 352.57 455.12 334.13 446.95 C 335.12 444.63 336.19 442.34 337.00 439.95 C 343.63 423.87 363.41 430.58 376.13 424.21 C 387.52 421.44 395.53 407.78 387.35 397.66 C 360.98 363.85 300.34 364.07 275.00 398.98 C 266.09 412.31 281.75 426.05 294.87 426.22 C 308.35 426.83 325.60 430.64 327.45 446.41 C 311.30 456.43 291.43 461.25 273.33 466.70 C 262.15 461.12 247.09 456.89 244.21 442.84 C 227.61 407.99 255.17 368.76 286.13 353.27 Z" />
</g>
<g id="#715142ff">
<path fill="#715142" opacity="1.00" d=" M 300.44 379.47 C 322.52 373.36 346.69 372.33 367.82 382.20 C 376.85 389.65 389.93 397.45 388.94 410.89 C 380.71 434.38 343.41 415.68 337.00 439.95 C 330.12 452.60 324.44 434.53 319.56 429.43 C 304.61 423.63 279.62 428.70 274.13 408.91 C 275.63 394.71 289.58 386.42 300.44 379.47 M 328.47 376.49 C 319.44 378.47 310.11 379.22 301.16 381.23 C 290.60 388.39 273.07 397.81 277.58 413.39 C 289.30 431.09 320.36 415.70 327.94 438.02 C 333.01 448.46 339.02 432.99 341.75 427.75 C 355.12 421.65 372.24 425.72 384.22 416.26 C 391.19 404.97 381.11 394.82 373.09 387.82 C 360.01 379.22 343.79 376.44 328.47 376.49 Z" />
</g>
<g id="#26100eff">
<path fill="#26100e" opacity="1.00" d=" M 328.47 376.49 C 343.79 376.44 360.01 379.22 373.09 387.82 C 381.11 394.82 391.19 404.97 384.22 416.26 C 372.24 425.72 355.12 421.65 341.75 427.75 C 339.02 432.99 333.01 448.46 327.94 438.02 C 320.36 415.70 289.30 431.09 277.58 413.39 C 273.07 397.81 290.60 388.39 301.16 381.23 C 310.11 379.22 319.44 378.47 328.47 376.49 Z" />
</g>
<g id="#c39331ff">
<path fill="#c39331" opacity="1.00" d=" M 124.28 377.89 C 125.84 380.07 127.67 382.30 128.11 385.02 C 119.60 396.60 121.03 412.26 118.03 425.99 C 119.62 434.78 112.00 457.56 127.57 455.86 C 130.31 449.67 138.22 450.08 141.00 456.08 C 150.90 486.57 162.04 518.54 185.58 541.44 C 196.00 540.64 195.24 520.94 205.41 520.50 C 246.65 544.05 287.22 570.02 330.20 590.02 C 346.66 586.48 360.33 574.51 375.63 567.49 C 399.87 554.42 423.40 540.23 446.99 526.05 C 451.47 523.39 455.66 519.20 461.43 520.26 C 466.15 527.22 469.71 534.92 474.33 541.92 C 480.15 544.15 481.19 537.19 484.31 534.27 C 499.91 516.67 507.47 494.22 517.17 473.28 C 517.71 472.44 518.25 471.59 518.79 470.75 C 518.12 474.56 517.35 478.39 517.81 482.30 C 519.46 496.01 507.55 505.89 504.30 518.26 C 491.43 522.47 494.57 537.08 487.82 545.83 C 477.77 551.21 464.03 544.40 461.82 533.13 C 457.87 524.51 447.42 531.25 444.59 537.48 C 433.08 541.41 422.64 547.29 413.61 555.53 C 407.66 557.80 400.39 556.42 397.21 563.23 C 377.49 566.80 366.95 589.94 345.50 589.61 C 328.79 599.70 306.66 588.78 294.01 575.98 C 282.90 575.33 279.43 563.52 267.38 565.60 C 249.24 551.00 226.69 544.19 209.00 529.02 C 196.59 523.39 202.91 542.45 196.87 545.97 C 189.18 544.99 177.50 546.87 173.92 538.11 C 166.92 524.45 153.76 514.63 150.79 499.21 C 143.00 490.54 145.74 478.01 140.62 468.38 C 132.54 465.04 122.53 469.25 115.88 462.09 C 113.71 433.59 116.31 405.31 124.28 377.89 Z" />
</g>
<g id="#7f3733ff">
<path fill="#7f3733" opacity="1.00" d=" M 427.15 398.82 C 431.27 408.71 438.04 417.70 444.32 426.68 C 459.01 436.61 452.67 455.52 457.05 469.96 C 462.35 485.20 451.34 505.00 465.93 515.93 C 450.36 511.74 438.54 523.89 427.34 532.28 C 410.74 537.28 400.71 553.71 382.81 554.74 C 370.12 563.73 356.51 571.50 342.93 578.89 C 338.88 585.61 330.75 582.22 324.80 580.43 C 333.12 579.79 336.70 569.61 331.99 563.05 C 329.53 543.23 331.45 521.55 331.80 502.24 C 326.53 495.75 332.81 490.58 339.13 489.25 C 349.52 485.63 360.59 484.09 370.66 479.49 C 374.53 476.28 372.70 469.07 377.94 467.03 C 385.09 471.16 394.85 472.98 399.98 464.91 C 414.01 458.44 422.31 445.76 426.10 431.12 C 432.35 421.25 423.05 409.51 427.15 398.82 Z" />
</g>
<g id="#8d423aff">
<path fill="#8d423a" opacity="1.00" d=" M 226.14 419.04 C 228.16 412.59 239.47 401.24 237.34 416.26 C 235.39 431.04 240.47 447.89 251.74 458.07 C 260.90 464.76 273.11 474.85 284.52 466.50 C 291.78 465.00 287.65 476.74 293.16 478.84 C 304.58 483.42 316.87 485.44 328.45 489.51 C 339.43 489.23 349.66 483.98 360.13 481.07 C 373.32 482.63 370.75 458.02 384.02 467.92 C 389.33 470.97 395.23 467.28 399.98 464.91 C 394.85 472.98 385.09 471.16 377.94 467.03 C 372.70 469.07 374.53 476.28 370.66 479.49 C 360.59 484.09 349.52 485.63 339.13 489.25 C 332.81 490.58 326.53 495.75 331.80 502.24 C 331.45 521.55 329.53 543.23 331.99 563.05 C 336.70 569.61 333.12 579.79 324.80 580.43 C 311.76 577.72 301.62 559.37 287.68 564.92 C 273.46 553.92 255.57 548.83 241.73 537.20 C 227.47 531.78 216.12 521.49 202.65 514.69 C 209.12 507.32 201.56 497.05 206.49 488.46 C 209.13 477.32 206.33 465.86 208.38 454.60 C 204.80 439.24 219.84 430.95 226.14 419.04 Z" />
</g>
<g id="#a1642aff">
<path fill="#a1642a" opacity="1.00" d=" M 140.97 453.96 C 156.52 462.37 148.65 484.78 162.25 495.67 C 165.15 509.73 177.01 518.50 183.25 530.85 C 193.30 532.28 193.79 517.19 202.65 514.69 C 216.12 521.49 227.47 531.78 241.73 537.20 C 255.57 548.83 273.46 553.92 287.68 564.92 C 301.43 573.99 316.84 580.38 330.20 590.02 C 287.22 570.02 246.65 544.05 205.41 520.50 C 195.24 520.94 196.00 540.64 185.58 541.44 C 162.04 518.54 150.90 486.57 141.00 456.08 C 140.99 455.55 140.98 454.49 140.97 453.96 Z" />
</g>
<g id="#894c1bff">
<path fill="#894c1b" opacity="1.00" d=" M 510.30 474.26 C 516.58 471.06 512.98 453.61 521.22 457.14 L 521.18 458.18 C 520.12 463.31 516.69 467.88 517.17 473.28 C 507.47 494.22 499.91 516.67 484.31 534.27 C 481.19 537.19 480.15 544.15 474.33 541.92 C 469.71 534.92 466.15 527.22 461.43 520.26 C 455.66 519.20 451.47 523.39 446.99 526.05 C 423.40 540.23 399.87 554.42 375.63 567.49 C 360.33 574.51 346.66 586.48 330.20 590.02 C 316.84 580.38 301.43 573.99 287.68 564.92 C 301.62 559.37 311.76 577.72 324.80 580.43 C 330.75 582.22 338.88 585.61 342.93 578.89 C 356.51 571.50 370.12 563.73 382.81 554.74 C 400.71 553.71 410.74 537.28 427.34 532.28 C 438.54 523.89 450.36 511.74 465.93 515.93 C 468.53 520.23 469.79 526.07 474.60 528.46 C 483.96 532.57 485.65 520.90 489.58 515.59 C 505.27 507.36 495.33 483.49 510.30 474.26 Z" />
</g>
<g id="#a86a57ff">
<path fill="#a86a57" opacity="1.00" d=" M 251.74 458.07 C 258.52 460.70 264.56 464.83 271.17 467.83 C 279.50 468.23 293.82 459.91 292.87 475.19 C 301.97 482.56 315.72 482.48 326.68 486.35 C 338.24 489.01 348.61 480.02 360.13 481.07 C 349.66 483.98 339.43 489.23 328.45 489.51 C 316.87 485.44 304.58 483.42 293.16 478.84 C 287.65 476.74 291.78 465.00 284.52 466.50 C 273.11 474.85 260.90 464.76 251.74 458.07 Z" />
</g>
</svg>
