<?xml version="1.0" encoding="UTF-8" ?>
<!DOCTYPE svg PUBLIC "-//W3C//DTD SVG 1.1//EN" "http://www.w3.org/Graphics/SVG/1.1/DTD/svg11.dtd">
<svg width="660pt" height="660pt" viewBox="0 0 660 660" version="1.1" xmlns="http://www.w3.org/2000/svg">
<g id="#ffffffff">
</g>
<g id="#4e93dbff">
<path fill="#4e93db" opacity="1.00" d=" M 309.00 10.92 C 440.91 -0.14 573.69 81.66 624.20 203.86 C 646.14 255.53 655.66 314.82 646.63 369.52 C 634.12 357.24 626.59 341.15 614.91 328.18 C 610.19 305.21 594.74 285.86 578.33 269.60 C 571.62 255.81 555.36 248.87 553.53 232.37 C 540.39 226.57 534.43 212.56 529.72 200.22 C 517.02 194.01 514.93 179.95 507.20 169.84 C 498.16 165.49 497.74 151.81 485.98 153.06 C 481.20 137.90 460.84 141.55 448.87 145.87 C 442.33 145.90 427.04 142.11 429.73 132.71 C 434.94 124.10 420.18 128.24 416.37 124.69 C 408.46 112.84 391.72 116.83 382.75 106.21 C 351.34 97.79 314.16 87.50 284.43 107.51 C 267.51 109.89 256.60 124.09 240.38 128.48 C 230.24 131.38 224.24 143.59 212.95 142.91 C 204.30 141.66 194.51 144.47 186.94 139.19 C 173.72 143.45 167.49 156.55 159.86 166.95 C 150.33 179.83 140.15 192.62 132.66 206.65 C 133.88 212.96 128.18 213.44 124.27 215.39 C 114.60 233.74 103.12 251.73 88.00 265.96 C 83.82 279.70 68.76 283.92 59.82 293.75 C 52.81 306.84 50.44 321.53 46.52 335.55 C 48.69 366.56 42.12 399.59 53.13 428.90 C 65.62 437.84 55.21 454.39 64.15 463.95 C 68.69 464.30 73.50 464.72 74.95 470.09 C 83.63 483.45 95.02 495.21 111.18 498.73 C 125.01 509.64 143.79 509.93 160.63 507.66 C 174.39 509.43 187.85 496.62 187.62 482.86 C 188.12 470.42 191.02 458.27 192.77 446.00 C 189.57 422.48 191.81 398.63 189.95 375.00 C 191.62 368.12 189.92 359.64 194.56 353.88 C 205.86 381.10 208.57 410.89 221.66 437.34 C 227.01 453.96 214.34 468.20 208.81 482.87 C 205.46 507.49 199.13 534.40 210.06 557.97 C 212.60 563.52 218.35 565.88 224.00 567.08 C 248.19 592.68 269.51 620.82 293.21 646.83 C 174.48 634.86 66.85 550.03 27.75 437.19 C 3.34 369.19 2.53 292.86 26.68 224.65 C 66.82 105.38 183.17 16.85 309.00 10.92 Z" />
</g>
<g id="#648bbfff">
<path fill="#648bbf" opacity="1.00" d=" M 284.43 107.51 C 314.16 87.50 351.34 97.79 382.75 106.21 C 391.72 116.83 408.46 112.84 416.37 124.69 C 420.18 128.24 434.94 124.10 429.73 132.71 C 427.04 142.11 442.33 145.90 448.87 145.87 C 460.84 141.55 481.20 137.90 485.98 153.06 C 497.74 151.81 498.16 165.49 507.20 169.84 C 514.93 179.95 517.02 194.01 529.72 200.22 C 534.43 212.56 540.39 226.57 553.53 232.37 C 555.36 248.87 571.62 255.81 578.33 269.60 C 594.74 285.86 610.19 305.21 614.91 328.18 L 614.06 327.86 C 600.72 299.31 579.32 276.52 558.08 253.85 C 540.43 229.90 524.68 204.70 507.73 180.31 C 497.78 167.82 489.01 152.57 473.05 146.98 C 462.01 144.28 450.64 148.30 441.13 153.77 C 433.84 148.09 428.79 139.93 423.62 132.39 C 406.47 121.85 387.60 114.58 369.07 106.84 C 366.49 106.05 363.32 103.67 360.79 105.85 C 360.39 106.11 359.59 106.62 359.20 106.87 C 351.54 102.45 341.72 103.06 333.05 102.01 C 323.99 100.49 314.68 102.47 306.05 105.06 C 305.03 105.65 304.07 106.31 303.09 106.96 C 298.61 103.01 293.34 106.74 289.29 109.28 C 271.07 114.23 254.27 123.53 238.30 133.30 C 231.15 137.58 228.07 158.90 217.93 150.10 C 202.87 142.60 183.67 145.59 172.25 158.20 C 137.88 199.74 114.27 249.61 75.34 287.40 C 60.59 305.13 51.62 327.69 50.65 350.77 C 48.23 399.89 56.36 456.74 99.20 487.71 C 115.76 498.99 135.76 506.28 156.00 505.12 C 169.48 507.45 183.98 495.91 183.95 482.01 C 194.28 425.25 182.65 367.34 183.13 310.06 C 183.99 295.18 188.67 280.37 196.08 267.51 C 198.03 304.22 193.54 342.08 206.57 377.39 C 210.45 383.28 207.54 396.45 216.00 398.35 C 214.10 413.70 228.17 426.17 227.29 441.81 C 231.56 463.34 213.11 479.82 211.07 500.04 C 213.28 516.99 209.01 534.49 212.92 551.08 C 220.61 557.16 230.35 566.37 240.96 564.02 L 240.60 564.74 C 240.00 565.55 239.40 566.36 238.79 567.17 C 233.48 568.25 217.86 556.79 224.00 567.08 C 218.35 565.88 212.60 563.52 210.06 557.97 C 199.13 534.40 205.46 507.49 208.81 482.87 C 214.34 468.20 227.01 453.96 221.66 437.34 C 208.57 410.89 205.86 381.10 194.56 353.88 C 189.92 359.64 191.62 368.12 189.95 375.00 C 191.81 398.63 189.57 422.48 192.77 446.00 C 191.02 458.27 188.12 470.42 187.62 482.86 C 187.85 496.62 174.39 509.43 160.63 507.66 C 143.79 509.93 125.01 509.64 111.18 498.73 C 95.02 495.21 83.63 483.45 74.95 470.09 C 73.50 464.72 68.69 464.30 64.15 463.95 C 55.21 454.39 65.62 437.84 53.13 428.90 C 42.12 399.59 48.69 366.56 46.52 335.55 C 50.44 321.53 52.81 306.84 59.82 293.75 C 68.76 283.92 83.82 279.70 88.00 265.96 C 103.12 251.73 114.60 233.74 124.27 215.39 C 128.18 213.44 133.88 212.96 132.66 206.65 C 140.15 192.62 150.33 179.83 159.86 166.95 C 167.49 156.55 173.72 143.45 186.94 139.19 C 194.51 144.47 204.30 141.66 212.95 142.91 C 224.24 143.59 230.24 131.38 240.38 128.48 C 256.60 124.09 267.51 109.89 284.43 107.51 Z" />
</g>
<g id="#f4c5a6ff">
<path fill="#f4c5a6" opacity="1.00" d=" M 306.05 105.06 C 314.68 102.47 323.99 100.49 333.05 102.01 C 328.34 197.89 334.74 294.11 331.07 390.08 C 330.01 393.74 335.87 398.86 331.04 401.07 C 320.04 403.19 307.93 404.48 299.11 412.14 C 295.53 415.17 292.03 418.33 288.94 421.88 C 283.81 425.58 286.86 434.05 280.97 436.95 C 263.48 449.35 248.03 464.98 230.00 476.09 C 238.61 448.31 235.03 417.46 219.80 392.66 C 236.61 357.79 260.37 327.00 278.92 293.12 C 297.81 266.75 297.25 232.97 300.01 202.01 C 302.60 169.77 301.18 136.94 306.05 105.06 Z" />
</g>
<g id="#d8a789ff">
<path fill="#d8a789" opacity="1.00" d=" M 333.05 102.01 C 341.72 103.06 351.54 102.45 359.20 106.87 C 361.48 151.56 362.30 196.37 367.21 240.83 C 371.33 286.30 403.64 321.57 425.22 359.85 C 430.98 370.62 437.66 380.88 443.21 391.76 C 443.69 411.10 428.35 428.42 430.84 448.05 C 429.92 458.74 441.15 469.31 436.25 479.17 C 419.13 462.86 399.13 450.00 381.17 434.73 C 377.47 426.39 373.95 414.30 363.85 411.99 C 344.17 398.18 319.34 401.63 299.11 412.14 C 307.93 404.48 320.04 403.19 331.04 401.07 C 335.87 398.86 330.01 393.74 331.07 390.08 C 334.74 294.11 328.34 197.89 333.05 102.01 Z" />
</g>
<g id="#5c698dff">
<path fill="#5c698d" opacity="1.00" d=" M 289.29 109.28 C 293.34 106.74 298.61 103.01 303.09 106.96 L 302.80 107.75 C 302.31 108.92 301.80 110.07 301.32 111.24 C 301.02 109.56 300.70 106.00 298.15 107.18 C 279.31 115.30 259.48 121.91 242.37 133.39 C 233.77 138.51 233.49 151.41 223.92 154.88 C 209.52 150.05 193.44 145.30 180.10 155.21 C 149.99 185.97 130.07 224.99 104.28 259.22 C 96.53 271.79 83.46 280.15 75.08 292.04 C 49.62 325.96 48.99 371.86 55.99 412.02 C 64.05 456.10 98.08 498.66 144.96 502.27 C 148.53 502.07 153.67 504.46 155.28 500.07 L 156.03 499.98 L 156.07 500.95 C 156.05 502.33 156.03 503.72 156.00 505.12 C 135.76 506.28 115.76 498.99 99.20 487.71 C 56.36 456.74 48.23 399.89 50.65 350.77 C 51.62 327.69 60.59 305.13 75.34 287.40 C 114.27 249.61 137.88 199.74 172.25 158.20 C 183.67 145.59 202.87 142.60 217.93 150.10 C 228.07 158.90 231.15 137.58 238.30 133.30 C 254.27 123.53 271.07 114.23 289.29 109.28 Z" />
</g>
<g id="#cb9e8eff">
<path fill="#cb9e8e" opacity="1.00" d=" M 303.09 106.96 C 304.07 106.31 305.03 105.65 306.05 105.06 C 301.18 136.94 302.60 169.77 300.01 202.01 C 297.25 232.97 297.81 266.75 278.92 293.12 C 289.44 273.45 295.19 251.74 296.32 229.32 C 299.34 188.84 302.18 148.32 302.80 107.75 L 303.09 106.96 Z" />
</g>
<g id="#555e7cff">
<path fill="#555e7c" opacity="1.00" d=" M 360.79 105.85 C 363.32 103.67 366.49 106.05 369.07 106.84 C 387.60 114.58 406.47 121.85 423.62 132.39 C 428.79 139.93 433.84 148.09 441.13 153.77 C 450.64 148.30 462.01 144.28 473.05 146.98 C 489.01 152.57 497.78 167.82 507.73 180.31 C 524.68 204.70 540.43 229.90 558.08 253.85 C 569.90 275.06 592.63 288.26 602.20 310.95 C 616.65 334.09 612.58 362.53 612.60 388.52 C 611.48 408.99 605.01 428.30 599.76 447.85 C 586.69 466.70 571.50 484.92 550.99 495.96 C 536.24 500.89 520.67 507.10 504.89 505.19 C 505.28 504.22 505.68 503.24 506.07 502.27 C 506.20 501.95 506.47 501.32 506.61 501.00 C 519.95 508.10 536.23 497.70 549.87 493.85 C 570.52 482.87 585.57 464.35 598.08 445.03 C 608.26 413.24 614.57 379.20 609.15 345.87 C 607.08 329.51 603.86 312.45 592.04 299.97 C 575.69 278.42 556.68 258.80 542.14 235.94 C 521.26 210.21 506.69 179.37 483.25 155.68 C 475.14 151.79 466.10 148.01 457.07 151.18 C 449.99 153.57 441.34 157.76 434.74 152.20 C 430.26 147.41 426.31 142.18 423.73 136.14 C 405.01 123.44 383.57 114.33 362.06 107.84 C 361.74 107.34 361.11 106.35 360.79 105.85 Z" />
</g>
<g id="#9a6c5cff">
<path fill="#9a6c5c" opacity="1.00" d=" M 359.20 106.87 C 359.59 106.62 360.39 106.11 360.79 105.85 C 361.11 106.35 361.74 107.34 362.06 107.84 C 362.85 126.14 362.41 144.51 364.20 162.76 C 365.17 197.25 367.25 231.94 374.11 265.83 C 391.76 310.77 424.42 347.84 445.00 391.27 C 445.36 392.46 445.73 393.66 446.11 394.86 L 445.25 394.78 C 444.56 393.77 443.84 392.79 443.21 391.76 C 437.66 380.88 430.98 370.62 425.22 359.85 C 403.64 321.57 371.33 286.30 367.21 240.83 C 362.30 196.37 361.48 151.56 359.20 106.87 Z" />
</g>
<g id="#514458ff">
<path fill="#514458" opacity="1.00" d=" M 242.37 133.39 C 259.48 121.91 279.31 115.30 298.15 107.18 C 300.70 106.00 301.02 109.56 301.32 111.24 C 301.26 111.72 301.14 112.67 301.08 113.15 C 300.01 112.27 299.17 109.51 297.48 110.42 C 287.19 116.16 274.91 117.73 266.04 125.99 C 252.79 129.23 234.47 137.15 238.31 153.31 C 234.56 155.65 229.56 155.50 225.21 156.21 C 211.13 158.44 197.70 148.17 184.87 156.89 C 166.85 171.04 154.04 191.36 143.54 211.54 C 136.93 213.07 133.89 218.14 133.96 225.05 C 117.78 245.22 104.65 268.00 86.63 286.65 C 73.58 290.09 78.51 307.33 69.04 314.15 C 64.91 317.18 64.84 322.89 63.13 327.26 C 54.43 335.69 60.07 348.47 58.95 359.13 C 49.62 388.53 66.74 415.12 69.35 443.65 C 75.87 446.62 73.26 455.83 79.10 458.95 C 86.87 460.78 93.33 465.12 96.04 472.98 C 105.42 488.57 125.01 493.19 140.80 497.47 C 145.33 496.61 150.42 503.15 153.30 496.98 C 153.99 497.99 154.63 499.02 155.28 500.07 C 153.67 504.46 148.53 502.07 144.96 502.27 C 98.08 498.66 64.05 456.10 55.99 412.02 C 48.99 371.86 49.62 325.96 75.08 292.04 C 83.46 280.15 96.53 271.79 104.28 259.22 C 130.07 224.99 149.99 185.97 180.10 155.21 C 193.44 145.30 209.52 150.05 223.92 154.88 C 233.49 151.41 233.77 138.51 242.37 133.39 Z" />
</g>
<g id="#a67769ff">
<path fill="#a67769" opacity="1.00" d=" M 301.32 111.24 C 301.80 110.07 302.31 108.92 302.80 107.75 C 302.18 148.32 299.34 188.84 296.32 229.32 C 295.19 251.74 289.44 273.45 278.92 293.12 C 260.37 327.00 236.61 357.79 219.80 392.66 C 219.62 392.98 219.26 393.63 219.09 393.95 C 218.57 394.24 217.54 394.83 217.02 395.12 C 217.07 394.66 217.17 393.76 217.22 393.31 C 217.66 391.91 218.14 390.53 218.61 389.14 C 229.59 367.85 242.51 347.69 255.79 327.79 C 269.78 301.97 290.01 277.78 292.36 247.33 C 295.19 226.98 297.39 206.43 296.97 185.86 C 299.60 161.71 300.36 137.41 301.08 113.15 C 301.14 112.67 301.26 111.72 301.32 111.24 Z" />
</g>
<g id="#50282aff">
<path fill="#50282a" opacity="1.00" d=" M 362.06 107.84 C 383.57 114.33 405.01 123.44 423.73 136.14 C 426.31 142.18 430.26 147.41 434.74 152.20 C 447.67 169.13 470.53 186.46 464.47 210.43 C 463.48 225.91 464.08 241.44 464.15 256.95 C 463.56 259.45 462.13 261.60 460.16 263.22 C 444.95 264.86 431.57 257.00 416.78 255.27 C 399.42 250.88 392.14 232.92 379.13 222.86 C 377.43 218.06 377.75 211.69 371.89 209.87 C 368.24 194.36 367.40 178.36 364.20 162.76 C 362.41 144.51 362.85 126.14 362.06 107.84 Z" />
</g>
<g id="#603333ff">
<path fill="#603333" opacity="1.00" d=" M 297.48 110.42 C 299.17 109.51 300.01 112.27 301.08 113.15 C 300.36 137.41 299.60 161.71 296.97 185.86 C 292.79 215.42 271.27 240.62 247.18 255.17 C 232.62 255.50 219.61 262.68 205.36 264.05 C 203.64 262.27 201.94 260.44 200.74 258.27 C 201.33 237.84 201.33 217.36 199.18 197.02 C 201.14 181.52 215.18 171.92 221.56 158.46 C 222.19 157.03 223.95 156.83 225.21 156.21 C 229.56 155.50 234.56 155.65 238.31 153.31 C 234.47 137.15 252.79 129.23 266.04 125.99 C 274.91 117.73 287.19 116.16 297.48 110.42 Z" />
</g>
<g id="#704042ff">
<path fill="#704042" opacity="1.00" d=" M 457.07 151.18 C 466.10 148.01 475.14 151.79 483.25 155.68 C 484.23 173.84 506.62 178.60 508.33 196.64 C 517.24 204.61 523.57 214.48 527.02 225.99 C 543.49 239.04 549.97 260.67 567.11 273.80 C 570.32 280.94 574.49 287.44 581.24 291.82 C 588.06 298.00 585.89 311.15 596.86 313.15 C 605.53 326.80 603.84 345.26 605.97 361.25 C 592.83 350.07 582.51 335.57 571.12 322.87 C 565.92 317.56 557.99 314.18 556.82 306.09 C 546.95 294.87 533.02 285.37 525.92 272.99 C 521.10 276.46 528.85 286.82 526.86 293.21 C 526.07 284.95 519.49 275.43 525.85 267.95 C 508.18 247.89 492.17 225.30 471.90 208.10 C 468.73 202.27 465.58 209.77 465.97 213.12 C 465.90 223.33 465.90 233.55 466.10 243.77 C 465.89 248.83 466.22 253.89 467.15 258.88 L 467.00 260.00 C 466.02 259.00 465.06 257.99 464.15 256.95 C 464.08 241.44 463.48 225.91 464.47 210.43 C 470.53 186.46 447.67 169.13 434.74 152.20 C 441.34 157.76 449.99 153.57 457.07 151.18 Z" />
</g>
<g id="#723f42ff">
<path fill="#723f42" opacity="1.00" d=" M 184.87 156.89 C 197.70 148.17 211.13 158.44 225.21 156.21 C 223.95 156.83 222.19 157.03 221.56 158.46 C 215.18 171.92 201.14 181.52 199.18 197.02 C 201.33 217.36 201.33 237.84 200.74 258.27 C 199.85 256.82 198.96 255.37 198.09 253.92 L 198.02 253.13 C 199.26 239.57 197.64 225.87 198.67 212.30 C 198.98 209.14 197.88 205.01 194.08 205.90 C 177.19 225.41 159.86 244.73 144.00 265.05 C 138.10 289.71 135.22 315.41 129.39 340.28 C 127.05 318.08 138.16 296.59 138.81 274.30 C 136.98 271.04 136.16 274.41 135.25 276.34 C 110.03 303.82 84.86 332.88 58.95 359.13 C 60.07 348.47 54.43 335.69 63.13 327.26 C 64.84 322.89 64.91 317.18 69.04 314.15 C 78.51 307.33 73.58 290.09 86.63 286.65 C 104.65 268.00 117.78 245.22 133.96 225.05 C 133.89 218.14 136.93 213.07 143.54 211.54 C 154.04 191.36 166.85 171.04 184.87 156.89 Z" />
</g>
<g id="#534456ff">
<path fill="#534456" opacity="1.00" d=" M 483.25 155.68 C 506.69 179.37 521.26 210.21 542.14 235.94 C 556.68 258.80 575.69 278.42 592.04 299.97 C 603.86 312.45 607.08 329.51 609.15 345.87 C 614.57 379.20 608.26 413.24 598.08 445.03 C 585.57 464.35 570.52 482.87 549.87 493.85 C 536.23 497.70 519.95 508.10 506.61 501.00 C 507.12 500.72 508.16 500.15 508.68 499.86 C 537.28 499.08 565.04 483.12 582.03 460.02 C 586.16 450.09 596.20 444.24 598.08 433.10 C 598.95 418.66 605.07 405.14 606.93 391.02 C 604.79 381.12 608.42 371.07 605.97 361.25 C 603.84 345.26 605.53 326.80 596.86 313.15 C 585.89 311.15 588.06 298.00 581.24 291.82 C 574.49 287.44 570.32 280.94 567.11 273.80 C 549.97 260.67 543.49 239.04 527.02 225.99 C 523.57 214.48 517.24 204.61 508.33 196.64 C 506.62 178.60 484.23 173.84 483.25 155.68 Z" />
</g>
<g id="#5e3333ff">
<path fill="#5e3333" opacity="1.00" d=" M 364.20 162.76 C 367.40 178.36 368.24 194.36 371.89 209.87 C 377.75 211.69 377.43 218.06 379.13 222.86 C 392.14 232.92 399.42 250.88 416.78 255.27 C 431.57 257.00 444.95 264.86 460.16 263.22 C 452.74 268.88 463.56 276.72 460.05 283.98 C 457.97 304.26 463.84 325.01 457.83 344.84 C 455.09 357.67 450.56 369.69 450.07 383.06 C 449.94 386.61 448.49 389.93 445.00 391.27 C 424.42 347.84 391.76 310.77 374.11 265.83 C 367.25 231.94 365.17 197.25 364.20 162.76 Z" />
</g>
<g id="#71403fff">
<path fill="#71403f" opacity="1.00" d=" M 247.18 255.17 C 271.27 240.62 292.79 215.42 296.97 185.86 C 297.39 206.43 295.19 226.98 292.36 247.33 C 290.01 277.78 269.78 301.97 255.79 327.79 C 242.51 347.69 229.59 367.85 218.61 389.14 C 211.60 373.61 213.15 354.68 204.98 339.05 C 203.21 314.20 203.33 288.84 205.36 264.05 C 219.61 262.68 232.62 255.50 247.18 255.17 Z" />
</g>
<g id="#b4515fff">
<path fill="#b4515f" opacity="1.00" d=" M 144.00 265.05 C 159.86 244.73 177.19 225.41 194.08 205.90 C 197.88 205.01 198.98 209.14 198.67 212.30 C 197.64 225.87 199.26 239.57 198.02 253.13 C 197.49 250.01 196.95 246.93 196.85 243.78 C 196.66 232.96 195.42 222.18 196.41 211.37 C 187.78 211.87 183.16 223.02 177.81 229.00 C 164.84 246.48 143.27 260.71 142.43 284.41 C 133.55 330.21 124.80 375.71 117.51 421.82 C 127.23 446.27 142.49 468.05 152.83 492.19 C 153.86 493.89 154.89 495.59 155.92 497.30 C 155.95 497.97 156.00 499.31 156.03 499.98 L 155.28 500.07 C 154.63 499.02 153.99 497.99 153.30 496.98 C 144.59 482.38 137.10 466.94 129.25 451.77 C 123.48 438.12 110.64 425.29 116.53 409.43 C 120.71 386.34 124.51 363.24 129.39 340.28 C 135.22 315.41 138.10 289.71 144.00 265.05 Z" />
</g>
<g id="#923b4bff">
<path fill="#923b4b" opacity="1.00" d=" M 465.97 213.12 C 465.58 209.77 468.73 202.27 471.90 208.10 C 492.17 225.30 508.18 247.89 525.85 267.95 C 519.49 275.43 526.07 284.95 526.86 293.21 C 534.55 336.41 541.79 379.84 550.01 422.98 C 542.51 443.38 528.00 460.61 519.86 480.81 C 518.57 488.37 512.97 493.86 508.68 499.86 C 508.16 500.15 507.12 500.72 506.61 501.00 C 506.67 500.28 506.78 498.83 506.84 498.11 C 508.11 495.99 509.70 494.10 511.23 492.17 C 512.35 490.76 512.77 488.95 513.32 487.27 C 523.83 466.23 536.75 446.32 545.39 424.36 C 547.58 414.07 542.94 404.15 541.96 393.99 C 533.40 351.39 528.49 307.50 517.06 265.80 C 502.76 246.95 487.13 229.19 471.70 211.29 C 469.60 209.02 467.56 211.74 465.97 213.12 Z" />
</g>
<g id="#c3536eff">
<path fill="#c3536e" opacity="1.00" d=" M 465.97 213.12 C 467.56 211.74 469.60 209.02 471.70 211.29 C 487.13 229.19 502.76 246.95 517.06 265.80 C 528.49 307.50 533.40 351.39 541.96 393.99 C 542.94 404.15 547.58 414.07 545.39 424.36 C 536.75 446.32 523.83 466.23 513.32 487.27 C 508.53 474.55 520.69 461.40 528.32 452.22 C 532.47 447.49 522.52 444.35 526.39 440.36 C 532.33 433.29 544.68 428.88 541.55 417.42 C 532.99 379.89 530.57 341.35 521.84 304.08 C 510.13 291.80 521.55 270.20 506.61 259.37 C 493.36 249.97 490.25 226.79 472.27 226.17 C 467.08 241.02 479.43 253.67 483.97 267.00 C 486.59 281.30 487.91 295.68 492.54 309.37 C 490.27 316.46 498.10 324.13 491.92 329.90 C 487.90 338.84 491.12 349.43 489.77 358.91 C 489.79 388.87 484.03 418.62 485.52 448.47 C 491.43 458.40 476.76 476.86 494.52 478.45 C 492.79 488.78 501.23 500.13 511.23 492.17 C 509.70 494.10 508.11 495.99 506.84 498.11 C 491.05 497.78 482.63 480.03 483.23 465.95 C 476.25 407.10 492.71 347.87 483.94 289.01 C 481.51 272.74 476.59 256.75 466.10 243.77 C 465.90 233.55 465.90 223.33 465.97 213.12 Z" />
</g>
<g id="#dd6e8cff">
<path fill="#dd6e8c" opacity="1.00" d=" M 177.81 229.00 C 183.16 223.02 187.78 211.87 196.41 211.37 C 195.42 222.18 196.66 232.96 196.85 243.78 C 169.27 289.16 175.48 344.55 180.83 395.05 C 181.93 426.05 186.01 458.74 174.30 488.36 C 171.64 495.81 163.08 498.39 155.92 497.30 C 154.89 495.59 153.86 493.89 152.83 492.19 C 159.80 494.43 169.62 493.05 171.88 484.90 C 190.84 424.97 166.68 362.03 172.96 300.97 C 176.50 288.35 178.35 275.28 181.66 262.69 C 190.22 252.45 192.46 238.41 192.47 225.61 C 188.43 217.65 182.76 227.85 177.81 229.00 Z" />
</g>
<g id="#f8657cff">
<path fill="#f8657c" opacity="1.00" d=" M 177.81 229.00 C 182.76 227.85 188.43 217.65 192.47 225.61 C 192.46 238.41 190.22 252.45 181.66 262.69 C 178.35 275.28 176.50 288.35 172.96 300.97 C 166.68 362.03 190.84 424.97 171.88 484.90 C 169.62 493.05 159.80 494.43 152.83 492.19 C 142.49 468.05 127.23 446.27 117.51 421.82 C 124.80 375.71 133.55 330.21 142.43 284.41 C 143.27 260.71 164.84 246.48 177.81 229.00 Z" />
</g>
<g id="#dc4b6bff">
<path fill="#dc4b6b" opacity="1.00" d=" M 472.27 226.17 C 490.25 226.79 493.36 249.97 506.61 259.37 C 521.55 270.20 510.13 291.80 521.84 304.08 C 530.57 341.35 532.99 379.89 541.55 417.42 C 544.68 428.88 532.33 433.29 526.39 440.36 C 522.52 444.35 532.47 447.49 528.32 452.22 C 520.69 461.40 508.53 474.55 513.32 487.27 C 512.77 488.95 512.35 490.76 511.23 492.17 C 501.23 500.13 492.79 488.78 494.52 478.45 C 476.76 476.86 491.43 458.40 485.52 448.47 C 484.03 418.62 489.79 388.87 489.77 358.91 C 491.12 349.43 487.90 338.84 491.92 329.90 C 498.10 324.13 490.27 316.46 492.54 309.37 C 487.91 295.68 486.59 281.30 483.97 267.00 C 479.43 253.67 467.08 241.02 472.27 226.17 Z" />
</g>
<g id="#b777a0ff">
<path fill="#b777a0" opacity="1.00" d=" M 180.83 395.05 C 175.48 344.55 169.27 289.16 196.85 243.78 C 196.95 246.93 197.49 250.01 198.02 253.13 L 198.09 253.92 C 198.01 254.58 197.87 255.90 197.79 256.56 C 189.52 260.69 189.08 273.02 184.86 280.90 C 177.47 309.44 178.79 339.09 182.89 368.03 C 182.51 402.90 187.57 437.91 182.59 472.62 C 180.71 486.35 173.37 505.17 156.07 500.95 L 156.03 499.98 C 156.00 499.31 155.95 497.97 155.92 497.30 C 163.08 498.39 171.64 495.81 174.30 488.36 C 186.01 458.74 181.93 426.05 180.83 395.05 Z" />
</g>
<g id="#a15e84ff">
<path fill="#a15e84" opacity="1.00" d=" M 466.10 243.77 C 476.59 256.75 481.51 272.74 483.94 289.01 C 492.71 347.87 476.25 407.10 483.23 465.95 C 482.63 480.03 491.05 497.78 506.84 498.11 C 506.78 498.83 506.67 500.28 506.61 501.00 C 506.47 501.32 506.20 501.95 506.07 502.27 C 498.70 501.79 491.30 498.06 486.33 492.65 C 463.63 427.30 493.24 358.81 481.69 292.20 C 477.57 280.70 475.98 268.12 467.15 258.88 C 466.22 253.89 465.89 248.83 466.10 243.77 Z" />
</g>
<g id="#59495eff">
<path fill="#59495e" opacity="1.00" d=" M 198.09 253.92 C 198.96 255.37 199.85 256.82 200.74 258.27 C 201.94 260.44 203.64 262.27 205.36 264.05 C 203.33 288.84 203.21 314.20 204.98 339.05 C 213.15 354.68 211.60 373.61 218.61 389.14 C 218.14 390.53 217.66 391.91 217.22 393.31 C 215.66 393.93 213.50 394.18 212.76 392.26 C 208.10 373.18 202.67 354.21 199.09 334.97 C 197.34 309.24 201.76 282.97 197.71 257.54 L 197.79 256.56 C 197.87 255.90 198.01 254.58 198.09 253.92 Z" />
</g>
<g id="#4e759bff">
<path fill="#4e759b" opacity="1.00" d=" M 558.08 253.85 C 579.32 276.52 600.72 299.31 614.06 327.86 C 619.78 346.74 618.16 367.02 617.39 386.45 C 610.60 399.37 616.58 415.01 610.49 428.54 C 606.62 436.72 604.19 445.35 602.00 454.08 C 593.83 458.62 590.38 467.20 585.63 474.70 C 575.56 483.61 565.37 492.75 554.08 500.05 C 535.37 505.92 515.93 510.17 496.14 507.81 C 482.10 502.69 473.84 487.67 473.51 473.35 C 467.48 437.49 475.02 400.88 471.00 364.99 C 471.08 361.97 467.87 357.81 465.16 361.14 C 460.40 374.25 459.73 388.54 457.18 402.15 C 449.39 415.11 443.32 429.27 440.03 443.99 C 438.40 459.05 454.09 466.33 455.91 480.01 C 463.26 497.74 455.37 515.81 458.21 533.83 C 458.50 537.98 464.59 542.74 460.12 546.11 C 451.71 554.29 450.70 572.26 434.24 567.75 C 423.74 564.11 406.49 571.43 402.22 557.85 C 398.82 548.84 386.94 552.12 381.59 557.55 C 356.11 565.51 328.02 556.03 301.87 560.86 C 295.91 563.48 286.01 567.47 283.01 558.99 C 279.51 548.27 266.09 551.11 259.89 557.77 C 253.58 562.58 248.00 571.15 238.79 567.17 C 239.40 566.36 240.00 565.55 240.60 564.74 C 255.12 563.41 261.88 538.85 277.31 547.74 C 292.04 560.15 312.17 557.11 329.94 557.83 C 346.89 554.82 365.97 561.55 381.09 551.07 C 388.11 544.77 399.89 543.55 405.76 552.24 C 413.93 564.63 432.35 569.45 444.10 559.17 C 457.46 550.41 450.23 532.99 452.05 520.00 C 449.99 507.72 454.79 494.02 448.24 482.70 C 439.67 471.71 437.32 457.44 436.06 443.93 C 437.74 427.80 446.39 413.24 448.33 397.29 C 458.93 376.34 462.24 351.58 466.29 328.38 C 466.55 309.83 464.60 291.30 466.15 272.76 C 465.61 280.94 474.85 280.07 475.70 287.29 C 487.37 318.72 479.63 352.62 476.89 384.94 C 471.73 411.97 474.71 439.64 476.10 466.84 C 479.49 482.87 484.11 506.12 504.89 505.19 C 520.67 507.10 536.24 500.89 550.99 495.96 C 571.50 484.92 586.69 466.70 599.76 447.85 C 605.01 428.30 611.48 408.99 612.60 388.52 C 612.58 362.53 616.65 334.09 602.20 310.95 C 592.63 288.26 569.90 275.06 558.08 253.85 Z" />
</g>
<g id="#8c80b4ff">
<path fill="#8c80b4" opacity="1.00" d=" M 184.86 280.90 C 189.08 273.02 189.52 260.69 197.79 256.56 L 197.71 257.54 C 196.78 260.79 196.30 264.13 196.08 267.51 C 188.67 280.37 183.99 295.18 183.13 310.06 C 182.65 367.34 194.28 425.25 183.95 482.01 C 183.98 495.91 169.48 507.45 156.00 505.12 C 156.03 503.72 156.05 502.33 156.07 500.95 C 173.37 505.17 180.71 486.35 182.59 472.62 C 187.57 437.91 182.51 402.90 182.89 368.03 C 178.79 339.09 177.47 309.44 184.86 280.90 Z" />
</g>
<g id="#474456ff">
<path fill="#474456" opacity="1.00" d=" M 464.15 256.95 C 465.06 257.99 466.02 259.00 467.00 260.00 C 466.50 264.23 465.84 268.49 466.15 272.76 C 464.60 291.30 466.55 309.83 466.29 328.38 C 462.24 351.58 458.93 376.34 448.33 397.29 C 447.59 396.47 446.85 395.66 446.11 394.86 C 445.73 393.66 445.36 392.46 445.00 391.27 C 448.49 389.93 449.94 386.61 450.07 383.06 C 450.56 369.69 455.09 357.67 457.83 344.84 C 463.84 325.01 457.97 304.26 460.05 283.98 C 463.56 276.72 452.74 268.88 460.16 263.22 C 462.13 261.60 463.56 259.45 464.15 256.95 Z" />
</g>
<g id="#5c6c8fff">
<path fill="#5c6c8f" opacity="1.00" d=" M 196.08 267.51 C 196.30 264.13 196.78 260.79 197.71 257.54 C 201.76 282.97 197.34 309.24 199.09 334.97 C 202.67 354.21 208.10 373.18 212.76 392.26 C 213.50 394.18 215.66 393.93 217.22 393.31 C 217.17 393.76 217.07 394.66 217.02 395.12 C 216.68 396.19 216.34 397.27 216.00 398.35 C 207.54 396.45 210.45 383.28 206.57 377.39 C 193.54 342.08 198.03 304.22 196.08 267.51 Z" />
</g>
<g id="#746895ff">
<path fill="#746895" opacity="1.00" d=" M 467.15 258.88 C 475.98 268.12 477.57 280.70 481.69 292.20 C 493.24 358.81 463.63 427.30 486.33 492.65 C 491.30 498.06 498.70 501.79 506.07 502.27 C 505.68 503.24 505.28 504.22 504.89 505.19 C 484.11 506.12 479.49 482.87 476.10 466.84 C 474.71 439.64 471.73 411.97 476.89 384.94 C 479.63 352.62 487.37 318.72 475.70 287.29 C 474.85 280.07 465.61 280.94 466.15 272.76 C 465.84 268.49 466.50 264.23 467.00 260.00 L 467.15 258.88 Z" />
</g>
<g id="#603234ff">
<path fill="#603234" opacity="1.00" d=" M 135.25 276.34 C 136.16 274.41 136.98 271.04 138.81 274.30 C 138.16 296.59 127.05 318.08 129.39 340.28 C 124.51 363.24 120.71 386.34 116.53 409.43 C 110.64 425.29 123.48 438.12 129.25 451.77 C 137.10 466.94 144.59 482.38 153.30 496.98 C 150.42 503.15 145.33 496.61 140.80 497.47 C 125.01 493.19 105.42 488.57 96.04 472.98 C 93.33 465.12 86.87 460.78 79.10 458.95 C 73.26 455.83 75.87 446.62 69.35 443.65 C 66.74 415.12 49.62 388.53 58.95 359.13 C 84.86 332.88 110.03 303.82 135.25 276.34 Z" />
</g>
<g id="#613234ff">
<path fill="#613234" opacity="1.00" d=" M 526.86 293.21 C 528.85 286.82 521.10 276.46 525.92 272.99 C 533.02 285.37 546.95 294.87 556.82 306.09 C 557.99 314.18 565.92 317.56 571.12 322.87 C 582.51 335.57 592.83 350.07 605.97 361.25 C 608.42 371.07 604.79 381.12 606.93 391.02 C 605.07 405.14 598.95 418.66 598.08 433.10 C 596.20 444.24 586.16 450.09 582.03 460.02 C 565.04 483.12 537.28 499.08 508.68 499.86 C 512.97 493.86 518.57 488.37 519.86 480.81 C 528.00 460.61 542.51 443.38 550.01 422.98 C 541.79 379.84 534.55 336.41 526.86 293.21 Z" />
</g>
<g id="#377eb2ff">
<path fill="#377eb2" opacity="1.00" d=" M 614.06 327.86 L 614.91 328.18 C 626.59 341.15 634.12 357.24 646.63 369.52 C 634.93 488.02 546.61 594.21 433.75 631.60 C 388.84 646.82 340.31 652.63 293.21 646.83 C 269.51 620.82 248.19 592.68 224.00 567.08 C 217.86 556.79 233.48 568.25 238.79 567.17 C 248.00 571.15 253.58 562.58 259.89 557.77 C 266.09 551.11 279.51 548.27 283.01 558.99 C 286.01 567.47 295.91 563.48 301.87 560.86 C 328.02 556.03 356.11 565.51 381.59 557.55 C 386.94 552.12 398.82 548.84 402.22 557.85 C 406.49 571.43 423.74 564.11 434.24 567.75 C 450.70 572.26 451.71 554.29 460.12 546.11 C 464.59 542.74 458.50 537.98 458.21 533.83 C 455.37 515.81 463.26 497.74 455.91 480.01 C 454.09 466.33 438.40 459.05 440.03 443.99 C 443.32 429.27 449.39 415.11 457.18 402.15 C 459.73 388.54 460.40 374.25 465.16 361.14 C 467.87 357.81 471.08 361.97 471.00 364.99 C 475.02 400.88 467.48 437.49 473.51 473.35 C 473.84 487.67 482.10 502.69 496.14 507.81 C 515.93 510.17 535.37 505.92 554.08 500.05 C 565.37 492.75 575.56 483.61 585.63 474.70 C 590.38 467.20 593.83 458.62 602.00 454.08 C 604.19 445.35 606.62 436.72 610.49 428.54 C 616.58 415.01 610.60 399.37 617.39 386.45 C 618.16 367.02 619.78 346.74 614.06 327.86 Z" />
</g>
<g id="#a89c95ff">
<path fill="#a89c95" opacity="1.00" d=" M 443.21 391.76 C 443.84 392.79 444.56 393.77 445.25 394.78 C 449.55 407.22 438.69 418.42 436.71 430.69 C 430.76 447.73 437.04 466.63 445.09 481.95 C 450.21 503.41 448.81 525.74 447.70 547.71 C 442.72 556.12 432.38 562.60 422.64 561.39 C 413.40 556.27 407.16 547.34 398.21 541.80 L 397.77 541.10 C 408.43 537.74 413.21 548.04 418.30 554.71 C 426.60 557.09 441.50 556.05 442.93 544.90 C 446.78 522.79 449.18 499.32 436.25 479.17 C 441.15 469.31 429.92 458.74 430.84 448.05 C 428.35 428.42 443.69 411.10 443.21 391.76 Z" />
</g>
<g id="#d8c8c3ff">
<path fill="#d8c8c3" opacity="1.00" d=" M 219.09 393.95 C 219.26 393.63 219.62 392.98 219.80 392.66 C 235.03 417.46 238.61 448.31 230.00 476.09 C 226.16 480.53 222.25 485.01 220.00 490.50 C 215.53 481.94 224.68 473.47 226.45 465.37 C 233.57 447.51 229.35 428.57 220.84 412.08 C 218.25 406.45 215.46 399.75 219.09 393.95 Z" />
</g>
<g id="#a7abb4ff">
<path fill="#a7abb4" opacity="1.00" d=" M 217.02 395.12 C 217.54 394.83 218.57 394.24 219.09 393.95 C 215.46 399.75 218.25 406.45 220.84 412.08 C 229.35 428.57 233.57 447.51 226.45 465.37 C 224.68 473.47 215.53 481.94 220.00 490.50 C 214.31 508.06 215.61 528.74 219.37 546.55 C 223.63 558.76 237.07 554.29 246.16 559.23 C 244.17 560.52 242.31 562.05 240.96 564.02 C 230.35 566.37 220.61 557.16 212.92 551.08 C 209.01 534.49 213.28 516.99 211.07 500.04 C 213.11 479.82 231.56 463.34 227.29 441.81 C 228.17 426.17 214.10 413.70 216.00 398.35 C 216.34 397.27 216.68 396.19 217.02 395.12 Z" />
</g>
<g id="#81888fff">
<path fill="#81888f" opacity="1.00" d=" M 445.25 394.78 L 446.11 394.86 C 446.85 395.66 447.59 396.47 448.33 397.29 C 446.39 413.24 437.74 427.80 436.06 443.93 C 437.32 457.44 439.67 471.71 448.24 482.70 C 454.79 494.02 449.99 507.72 452.05 520.00 C 450.23 532.99 457.46 550.41 444.10 559.17 C 432.35 569.45 413.93 564.63 405.76 552.24 C 399.89 543.55 388.11 544.77 381.09 551.07 C 365.97 561.55 346.89 554.82 329.94 557.83 C 312.17 557.11 292.04 560.15 277.31 547.74 C 261.88 538.85 255.12 563.41 240.60 564.74 L 240.96 564.02 C 242.31 562.05 244.17 560.52 246.16 559.23 C 252.60 554.47 258.22 548.64 264.01 543.13 C 273.34 538.24 283.57 546.33 291.72 550.24 C 304.16 554.65 317.89 555.95 330.98 554.06 C 342.23 553.52 353.59 554.74 364.79 553.73 C 375.09 547.73 385.41 539.72 398.21 541.80 C 407.16 547.34 413.40 556.27 422.64 561.39 C 432.38 562.60 442.72 556.12 447.70 547.71 C 448.81 525.74 450.21 503.41 445.09 481.95 C 437.04 466.63 430.76 447.73 436.71 430.69 C 438.69 418.42 449.55 407.22 445.25 394.78 Z" />
</g>
<g id="#a9624cff">
<path fill="#a9624c" opacity="1.00" d=" M 299.11 412.14 C 319.34 401.63 344.17 398.18 363.85 411.99 C 365.72 413.19 367.25 414.81 368.24 416.81 C 355.69 410.70 342.75 403.16 328.21 405.21 C 312.78 408.25 293.82 412.46 288.39 429.45 C 283.45 440.63 298.36 441.19 302.09 448.95 C 306.69 457.39 306.60 470.16 317.31 473.62 C 330.70 479.09 351.43 478.09 356.69 461.70 C 358.71 453.18 363.46 445.63 370.91 440.88 C 382.42 435.45 372.00 424.25 368.24 416.81 C 375.48 421.72 384.79 438.67 372.00 443.01 C 360.42 447.28 361.90 460.13 355.51 468.42 C 350.88 478.62 337.16 477.67 327.89 478.16 C 311.70 479.47 303.54 464.08 300.47 450.60 C 298.32 444.09 290.26 443.39 286.13 438.63 C 284.92 432.81 287.49 427.36 288.94 421.88 C 292.03 418.33 295.53 415.17 299.11 412.14 Z" />
</g>
<g id="#822619ff">
<path fill="#822619" opacity="1.00" d=" M 288.39 429.45 C 293.82 412.46 312.78 408.25 328.21 405.21 C 342.75 403.16 355.69 410.70 368.24 416.81 C 372.00 424.25 382.42 435.45 370.91 440.88 C 363.46 445.63 358.71 453.18 356.69 461.70 C 351.43 478.09 330.70 479.09 317.31 473.62 C 306.60 470.16 306.69 457.39 302.09 448.95 C 298.36 441.19 283.45 440.63 288.39 429.45 Z" />
</g>
<g id="#bd8e6fff">
<path fill="#bd8e6f" opacity="1.00" d=" M 363.85 411.99 C 373.95 414.30 377.47 426.39 381.17 434.73 C 399.13 450.00 419.13 462.86 436.25 479.17 C 449.18 499.32 446.78 522.79 442.93 544.90 C 441.50 556.05 426.60 557.09 418.30 554.71 C 413.21 548.04 408.43 537.74 397.77 541.10 C 387.25 527.10 373.01 514.44 354.88 512.10 C 347.95 513.07 336.44 503.57 332.30 512.31 C 332.50 525.93 336.28 541.12 330.98 554.06 C 317.89 555.95 304.16 554.65 291.72 550.24 C 283.57 546.33 273.34 538.24 264.01 543.13 C 265.82 539.11 271.31 539.74 273.70 536.77 C 274.47 530.51 281.09 528.56 285.65 525.63 C 293.39 520.41 300.67 513.56 310.46 512.61 C 317.02 510.94 327.74 513.53 330.53 505.53 C 329.84 496.32 336.16 484.56 327.89 478.16 C 337.16 477.67 350.88 478.62 355.51 468.42 C 361.90 460.13 360.42 447.28 372.00 443.01 C 384.79 438.67 375.48 421.72 368.24 416.81 C 367.25 414.81 365.72 413.19 363.85 411.99 Z" />
</g>
<g id="#d2a98bff">
<path fill="#d2a98b" opacity="1.00" d=" M 280.97 436.95 C 286.86 434.05 283.81 425.58 288.94 421.88 C 287.49 427.36 284.92 432.81 286.13 438.63 C 290.26 443.39 298.32 444.09 300.47 450.60 C 303.54 464.08 311.70 479.47 327.89 478.16 C 336.16 484.56 329.84 496.32 330.53 505.53 C 327.74 513.53 317.02 510.94 310.46 512.61 C 300.67 513.56 293.39 520.41 285.65 525.63 C 281.09 528.56 274.47 530.51 273.70 536.77 C 271.31 539.74 265.82 539.11 264.01 543.13 C 258.22 548.64 252.60 554.47 246.16 559.23 C 237.07 554.29 223.63 558.76 219.37 546.55 C 215.61 528.74 214.31 508.06 220.00 490.50 C 222.25 485.01 226.16 480.53 230.00 476.09 C 248.03 464.98 263.48 449.35 280.97 436.95 Z" />
</g>
<g id="#ad8161ff">
<path fill="#ad8161" opacity="1.00" d=" M 332.30 512.31 C 336.44 503.57 347.95 513.07 354.88 512.10 C 373.01 514.44 387.25 527.10 397.77 541.10 L 398.21 541.80 C 385.41 539.72 375.09 547.73 364.79 553.73 C 353.59 554.74 342.23 553.52 330.98 554.06 C 336.28 541.12 332.50 525.93 332.30 512.31 Z" />
</g>
</svg>
