<?xml version="1.0" encoding="UTF-8" ?>
<!DOCTYPE svg PUBLIC "-//W3C//DTD SVG 1.1//EN" "http://www.w3.org/Graphics/SVG/1.1/DTD/svg11.dtd">
<svg width="590pt" height="493pt" viewBox="0 0 590 493" version="1.1" xmlns="http://www.w3.org/2000/svg">
<g id="#ffffffff">
</g>
<g id="#4f4b45ff">
<path fill="#4f4b45" opacity="1.00" d=" M 63.11 67.67 C 91.84 67.26 120.58 67.58 149.32 67.50 C 149.32 71.85 149.29 76.20 149.36 80.55 C 125.06 80.65 100.76 80.63 76.46 80.56 C 76.12 93.09 76.42 105.63 76.31 118.17 C 72.13 118.06 67.94 118.27 63.76 118.09 C 62.61 117.22 63.44 115.26 63.15 113.98 C 63.17 98.55 63.26 83.11 63.11 67.67 Z" />
<path fill="#4f4b45" opacity="1.00" d=" M 444.70 67.56 C 473.40 67.45 502.11 67.42 530.82 67.57 C 530.80 84.40 530.89 101.23 530.77 118.06 C 526.40 118.21 522.04 118.09 517.68 118.17 C 517.58 105.63 517.91 93.08 517.51 80.54 C 493.22 80.62 468.93 80.70 444.64 80.50 C 444.70 76.19 444.68 71.87 444.70 67.56 Z" />
<path fill="#4f4b45" opacity="1.00" d=" M 63.30 354.25 C 67.42 353.29 72.01 354.16 76.31 353.84 C 76.43 366.38 76.10 378.92 76.47 391.45 C 100.77 391.39 125.08 391.30 149.38 391.50 C 149.27 395.83 149.34 400.17 149.30 404.50 C 120.58 404.47 91.86 404.66 63.14 404.40 C 63.31 387.68 63.00 370.96 63.30 354.25 Z" />
<path fill="#4f4b45" opacity="1.00" d=" M 517.68 353.82 C 522.03 353.90 526.39 353.80 530.75 353.93 C 530.91 370.77 530.79 387.61 530.81 404.45 C 502.11 404.56 473.40 404.58 444.70 404.44 C 444.67 400.12 444.71 395.81 444.63 391.50 C 468.93 391.30 493.23 391.38 517.53 391.46 C 517.88 378.92 517.59 366.37 517.68 353.82 Z" />
</g>
<g id="#60a59bff">
<path fill="#60a59b" opacity="1.00" d=" M 109.78 113.66 C 115.97 113.71 122.15 113.68 128.33 113.69 C 128.29 147.90 128.30 182.11 128.33 216.32 C 122.14 216.32 115.96 216.26 109.77 216.33 C 109.79 182.10 109.78 147.88 109.78 113.66 Z" />
<path fill="#60a59b" opacity="1.00" d=" M 149.08 113.73 C 152.79 113.67 156.51 113.70 160.23 113.67 C 160.19 147.89 160.21 182.11 160.22 216.32 C 156.51 216.31 152.80 216.32 149.10 216.30 C 149.15 182.11 149.19 147.92 149.08 113.73 Z" />
<path fill="#60a59b" opacity="1.00" d=" M 175.93 113.70 C 185.42 113.65 194.90 113.74 204.39 113.65 C 204.45 147.87 204.34 182.09 204.44 216.30 C 194.94 216.31 185.44 216.30 175.93 216.30 C 175.92 182.10 175.93 147.90 175.93 113.70 Z" />
<path fill="#60a59b" opacity="1.00" d=" M 220.28 113.69 C 223.96 113.69 227.64 113.71 231.33 113.68 C 231.30 147.89 231.29 182.10 231.34 216.32 C 227.68 216.29 224.03 216.25 220.38 216.38 C 220.18 182.16 220.39 147.92 220.28 113.69 Z" />
<path fill="#60a59b" opacity="1.00" d=" M 253.42 216.35 C 253.45 182.10 253.25 147.83 253.51 113.58 C 258.80 113.77 264.10 113.70 269.40 113.66 C 269.41 147.88 269.41 182.10 269.40 216.32 C 264.07 216.31 258.74 216.27 253.42 216.35 Z" />
<path fill="#60a59b" opacity="1.00" d=" M 282.78 113.67 C 292.26 113.71 301.74 113.68 311.22 113.68 C 311.21 147.88 311.18 182.08 311.24 216.28 C 301.75 216.33 292.26 216.27 282.78 216.32 C 282.79 182.10 282.79 147.89 282.78 113.67 Z" />
<path fill="#60a59b" opacity="1.00" d=" M 318.41 216.32 C 318.38 182.10 318.44 147.88 318.39 113.66 C 327.82 113.63 337.25 113.85 346.68 113.55 C 346.97 147.79 346.68 182.05 346.82 216.30 C 337.35 216.32 327.88 216.27 318.41 216.32 Z" />
<path fill="#60a59b" opacity="1.00" d=" M 360.17 113.70 C 365.52 113.70 370.88 113.69 376.24 113.68 C 376.18 147.89 376.21 182.11 376.22 216.32 C 370.87 216.28 365.53 216.31 360.18 216.31 C 360.21 182.10 360.24 147.90 360.17 113.70 Z" />
<path fill="#60a59b" opacity="1.00" d=" M 392.09 113.69 C 399.91 113.71 407.73 113.65 415.55 113.72 C 415.45 147.91 415.49 182.11 415.53 216.30 C 407.72 216.31 399.92 216.29 392.11 216.31 C 392.12 182.11 392.17 147.90 392.09 113.69 Z" />
<path fill="#60a59b" opacity="1.00" d=" M 433.82 113.69 C 437.52 113.69 441.22 113.67 444.92 113.74 C 444.83 147.92 444.83 182.10 444.92 216.28 C 441.23 216.34 437.54 216.32 433.85 216.31 C 433.87 182.10 433.91 147.90 433.82 113.69 Z" />
<path fill="#60a59b" opacity="1.00" d=" M 465.67 113.66 C 471.85 113.70 478.03 113.71 484.21 113.65 C 484.24 147.88 484.20 182.11 484.23 216.34 C 478.04 216.26 471.85 216.31 465.66 216.32 C 465.70 182.10 465.69 147.88 465.67 113.66 Z" />
<path fill="#60a59b" opacity="1.00" d=" M 109.77 255.67 C 115.96 255.75 122.14 255.67 128.32 255.69 C 128.31 289.90 128.30 324.10 128.33 358.31 C 122.15 358.32 115.96 358.28 109.78 358.34 C 109.78 324.12 109.79 289.89 109.77 255.67 Z" />
<path fill="#60a59b" opacity="1.00" d=" M 149.10 255.71 C 152.81 255.68 156.51 255.69 160.22 255.68 C 160.21 289.90 160.18 324.11 160.24 358.33 C 156.51 358.28 152.78 358.35 149.06 358.25 C 149.21 324.07 149.13 289.89 149.10 255.71 Z" />
<path fill="#60a59b" opacity="1.00" d=" M 175.93 255.70 C 185.44 255.71 194.94 255.68 204.45 255.70 C 204.33 289.92 204.45 324.13 204.38 358.35 C 194.90 358.26 185.41 358.35 175.93 358.30 C 175.92 324.10 175.94 289.90 175.93 255.70 Z" />
<path fill="#60a59b" opacity="1.00" d=" M 220.28 358.31 C 220.44 324.06 220.10 289.80 220.44 255.55 C 224.07 255.79 227.70 255.69 231.33 255.68 C 231.29 289.90 231.30 324.11 231.32 358.33 C 227.64 358.29 223.96 358.31 220.28 358.31 Z" />
<path fill="#60a59b" opacity="1.00" d=" M 253.52 358.42 C 253.25 324.17 253.43 289.89 253.43 255.63 C 258.75 255.73 264.07 255.68 269.40 255.68 C 269.41 289.90 269.41 324.12 269.40 358.34 C 264.10 358.30 258.81 358.22 253.52 358.42 Z" />
<path fill="#60a59b" opacity="1.00" d=" M 282.78 255.68 C 292.26 255.73 301.75 255.68 311.23 255.71 C 311.18 289.91 311.21 324.12 311.22 358.32 C 301.74 358.32 292.26 358.29 282.78 358.33 C 282.79 324.11 282.79 289.90 282.78 255.68 Z" />
<path fill="#60a59b" opacity="1.00" d=" M 318.39 358.33 C 318.46 324.11 318.35 289.88 318.44 255.66 C 327.90 255.75 337.36 255.67 346.82 255.69 C 346.77 289.91 346.79 324.13 346.81 358.34 C 337.34 358.29 327.86 358.30 318.39 358.33 Z" />
<path fill="#60a59b" opacity="1.00" d=" M 360.18 255.69 C 365.52 255.69 370.87 255.72 376.22 255.68 C 376.21 289.89 376.18 324.11 376.24 358.32 C 370.88 358.31 365.52 358.30 360.17 358.30 C 360.24 324.09 360.21 289.89 360.18 255.69 Z" />
<path fill="#60a59b" opacity="1.00" d=" M 392.12 255.68 C 399.92 255.71 407.72 255.69 415.53 255.70 C 415.48 289.90 415.46 324.09 415.54 358.29 C 407.72 358.34 399.91 358.29 392.09 358.31 C 392.17 324.10 392.12 289.89 392.12 255.68 Z" />
<path fill="#60a59b" opacity="1.00" d=" M 433.84 255.70 C 437.53 255.68 441.22 255.66 444.92 255.72 C 444.84 289.90 444.82 324.08 444.93 358.26 C 441.22 358.33 437.52 358.30 433.83 358.31 C 433.90 324.11 433.87 289.90 433.84 255.70 Z" />
<path fill="#60a59b" opacity="1.00" d=" M 465.66 255.68 C 471.85 255.69 478.04 255.73 484.23 255.67 C 484.20 289.89 484.24 324.12 484.21 358.35 C 478.03 358.29 471.85 358.30 465.67 358.34 C 465.68 324.12 465.71 289.90 465.66 255.68 Z" />
</g>
<g id="#fdfdfcff">
<path fill="#fdfdfc" opacity="1.00" d=" M 63.39 243.35 C 63.24 238.45 63.21 233.55 63.41 228.65 C 219.13 228.73 374.86 228.68 530.59 228.68 C 530.78 233.56 530.78 238.45 530.58 243.33 C 374.85 243.31 219.12 243.27 63.39 243.35 Z" />
</g>
</svg>
