<?xml version="1.0" encoding="UTF-8" ?>
<!DOCTYPE svg PUBLIC "-//W3C//DTD SVG 1.1//EN" "http://www.w3.org/Graphics/SVG/1.1/DTD/svg11.dtd">
<svg width="225pt" height="225pt" viewBox="0 0 225 225" version="1.1" xmlns="http://www.w3.org/2000/svg">
<g id="#fdfdfcff">
<path fill="#fdfdfc" opacity="1.00" d=" M 58.36 73.00 C 87.26 61.37 116.21 49.87 145.09 38.23 C 152.53 41.24 160.04 44.06 167.40 47.25 C 138.55 58.75 109.79 70.54 80.81 81.69 C 73.16 79.34 65.90 75.75 58.36 73.00 Z" />
<path fill="#fdfdfc" opacity="1.00" d=" M 54.23 95.70 C 54.20 89.30 54.22 82.89 54.22 76.49 C 62.25 79.70 70.27 82.93 78.32 86.10 C 78.28 92.50 78.33 98.89 78.47 105.29 C 70.35 102.19 62.32 98.88 54.23 95.70 Z" />
<path fill="#fdfdfc" opacity="1.00" d=" M 132.02 110.79 C 139.42 107.76 146.88 104.88 154.27 101.82 C 154.29 110.32 154.26 118.82 154.29 127.32 C 146.86 130.25 139.48 133.30 132.02 136.15 C 132.08 127.69 132.08 119.24 132.02 110.79 Z" />
</g>
<g id="#4f4b45ff">
<path fill="#4f4b45" opacity="1.00" d=" M 106.46 22.64 C 110.81 21.26 115.61 21.47 119.84 23.16 C 146.30 33.67 172.77 44.15 199.15 54.87 C 202.48 56.29 205.28 58.93 206.72 62.28 C 208.45 65.94 208.00 70.08 208.04 74.00 C 208.00 101.66 208.04 129.33 208.03 156.99 C 208.11 162.09 205.41 167.22 200.95 169.77 C 198.46 171.16 195.76 172.11 193.12 173.17 C 170.98 182.00 148.89 190.96 126.76 199.83 C 120.35 202.58 113.15 205.72 106.20 202.92 C 79.43 192.49 52.83 181.63 26.20 170.85 C 20.64 168.70 16.81 162.94 16.97 156.99 C 16.96 127.67 16.99 98.35 16.96 69.04 C 16.85 64.84 18.42 60.56 21.52 57.68 C 23.70 55.58 26.58 54.52 29.33 53.41 C 55.06 43.21 80.65 32.64 106.46 22.64 M 105.83 27.76 C 84.67 36.33 63.39 44.58 42.31 53.35 L 42.12 53.26 C 36.65 55.52 31.11 57.63 25.69 60.01 C 34.42 63.56 43.18 67.06 51.94 70.53 C 57.24 68.33 62.61 66.33 67.85 64.00 L 68.05 64.08 C 91.62 54.60 115.27 45.30 138.79 35.70 C 131.73 32.88 124.70 29.99 117.59 27.27 C 113.79 25.78 109.53 26.14 105.83 27.76 M 58.36 73.00 C 65.90 75.75 73.16 79.34 80.81 81.69 C 109.79 70.54 138.55 58.75 167.40 47.25 C 160.04 44.06 152.53 41.24 145.09 38.23 C 116.21 49.87 87.26 61.37 58.36 73.00 M 170.94 50.80 C 151.48 58.90 131.73 66.28 112.31 74.45 L 112.05 74.41 C 103.67 77.79 95.28 81.15 86.88 84.49 C 95.31 87.80 103.62 91.47 112.17 94.46 C 115.35 94.01 118.21 92.40 121.18 91.27 C 147.23 80.85 173.30 70.52 199.31 60.01 C 193.91 57.63 188.38 55.56 182.94 53.28 L 182.73 53.38 C 178.95 52.15 175.02 48.62 170.94 50.80 M 22.24 63.79 C 21.92 66.18 21.59 68.57 21.55 70.97 C 21.57 94.63 21.61 118.28 21.54 141.94 C 21.72 147.32 21.30 152.71 21.70 158.08 C 21.87 162.01 24.76 165.36 28.35 166.72 C 35.41 169.60 42.48 172.47 49.61 175.19 C 49.86 169.84 48.98 164.40 50.12 159.12 C 53.15 158.10 56.01 160.27 58.80 161.18 C 66.70 164.75 75.18 167.16 82.78 171.31 C 83.32 177.08 82.84 182.89 83.04 188.67 C 92.05 192.17 100.92 196.05 110.04 199.25 C 110.06 192.37 110.07 185.48 110.03 178.60 C 110.01 151.97 110.14 125.34 109.97 98.71 C 100.93 95.25 91.98 91.60 83.00 87.99 C 82.81 95.26 83.38 102.55 82.90 109.80 C 81.90 112.03 79.43 110.66 77.78 110.13 C 68.47 106.30 59.09 102.67 49.77 98.87 C 49.42 90.77 49.73 82.67 49.55 74.57 C 40.40 71.09 31.40 67.25 22.24 63.79 M 114.83 98.90 C 114.92 125.72 114.82 152.55 114.88 179.38 C 114.86 186.00 114.86 192.62 114.88 199.24 C 121.08 197.20 127.06 194.59 133.14 192.21 C 154.08 183.83 175.01 175.44 195.94 167.03 C 199.48 165.77 202.69 162.88 203.18 158.99 C 203.80 153.65 203.25 148.26 203.46 142.90 C 203.38 121.25 203.45 99.59 203.43 77.93 C 203.52 73.21 203.55 68.47 202.77 63.79 C 173.40 75.36 144.11 87.13 114.83 98.90 M 54.23 95.70 C 62.32 98.88 70.35 102.19 78.47 105.29 C 78.33 98.89 78.28 92.50 78.32 86.10 C 70.27 82.93 62.25 79.70 54.22 76.49 C 54.22 82.89 54.20 89.30 54.23 95.70 M 54.07 164.36 C 54.37 168.63 53.39 173.17 54.57 177.28 C 62.38 180.86 70.54 183.67 78.44 187.08 C 78.48 182.74 78.43 178.40 78.36 174.06 C 70.28 170.79 62.20 167.50 54.07 164.36 Z" />
<path fill="#4f4b45" opacity="1.00" d=" M 152.56 97.51 C 154.52 96.78 158.33 94.74 158.84 98.12 C 159.21 108.08 158.92 118.07 158.98 128.04 C 159.52 130.51 156.83 131.24 155.10 132.02 C 146.32 135.43 137.60 139.01 128.79 142.37 C 126.50 138.64 127.72 134.12 127.46 130.01 C 127.73 122.65 126.95 115.20 127.80 107.90 C 135.67 103.70 144.40 101.17 152.56 97.51 M 132.02 110.79 C 132.08 119.24 132.08 127.69 132.02 136.15 C 139.48 133.30 146.86 130.25 154.29 127.32 C 154.26 118.82 154.29 110.32 154.27 101.82 C 146.88 104.88 139.42 107.76 132.02 110.79 Z" />
</g>
<g id="#72cabeff">
<path fill="#72cabe" opacity="1.00" d=" M 105.83 27.76 C 109.53 26.14 113.79 25.78 117.59 27.27 C 124.70 29.99 131.73 32.88 138.79 35.70 C 115.27 45.30 91.62 54.60 68.05 64.08 L 67.85 64.00 C 59.36 60.40 50.58 57.48 42.31 53.35 C 63.39 44.58 84.67 36.33 105.83 27.76 Z" />
<path fill="#72cabe" opacity="1.00" d=" M 170.94 50.80 C 175.02 48.62 178.95 52.15 182.73 53.38 C 171.77 58.54 160.30 62.47 149.15 67.17 C 139.87 71.14 130.10 74.04 120.05 75.12 C 117.45 75.42 114.87 74.84 112.31 74.45 C 131.73 66.28 151.48 58.90 170.94 50.80 Z" />
<path fill="#72cabe" opacity="1.00" d=" M 22.24 63.79 C 31.40 67.25 40.40 71.09 49.55 74.57 C 49.73 82.67 49.42 90.77 49.77 98.87 C 59.09 102.67 68.47 106.30 77.78 110.13 C 79.43 110.66 81.90 112.03 82.90 109.80 C 83.38 102.55 82.81 95.26 83.00 87.99 C 91.98 91.60 100.93 95.25 109.97 98.71 C 110.14 125.34 110.01 151.97 110.03 178.60 C 105.51 176.99 100.99 175.39 96.60 173.45 C 75.89 165.16 55.18 156.89 34.46 148.62 C 29.84 147.05 25.34 145.05 21.54 141.94 C 21.61 118.28 21.57 94.63 21.55 70.97 C 21.59 68.57 21.92 66.18 22.24 63.79 Z" />
<path fill="#72cabe" opacity="1.00" d=" M 114.83 98.90 C 144.11 87.13 173.40 75.36 202.77 63.79 C 203.55 68.47 203.52 73.21 203.43 77.93 C 203.45 99.59 203.38 121.25 203.46 142.90 C 201.19 144.59 198.89 146.29 196.27 147.38 C 177.61 154.63 159.10 162.24 140.50 169.61 C 131.98 172.93 123.64 176.73 114.88 179.38 C 114.82 152.55 114.92 125.72 114.83 98.90 M 152.56 97.51 C 144.40 101.17 135.67 103.70 127.80 107.90 C 126.95 115.20 127.73 122.65 127.46 130.01 C 127.72 134.12 126.50 138.64 128.79 142.37 C 137.60 139.01 146.32 135.43 155.10 132.02 C 156.83 131.24 159.52 130.51 158.98 128.04 C 158.92 118.07 159.21 108.08 158.84 98.12 C 158.33 94.74 154.52 96.78 152.56 97.51 Z" />
<path fill="#fdfdfc" opacity="1.00" d=" M 54.07 164.36 C 62.20 167.50 70.28 170.79 78.36 174.06 C 78.43 178.40 78.48 182.74 78.44 187.08 C 70.54 183.67 62.38 180.86 54.57 177.28 C 53.39 173.17 54.37 168.63 54.07 164.36 Z" />
</g>
<g id="#60a59bff">
<path fill="#60a59b" opacity="1.00" d=" M 25.69 60.01 C 31.11 57.63 36.65 55.52 42.12 53.26 L 42.31 53.35 C 50.58 57.48 59.36 60.40 67.85 64.00 C 62.61 66.33 57.24 68.33 51.94 70.53 C 43.18 67.06 34.42 63.56 25.69 60.01 Z" />
<path fill="#60a59b" opacity="1.00" d=" M 182.73 53.38 L 182.94 53.28 C 188.38 55.56 193.91 57.63 199.31 60.01 C 173.30 70.52 147.23 80.85 121.18 91.27 C 118.21 92.40 115.35 94.01 112.17 94.46 C 103.62 91.47 95.31 87.80 86.88 84.49 C 95.28 81.15 103.67 77.79 112.05 74.41 L 112.31 74.45 C 114.87 74.84 117.45 75.42 120.05 75.12 C 130.10 74.04 139.87 71.14 149.15 67.17 C 160.30 62.47 171.77 58.54 182.73 53.38 Z" />
<path fill="#60a59b" opacity="1.00" d=" M 21.54 141.94 C 25.34 145.05 29.84 147.05 34.46 148.62 C 55.18 156.89 75.89 165.16 96.60 173.45 C 100.99 175.39 105.51 176.99 110.03 178.60 C 110.07 185.48 110.06 192.37 110.04 199.25 C 100.92 196.05 92.05 192.17 83.04 188.67 C 82.84 182.89 83.32 177.08 82.78 171.31 C 75.18 167.16 66.70 164.75 58.80 161.18 C 56.01 160.27 53.15 158.10 50.12 159.12 C 48.98 164.40 49.86 169.84 49.61 175.19 C 42.48 172.47 35.41 169.60 28.35 166.72 C 24.76 165.36 21.87 162.01 21.70 158.08 C 21.30 152.71 21.72 147.32 21.54 141.94 Z" />
<path fill="#60a59b" opacity="1.00" d=" M 196.27 147.38 C 198.89 146.29 201.19 144.59 203.46 142.90 C 203.25 148.26 203.80 153.65 203.18 158.99 C 202.69 162.88 199.48 165.77 195.94 167.03 C 175.01 175.44 154.08 183.83 133.14 192.21 C 127.06 194.59 121.08 197.20 114.88 199.24 C 114.86 192.62 114.86 186.00 114.88 179.38 C 123.64 176.73 131.98 172.93 140.50 169.61 C 159.10 162.24 177.61 154.63 196.27 147.38 Z" />
</g>
</svg>
