<?xml version="1.0" encoding="UTF-8" ?>
<!DOCTYPE svg PUBLIC "-//W3C//DTD SVG 1.1//EN" "http://www.w3.org/Graphics/SVG/1.1/DTD/svg11.dtd">
<svg width="418pt" height="445pt" viewBox="0 0 418 445" version="1.1" xmlns="http://www.w3.org/2000/svg">
<g id="#ffffffff">
</g>
<g id="#458980ff">
<path fill="#458980" opacity="1.00" d=" M 219.38 4.34 C 221.09 3.89 222.91 3.88 224.62 4.34 C 229.77 5.68 235.34 6.84 239.24 10.76 C 262.93 34.40 286.57 58.09 310.25 81.75 C 313.07 84.61 316.23 87.24 318.22 90.79 C 321.88 98.28 321.89 107.19 318.91 114.92 C 317.99 118.29 315.01 120.32 312.75 122.75 C 310.75 124.77 309.24 127.22 307.26 129.26 C 280.40 156.07 253.60 182.93 226.74 209.74 C 225.36 211.43 222.91 212.69 222.33 214.78 C 253.88 246.52 285.69 278.03 317.21 309.80 C 322.37 318.61 322.37 330.39 317.20 339.20 C 290.99 365.65 264.54 391.88 238.25 418.26 C 228.84 425.74 213.32 426.33 204.65 417.36 C 199.00 413.06 194.31 407.69 189.26 402.74 C 186.19 398.84 182.91 395.11 179.24 391.75 C 171.25 383.75 163.25 375.75 155.26 367.74 C 144.63 359.12 135.63 348.71 125.74 339.26 C 120.71 333.01 115.21 327.06 108.79 322.20 C 103.77 317.24 98.59 312.39 93.89 307.13 C 90.99 302.36 85.80 299.90 82.23 295.76 C 75.93 289.06 68.78 283.13 63.20 275.79 C 59.32 270.97 53.82 267.88 49.74 263.26 C 42.95 256.05 35.27 249.66 29.21 241.79 C 25.55 237.79 21.48 234.18 17.74 230.25 C 14.51 226.83 13.45 222.05 12.36 217.62 C 11.35 213.91 12.66 210.18 13.67 206.63 C 14.74 203.32 15.52 199.65 18.25 197.25 C 80.42 135.09 142.57 72.91 204.76 10.76 C 208.65 6.84 214.23 5.68 219.38 4.34 M 219.39 21.43 C 215.81 22.90 213.47 26.16 210.74 28.74 C 197.85 40.84 186.20 54.20 172.92 65.89 C 158.91 78.89 146.70 93.70 132.52 106.53 C 120.44 119.11 108.06 131.40 95.71 143.71 C 83.40 155.74 70.59 167.28 58.95 179.97 C 54.87 184.54 50.57 188.91 46.00 192.99 C 40.20 198.50 33.86 203.74 29.69 210.66 C 27.37 215.29 30.44 220.08 33.72 223.26 C 93.38 282.96 153.09 342.59 212.74 402.29 C 215.31 404.64 218.20 407.48 221.99 407.13 C 226.47 407.16 229.70 403.56 232.75 400.77 C 254.66 378.67 276.38 356.38 298.78 334.78 C 301.60 331.83 304.79 328.43 304.85 324.10 C 303.99 319.47 300.43 315.98 297.27 312.72 C 281.94 297.73 266.75 282.60 251.61 267.42 C 234.13 249.58 215.19 233.05 198.99 214.03 C 203.89 207.98 209.92 202.93 215.31 197.30 C 243.52 169.18 271.59 140.92 299.79 112.78 C 302.02 110.52 304.34 107.96 304.71 104.66 C 305.14 101.60 303.47 98.73 301.30 96.70 C 293.93 89.41 286.50 82.16 279.54 74.46 C 268.92 64.42 258.40 54.25 248.45 43.54 C 243.01 37.31 236.30 32.38 230.83 26.17 C 228.06 23.01 223.80 19.82 219.39 21.43 Z" />
</g>
<g id="#72cabeff">
<path fill="#72cabe" opacity="1.00" d=" M 219.39 21.43 C 223.80 19.82 228.06 23.01 230.83 26.17 C 236.30 32.38 243.01 37.31 248.45 43.54 C 258.40 54.25 268.92 64.42 279.54 74.46 C 286.50 82.16 293.93 89.41 301.30 96.70 C 303.47 98.73 305.14 101.60 304.71 104.66 C 304.34 107.96 302.02 110.52 299.79 112.78 C 271.59 140.92 243.52 169.18 215.31 197.30 C 209.92 202.93 203.89 207.98 198.99 214.03 C 215.19 233.05 234.13 249.58 251.61 267.42 C 266.75 282.60 281.94 297.73 297.27 312.72 C 300.43 315.98 303.99 319.47 304.85 324.10 C 304.79 328.43 301.60 331.83 298.78 334.78 C 276.38 356.38 254.66 378.67 232.75 400.77 C 229.70 403.56 226.47 407.16 221.99 407.13 C 218.20 407.48 215.31 404.64 212.74 402.29 C 153.09 342.59 93.38 282.96 33.72 223.26 C 30.44 220.08 27.37 215.29 29.69 210.66 C 33.86 203.74 40.20 198.50 46.00 192.99 C 50.57 188.91 54.87 184.54 58.95 179.97 C 70.59 167.28 83.40 155.74 95.71 143.71 C 108.06 131.40 120.44 119.11 132.52 106.53 C 146.70 93.70 158.91 78.89 172.92 65.89 C 186.20 54.20 197.85 40.84 210.74 28.74 C 213.47 26.16 215.81 22.90 219.39 21.43 Z" />
</g>
</svg>
