<?xml version="1.0" encoding="UTF-8" ?>
<!DOCTYPE svg PUBLIC "-//W3C//DTD SVG 1.1//EN" "http://www.w3.org/Graphics/SVG/1.1/DTD/svg11.dtd">
<svg width="150pt" height="156pt" viewBox="0 0 150 156" version="1.1" xmlns="http://www.w3.org/2000/svg">
<g id="#0e76a8ff">
<path fill="#0e76a8" opacity="1.00" d=" M 118.29 116.26 C 120.83 114.51 123.97 115.51 126.34 117.01 C 127.57 115.54 129.56 115.90 131.21 115.61 C 131.20 117.70 131.19 119.79 131.17 121.89 C 129.76 121.91 128.34 121.94 126.93 121.96 C 126.72 121.37 126.30 120.20 126.09 119.61 C 124.28 119.22 122.42 119.06 121.14 120.69 C 124.73 123.01 131.81 123.22 131.61 128.83 C 130.73 133.89 123.91 134.39 120.37 131.78 C 119.10 133.21 117.10 132.91 115.41 133.20 C 115.38 131.04 115.37 128.88 115.36 126.71 C 116.69 126.80 118.02 126.90 119.35 127.00 C 120.90 129.30 123.80 130.06 125.95 128.00 C 123.18 126.75 120.12 126.11 117.53 124.45 C 114.73 122.52 115.27 117.71 118.29 116.26 Z" />
<path fill="#0e76a8" opacity="1.00" d=" M 24.00 132.00 C 18.29 128.20 19.66 118.18 26.04 115.83 C 27.95 115.00 29.85 116.05 31.65 116.66 C 31.91 116.43 32.44 115.99 32.70 115.76 C 33.53 115.78 35.18 115.80 36.01 115.82 C 36.08 118.12 36.14 120.42 36.20 122.72 C 34.90 122.73 33.59 122.75 32.29 122.77 C 31.37 121.46 30.56 119.94 28.97 119.33 C 25.26 121.07 24.98 127.63 28.95 129.17 C 30.90 129.49 32.36 127.89 33.91 127.00 C 34.83 128.02 35.74 129.05 36.66 130.08 C 33.34 133.14 28.00 134.74 24.00 132.00 Z" />
<path fill="#0e76a8" opacity="1.00" d=" M 37.55 115.80 C 40.25 115.80 42.95 115.80 45.66 115.83 C 45.25 117.30 44.77 118.75 44.04 120.09 C 43.88 123.32 43.92 126.56 43.98 129.79 C 45.07 129.75 46.17 129.72 47.26 129.73 C 47.24 128.95 47.19 127.41 47.16 126.64 C 48.21 126.63 50.32 126.61 51.37 126.60 C 51.32 128.73 51.26 130.86 51.22 132.99 C 46.53 132.87 41.84 132.96 37.15 132.90 C 37.64 131.55 38.17 130.22 38.74 128.90 C 38.56 125.39 39.95 121.33 37.72 118.26 C 37.68 117.65 37.59 116.42 37.55 115.80 Z" />
<path fill="#0e76a8" opacity="1.00" d=" M 52.58 115.82 C 55.41 115.80 58.24 115.79 61.07 115.83 C 60.86 117.33 60.26 118.64 59.27 119.77 C 59.16 122.85 59.16 125.94 59.29 129.03 C 60.18 130.15 60.77 131.42 61.05 132.83 C 58.14 132.93 55.22 132.96 52.30 132.94 C 52.61 131.47 53.06 130.03 53.99 128.82 C 53.72 125.42 55.56 120.89 52.59 118.33 C 52.59 117.70 52.58 116.45 52.58 115.82 Z" />
<path fill="#0e76a8" opacity="1.00" d=" M 61.64 115.83 C 66.69 115.81 71.73 115.82 76.78 115.81 C 76.78 117.63 76.78 119.44 76.79 121.26 C 75.41 121.24 74.03 121.22 72.65 121.20 C 72.59 120.65 72.46 119.56 72.40 119.01 C 71.44 119.04 69.52 119.11 68.55 119.15 C 68.55 119.97 68.55 121.62 68.55 122.44 C 70.10 122.46 71.64 122.49 73.19 122.52 C 73.25 123.58 73.31 124.64 73.37 125.71 C 71.77 125.69 70.17 125.67 68.57 125.65 C 68.59 126.69 68.61 128.75 68.63 129.78 C 69.61 129.77 71.57 129.76 72.56 129.76 C 72.56 129.16 72.57 127.98 72.58 127.38 C 74.00 127.40 75.41 127.42 76.83 127.44 C 76.80 129.27 76.77 131.09 76.75 132.91 C 71.72 132.90 66.69 132.97 61.66 132.88 C 61.98 131.44 62.44 130.04 63.42 128.91 C 63.56 125.87 63.56 122.82 63.44 119.77 C 62.42 118.66 61.83 117.35 61.64 115.83 Z" />
<path fill="#0e76a8" opacity="1.00" d=" M 77.96 115.82 C 80.34 115.82 82.71 115.77 85.09 115.78 C 87.11 118.85 89.15 121.90 91.23 124.94 C 91.20 123.18 91.16 121.43 91.08 119.69 C 89.94 118.68 89.28 117.40 89.12 115.85 C 91.81 115.80 94.50 115.79 97.19 115.81 C 94.20 121.07 95.47 127.17 95.27 132.92 C 93.49 132.93 91.71 132.94 89.93 132.96 C 87.90 129.86 85.85 126.78 83.71 123.77 C 83.67 125.66 83.63 127.56 83.60 129.46 C 84.12 129.69 85.16 130.14 85.68 130.37 C 85.65 131.01 85.60 132.28 85.57 132.92 C 82.95 132.91 80.34 132.91 77.72 132.87 C 79.55 128.39 80.84 122.65 78.25 118.27 C 78.18 117.66 78.03 116.43 77.96 115.82 Z" />
<path fill="#0e76a8" opacity="1.00" d=" M 97.86 115.82 C 103.37 115.79 108.87 115.79 114.38 115.80 C 114.36 117.94 114.32 120.07 114.29 122.20 C 113.49 122.21 111.87 122.23 111.07 122.24 C 110.83 120.63 110.66 118.87 108.77 118.39 C 108.61 122.14 108.68 125.89 108.65 129.65 C 109.19 129.71 110.27 129.83 110.80 129.89 C 110.77 130.65 110.71 132.16 110.67 132.92 C 107.65 132.92 104.64 132.92 101.62 132.96 C 101.61 132.19 101.59 130.63 101.59 129.86 C 102.10 129.80 103.12 129.68 103.64 129.63 C 103.60 126.09 103.61 122.55 103.62 119.01 C 103.05 119.02 101.93 119.04 101.36 119.05 C 101.40 119.84 101.49 121.42 101.53 122.21 C 100.60 122.21 98.74 122.21 97.81 122.20 C 97.83 120.08 97.84 117.95 97.86 115.82 Z" />
</g>
<g id="#72cabeff">
<path fill="#72cabe" opacity="1.00" d=" M 70.30 8.46 C 79.41 4.69 90.66 11.20 92.00 20.92 C 93.91 30.05 86.35 39.58 77.06 39.87 C 68.49 40.72 60.29 33.56 59.81 25.00 C 59.09 17.96 63.66 10.84 70.30 8.46 Z" />
<path fill="#72cabe" opacity="1.00" d=" M 26.48 35.69 C 32.97 33.43 40.55 38.22 41.28 45.03 C 42.63 52.39 35.22 59.60 27.90 57.90 C 22.03 57.00 17.63 50.98 18.56 45.11 C 19.11 40.80 22.30 36.93 26.48 35.69 Z" />
<path fill="#72cabe" opacity="1.00" d=" M 118.54 35.71 C 125.39 33.25 133.42 38.77 133.52 46.05 C 134.16 53.20 126.84 59.48 119.89 57.89 C 114.41 56.93 110.24 51.57 110.61 46.02 C 110.78 41.38 114.12 37.11 118.54 35.71 Z" />
<path fill="#72cabe" opacity="1.00" d=" M 44.38 58.09 C 44.59 51.22 49.53 43.55 57.06 43.68 C 70.05 43.71 83.05 43.53 96.04 43.77 C 103.44 44.30 107.62 52.20 107.69 58.94 C 107.74 67.65 107.80 76.37 107.67 85.09 C 107.79 89.30 102.78 92.72 98.95 90.78 C 96.76 89.76 95.55 87.35 95.56 85.00 C 95.36 78.12 95.68 71.24 95.46 64.37 C 95.46 62.31 94.77 60.35 93.95 58.50 C 93.19 60.59 92.92 62.82 92.92 65.04 C 92.81 76.35 93.28 87.67 92.81 98.97 C 92.71 101.38 89.93 101.64 88.08 101.56 C 79.42 101.50 70.74 101.69 62.09 101.48 C 59.72 101.59 58.80 98.99 59.00 97.03 C 59.12 86.36 59.05 75.70 59.09 65.03 C 59.11 62.81 58.84 60.58 58.05 58.49 C 57.25 60.36 56.56 62.31 56.53 64.37 C 56.32 71.25 56.62 78.15 56.43 85.03 C 56.49 87.70 54.80 90.39 52.15 91.09 C 48.40 92.29 44.22 88.89 44.33 85.02 C 44.24 76.05 44.18 67.06 44.38 58.09 Z" />
<path fill="#72cabe" opacity="1.00" d=" M 10.53 63.51 C 12.27 61.24 15.27 60.68 17.97 60.72 C 25.95 60.68 33.92 60.75 41.90 60.73 C 41.80 73.50 41.98 86.28 41.82 99.05 C 42.23 101.34 39.70 101.71 38.03 101.56 C 32.32 101.56 26.60 101.60 20.89 101.53 C 19.43 101.70 17.74 100.78 17.97 99.09 C 17.57 89.80 18.48 80.46 17.60 71.19 C 14.13 77.71 17.84 85.71 15.41 92.52 C 13.58 95.64 8.54 94.41 7.75 91.07 C 7.28 86.05 7.69 80.99 7.54 75.95 C 7.48 71.68 7.44 66.86 10.53 63.51 Z" />
<path fill="#72cabe" opacity="1.00" d=" M 110.09 60.72 C 118.41 60.75 126.73 60.67 135.05 60.74 C 138.22 60.61 141.26 62.43 142.74 65.22 C 144.98 69.09 144.40 73.73 144.47 78.01 C 144.34 82.35 144.74 86.73 144.24 91.05 C 143.54 94.45 138.33 95.68 136.59 92.47 C 134.23 85.66 137.85 77.69 134.41 71.16 C 133.56 80.45 134.41 89.80 134.04 99.11 C 134.19 100.34 133.14 101.52 131.91 101.46 C 125.91 101.73 119.91 101.49 113.91 101.57 C 112.27 101.70 109.75 101.30 110.18 99.07 C 109.98 86.29 110.22 73.50 110.09 60.72 Z" />
<path fill="#72cabe" opacity="1.00" d=" M 13.34 106.40 C 16.87 105.99 20.43 106.25 23.97 106.21 C 61.65 106.25 99.33 106.18 137.01 106.24 C 140.78 106.01 144.33 109.22 144.37 113.01 C 144.62 119.34 144.35 125.67 144.47 132.01 C 144.41 134.69 144.77 137.78 142.82 139.94 C 141.23 141.98 138.56 142.67 136.08 142.57 C 95.76 142.54 55.44 142.57 15.12 142.55 C 11.45 142.70 7.78 139.80 7.64 136.01 C 7.45 128.70 7.58 121.37 7.58 114.05 C 7.29 110.53 9.80 106.96 13.34 106.40 M 118.29 116.26 C 115.27 117.71 114.73 122.52 117.53 124.45 C 120.12 126.11 123.18 126.75 125.95 128.00 C 123.80 130.06 120.90 129.30 119.35 127.00 C 118.02 126.90 116.69 126.80 115.36 126.71 C 115.37 128.88 115.38 131.04 115.41 133.20 C 117.10 132.91 119.10 133.21 120.37 131.78 C 123.91 134.39 130.73 133.89 131.61 128.83 C 131.81 123.22 124.73 123.01 121.14 120.69 C 122.42 119.06 124.28 119.22 126.09 119.61 C 126.30 120.20 126.72 121.37 126.93 121.96 C 128.34 121.94 129.76 121.91 131.17 121.89 C 131.19 119.79 131.20 117.70 131.21 115.61 C 129.56 115.90 127.57 115.54 126.34 117.01 C 123.97 115.51 120.83 114.51 118.29 116.26 M 24.00 132.00 C 28.00 134.74 33.34 133.14 36.66 130.08 C 35.74 129.05 34.83 128.02 33.91 127.00 C 32.36 127.89 30.90 129.49 28.95 129.17 C 24.98 127.63 25.26 121.07 28.97 119.33 C 30.56 119.94 31.37 121.46 32.29 122.77 C 33.59 122.75 34.90 122.73 36.20 122.72 C 36.14 120.42 36.08 118.12 36.01 115.82 C 35.18 115.80 33.53 115.78 32.70 115.76 C 32.44 115.99 31.91 116.43 31.65 116.66 C 29.85 116.05 27.95 115.00 26.04 115.83 C 19.66 118.18 18.29 128.20 24.00 132.00 M 37.55 115.80 C 37.59 116.42 37.68 117.65 37.72 118.26 C 39.95 121.33 38.56 125.39 38.74 128.90 C 38.17 130.22 37.64 131.55 37.15 132.90 C 41.84 132.96 46.53 132.87 51.22 132.99 C 51.26 130.86 51.32 128.73 51.37 126.60 C 50.32 126.61 48.21 126.63 47.16 126.64 C 47.19 127.41 47.24 128.95 47.26 129.73 C 46.17 129.72 45.07 129.75 43.98 129.79 C 43.92 126.56 43.88 123.32 44.04 120.09 C 44.77 118.75 45.25 117.30 45.66 115.83 C 42.95 115.80 40.25 115.80 37.55 115.80 M 52.58 115.82 C 52.58 116.45 52.59 117.70 52.59 118.33 C 55.56 120.89 53.72 125.42 53.99 128.82 C 53.06 130.03 52.61 131.47 52.30 132.94 C 55.22 132.96 58.14 132.93 61.05 132.83 C 60.77 131.42 60.18 130.15 59.29 129.03 C 59.16 125.94 59.16 122.85 59.27 119.77 C 60.26 118.64 60.86 117.33 61.07 115.83 C 58.24 115.79 55.41 115.80 52.58 115.82 M 61.64 115.83 C 61.83 117.35 62.42 118.66 63.44 119.77 C 63.56 122.82 63.56 125.87 63.42 128.91 C 62.44 130.04 61.98 131.44 61.66 132.88 C 66.69 132.97 71.72 132.90 76.75 132.91 C 76.77 131.09 76.80 129.27 76.83 127.44 C 75.41 127.42 74.00 127.40 72.58 127.38 C 72.57 127.98 72.56 129.16 72.56 129.76 C 71.57 129.76 69.61 129.77 68.63 129.78 C 68.61 128.75 68.59 126.69 68.57 125.65 C 70.17 125.67 71.77 125.69 73.37 125.71 C 73.31 124.64 73.25 123.58 73.19 122.52 C 71.64 122.49 70.10 122.46 68.55 122.44 C 68.55 121.62 68.55 119.97 68.55 119.15 C 69.52 119.11 71.44 119.04 72.40 119.01 C 72.46 119.56 72.59 120.65 72.65 121.20 C 74.03 121.22 75.41 121.24 76.79 121.26 C 76.78 119.44 76.78 117.63 76.78 115.81 C 71.73 115.82 66.69 115.81 61.64 115.83 M 77.96 115.82 C 78.03 116.43 78.18 117.66 78.25 118.27 C 80.84 122.65 79.55 128.39 77.72 132.87 C 80.34 132.91 82.95 132.91 85.57 132.92 C 85.60 132.28 85.65 131.01 85.68 130.37 C 85.16 130.14 84.12 129.69 83.60 129.46 C 83.63 127.56 83.67 125.66 83.71 123.77 C 85.85 126.78 87.90 129.86 89.93 132.96 C 91.71 132.94 93.49 132.93 95.27 132.92 C 95.47 127.17 94.20 121.07 97.19 115.81 C 94.50 115.79 91.81 115.80 89.12 115.85 C 89.28 117.40 89.94 118.68 91.08 119.69 C 91.16 121.43 91.20 123.18 91.23 124.94 C 89.15 121.90 87.11 118.85 85.09 115.78 C 82.71 115.77 80.34 115.82 77.96 115.82 M 97.86 115.82 C 97.84 117.95 97.83 120.08 97.81 122.20 C 98.74 122.21 100.60 122.21 101.53 122.21 C 101.49 121.42 101.40 119.84 101.36 119.05 C 101.93 119.04 103.05 119.02 103.62 119.01 C 103.61 122.55 103.60 126.09 103.64 129.63 C 103.12 129.68 102.10 129.80 101.59 129.86 C 101.59 130.63 101.61 132.19 101.62 132.96 C 104.64 132.92 107.65 132.92 110.67 132.92 C 110.71 132.16 110.77 130.65 110.80 129.89 C 110.27 129.83 109.19 129.71 108.65 129.65 C 108.68 125.89 108.61 122.14 108.77 118.39 C 110.66 118.87 110.83 120.63 111.07 122.24 C 111.87 122.23 113.49 122.21 114.29 122.20 C 114.32 120.07 114.36 117.94 114.38 115.80 C 108.87 115.79 103.37 115.79 97.86 115.82 Z" />
</g>
</svg>
