<?xml version="1.0" encoding="UTF-8" ?>
<!DOCTYPE svg PUBLIC "-//W3C//DTD SVG 1.1//EN" "http://www.w3.org/Graphics/SVG/1.1/DTD/svg11.dtd">
<svg width="982pt" height="946pt" viewBox="0 0 982 946" version="1.1" xmlns="http://www.w3.org/2000/svg">
<g id="#ffffffff">
<path fill="#0e76a8" opacity="1.00" d=" M 48.92 33.98 C 82.28 33.06 115.67 33.09 149.04 32.83 C 203.35 32.65 257.66 32.65 311.98 32.67 C 334.31 32.93 356.65 32.70 378.97 33.45 C 384.64 33.79 390.43 33.64 395.97 35.00 C 399.58 36.56 403.57 38.77 405.22 42.51 C 406.51 51.95 406.35 61.54 406.64 71.05 C 407.37 126.50 407.00 181.95 407.09 237.40 C 282.93 237.20 158.76 236.83 34.60 236.46 C 34.61 193.96 34.56 151.45 34.65 108.94 C 34.75 89.94 34.47 70.93 35.42 51.95 C 35.80 47.58 35.61 42.37 39.28 39.27 C 42.02 36.86 44.94 33.72 48.92 33.98 Z" />
<path fill="#ffffff" opacity="1.00" d=" M 33.64 269.94 C 158.12 269.93 282.60 269.93 407.08 269.93 C 406.97 276.68 407.37 283.46 406.63 290.18 C 405.71 296.43 399.91 300.03 396.00 304.40 C 309.67 304.40 223.34 304.40 137.01 304.40 C 113.33 304.25 89.63 304.35 65.95 303.51 C 57.74 303.00 49.29 303.06 41.38 300.48 C 37.66 299.40 36.42 295.39 35.55 292.06 C 33.48 284.88 33.56 277.34 33.64 269.94 Z" />
<path fill="#ffffff" opacity="1.00" d=" M 204.08 337.00 C 215.58 337.03 227.09 336.93 238.60 337.06 C 238.49 348.53 238.60 360.00 238.54 371.47 C 227.05 371.46 215.57 371.47 204.08 371.47 C 204.07 359.98 204.08 348.49 204.08 337.00 Z" />
<path fill="#1ba80e" opacity="1.00" d=" M 208.52 710.70 C 222.74 707.07 238.17 710.59 250.16 718.81 C 259.33 724.95 266.14 734.44 269.01 745.09 C 273.28 760.33 271.04 777.63 261.63 790.55 C 253.47 802.09 239.93 809.40 225.88 810.38 C 215.86 811.04 205.24 810.06 196.51 804.67 C 185.78 798.04 176.75 788.12 172.56 776.09 C 168.68 765.23 168.97 753.00 173.20 742.30 C 179.12 727.01 192.48 714.58 208.52 710.70 Z" />
</g>
<g id="#72cabeff">
<path fill="#72cabe" opacity="1.00" d=" M 30.65 5.51 C 34.87 3.47 39.19 0.96 44.04 1.20 C 92.35 0.37 140.67 0.76 188.98 0.67 C 249.33 0.75 309.68 0.34 370.02 1.29 C 380.33 1.57 390.66 1.79 400.93 2.94 C 406.92 3.71 413.33 4.72 418.09 8.76 C 426.73 15.99 434.46 25.12 437.51 36.15 C 439.56 47.99 438.94 60.10 439.31 72.07 C 439.48 135.68 439.20 199.30 438.61 262.91 C 438.31 275.95 438.46 289.03 437.03 302.01 C 436.49 307.64 433.15 312.43 429.81 316.80 C 422.76 325.52 413.05 332.32 402.17 335.20 C 392.23 337.01 382.07 336.64 372.02 336.87 C 338.39 337.06 304.75 336.98 271.11 337.00 C 271.13 348.50 271.07 359.99 271.14 371.49 C 280.36 371.68 290.89 370.17 298.67 376.27 C 305.89 381.91 306.09 393.40 300.34 400.13 C 297.92 403.35 293.49 402.49 290.00 402.94 C 241.67 404.74 193.29 403.71 144.94 404.02 C 141.00 399.14 136.20 393.64 137.36 386.85 C 138.59 380.09 143.91 373.31 151.13 372.64 C 157.96 371.74 164.85 371.54 171.72 371.07 C 171.36 360.07 170.89 349.07 170.62 338.06 C 125.79 337.06 80.91 336.94 36.09 335.88 C 28.70 331.53 21.18 327.03 15.29 320.69 C 10.52 315.58 6.66 309.56 4.41 302.93 C 2.25 296.88 2.76 290.36 2.38 284.06 C 0.91 218.70 0.87 153.31 1.15 87.93 C 1.29 76.30 1.40 64.67 1.65 53.04 C 1.91 47.48 1.59 41.74 3.53 36.43 C 8.15 23.18 17.93 11.60 30.65 5.51 M 48.92 33.98 C 44.94 33.72 42.02 36.86 39.28 39.27 C 35.61 42.37 35.80 47.58 35.42 51.95 C 34.47 70.93 34.75 89.94 34.65 108.94 C 34.56 151.45 34.61 193.96 34.60 236.46 C 158.76 236.83 282.93 237.20 407.09 237.40 C 407.00 181.95 407.37 126.50 406.64 71.05 C 406.35 61.54 406.51 51.95 405.22 42.51 C 403.57 38.77 399.58 36.56 395.97 35.00 C 390.43 33.64 384.64 33.79 378.97 33.45 C 356.65 32.70 334.31 32.93 311.98 32.67 C 257.66 32.65 203.35 32.65 149.04 32.83 C 115.67 33.09 82.28 33.06 48.92 33.98 M 33.64 269.94 C 33.56 277.34 33.48 284.88 35.55 292.06 C 36.42 295.39 37.66 299.40 41.38 300.48 C 49.29 303.06 57.74 303.00 65.95 303.51 C 89.63 304.35 113.33 304.25 137.01 304.40 C 223.34 304.40 309.67 304.40 396.00 304.40 C 399.91 300.03 405.71 296.43 406.63 290.18 C 407.37 283.46 406.97 276.68 407.08 269.93 C 282.60 269.93 158.12 269.93 33.64 269.94 M 204.08 337.00 C 204.08 348.49 204.07 359.98 204.08 371.47 C 215.57 371.47 227.05 371.46 238.54 371.47 C 238.60 360.00 238.49 348.53 238.60 337.06 C 227.09 336.93 215.58 337.03 204.08 337.00 Z" />
<path fill="#72cabe" opacity="1.00" d=" M 783.53 102.70 C 801.34 100.00 820.07 103.20 835.69 112.27 C 851.67 121.56 864.99 135.71 872.53 152.66 C 879.39 168.02 881.34 185.55 877.88 202.02 C 871.11 235.61 841.98 263.42 808.12 268.64 C 788.56 271.70 768.24 266.82 751.42 256.63 C 737.25 248.07 725.88 235.04 719.22 219.91 C 711.34 202.23 709.79 181.79 715.02 163.15 C 720.19 144.55 732.00 127.69 748.24 117.13 C 758.90 110.11 770.78 104.45 783.53 102.70 M 786.49 135.83 C 771.99 138.49 758.79 147.64 751.43 160.44 C 747.98 166.39 746.08 173.10 744.82 179.82 C 743.30 188.18 745.61 196.62 748.34 204.47 C 752.66 214.97 760.85 223.60 770.39 229.60 C 781.71 236.78 796.12 238.48 808.99 234.99 C 832.00 228.82 848.78 204.83 846.31 181.07 C 844.84 164.42 834.32 149.13 819.69 141.21 C 809.74 135.48 797.74 133.68 786.49 135.83 Z" />
<path fill="#72cabe" opacity="1.00" d=" M 547.13 170.11 C 554.24 168.42 562.23 172.39 564.83 179.29 C 567.70 186.58 565.26 196.32 558.08 200.15 C 549.02 204.80 536.22 198.80 534.60 188.57 C 532.79 180.29 538.84 171.57 547.13 170.11 Z" />
<path fill="#72cabe" opacity="1.00" d=" M 605.45 170.58 C 612.91 168.36 621.82 172.32 624.38 179.85 C 627.44 187.62 623.61 197.54 615.58 200.42 C 607.25 203.86 596.01 199.08 593.98 189.98 C 591.77 181.82 596.95 172.26 605.45 170.58 Z" />
<path fill="#72cabe" opacity="1.00" d=" M 664.35 170.57 C 675.93 165.76 688.26 179.88 684.01 191.02 C 681.58 198.74 672.71 203.01 665.02 201.19 C 657.47 199.97 651.73 192.55 652.39 184.94 C 652.61 178.11 658.01 172.49 664.35 170.57 Z" />
<path fill="#72cabe" opacity="1.00" d=" M 483.42 171.61 C 488.27 170.13 493.56 170.09 498.47 171.35 C 503.02 172.38 505.36 177.01 506.74 181.05 C 509.16 188.42 505.31 197.14 498.16 200.20 C 490.98 203.61 481.12 201.00 477.50 193.66 C 473.49 186.42 475.21 175.05 483.42 171.61 Z" />
<path fill="#72cabe" opacity="1.00" d=" M 790.22 297.26 C 798.39 294.26 808.24 299.54 810.50 307.89 C 812.88 315.67 808.86 325.20 800.94 327.88 C 792.24 331.05 781.61 325.03 779.77 315.97 C 777.88 308.26 782.82 299.85 790.22 297.26 Z" />
<path fill="#72cabe" opacity="1.00" d=" M 790.38 356.51 C 798.65 353.51 808.96 358.63 810.76 367.43 C 811.65 373.17 811.22 380.34 806.17 384.13 C 801.60 387.28 795.49 388.75 790.16 386.75 C 782.23 383.72 777.57 374.13 780.18 366.03 C 781.60 361.34 785.78 357.91 790.38 356.51 Z" />
<path fill="#72cabe" opacity="1.00" d=" M 791.43 414.71 C 794.58 413.00 798.07 414.64 801.16 415.63 C 804.89 416.86 808.58 419.25 809.93 423.12 C 811.97 429.04 811.76 436.42 807.32 441.23 C 801.66 447.49 790.87 448.22 784.64 442.42 C 779.57 437.94 777.89 430.06 780.98 423.98 C 782.94 419.54 787.10 416.59 791.43 414.71 Z" />
<path fill="#72cabe" opacity="1.00" d=" M 216.48 440.65 C 222.83 439.21 230.56 441.20 233.86 447.22 C 238.92 454.69 236.36 466.00 228.42 470.38 C 220.19 475.28 208.58 470.16 205.67 461.28 C 202.60 453.05 207.72 442.54 216.48 440.65 Z" />
<path fill="#72cabe" opacity="1.00" d=" M 792.43 473.48 C 795.59 472.44 798.77 474.20 801.74 475.18 C 805.61 476.51 809.20 479.33 810.29 483.44 C 811.97 489.35 811.46 496.43 806.97 501.01 C 801.97 506.34 793.54 506.50 787.18 503.82 C 781.08 500.52 778.87 492.53 779.92 486.06 C 780.99 479.67 786.68 475.52 792.43 473.48 Z" />
<path fill="#72cabe" opacity="1.00" d=" M 216.12 500.13 C 223.55 497.66 232.68 501.34 235.47 508.86 C 238.75 516.65 235.03 526.82 226.89 529.78 C 218.78 533.15 207.86 528.79 205.40 520.08 C 202.83 511.99 207.63 502.11 216.12 500.13 Z" />
<path fill="#72cabe" opacity="1.00" d=" M 744.58 543.81 C 757.64 542.55 770.80 542.65 783.92 542.69 C 796.27 543.12 808.72 543.16 820.89 545.57 C 859.79 554.37 896.40 574.10 924.08 602.96 C 952.74 632.71 971.60 671.51 978.47 712.17 C 982.89 738.35 981.25 765.33 975.11 791.10 C 970.44 809.74 962.37 827.35 953.21 844.18 C 934.83 877.34 906.09 904.36 872.37 921.55 C 851.74 932.50 829.31 940.11 806.11 943.14 C 782.22 947.13 757.64 945.44 734.15 939.84 C 711.99 934.56 690.64 925.80 671.25 913.83 C 625.35 885.54 592.12 837.81 581.05 785.08 C 571.76 742.27 577.10 696.46 596.15 657.00 C 601.20 646.95 605.96 636.66 612.55 627.48 C 633.29 599.84 659.92 576.22 691.23 561.22 C 708.13 553.09 726.13 547.21 744.58 543.81 M 795.87 578.12 C 795.85 599.88 795.86 621.64 795.86 643.40 C 804.56 643.51 813.28 643.39 821.91 642.14 C 827.96 641.23 834.31 640.95 839.95 638.36 C 836.98 628.71 831.52 620.08 826.47 611.41 C 818.79 598.33 808.70 586.38 795.87 578.12 M 757.18 581.07 C 744.17 591.28 733.80 604.57 726.16 619.19 C 722.93 625.58 719.25 631.92 717.78 639.00 C 732.50 642.56 747.79 643.61 762.91 643.40 C 762.81 624.90 763.25 606.39 762.24 587.91 C 762.01 584.97 762.14 581.72 760.10 579.35 C 759.09 579.87 758.12 580.44 757.18 581.07 M 873.09 629.35 C 877.15 629.48 881.10 628.31 884.96 627.15 C 888.72 625.91 892.64 624.74 895.75 622.17 C 893.76 619.53 891.38 617.23 888.84 615.13 C 878.98 606.93 868.48 599.40 857.12 593.39 C 861.21 605.87 868.14 617.21 873.09 629.35 M 680.60 605.73 C 673.95 610.84 666.91 615.67 661.48 622.12 C 667.96 626.26 675.51 628.61 683.00 630.14 C 686.89 626.43 687.79 620.90 690.22 616.31 C 693.60 608.66 698.23 601.52 700.59 593.45 C 693.20 596.17 687.02 601.31 680.60 605.73 M 620.55 682.56 C 615.91 695.65 611.99 709.18 610.66 723.04 C 609.87 726.80 614.60 726.75 617.06 727.08 C 633.16 728.07 649.31 727.52 665.43 727.66 C 667.10 705.92 671.12 684.45 674.42 662.92 C 662.32 658.33 650.48 653.00 638.13 649.12 C 630.88 659.45 625.37 670.93 620.55 682.56 M 894.50 658.33 C 891.21 659.74 887.22 661.20 885.94 664.91 C 884.59 669.17 885.32 673.73 885.70 678.09 C 887.70 694.64 890.12 711.14 892.36 727.67 C 910.81 727.66 929.26 727.67 947.71 727.66 C 945.93 708.50 939.65 690.13 932.29 672.47 C 928.58 664.20 924.79 655.57 918.14 649.20 C 910.04 651.64 902.37 655.26 894.50 658.33 M 704.87 679.87 C 701.95 695.70 700.62 711.77 699.50 727.82 C 720.44 727.51 741.38 727.02 762.32 726.73 C 762.50 710.51 762.56 694.29 762.73 678.07 C 748.51 676.51 734.27 675.06 720.11 673.04 C 716.45 672.65 712.71 671.91 709.04 672.60 C 705.84 673.43 705.51 677.17 704.87 679.87 M 795.84 678.06 C 795.89 694.61 795.72 711.16 795.93 727.71 C 816.43 727.43 836.96 728.21 857.43 726.85 C 857.95 721.19 857.21 715.52 856.70 709.89 C 855.39 698.66 854.18 687.35 851.47 676.36 C 850.38 671.70 844.75 672.20 841.08 672.54 C 825.98 674.19 810.94 676.39 795.84 678.06 M 609.92 760.20 C 613.31 787.98 622.95 815.17 638.69 838.37 C 649.72 833.65 660.76 828.96 671.92 824.58 C 674.99 823.50 673.65 819.52 673.40 817.14 C 669.41 798.37 667.76 779.23 665.44 760.21 C 646.93 760.18 628.42 760.21 609.92 760.20 M 700.11 760.20 C 699.60 776.30 702.16 792.32 705.41 808.04 C 706.17 810.05 706.00 812.94 707.92 814.24 C 716.67 814.58 725.21 812.11 733.89 811.39 C 741.94 810.26 750.10 810.45 758.17 809.71 C 761.89 809.37 762.40 805.03 762.60 802.08 C 763.35 788.14 762.70 774.18 762.37 760.24 C 741.62 760.15 720.86 760.23 700.11 760.20 M 795.84 760.20 C 795.82 776.59 795.88 792.97 795.80 809.36 C 808.93 810.29 822.09 811.03 835.13 812.86 C 840.26 813.60 845.30 814.96 850.48 815.43 C 851.38 812.38 851.93 809.25 852.42 806.13 C 855.00 790.88 857.16 775.57 858.63 760.17 C 837.70 760.23 816.77 760.18 795.84 760.20 M 891.99 760.20 C 889.93 781.02 887.21 801.79 883.26 822.35 C 886.23 824.85 889.90 826.23 893.50 827.58 C 902.04 830.57 910.29 834.38 918.22 838.74 C 927.72 826.33 933.54 811.66 938.87 797.09 C 942.26 786.97 945.74 776.74 946.99 766.08 C 946.98 764.49 947.77 761.90 945.61 761.42 C 942.51 760.44 939.21 760.52 936.01 760.37 C 921.34 760.13 906.67 760.21 891.99 760.20 M 730.05 845.00 C 725.78 845.74 721.40 845.98 717.30 847.43 C 723.67 864.11 731.95 880.53 744.71 893.28 C 749.84 898.25 754.62 903.90 761.05 907.26 C 762.42 901.65 762.42 895.82 762.73 890.09 C 763.20 874.24 763.44 858.28 760.98 842.57 C 750.62 842.58 740.29 843.55 730.05 845.00 M 795.85 842.53 C 795.90 859.69 795.74 876.85 795.95 894.01 C 796.12 898.15 795.83 902.58 797.96 906.31 C 801.05 905.78 803.19 903.38 805.42 901.39 C 816.48 891.45 824.50 878.70 832.00 865.99 C 835.08 860.04 839.12 854.21 839.86 847.40 C 835.05 845.96 830.05 845.36 825.10 844.61 C 815.39 843.43 805.65 842.24 795.85 842.53 M 678.76 856.85 C 672.83 858.88 667.01 861.23 661.22 863.63 C 665.61 868.65 670.48 873.25 675.93 877.12 C 684.13 883.04 692.20 889.30 701.25 893.91 C 699.39 888.39 696.55 883.29 694.16 878.00 C 690.67 870.86 687.53 863.45 682.86 856.98 C 681.91 855.43 680.08 856.63 678.76 856.85 M 874.27 855.93 C 871.27 860.79 868.80 865.94 866.39 871.11 C 863.30 878.03 859.87 884.88 857.86 892.22 C 866.67 888.49 874.14 882.29 881.97 876.90 C 886.71 873.06 892.48 869.78 895.06 863.98 C 888.76 859.92 881.43 857.88 874.27 855.93 Z" />
<path fill="#72cabe" opacity="1.00" d=" M 216.38 558.64 C 223.95 556.19 232.14 561.13 235.12 568.15 C 238.52 574.99 235.96 584.48 228.90 587.88 C 222.47 590.91 213.87 590.43 208.61 585.34 C 200.92 577.08 205.51 561.57 216.38 558.64 Z" />
<path fill="#72cabe" opacity="1.00" d=" M 218.10 617.25 C 222.96 615.85 227.76 618.62 231.60 621.33 C 238.01 626.26 238.40 636.27 233.62 642.46 C 228.83 649.42 218.30 651.20 211.38 646.45 C 205.17 642.35 202.90 633.52 206.06 626.84 C 208.22 621.91 213.10 618.76 218.10 617.25 Z" />
<path fill="#72cabe" opacity="1.00" d=" M 211.53 676.77 C 231.71 674.29 252.68 679.89 269.04 691.93 C 283.21 702.38 294.44 717.02 300.23 733.70 C 306.35 751.19 305.71 770.61 299.85 788.08 C 289.94 818.75 259.69 840.30 228.14 843.52 C 194.23 846.68 159.57 826.77 145.12 795.93 C 135.06 775.27 134.42 750.45 142.88 729.14 C 154.03 700.98 181.49 680.21 211.53 676.77 M 208.52 710.70 C 192.48 714.58 179.12 727.01 173.20 742.30 C 168.97 753.00 168.68 765.23 172.56 776.09 C 176.75 788.12 185.78 798.04 196.51 804.67 C 205.24 810.06 215.86 811.04 225.88 810.38 C 239.93 809.40 253.47 802.09 261.63 790.55 C 271.04 777.63 273.28 760.33 269.01 745.09 C 266.14 734.44 259.33 724.95 250.16 718.81 C 238.17 710.59 222.74 707.07 208.52 710.70 Z" />
<path fill="#72cabe" opacity="1.00" d=" M 404.41 743.50 C 407.78 742.86 411.07 744.55 414.09 745.85 C 423.97 750.26 425.16 765.52 417.08 772.21 C 411.80 776.71 403.48 777.32 397.73 773.35 C 391.60 769.32 388.83 760.74 391.93 754.00 C 394.04 748.67 399.16 745.26 404.41 743.50 Z" />
<path fill="#72cabe" opacity="1.00" d=" M 343.49 744.72 C 347.48 743.16 351.74 744.38 355.67 745.48 C 363.01 750.39 365.35 761.65 360.23 768.97 C 354.96 777.09 342.31 778.13 335.43 771.55 C 327.88 763.22 332.33 747.34 343.49 744.72 Z" />
<path fill="#72cabe" opacity="1.00" d=" M 462.40 744.58 C 470.62 742.28 479.79 748.06 481.35 756.43 C 483.22 763.82 479.10 772.21 471.86 774.84 C 464.14 778.02 453.67 774.51 450.85 766.28 C 447.45 757.48 453.04 746.49 462.40 744.58 Z" />
<path fill="#72cabe" opacity="1.00" d=" M 520.40 744.61 C 528.48 742.90 537.84 747.29 540.42 755.41 C 543.83 765.14 535.09 776.35 524.95 776.06 C 516.78 775.98 509.25 769.10 508.73 760.89 C 508.35 753.71 513.54 746.61 520.40 744.61 Z" />
</g>
</svg>
