<?xml version="1.0" encoding="UTF-8" ?>
<!DOCTYPE svg PUBLIC "-//W3C//DTD SVG 1.1//EN" "http://www.w3.org/Graphics/SVG/1.1/DTD/svg11.dtd">
<svg width="461pt" height="468pt" viewBox="0 0 461 468" version="1.1" xmlns="http://www.w3.org/2000/svg">
<g id="#ffffffff">
</g>
<g id="#60a59bff">
<path fill="#60a59b" opacity="1.00" d=" M 93.88 73.94 C 128.45 38.63 177.56 18.21 226.96 18.46 C 274.25 18.17 321.32 36.81 355.61 69.38 C 392.24 103.48 414.42 152.87 414.60 203.00 C 415.77 248.04 402.09 293.25 376.33 330.19 C 351.67 366.16 316.76 394.48 277.87 413.86 C 246.04 429.64 211.28 439.78 175.85 442.78 C 190.75 432.74 204.72 421.20 216.47 407.56 C 220.21 403.18 224.29 398.98 227.10 393.90 C 180.71 394.03 134.45 376.23 100.44 344.64 C 62.03 310.03 39.14 258.77 39.45 207.02 C 38.77 157.76 58.98 108.66 93.88 73.94 M 266.41 98.56 C 255.39 101.64 246.39 109.90 240.81 119.70 C 228.35 141.56 231.67 172.20 250.65 189.34 C 258.52 196.54 269.34 200.63 280.04 199.56 C 292.74 198.49 304.12 190.47 310.89 179.90 C 319.22 167.48 321.52 151.73 318.99 137.16 C 316.49 123.77 309.13 110.94 297.57 103.41 C 288.55 97.33 276.85 95.55 266.41 98.56 M 173.37 130.59 C 160.07 134.21 152.75 148.83 153.81 161.90 C 154.41 166.75 160.99 168.82 164.41 165.45 C 166.67 163.59 166.28 160.45 166.58 157.85 C 166.93 152.49 169.23 146.86 173.99 143.99 C 178.65 141.09 185.19 142.16 188.84 146.20 C 192.62 150.13 193.65 155.76 193.76 161.02 C 193.61 165.36 198.80 168.54 202.63 166.56 C 204.86 165.70 206.45 163.36 206.38 160.96 C 206.53 151.95 203.64 142.41 196.80 136.24 C 190.66 130.47 181.47 128.18 173.37 130.59 M 197.41 202.45 C 191.43 204.87 185.23 209.15 183.94 215.91 C 182.69 223.26 185.81 230.84 190.85 236.14 C 198.81 244.48 209.96 248.74 220.87 251.66 C 221.52 257.57 220.39 263.52 218.76 269.18 C 216.60 276.23 212.55 283.33 205.73 286.74 C 196.28 291.70 185.07 293.72 174.56 291.50 C 169.32 290.24 163.71 288.03 160.80 283.20 C 159.12 280.32 158.87 276.03 155.19 274.86 C 150.93 273.15 145.99 277.24 146.73 281.72 C 148.33 289.88 154.29 296.68 161.63 300.32 C 173.31 306.23 187.04 305.92 199.50 302.95 C 200.21 307.21 200.75 311.57 202.49 315.58 C 205.21 322.98 212.41 327.91 220.07 329.02 C 229.10 330.34 239.48 329.88 246.76 323.70 C 252.79 318.57 254.45 310.40 255.45 302.94 C 266.49 305.52 278.42 306.06 289.21 302.14 C 296.91 299.33 303.91 293.71 306.96 285.93 C 307.87 283.59 308.92 280.83 307.72 278.39 C 306.38 274.85 301.52 273.29 298.45 275.55 C 295.18 277.67 295.66 282.33 292.87 284.92 C 286.63 291.52 276.74 292.91 268.09 292.23 C 259.10 291.19 249.45 288.72 243.02 281.95 C 235.90 273.72 233.80 262.38 233.75 251.79 C 244.12 248.96 254.69 245.08 262.65 237.60 C 268.42 232.31 272.08 224.44 271.14 216.54 C 270.32 210.87 265.79 206.61 260.94 204.06 C 252.96 199.96 243.92 198.50 235.06 197.77 C 222.40 197.05 209.35 197.84 197.41 202.45 Z" />
<path fill="#60a59b" opacity="1.00" d=" M 268.40 130.64 C 277.12 128.10 287.00 131.17 293.03 137.88 C 298.65 143.79 300.93 152.09 301.16 160.08 C 301.30 162.85 299.63 165.79 296.90 166.64 C 293.51 167.83 289.44 165.66 288.86 162.06 C 288.43 158.12 288.49 154.00 286.67 150.38 C 284.48 145.09 278.68 141.27 272.88 142.39 C 266.29 143.32 262.09 149.93 261.48 156.15 C 261.07 159.39 261.67 163.44 258.69 165.67 C 255.28 168.45 249.60 166.39 248.75 162.07 C 247.70 148.93 255.04 134.29 268.40 130.64 Z" />
<path fill="#60a59b" opacity="1.00" d=" M 217.58 211.90 C 225.21 210.84 233.07 210.85 240.60 212.56 C 243.15 213.26 246.03 214.07 247.57 216.41 C 248.40 219.70 244.29 221.03 241.88 221.81 C 232.26 224.23 221.90 224.30 212.34 221.55 C 210.10 220.72 206.59 219.44 207.35 216.40 C 209.75 213.27 213.97 212.66 217.58 211.90 Z" />
<path fill="#72cabe" opacity="1.00" d=" M 212.22 297.88 C 218.84 294.37 223.86 288.49 227.49 282.04 C 231.01 288.61 236.26 294.39 242.83 298.00 C 242.46 302.73 242.25 307.71 240.05 312.03 C 236.56 317.27 229.55 316.80 224.03 316.58 C 219.86 316.58 215.34 314.26 214.03 310.09 C 212.78 306.15 212.23 302.00 212.22 297.88 Z" />
</g>
<g id="#2f2e3eff">
<path fill="#2f2e3e" opacity="1.00" d=" M 266.41 98.56 C 276.85 95.55 288.55 97.33 297.57 103.41 C 309.13 110.94 316.49 123.77 318.99 137.16 C 321.52 151.73 319.22 167.48 310.89 179.90 C 304.12 190.47 292.74 198.49 280.04 199.56 C 269.34 200.63 258.52 196.54 250.65 189.34 C 231.67 172.20 228.35 141.56 240.81 119.70 C 246.39 109.90 255.39 101.64 266.41 98.56 M 268.40 130.64 C 255.04 134.29 247.70 148.93 248.75 162.07 C 249.60 166.39 255.28 168.45 258.69 165.67 C 261.67 163.44 261.07 159.39 261.48 156.15 C 262.09 149.93 266.29 143.32 272.88 142.39 C 278.68 141.27 284.48 145.09 286.67 150.38 C 288.49 154.00 288.43 158.12 288.86 162.06 C 289.44 165.66 293.51 167.83 296.90 166.64 C 299.63 165.79 301.30 162.85 301.16 160.08 C 300.93 152.09 298.65 143.79 293.03 137.88 C 287.00 131.17 277.12 128.10 268.40 130.64 Z" />
<path fill="#2f2e3e" opacity="1.00" d=" M 173.37 130.59 C 181.47 128.18 190.66 130.47 196.80 136.24 C 203.64 142.41 206.53 151.95 206.38 160.96 C 206.45 163.36 204.86 165.70 202.63 166.56 C 198.80 168.54 193.61 165.36 193.76 161.02 C 193.65 155.76 192.62 150.13 188.84 146.20 C 185.19 142.16 178.65 141.09 173.99 143.99 C 169.23 146.86 166.93 152.49 166.58 157.85 C 166.28 160.45 166.67 163.59 164.41 165.45 C 160.99 168.82 154.41 166.75 153.81 161.90 C 152.75 148.83 160.07 134.21 173.37 130.59 Z" />
<path fill="#2f2e3e" opacity="1.00" d=" M 197.41 202.45 C 209.35 197.84 222.40 197.05 235.06 197.77 C 243.92 198.50 252.96 199.96 260.94 204.06 C 265.79 206.61 270.32 210.87 271.14 216.54 C 272.08 224.44 268.42 232.31 262.65 237.60 C 254.69 245.08 244.12 248.96 233.75 251.79 C 233.80 262.38 235.90 273.72 243.02 281.95 C 249.45 288.72 259.10 291.19 268.09 292.23 C 276.74 292.91 286.63 291.52 292.87 284.92 C 295.66 282.33 295.18 277.67 298.45 275.55 C 301.52 273.29 306.38 274.85 307.72 278.39 C 308.92 280.83 307.87 283.59 306.96 285.93 C 303.91 293.71 296.91 299.33 289.21 302.14 C 278.42 306.06 266.49 305.52 255.45 302.94 C 254.45 310.40 252.79 318.57 246.76 323.70 C 239.48 329.88 229.10 330.34 220.07 329.02 C 212.41 327.91 205.21 322.98 202.49 315.58 C 200.75 311.57 200.21 307.21 199.50 302.95 C 187.04 305.92 173.31 306.23 161.63 300.32 C 154.29 296.68 148.33 289.88 146.73 281.72 C 145.99 277.24 150.93 273.15 155.19 274.86 C 158.87 276.03 159.12 280.32 160.80 283.20 C 163.71 288.03 169.32 290.24 174.56 291.50 C 185.07 293.72 196.28 291.70 205.73 286.74 C 212.55 283.33 216.60 276.23 218.76 269.18 C 220.39 263.52 221.52 257.57 220.87 251.66 C 209.96 248.74 198.81 244.48 190.85 236.14 C 185.81 230.84 182.69 223.26 183.94 215.91 C 185.23 209.15 191.43 204.87 197.41 202.45 M 217.58 211.90 C 213.97 212.66 209.75 213.27 207.35 216.40 C 206.59 219.44 210.10 220.72 212.34 221.55 C 221.90 224.30 232.26 224.23 241.88 221.81 C 244.29 221.03 248.40 219.70 247.57 216.41 C 246.03 214.07 243.15 213.26 240.60 212.56 C 233.07 210.85 225.21 210.84 217.58 211.90 M 212.22 297.88 C 212.23 302.00 212.78 306.15 214.03 310.09 C 215.34 314.26 219.86 316.58 224.03 316.58 C 229.55 316.80 236.56 317.27 240.05 312.03 C 242.25 307.71 242.46 302.73 242.83 298.00 C 236.26 294.39 231.01 288.61 227.49 282.04 C 223.86 288.49 218.84 294.37 212.22 297.88 Z" />
</g>
</svg>
