<?xml version="1.0" encoding="UTF-8" ?>
<!DOCTYPE svg PUBLIC "-//W3C//DTD SVG 1.1//EN" "http://www.w3.org/Graphics/SVG/1.1/DTD/svg11.dtd">
<svg width="838pt" height="876pt" viewBox="0 0 838 876" version="1.1" xmlns="http://www.w3.org/2000/svg">
<g id="#ffffffff">
<path fill="#ffffff" opacity="1.00" d=" M 370.39 75.48 C 396.44 75.57 422.49 75.59 448.54 75.47 C 448.47 101.82 448.26 128.19 448.65 154.54 C 437.09 154.86 425.52 154.59 413.96 154.67 C 413.23 154.79 411.77 155.05 411.04 155.18 C 409.69 154.79 408.32 154.62 406.93 154.64 C 394.77 154.67 382.61 154.74 370.44 154.61 C 370.60 128.24 370.53 101.85 370.39 75.48 M 393.38 87.49 C 393.29 88.61 393.22 89.73 393.17 90.85 C 394.76 91.34 396.40 91.59 398.06 91.52 C 411.37 91.44 424.68 91.53 437.99 91.48 C 439.40 91.57 440.57 90.72 441.78 90.15 C 441.60 88.37 440.49 86.68 438.55 86.66 C 429.39 85.78 420.18 86.76 410.99 86.37 C 405.14 86.51 399.02 85.53 393.38 87.49 M 393.55 104.34 C 405.02 104.67 416.54 106.24 427.99 104.77 C 432.09 104.57 436.25 104.99 440.32 104.28 C 441.34 103.33 440.49 101.54 440.73 100.27 C 439.20 99.67 437.58 99.38 435.94 99.48 C 422.63 99.67 409.30 99.42 395.99 99.58 C 393.48 99.61 393.29 102.47 393.55 104.34 M 394.46 113.56 C 392.66 113.97 393.41 116.11 393.50 117.38 C 395.28 117.82 397.07 118.37 398.94 118.35 C 411.30 118.32 423.66 118.29 436.02 118.36 C 437.63 118.40 439.23 118.13 440.82 117.84 C 440.78 116.40 440.75 114.96 440.73 113.52 C 428.51 112.85 416.21 111.93 404.01 113.28 C 400.83 113.44 397.59 112.88 394.46 113.56 M 393.64 126.54 C 393.53 127.88 393.46 129.23 393.36 130.57 C 400.12 132.14 407.12 131.36 413.99 131.72 C 422.96 131.52 432.01 132.08 440.91 130.76 C 440.73 129.42 440.83 128.01 440.34 126.74 C 438.62 126.06 436.74 126.28 434.95 126.27 C 421.18 126.59 407.40 126.07 393.64 126.54 M 393.44 140.65 C 393.52 141.85 393.60 143.06 393.67 144.27 C 404.73 145.08 415.86 144.42 426.95 144.63 C 431.36 144.45 435.86 145.08 440.22 144.26 C 441.09 143.23 440.63 141.68 440.91 140.43 C 438.93 140.08 436.97 139.59 434.96 139.55 C 422.62 139.16 410.27 139.58 397.93 139.52 C 396.33 139.41 394.86 140.01 393.44 140.65 Z" />
<path fill="#ffffff" opacity="1.00" d=" M 520.15 84.63 C 521.65 84.58 523.52 83.89 524.45 85.55 C 528.90 91.21 530.28 98.58 531.57 105.49 C 525.19 105.27 518.80 105.24 512.42 105.45 C 513.76 98.14 515.75 90.76 520.15 84.63 Z" />
<path fill="#ffffff" opacity="1.00" d=" M 488.09 105.44 C 493.25 95.91 502.12 87.94 512.81 85.40 C 509.58 91.56 507.41 98.51 507.43 105.48 C 500.98 105.21 494.53 105.29 488.09 105.44 Z" />
<path fill="#ffffff" opacity="1.00" d=" M 534.93 93.92 C 534.39 90.90 531.94 88.36 532.46 85.17 C 537.12 87.51 542.14 89.38 546.06 92.95 C 549.92 96.56 553.72 100.49 555.84 105.42 C 549.75 105.28 543.65 105.26 537.57 105.44 C 536.27 101.70 536.23 97.67 534.93 93.92 Z" />
<path fill="#ffffff" opacity="1.00" d=" M 484.89 127.04 C 484.32 121.55 484.41 115.68 486.63 110.54 C 493.23 110.77 499.84 110.70 506.45 110.57 C 506.48 114.08 506.28 117.58 505.55 121.02 C 506.11 124.80 506.56 128.60 506.47 132.44 C 499.86 132.49 493.25 132.71 486.66 132.37 C 485.11 131.13 485.49 128.77 484.89 127.04 Z" />
<path fill="#ffffff" opacity="1.00" d=" M 511.54 111.58 C 515.49 109.87 519.88 110.95 524.04 110.66 C 526.83 110.83 529.92 109.98 532.45 111.53 C 532.55 118.50 532.59 125.47 532.44 132.45 C 525.83 132.16 519.20 132.45 512.58 132.31 C 510.94 131.62 511.85 129.40 511.60 128.05 C 511.51 122.56 511.73 117.07 511.54 111.58 Z" />
<path fill="#ffffff" opacity="1.00" d=" M 538.24 110.58 C 544.60 110.77 550.96 110.57 557.32 110.68 C 558.60 111.68 558.78 113.46 559.16 114.93 C 559.82 120.76 559.66 126.70 558.26 132.41 C 551.57 132.50 544.88 132.66 538.19 132.41 C 538.62 125.14 538.50 117.85 538.24 110.58 Z" />
<path fill="#ffffff" opacity="1.00" d=" M 583.22 159.20 C 592.26 150.86 600.90 142.09 609.61 133.40 C 611.21 133.37 612.81 133.34 614.42 133.32 C 616.91 136.07 618.87 139.22 620.94 142.28 C 631.14 157.11 641.23 172.01 651.57 186.74 C 651.58 188.24 651.60 189.73 651.62 191.23 C 633.72 213.49 616.21 236.07 598.48 258.46 C 597.00 260.04 595.31 262.39 592.82 261.41 C 589.16 260.02 586.86 256.58 584.07 254.00 C 568.93 238.38 553.60 222.95 538.45 207.34 C 538.46 206.43 538.48 204.60 538.49 203.68 C 539.86 201.68 541.35 199.73 543.19 198.12 C 556.95 185.58 569.62 171.91 583.22 159.20 Z" />
<path fill="#ffffff" opacity="1.00" d=" M 488.97 137.64 C 495.06 138.20 501.52 136.54 507.35 138.61 C 507.46 145.29 510.25 151.46 512.01 157.79 C 503.39 155.34 495.82 149.57 490.73 142.25 C 489.65 140.93 489.36 139.23 488.97 137.64 Z" />
<path fill="#ffffff" opacity="1.00" d=" M 512.50 137.60 C 518.84 137.66 525.20 137.79 531.54 137.54 C 530.49 145.45 528.68 154.59 522.00 159.77 C 515.61 154.36 513.90 145.44 512.50 137.60 Z" />
<path fill="#ffffff" opacity="1.00" d=" M 537.72 137.59 C 543.18 137.86 548.67 137.39 554.13 137.79 C 554.56 138.01 555.43 138.46 555.86 138.68 C 550.67 147.66 542.19 155.32 531.92 157.63 C 533.61 152.68 535.87 147.89 536.46 142.63 C 536.54 140.88 536.94 139.17 537.72 137.59 Z" />
<path fill="#ffffff" opacity="1.00" d=" M 627.40 145.36 C 628.37 145.40 630.29 145.47 631.26 145.50 C 635.48 153.70 641.60 160.85 646.30 168.78 C 646.39 169.48 646.57 170.89 646.66 171.59 C 645.67 171.60 643.68 171.63 642.69 171.64 C 637.64 164.13 632.88 156.41 627.43 149.19 C 627.43 148.23 627.41 146.32 627.40 145.36 Z" />
<path fill="#ffffff" opacity="1.00" d=" M 259.30 199.22 C 266.06 196.63 273.09 201.96 274.64 208.53 C 276.86 215.28 271.63 222.62 264.91 223.91 C 256.91 225.98 248.47 218.12 249.58 210.04 C 250.29 204.90 254.50 200.80 259.30 199.22 Z" />
<path fill="#ffffff" opacity="1.00" d=" M 84.87 216.37 C 89.14 217.01 94.69 218.47 98.00 214.77 C 101.61 215.09 105.69 215.87 107.85 219.12 C 112.80 226.08 114.29 234.69 116.49 242.75 C 118.07 245.64 120.66 247.82 122.92 250.18 C 129.17 256.46 138.10 258.64 146.43 260.66 C 146.15 264.80 144.71 268.70 143.01 272.45 C 134.62 271.56 126.07 268.11 120.65 261.37 C 117.72 258.69 117.91 254.48 116.69 250.99 C 115.36 246.80 114.04 242.32 110.85 239.14 C 109.13 237.40 106.56 237.35 104.29 237.18 C 101.59 239.76 97.53 238.61 94.23 238.35 C 93.81 240.02 93.26 241.68 92.33 243.14 C 91.30 238.84 94.33 235.64 96.13 232.14 C 93.61 230.67 90.89 229.56 87.99 229.14 C 85.10 228.98 83.96 226.05 82.51 224.03 C 83.28 221.47 84.11 218.93 84.87 216.37 Z" />
<path fill="#ffffff" opacity="1.00" d=" M 264.19 235.04 C 268.19 234.95 272.00 233.56 275.15 231.11 C 272.72 234.19 271.50 237.98 271.96 241.92 C 269.38 239.61 266.78 237.33 264.19 235.04 Z" />
<path fill="#ffffff" opacity="1.00" d=" M 288.28 232.38 C 293.96 229.49 300.78 233.64 302.48 239.37 C 304.93 246.65 297.40 254.73 289.98 253.22 C 284.54 251.96 280.33 246.01 281.59 240.44 C 282.35 236.87 284.98 233.86 288.28 232.38 Z" />
<path fill="#ffffff" opacity="1.00" d=" M 556.03 236.68 C 558.72 236.06 561.50 236.39 564.24 236.40 C 565.80 237.77 567.24 239.26 568.59 240.84 C 568.58 243.32 568.57 245.81 568.53 248.29 C 566.97 250.85 564.87 253.03 562.28 254.57 C 559.73 254.60 557.18 254.64 554.64 254.58 C 552.47 252.83 550.59 250.74 549.48 248.17 C 549.53 246.75 549.55 245.33 549.53 243.91 C 551.25 241.17 552.88 238.02 556.03 236.68 M 557.49 240.47 C 556.48 241.47 555.48 242.46 554.48 243.45 C 554.48 245.14 554.47 246.83 554.48 248.52 C 555.17 249.16 555.87 249.81 556.56 250.48 C 558.77 250.53 561.45 251.01 562.98 248.96 C 565.48 246.68 564.86 242.74 562.65 240.51 C 560.92 240.51 559.20 240.49 557.49 240.47 Z" />
<path fill="#ffffff" opacity="1.00" d=" M 99.54 318.71 C 103.73 317.01 108.64 319.93 109.79 324.16 C 111.52 329.15 107.22 334.69 102.09 334.85 C 96.65 335.22 92.17 329.18 93.83 324.06 C 94.54 321.37 96.94 319.46 99.54 318.71 Z" />
<path fill="#ffffff" opacity="1.00" d=" M 84.23 325.25 C 87.21 324.10 89.67 329.27 86.52 330.45 C 83.24 332.46 80.49 326.52 84.23 325.25 Z" />
<path fill="#ffffff" opacity="1.00" d=" M 117.44 325.47 C 119.45 324.29 120.77 326.57 121.69 327.97 C 120.82 329.21 119.99 331.11 118.13 330.84 C 115.32 330.70 114.55 326.22 117.44 325.47 Z" />
<path fill="#ffffff" opacity="1.00" d=" M 81.54 336.71 C 86.71 334.79 92.47 339.76 91.99 345.07 C 91.82 349.21 88.11 352.74 84.01 352.96 C 78.43 353.44 73.82 346.93 75.86 341.79 C 76.75 339.28 79.06 337.49 81.54 336.71 Z" />
<path fill="#ffffff" opacity="1.00" d=" M 117.49 336.76 C 122.37 334.62 127.96 338.81 128.13 343.91 C 128.93 349.07 123.81 353.57 118.83 352.95 C 113.91 352.28 110.53 346.71 111.92 342.01 C 112.65 339.40 114.98 337.53 117.49 336.76 Z" />
<path fill="#ffffff" opacity="1.00" d=" M 101.24 340.16 C 105.02 339.36 107.40 344.53 105.27 347.35 C 103.51 349.94 98.77 349.57 97.79 346.43 C 96.40 343.86 98.42 340.49 101.24 340.16 Z" />
<path fill="#ffffff" opacity="1.00" d=" M 98.28 355.35 C 103.23 352.62 109.95 356.33 110.08 362.01 C 110.98 368.54 102.62 373.63 97.30 369.68 C 92.08 366.49 92.27 357.57 98.28 355.35 Z" />
<path fill="#ffffff" opacity="1.00" d=" M 84.50 358.56 C 87.85 357.03 89.60 363.36 85.97 363.92 C 82.49 364.95 80.85 359.42 84.50 358.56 Z" />
<path fill="#ffffff" opacity="1.00" d=" M 117.44 358.58 C 119.68 357.43 122.55 360.63 120.74 362.62 C 120.01 364.37 117.88 364.18 116.53 363.33 C 114.92 362.04 115.46 359.15 117.44 358.58 Z" />
</g>
<g id="#50c0b7ff">
<path fill="#50c0b7" opacity="1.00" d=" M 406.56 37.67 C 409.21 37.33 412.84 36.74 414.52 39.41 C 414.85 41.03 414.67 42.69 414.69 44.33 C 417.67 44.65 420.72 44.74 423.61 45.61 C 426.54 46.90 427.08 50.64 426.32 53.43 C 425.22 55.76 422.51 56.78 420.07 56.69 C 413.08 56.78 406.09 56.76 399.11 56.67 C 396.31 56.56 392.34 55.19 392.44 51.81 C 392.12 49.39 393.04 46.59 395.45 45.61 C 398.29 44.55 401.40 44.78 404.35 44.25 C 404.26 41.90 403.67 38.61 406.56 37.67 Z" />
<path fill="#50c0b7" opacity="1.00" d=" M 360.70 57.01 C 361.91 52.94 366.00 50.79 370.04 50.68 C 376.20 50.23 382.40 50.70 388.58 50.48 C 389.02 53.76 390.09 57.21 393.25 58.84 C 398.13 61.21 403.75 60.23 408.98 60.37 C 413.83 60.24 418.76 60.87 423.55 59.85 C 427.63 58.64 430.20 54.54 430.83 50.51 C 438.60 50.84 446.57 49.68 454.15 51.89 C 457.82 53.20 458.71 57.62 458.72 61.06 C 458.71 81.04 458.75 101.03 458.69 121.02 C 459.84 131.63 459.36 142.35 459.49 153.01 C 459.12 157.12 459.09 161.88 456.04 165.03 C 452.18 168.39 446.75 167.67 442.03 167.73 C 427.35 167.86 412.68 167.36 398.01 167.59 C 389.68 167.69 381.34 167.84 373.01 167.69 C 369.76 167.55 366.27 167.43 363.46 165.58 C 361.01 163.94 360.18 160.84 360.26 158.03 C 360.29 129.01 360.26 99.99 360.28 70.97 C 359.37 66.33 360.08 61.63 360.70 57.01 M 370.39 75.48 C 370.53 101.85 370.60 128.24 370.44 154.61 C 382.61 154.74 394.77 154.67 406.93 154.64 C 408.32 154.62 409.69 154.79 411.04 155.18 C 411.77 155.05 413.23 154.79 413.96 154.67 C 425.52 154.59 437.09 154.86 448.65 154.54 C 448.26 128.19 448.47 101.82 448.54 75.47 C 422.49 75.59 396.44 75.57 370.39 75.48 Z" />
<path fill="#50c0b7" opacity="1.00" d=" M 294.69 68.71 C 295.75 67.78 296.73 66.10 298.47 66.85 C 297.59 80.93 296.39 95.00 295.48 109.09 C 308.49 115.19 321.50 121.30 334.50 127.45 C 336.43 127.76 336.17 130.39 334.21 130.31 C 323.83 132.99 313.52 136.05 303.08 138.42 C 302.78 138.00 302.19 137.17 301.89 136.75 C 312.06 134.17 322.18 131.39 332.33 128.71 C 319.35 122.49 306.27 116.49 293.30 110.27 C 294.44 96.90 295.21 83.50 296.29 70.12 C 286.90 79.85 277.65 89.72 268.29 99.48 C 255.56 93.90 242.73 88.54 229.97 83.04 C 236.25 95.29 242.38 107.61 248.62 119.88 C 240.38 130.11 231.88 140.14 223.95 150.60 C 236.70 148.51 249.50 146.72 262.24 144.57 C 269.90 156.95 277.05 169.65 284.94 181.86 C 285.81 174.12 286.85 166.40 287.95 158.69 C 288.35 159.26 289.17 160.40 289.57 160.97 C 288.83 168.01 287.66 175.00 286.88 182.03 C 286.64 183.48 286.81 185.46 284.91 185.84 C 276.69 173.01 269.19 159.72 261.12 146.79 C 247.78 148.99 234.39 150.99 221.02 153.02 C 219.69 151.53 221.48 150.30 222.18 149.14 C 230.25 139.42 238.00 129.44 246.10 119.75 C 239.90 106.96 233.43 94.29 226.91 81.65 C 227.22 81.25 227.85 80.45 228.16 80.05 C 241.39 85.67 254.59 91.38 267.83 96.97 C 276.81 87.59 285.76 78.16 294.69 68.71 Z" />
<path fill="#50c0b7" opacity="1.00" d=" M 270.91 101.91 C 278.47 93.52 286.02 85.12 293.66 76.80 C 292.20 88.00 291.12 99.25 289.81 110.47 C 283.54 107.53 277.20 104.78 270.91 101.91 Z" />
<path fill="#50c0b7" opacity="1.00" d=" M 515.70 79.08 C 520.41 77.93 525.33 78.25 530.00 79.39 C 546.89 81.69 561.34 95.83 564.17 112.60 C 564.69 116.38 565.96 120.15 565.36 124.00 C 564.21 130.95 563.06 138.19 559.16 144.23 C 553.30 153.86 543.56 161.34 532.39 163.46 C 522.50 165.91 511.70 164.82 502.54 160.36 C 492.05 155.00 484.00 145.08 480.58 133.85 C 478.12 123.18 478.85 111.47 483.68 101.55 C 490.06 89.67 502.18 80.66 515.70 79.08 M 520.15 84.63 C 515.75 90.76 513.76 98.14 512.42 105.45 C 518.80 105.24 525.19 105.27 531.57 105.49 C 530.28 98.58 528.90 91.21 524.45 85.55 C 523.52 83.89 521.65 84.58 520.15 84.63 M 488.09 105.44 C 494.53 105.29 500.98 105.21 507.43 105.48 C 507.41 98.51 509.58 91.56 512.81 85.40 C 502.12 87.94 493.25 95.91 488.09 105.44 M 534.93 93.92 C 536.23 97.67 536.27 101.70 537.57 105.44 C 543.65 105.26 549.75 105.28 555.84 105.42 C 553.72 100.49 549.92 96.56 546.06 92.95 C 542.14 89.38 537.12 87.51 532.46 85.17 C 531.94 88.36 534.39 90.90 534.93 93.92 M 484.89 127.04 C 485.49 128.77 485.11 131.13 486.66 132.37 C 493.25 132.71 499.86 132.49 506.47 132.44 C 506.56 128.60 506.11 124.80 505.55 121.02 C 506.28 117.58 506.48 114.08 506.45 110.57 C 499.84 110.70 493.23 110.77 486.63 110.54 C 484.41 115.68 484.32 121.55 484.89 127.04 M 511.54 111.58 C 511.73 117.07 511.51 122.56 511.60 128.05 C 511.85 129.40 510.94 131.62 512.58 132.31 C 519.20 132.45 525.83 132.16 532.44 132.45 C 532.59 125.47 532.55 118.50 532.45 111.53 C 529.92 109.98 526.83 110.83 524.04 110.66 C 519.88 110.95 515.49 109.87 511.54 111.58 M 538.24 110.58 C 538.50 117.85 538.62 125.14 538.19 132.41 C 544.88 132.66 551.57 132.50 558.26 132.41 C 559.66 126.70 559.82 120.76 559.16 114.93 C 558.78 113.46 558.60 111.68 557.32 110.68 C 550.96 110.57 544.60 110.77 538.24 110.58 M 488.97 137.64 C 489.36 139.23 489.65 140.93 490.73 142.25 C 495.82 149.57 503.39 155.34 512.01 157.79 C 510.25 151.46 507.46 145.29 507.35 138.61 C 501.52 136.54 495.06 138.20 488.97 137.64 M 512.50 137.60 C 513.90 145.44 515.61 154.36 522.00 159.77 C 528.68 154.59 530.49 145.45 531.54 137.54 C 525.20 137.79 518.84 137.66 512.50 137.60 M 537.72 137.59 C 536.94 139.17 536.54 140.88 536.46 142.63 C 535.87 147.89 533.61 152.68 531.92 157.63 C 542.19 155.32 550.67 147.66 555.86 138.68 C 555.43 138.46 554.56 138.01 554.13 137.79 C 548.67 137.39 543.18 137.86 537.72 137.59 Z" />
<path fill="#50c0b7" opacity="1.00" d=" M 393.38 87.49 C 399.02 85.53 405.14 86.51 410.99 86.37 C 420.18 86.76 429.39 85.78 438.55 86.66 C 440.49 86.68 441.60 88.37 441.78 90.15 C 440.57 90.72 439.40 91.57 437.99 91.48 C 424.68 91.53 411.37 91.44 398.06 91.52 C 396.40 91.59 394.76 91.34 393.17 90.85 C 393.22 89.73 393.29 88.61 393.38 87.49 Z" />
<path fill="#50c0b7" opacity="1.00" d=" M 235.91 88.84 C 264.70 101.71 293.34 114.90 322.20 127.62 C 320.53 128.82 318.39 128.81 316.45 129.26 C 309.95 130.60 303.43 131.88 296.95 133.30 C 288.62 126.94 280.67 120.09 272.20 113.91 C 285.13 128.59 298.22 143.13 311.21 157.76 C 312.88 159.77 315.15 161.42 316.03 163.97 C 302.07 151.58 288.00 139.32 273.98 127.00 C 271.20 124.68 268.75 121.95 265.68 120.00 C 280.42 136.31 295.49 152.33 310.38 168.51 C 312.87 171.41 315.96 173.84 317.95 177.13 C 301.95 162.45 285.96 147.74 269.94 133.07 C 269.01 132.26 268.04 131.49 267.07 130.75 C 272.97 138.64 278.82 146.57 284.88 154.34 C 284.62 160.17 283.51 165.93 283.31 171.77 C 267.58 144.09 251.82 116.42 235.91 88.84 Z" />
<path fill="#50c0b7" opacity="1.00" d=" M 393.55 104.34 C 393.29 102.47 393.48 99.61 395.99 99.58 C 409.30 99.42 422.63 99.67 435.94 99.48 C 437.58 99.38 439.20 99.67 440.73 100.27 C 440.49 101.54 441.34 103.33 440.32 104.28 C 436.25 104.99 432.09 104.57 427.99 104.77 C 416.54 106.24 405.02 104.67 393.55 104.34 Z" />
<path fill="#50c0b7" opacity="1.00" d=" M 394.46 113.56 C 397.59 112.88 400.83 113.44 404.01 113.28 C 416.21 111.93 428.51 112.85 440.73 113.52 C 440.75 114.96 440.78 116.40 440.82 117.84 C 439.23 118.13 437.63 118.40 436.02 118.36 C 423.66 118.29 411.30 118.32 398.94 118.35 C 397.07 118.37 395.28 117.82 393.50 117.38 C 393.41 116.11 392.66 113.97 394.46 113.56 Z" />
<path fill="#50c0b7" opacity="1.00" d=" M 232.71 143.89 C 239.29 136.52 245.98 129.24 252.68 121.97 C 256.13 128.13 259.81 134.15 263.36 140.25 C 252.55 142.48 241.73 144.67 230.96 147.07 L 229.84 148.50 C 229.42 147.57 229.08 146.61 228.78 145.64 C 230.69 146.80 231.63 144.90 232.71 143.89 Z" />
<path fill="#50c0b7" opacity="1.00" d=" M 612.68 124.91 C 616.29 123.57 619.80 126.09 621.85 128.89 C 632.85 145.28 643.80 161.71 654.87 178.06 C 657.82 181.58 658.88 187.23 655.82 190.99 C 633.78 219.25 611.71 247.48 589.69 275.76 C 586.78 279.18 581.59 281.74 577.21 279.79 C 560.21 264.83 543.47 249.54 526.51 234.51 C 523.66 231.17 519.06 229.21 517.58 224.84 C 517.55 221.07 516.40 216.42 519.50 213.50 C 523.79 209.13 528.16 204.84 532.62 200.64 C 542.20 192.58 550.32 182.95 559.86 174.83 C 566.29 168.95 572.23 162.55 578.62 156.62 C 590.34 146.46 600.53 134.55 612.68 124.91 M 583.22 159.20 C 569.62 171.91 556.95 185.58 543.19 198.12 C 541.35 199.73 539.86 201.68 538.49 203.68 C 538.48 204.60 538.46 206.43 538.45 207.34 C 553.60 222.95 568.93 238.38 584.07 254.00 C 586.86 256.58 589.16 260.02 592.82 261.41 C 595.31 262.39 597.00 260.04 598.48 258.46 C 616.21 236.07 633.72 213.49 651.62 191.23 C 651.60 189.73 651.58 188.24 651.57 186.74 C 641.23 172.01 631.14 157.11 620.94 142.28 C 618.87 139.22 616.91 136.07 614.42 133.32 C 612.81 133.34 611.21 133.37 609.61 133.40 C 600.90 142.09 592.26 150.86 583.22 159.20 M 627.40 145.36 C 627.41 146.32 627.43 148.23 627.43 149.19 C 632.88 156.41 637.64 164.13 642.69 171.64 C 643.68 171.63 645.67 171.60 646.66 171.59 C 646.57 170.89 646.39 169.48 646.30 168.78 C 641.60 160.85 635.48 153.70 631.26 145.50 C 630.29 145.47 628.37 145.40 627.40 145.36 M 556.03 236.68 C 552.88 238.02 551.25 241.17 549.53 243.91 C 549.55 245.33 549.53 246.75 549.48 248.17 C 550.59 250.74 552.47 252.83 554.64 254.58 C 557.18 254.64 559.73 254.60 562.28 254.57 C 564.87 253.03 566.97 250.85 568.53 248.29 C 568.57 245.81 568.58 243.32 568.59 240.84 C 567.24 239.26 565.80 237.77 564.24 236.40 C 561.50 236.39 558.72 236.06 556.03 236.68 Z" />
<path fill="#50c0b7" opacity="1.00" d=" M 393.64 126.54 C 407.40 126.07 421.18 126.59 434.95 126.27 C 436.74 126.28 438.62 126.06 440.34 126.74 C 440.83 128.01 440.73 129.42 440.91 130.76 C 432.01 132.08 422.96 131.52 413.99 131.72 C 407.12 131.36 400.12 132.14 393.36 130.57 C 393.46 129.23 393.53 127.88 393.64 126.54 Z" />
<path fill="#50c0b7" opacity="1.00" d=" M 393.44 140.65 C 394.86 140.01 396.33 139.41 397.93 139.52 C 410.27 139.58 422.62 139.16 434.96 139.55 C 436.97 139.59 438.93 140.08 440.91 140.43 C 440.63 141.68 441.09 143.23 440.22 144.26 C 435.86 145.08 431.36 144.45 426.95 144.63 C 415.86 144.42 404.73 145.08 393.67 144.27 C 393.60 143.06 393.52 141.85 393.44 140.65 Z" />
<path fill="#50c0b7" opacity="1.00" d=" M 313.40 155.40 C 318.70 151.34 324.81 148.51 330.25 144.66 C 338.61 159.54 344.63 175.63 350.49 191.63 C 361.52 222.92 369.82 255.17 375.56 287.84 C 379.98 313.63 383.02 339.77 382.67 365.97 C 382.56 372.27 382.88 378.65 381.76 384.88 C 380.83 359.97 375.30 335.46 368.20 311.64 C 356.74 274.50 340.72 238.74 320.46 205.56 C 312.24 192.20 303.23 179.30 292.96 167.43 C 294.88 166.63 297.11 163.96 299.21 165.72 C 308.91 173.12 318.52 180.67 328.27 188.02 C 323.36 180.92 317.63 174.42 312.39 167.56 C 310.31 164.64 307.58 162.14 306.10 158.83 C 307.40 158.98 308.69 159.42 309.58 160.45 C 314.71 165.42 319.75 170.51 324.99 175.37 C 321.36 168.59 317.55 161.88 313.40 155.40 Z" />
<path fill="#50c0b7" opacity="1.00" d=" M 482.47 165.39 C 483.32 164.03 483.40 161.69 485.04 161.12 C 489.27 165.29 493.65 169.46 499.14 171.98 C 508.67 176.49 519.78 177.87 530.03 175.10 C 517.83 186.44 507.96 200.05 498.97 214.01 C 480.00 244.25 467.99 278.39 460.42 313.13 C 456.74 329.66 454.04 346.42 452.41 363.27 C 451.31 346.22 451.42 329.11 451.57 312.02 C 453.12 303.43 451.65 294.61 453.18 286.01 C 456.21 244.64 464.98 203.23 482.47 165.39 Z" />
<path fill="#50c0b7" opacity="1.00" d=" M 378.09 181.44 C 389.07 181.54 400.04 181.13 411.01 181.26 C 419.96 180.12 429.00 180.72 438.00 180.39 C 431.14 210.41 423.83 240.35 418.58 270.72 C 414.04 296.64 410.80 322.81 409.18 349.04 C 408.07 355.32 409.22 361.81 407.84 368.05 C 407.57 376.43 407.74 384.82 407.51 393.20 C 404.68 331.76 398.29 270.31 385.16 210.10 C 382.89 200.53 380.84 190.89 378.09 181.44 Z" />
<path fill="#50c0b7" opacity="1.00" d=" M 243.19 198.30 C 250.66 187.72 267.45 184.97 277.39 193.62 C 283.12 198.56 286.04 206.39 285.41 213.88 C 285.04 217.88 283.12 221.47 281.23 224.93 C 286.25 223.10 291.68 221.36 297.02 222.99 C 308.72 225.73 315.54 240.31 310.19 251.06 C 306.93 257.90 299.45 261.38 292.27 262.38 C 292.63 265.72 292.74 269.24 291.25 272.35 C 288.87 277.29 284.59 280.90 280.96 284.89 C 276.83 289.10 273.29 294.02 268.27 297.26 C 265.88 298.85 262.88 299.70 260.02 299.07 C 256.08 298.24 252.86 295.63 249.90 293.05 C 239.69 283.90 229.52 274.72 219.21 265.69 C 215.45 262.38 211.13 259.01 209.76 253.95 C 208.63 249.82 210.63 245.81 211.92 241.98 C 204.96 241.35 197.98 240.48 191.22 238.70 C 188.75 238.15 186.90 235.52 187.45 233.01 C 188.13 229.95 190.19 227.47 192.18 225.15 C 196.10 220.74 200.38 216.67 204.16 212.14 C 207.70 208.03 210.93 203.58 215.16 200.14 C 217.08 198.52 219.94 197.43 222.31 198.80 C 224.54 200.06 225.13 202.76 225.89 205.00 C 227.69 210.55 228.51 216.38 230.53 221.86 C 233.30 219.54 236.77 218.51 240.24 217.83 C 238.47 211.29 239.08 203.87 243.19 198.30 M 259.30 199.22 C 254.50 200.80 250.29 204.90 249.58 210.04 C 248.47 218.12 256.91 225.98 264.91 223.91 C 271.63 222.62 276.86 215.28 274.64 208.53 C 273.09 201.96 266.06 196.63 259.30 199.22 M 264.19 235.04 C 266.78 237.33 269.38 239.61 271.96 241.92 C 271.50 237.98 272.72 234.19 275.15 231.11 C 272.00 233.56 268.19 234.95 264.19 235.04 M 288.28 232.38 C 284.98 233.86 282.35 236.87 281.59 240.44 C 280.33 246.01 284.54 251.96 289.98 253.22 C 297.40 254.73 304.93 246.65 302.48 239.37 C 300.78 233.64 293.96 229.49 288.28 232.38 Z" />
<path fill="#50c0b7" opacity="1.00" d=" M 557.49 240.47 C 559.20 240.49 560.92 240.51 562.65 240.51 C 564.86 242.74 565.48 246.68 562.98 248.96 C 561.45 251.01 558.77 250.53 556.56 250.48 C 555.87 249.81 555.17 249.16 554.48 248.52 C 554.47 246.83 554.48 245.14 554.48 243.45 C 555.48 242.46 556.48 241.47 557.49 240.47 Z" />
<path fill="#50c0b7" opacity="1.00" d=" M 521.59 260.23 C 521.95 259.46 523.45 258.92 523.80 260.04 C 525.44 262.41 527.41 264.50 529.50 266.49 C 532.59 269.43 534.93 273.05 538.00 276.02 C 540.20 278.16 542.34 280.37 544.21 282.81 C 547.83 287.44 552.75 290.99 555.84 296.03 C 550.03 298.86 545.56 303.61 540.58 307.60 C 518.06 330.07 502.38 358.22 488.47 386.55 C 483.12 397.17 478.87 408.34 473.71 419.03 C 472.86 423.03 470.78 426.64 469.39 430.48 C 465.92 440.45 461.67 450.16 459.15 460.44 C 458.72 462.01 458.10 463.54 457.45 465.04 C 459.26 458.59 460.24 451.95 461.67 445.42 C 461.86 445.07 462.22 444.37 462.41 444.02 C 462.33 439.18 463.84 434.53 464.73 429.81 C 465.94 426.63 465.54 423.06 466.76 419.85 C 467.59 416.60 468.28 413.24 468.63 409.89 C 470.56 403.75 470.83 396.99 473.31 390.97 C 473.61 385.44 475.94 380.33 476.70 374.86 C 478.58 369.37 478.98 363.39 481.34 358.06 C 481.87 353.04 484.11 348.48 484.93 343.57 C 486.96 339.27 487.09 334.33 489.31 330.08 C 489.36 328.94 489.70 327.92 490.35 327.01 C 490.43 326.48 490.57 325.41 490.64 324.88 C 491.10 323.56 491.83 322.36 492.29 321.03 C 494.66 311.98 498.52 303.35 501.98 294.65 C 507.22 282.50 513.34 270.63 521.59 260.23 Z" />
<path fill="#50c0b7" opacity="1.00" d=" M 273.17 316.39 C 282.82 306.30 292.42 296.17 302.07 286.08 C 321.97 307.73 336.97 333.43 348.71 360.27 C 358.10 381.62 365.55 403.77 372.30 426.08 C 376.33 440.02 380.67 453.91 383.86 468.08 C 372.40 437.30 356.81 408.04 337.57 381.42 C 319.57 356.66 298.18 334.15 273.17 316.39 Z" />
<path fill="#50c0b7" opacity="1.00" d=" M 754.55 311.83 C 755.69 303.12 764.19 296.58 772.88 297.46 C 780.65 297.82 787.52 304.32 788.34 312.04 C 788.70 315.24 787.61 318.34 787.16 321.48 C 792.12 325.38 794.69 332.04 793.27 338.24 C 791.80 346.15 783.97 352.28 775.94 351.73 C 770.83 351.66 766.21 348.87 762.94 345.10 C 741.24 350.62 719.49 355.98 697.83 361.67 C 696.77 369.77 689.16 376.04 681.06 375.83 C 673.55 376.24 666.40 370.86 664.57 363.61 C 663.43 359.73 664.47 355.72 665.41 351.93 C 661.41 348.86 659.10 343.98 658.77 339.00 C 658.60 333.48 661.33 327.95 665.88 324.80 C 671.14 320.94 678.63 320.53 684.31 323.70 C 686.32 325.03 687.98 326.81 689.78 328.40 C 711.32 322.71 732.98 317.45 754.55 311.83 Z" />
<path fill="#50c0b7" opacity="1.00" d=" M 95.48 312.76 C 108.75 309.54 123.27 316.32 129.95 328.09 C 136.51 339.05 135.71 353.89 127.97 364.06 C 118.86 376.60 100.25 381.00 86.61 373.47 C 74.00 366.99 66.85 351.81 69.89 337.95 C 72.12 325.27 82.95 315.10 95.48 312.76 M 99.54 318.71 C 96.94 319.46 94.54 321.37 93.83 324.06 C 92.17 329.18 96.65 335.22 102.09 334.85 C 107.22 334.69 111.52 329.15 109.79 324.16 C 108.64 319.93 103.73 317.01 99.54 318.71 M 84.23 325.25 C 80.49 326.52 83.24 332.46 86.52 330.45 C 89.67 329.27 87.21 324.10 84.23 325.25 M 117.44 325.47 C 114.55 326.22 115.32 330.70 118.13 330.84 C 119.99 331.11 120.82 329.21 121.69 327.97 C 120.77 326.57 119.45 324.29 117.44 325.47 M 81.54 336.71 C 79.06 337.49 76.75 339.28 75.86 341.79 C 73.82 346.93 78.43 353.44 84.01 352.96 C 88.11 352.74 91.82 349.21 91.99 345.07 C 92.47 339.76 86.71 334.79 81.54 336.71 M 117.49 336.76 C 114.98 337.53 112.65 339.40 111.92 342.01 C 110.53 346.71 113.91 352.28 118.83 352.95 C 123.81 353.57 128.93 349.07 128.13 343.91 C 127.96 338.81 122.37 334.62 117.49 336.76 M 101.24 340.16 C 98.42 340.49 96.40 343.86 97.79 346.43 C 98.77 349.57 103.51 349.94 105.27 347.35 C 107.40 344.53 105.02 339.36 101.24 340.16 M 98.28 355.35 C 92.27 357.57 92.08 366.49 97.30 369.68 C 102.62 373.63 110.98 368.54 110.08 362.01 C 109.95 356.33 103.23 352.62 98.28 355.35 M 84.50 358.56 C 80.85 359.42 82.49 364.95 85.97 363.92 C 89.60 363.36 87.85 357.03 84.50 358.56 M 117.44 358.58 C 115.46 359.15 114.92 362.04 116.53 363.33 C 117.88 364.18 120.01 364.37 120.74 362.62 C 122.55 360.63 119.68 357.43 117.44 358.58 Z" />
<path fill="#50c0b7" opacity="1.00" d=" M 138.18 338.23 C 178.07 356.47 210.73 387.19 238.48 420.59 C 241.43 424.30 244.72 427.77 247.13 431.88 C 230.05 414.62 210.73 399.43 189.30 387.94 C 171.14 378.15 151.57 370.94 131.35 366.84 C 137.11 358.54 139.66 348.26 138.18 338.23 Z" />
<path fill="#50c0b7" opacity="1.00" d=" M 594.00 385.02 C 608.06 368.99 625.21 355.77 644.06 345.84 C 646.59 355.96 648.96 366.12 651.50 376.23 C 635.58 376.21 619.79 380.88 606.29 389.27 C 589.71 399.39 576.33 413.69 563.17 427.77 C 572.37 412.79 582.42 398.27 594.00 385.02 Z" />
<path fill="#50c0b7" opacity="1.00" d=" M 628.66 430.75 C 669.59 404.27 715.48 383.70 764.32 378.31 C 764.90 392.88 765.57 407.44 766.33 422.00 C 749.61 420.63 732.78 419.79 716.03 421.16 C 673.73 423.99 632.66 437.53 595.36 457.36 C 591.15 459.52 587.08 461.97 582.86 464.12 C 597.32 451.97 612.88 441.12 628.66 430.75 Z" />
<path fill="#50c0b7" opacity="1.00" d=" M 375.98 416.13 C 386.75 413.41 397.46 410.45 408.20 407.60 C 410.65 406.82 413.10 408.01 415.46 408.58 C 429.97 412.34 444.46 416.22 459.00 419.85 C 450.80 444.04 447.49 469.48 443.74 494.64 C 443.32 497.94 442.33 501.19 442.54 504.55 C 447.95 489.20 457.24 475.64 466.01 462.07 C 473.42 450.74 481.35 439.74 488.39 428.17 C 492.81 428.35 496.94 430.06 501.22 431.00 C 529.86 438.49 558.53 445.83 587.13 453.42 C 575.11 460.68 563.93 469.29 552.70 477.70 C 551.14 478.84 549.69 480.11 548.44 481.58 C 567.47 474.64 586.68 468.08 606.21 462.63 C 609.10 461.97 611.89 460.52 614.91 460.53 C 621.98 462.13 628.87 464.54 636.05 465.70 C 561.34 485.29 486.60 504.81 411.89 524.41 C 409.16 525.21 406.52 523.83 403.91 523.26 C 331.54 504.32 259.17 485.33 186.78 466.47 C 192.57 464.96 198.37 463.46 204.13 461.84 C 206.50 461.18 208.76 462.49 211.00 463.06 C 223.66 466.83 236.23 470.89 248.68 475.31 C 253.20 476.82 257.57 478.79 262.21 479.91 C 251.41 471.24 240.35 462.83 228.82 455.14 C 266.97 445.42 304.94 434.94 343.03 424.97 C 344.75 424.51 346.48 424.07 348.14 423.40 C 365.42 446.77 381.21 471.24 395.37 496.63 C 397.08 499.92 399.30 502.99 400.26 506.62 C 400.96 503.35 399.67 500.17 399.18 496.97 C 393.64 469.47 386.42 442.21 375.98 416.13 Z" />
</g>
<g id="#009792ff">
<path fill="#009792" opacity="1.00" d=" M 713.30 177.46 C 716.72 175.99 721.02 176.80 723.48 179.66 C 726.20 182.66 725.79 187.18 724.81 190.81 C 723.32 195.77 720.68 200.57 716.65 203.90 C 710.62 209.19 699.46 203.02 700.62 195.05 C 701.46 187.60 706.70 180.83 713.30 177.46 Z" />
<path fill="#009792" opacity="1.00" d=" M 77.87 182.94 C 78.97 181.10 80.63 179.34 82.95 179.40 C 89.10 179.21 95.74 181.58 99.78 186.33 C 101.08 193.67 107.03 199.39 107.72 206.96 C 108.33 215.79 115.90 221.81 122.98 225.92 C 131.25 230.93 140.93 232.81 149.31 237.62 C 152.70 244.02 152.33 251.75 148.83 258.02 C 150.58 264.65 147.53 271.13 145.03 277.12 C 146.15 280.32 147.29 283.59 147.32 287.03 C 147.42 289.77 146.20 292.31 145.92 295.01 C 145.99 298.11 147.19 301.04 148.52 303.80 C 147.27 307.80 146.36 311.96 144.38 315.68 C 142.58 315.34 140.79 314.96 139.01 314.54 C 139.49 312.87 140.15 311.10 142.16 311.02 C 143.02 308.37 143.38 305.59 143.20 302.82 C 141.33 303.20 142.03 305.37 141.49 306.69 C 140.91 309.09 139.00 310.85 137.57 312.77 C 136.33 312.20 133.91 311.83 134.67 309.86 C 136.27 306.73 139.12 303.87 138.72 300.07 C 138.49 297.30 135.40 296.12 134.56 293.63 C 134.01 292.00 133.73 290.30 133.42 288.63 C 129.83 287.10 125.84 287.58 122.06 286.94 C 117.80 286.60 113.83 284.95 109.85 283.53 C 107.95 287.83 106.24 292.21 104.53 296.59 C 102.68 298.31 102.00 300.72 100.90 302.90 C 99.09 305.00 96.21 302.97 94.07 302.54 C 93.59 299.66 96.42 298.97 98.63 298.61 C 96.46 298.58 94.37 298.07 92.36 297.27 C 92.10 294.57 94.55 292.92 97.00 293.02 C 99.94 287.87 99.67 281.69 101.47 276.15 C 99.74 270.94 100.24 265.35 101.84 260.18 C 101.41 259.86 100.54 259.21 100.11 258.88 C 99.64 255.83 101.18 253.33 102.82 250.95 C 101.07 247.97 96.55 248.76 93.88 246.81 C 93.16 251.53 91.93 256.34 93.08 261.10 C 93.51 263.35 94.99 265.63 93.72 267.89 C 91.03 274.10 92.41 281.58 88.16 287.16 C 85.68 286.75 84.19 288.98 82.10 289.48 C 79.09 287.91 75.40 285.75 76.34 281.73 C 73.63 279.96 70.68 278.21 69.31 275.12 C 70.03 274.26 70.73 273.38 71.40 272.48 C 74.36 272.46 77.37 272.42 80.18 271.38 C 82.28 264.20 81.69 256.35 78.58 249.55 C 78.48 250.54 78.28 252.51 78.18 253.50 C 76.00 251.17 74.80 248.06 75.12 244.86 C 73.26 244.71 71.17 244.79 69.89 243.17 C 71.05 240.64 72.15 238.07 73.53 235.64 C 71.32 234.33 67.78 233.14 68.13 229.95 C 67.46 226.68 70.87 225.31 72.67 223.36 C 71.25 219.40 71.50 215.16 71.27 211.04 C 70.80 206.06 75.32 202.66 77.86 198.92 C 72.94 196.43 67.43 193.38 65.52 187.86 C 65.26 185.84 64.71 183.00 66.32 181.48 C 70.18 180.39 74.14 181.98 77.87 182.94 M 84.87 216.37 C 84.11 218.93 83.28 221.47 82.51 224.03 C 83.96 226.05 85.10 228.98 87.99 229.14 C 90.89 229.56 93.61 230.67 96.13 232.14 C 94.33 235.64 91.30 238.84 92.33 243.14 C 93.26 241.68 93.81 240.02 94.23 238.35 C 97.53 238.61 101.59 239.76 104.29 237.18 C 106.56 237.35 109.13 237.40 110.85 239.14 C 114.04 242.32 115.36 246.80 116.69 250.99 C 117.91 254.48 117.72 258.69 120.65 261.37 C 126.07 268.11 134.62 271.56 143.01 272.45 C 144.71 268.70 146.15 264.80 146.43 260.66 C 138.10 258.64 129.17 256.46 122.92 250.18 C 120.66 247.82 118.07 245.64 116.49 242.75 C 114.29 234.69 112.80 226.08 107.85 219.12 C 105.69 215.87 101.61 215.09 98.00 214.77 C 94.69 218.47 89.14 217.01 84.87 216.37 Z" />
<path fill="#009792" opacity="1.00" d=" M 746.46 183.64 C 749.75 182.83 753.58 183.52 755.79 186.26 C 758.55 189.29 758.02 193.91 756.21 197.28 C 753.22 203.00 748.10 207.53 742.24 210.16 C 738.80 211.61 734.29 212.45 731.21 209.78 C 728.54 207.26 726.88 203.59 726.82 199.92 C 727.48 197.01 729.63 194.75 731.64 192.66 C 735.83 188.65 740.75 185.08 746.46 183.64 Z" />
<path fill="#009792" opacity="1.00" d=" M 690.32 209.60 C 696.34 207.19 702.68 209.60 708.35 211.80 C 714.01 214.25 720.97 210.98 726.08 215.06 C 729.85 218.25 732.94 222.85 732.98 227.94 C 732.91 232.52 730.28 236.47 728.61 240.59 C 726.62 244.92 727.18 249.92 725.24 254.27 C 722.70 260.45 717.67 266.07 711.06 267.84 C 707.54 268.89 703.59 267.52 701.33 264.67 C 695.37 257.24 696.85 246.09 689.58 239.43 C 684.66 235.19 680.24 229.82 679.35 223.17 C 678.15 216.45 684.88 211.78 690.32 209.60 Z" />
<path fill="#009792" opacity="1.00" d=" M 757.50 211.68 C 761.85 211.12 766.82 210.69 770.62 213.33 C 773.78 215.66 773.58 220.23 772.35 223.56 C 770.22 228.45 765.42 231.54 760.64 233.48 C 757.47 234.62 753.86 235.89 750.56 234.51 C 746.53 232.92 742.52 230.15 741.03 225.90 C 739.88 222.66 741.72 219.28 744.19 217.23 C 747.88 213.96 752.72 212.46 757.50 211.68 Z" />
<path fill="#009792" opacity="1.00" d=" M 589.56 307.51 C 610.64 280.22 634.41 254.41 663.32 235.28 C 670.63 248.06 677.70 261.02 684.51 274.08 C 664.89 280.98 646.97 291.96 630.28 304.23 C 591.80 333.09 559.47 369.28 530.36 407.35 C 528.23 410.01 526.46 412.98 523.96 415.31 C 542.04 377.26 564.01 341.02 589.56 307.51 Z" />
<path fill="#009792" opacity="1.00" d=" M 744.44 240.64 C 750.98 239.36 758.55 240.64 763.23 245.71 C 765.15 247.84 767.29 250.54 766.50 253.61 C 765.60 256.43 762.93 258.20 760.45 259.52 C 754.86 262.27 748.21 263.66 742.13 261.83 C 736.83 260.28 733.13 254.48 734.00 249.04 C 735.03 244.20 739.97 241.57 744.44 240.64 Z" />
<path fill="#009792" opacity="1.00" d=" M 155.20 240.65 C 159.52 244.06 163.88 247.43 167.72 251.41 C 173.65 249.61 180.90 246.72 186.57 250.62 C 187.79 251.49 188.91 252.52 189.98 253.59 C 189.64 254.05 188.97 254.98 188.63 255.45 C 185.98 254.84 184.18 256.62 183.02 258.78 C 179.09 259.24 174.17 257.23 170.96 260.15 C 170.56 263.05 170.75 266.02 170.44 268.95 C 171.09 271.86 172.62 274.47 173.93 277.13 C 173.61 277.52 172.98 278.31 172.66 278.70 C 172.72 279.51 172.84 281.14 172.90 281.95 C 172.53 282.42 171.78 283.36 171.41 283.83 C 171.22 289.16 174.65 293.39 177.62 297.43 C 179.62 303.79 180.70 310.42 181.97 316.98 C 181.37 316.44 180.17 315.35 179.58 314.81 L 179.68 317.41 L 178.61 317.49 C 178.37 320.97 173.90 321.27 171.28 320.58 C 166.66 319.13 161.91 317.45 158.29 314.11 C 159.76 312.68 160.96 311.00 161.78 309.12 C 163.28 309.66 164.79 310.15 166.29 310.71 C 169.21 304.31 163.02 298.80 158.65 295.00 C 158.54 299.82 158.35 306.16 153.02 308.19 C 153.60 305.80 154.63 303.48 154.75 301.00 C 154.06 297.96 152.00 295.27 152.16 292.03 C 151.45 286.93 154.18 282.10 153.34 277.02 C 152.92 273.49 151.86 270.07 150.41 266.83 C 153.86 258.66 158.09 249.66 155.20 240.65 Z" />
<path fill="#009792" opacity="1.00" d=" M 178.08 262.59 C 216.00 290.11 245.69 327.46 269.10 367.74 C 277.70 382.43 285.51 397.57 292.87 412.92 C 267.15 375.15 233.09 341.87 191.06 322.91 C 189.16 322.49 189.22 320.29 190.47 319.17 C 188.02 316.36 187.91 312.40 187.08 308.94 C 186.83 304.46 182.70 301.84 180.98 297.98 C 179.24 294.84 177.90 290.27 180.42 287.21 C 180.57 285.37 179.99 283.30 181.44 281.84 C 180.59 278.11 177.65 275.00 177.54 271.05 C 178.07 268.26 178.49 265.43 178.08 262.59 Z" />
<path fill="#009792" opacity="1.00" d=" M 50.30 378.30 C 85.97 382.29 120.35 394.37 152.04 410.97 C 180.48 425.80 206.88 444.21 232.02 464.05 C 230.31 463.45 228.66 462.70 227.07 461.83 C 172.67 432.39 110.03 418.33 48.26 422.23 C 48.89 407.59 49.54 392.94 50.30 378.30 Z" />
<path fill="#009792" opacity="1.00" d=" M 161.48 474.18 C 164.46 474.03 167.30 475.01 170.15 475.75 C 246.47 495.35 322.75 515.09 399.10 534.61 C 389.65 548.83 379.37 562.53 369.62 576.56 C 362.85 585.90 356.44 595.53 349.45 604.70 C 304.08 592.59 258.52 581.15 213.08 569.30 C 179.37 560.70 145.74 551.71 111.97 543.33 C 124.44 526.58 136.32 509.38 148.58 492.46 C 152.83 486.34 157.42 480.43 161.48 474.18 Z" />
<path fill="#009792" opacity="1.00" d=" M 421.04 535.59 C 500.39 514.97 579.66 494.03 659.01 473.38 C 672.59 492.31 686.33 511.12 699.98 530.00 C 702.88 534.49 706.80 538.40 709.03 543.30 C 629.34 563.37 549.74 583.83 470.07 603.98 C 453.66 581.23 437.55 558.26 421.04 535.59 Z" />
<path fill="#009792" opacity="1.00" d=" M 354.31 619.75 C 370.72 596.80 387.03 573.78 403.45 550.84 C 403.42 643.92 403.59 737.00 403.66 830.08 C 324.19 809.44 244.75 788.71 165.30 767.99 C 165.57 702.32 165.43 636.64 165.44 570.96 C 228.45 587.00 291.35 603.51 354.31 619.75 Z" />
<path fill="#009792" opacity="1.00" d=" M 416.69 552.37 C 433.27 574.84 449.65 597.45 466.11 619.99 C 529.19 603.49 592.17 586.56 655.23 569.99 C 655.25 636.29 655.38 702.59 655.49 768.90 C 576.06 789.39 496.56 809.62 417.14 830.15 C 417.06 808.10 417.19 786.05 417.14 764.00 C 417.07 754.01 417.37 744.01 416.77 734.03 C 416.90 673.48 416.60 612.93 416.69 552.37 Z" />
</g>
</svg>
