<?xml version="1.0" encoding="UTF-8" ?>
<!DOCTYPE svg PUBLIC "-//W3C//DTD SVG 1.1//EN" "http://www.w3.org/Graphics/SVG/1.1/DTD/svg11.dtd">
<svg width="301pt" height="354pt" viewBox="0 0 301 354" version="1.1" xmlns="http://www.w3.org/2000/svg">
<g id="#fdfdfdff">
<path fill="#fdfdfd" opacity="1.00" d=" M 15.81 5.28 C 17.77 4.48 19.83 3.74 21.97 3.70 C 106.67 3.69 191.37 3.69 276.07 3.70 C 278.19 3.72 280.23 4.52 282.18 5.29 C 283.23 5.91 284.35 6.35 285.54 6.62 L 285.52 7.13 C 287.60 8.59 289.41 10.41 290.88 12.48 L 291.39 12.47 C 291.64 13.65 292.09 14.77 292.73 15.82 C 295.71 23.07 293.75 31.12 294.30 38.74 C 281.69 46.47 269.93 55.51 257.40 63.39 C 246.58 71.39 234.97 78.22 224.15 86.21 C 217.61 90.69 210.96 94.99 204.37 99.38 C 200.87 101.84 197.55 104.62 193.58 106.30 C 197.95 90.66 192.08 72.23 178.37 63.12 C 171.57 57.87 163.74 53.56 155.12 52.41 C 143.60 50.68 131.43 53.99 122.44 61.41 C 112.74 69.24 106.85 81.56 106.98 94.04 C 106.87 105.57 111.93 116.90 120.29 124.78 C 119.91 128.90 119.84 133.30 122.01 136.99 C 124.58 142.04 129.82 145.19 135.32 146.07 C 129.10 151.03 122.16 154.97 115.81 159.75 C 82.32 182.22 49.15 205.17 15.63 227.61 C 11.82 230.43 7.99 233.26 3.73 235.40 C 3.70 164.60 3.77 93.80 3.68 22.99 C 3.47 20.47 4.51 18.14 5.16 15.77 C 5.52 15.22 6.25 14.14 6.61 13.59 L 6.21 12.50 L 7.11 12.51 C 8.57 10.41 10.39 8.59 12.49 7.14 L 12.45 6.62 C 13.65 6.37 14.76 5.93 15.81 5.28 M 122.37 43.54 C 119.75 44.82 119.18 48.76 121.36 50.71 C 123.51 53.01 127.78 52.02 128.73 49.03 C 130.29 45.39 125.76 41.44 122.37 43.54 Z" />
<path fill="#fdfdfd" opacity="1.00" d=" M 122.63 64.72 C 130.82 57.27 142.28 53.48 153.30 54.84 C 142.41 55.55 131.68 60.16 124.42 68.43 C 113.15 80.55 110.73 99.87 118.71 114.37 C 120.03 116.98 122.48 119.36 121.86 122.54 C 113.34 114.59 108.73 102.68 109.67 91.06 C 110.39 81.04 115.15 71.41 122.63 64.72 Z" />
</g>
<g id="#f7f9f7ff">
<path fill="#f7f9f7" opacity="1.00" d=" M 257.40 63.39 C 269.93 55.51 281.69 46.47 294.30 38.74 C 294.27 133.80 294.27 228.87 294.29 323.94 C 294.33 326.58 293.46 329.11 293.22 331.72 L 292.13 331.60 C 292.22 331.99 292.40 332.75 292.50 333.13 C 291.50 333.97 290.86 335.13 290.24 336.26 C 289.00 337.68 287.65 338.98 286.25 340.24 C 283.14 342.07 279.81 343.65 276.18 344.06 C 192.79 344.07 109.40 343.95 26.01 344.12 C 20.94 344.63 16.01 342.87 11.75 340.24 C 10.35 338.98 8.98 337.67 7.76 336.25 C 7.15 335.12 6.50 333.97 5.52 333.13 C 5.60 332.74 5.77 331.97 5.85 331.58 L 4.79 331.74 C 4.54 329.17 3.69 326.69 3.71 324.10 C 3.74 294.53 3.70 264.97 3.73 235.40 C 7.99 233.26 11.82 230.43 15.63 227.61 C 49.15 205.17 82.32 182.22 115.81 159.75 C 122.16 154.97 129.10 151.03 135.32 146.07 C 142.55 146.59 149.44 142.45 152.65 136.02 L 152.99 136.01 C 171.27 136.91 188.89 123.97 193.58 106.30 C 197.55 104.62 200.87 101.84 204.37 99.38 C 210.96 94.99 217.61 90.69 224.15 86.21 C 234.97 78.22 246.58 71.39 257.40 63.39 M 174.34 136.48 C 170.54 137.74 168.13 142.17 169.28 146.04 C 170.28 150.16 174.92 152.94 179.02 151.72 C 183.40 150.72 186.15 145.58 184.54 141.38 C 183.24 137.31 178.35 134.92 174.34 136.48 M 147.17 150.30 C 143.01 151.44 141.57 157.34 144.78 160.24 C 147.67 163.41 153.55 162.00 154.69 157.86 C 156.39 153.47 151.57 148.64 147.17 150.30 Z" />
</g>
<g id="#f34f49ff">
<path fill="#f34f49" opacity="1.00" d=" M 122.37 43.54 C 125.76 41.44 130.29 45.39 128.73 49.03 C 127.78 52.02 123.51 53.01 121.36 50.71 C 119.18 48.76 119.75 44.82 122.37 43.54 Z" />
<path fill="#f34f49" opacity="1.00" d=" M 124.42 68.43 C 131.68 60.16 142.41 55.55 153.30 54.84 C 164.53 55.91 175.03 62.33 181.42 71.59 C 187.34 80.07 189.71 90.94 187.79 101.11 C 185.55 113.74 176.69 124.93 164.94 130.06 C 150.79 136.55 132.96 133.45 121.86 122.54 C 122.48 119.36 120.03 116.98 118.71 114.37 C 110.73 99.87 113.15 80.55 124.42 68.43 M 122.48 110.10 C 123.07 111.09 124.41 113.13 125.72 111.75 C 129.81 108.95 134.07 106.25 138.92 105.00 C 150.08 101.66 162.43 104.44 171.69 111.31 C 173.51 113.03 175.48 109.70 173.49 108.54 C 158.96 96.72 136.39 97.78 122.48 110.10 Z" />
<path fill="#f34f49" opacity="1.00" d=" M 178.37 63.12 C 192.08 72.23 197.95 90.66 193.58 106.30 C 188.89 123.97 171.27 136.91 152.99 136.01 C 163.54 134.70 173.71 129.79 180.67 121.65 C 190.32 110.81 193.55 94.81 189.00 81.04 C 187.06 74.22 182.52 68.70 178.37 63.12 Z" />
<path fill="#f34f49" opacity="1.00" d=" M 120.29 124.78 C 128.92 132.86 140.91 136.79 152.65 136.02 C 149.44 142.45 142.55 146.59 135.32 146.07 C 129.82 145.19 124.58 142.04 122.01 136.99 C 119.84 133.30 119.91 128.90 120.29 124.78 Z" />
<path fill="#f34f49" opacity="1.00" d=" M 174.34 136.48 C 178.35 134.92 183.24 137.31 184.54 141.38 C 186.15 145.58 183.40 150.72 179.02 151.72 C 174.92 152.94 170.28 150.16 169.28 146.04 C 168.13 142.17 170.54 137.74 174.34 136.48 Z" />
<path fill="#f34f49" opacity="1.00" d=" M 147.17 150.30 C 151.57 148.64 156.39 153.47 154.69 157.86 C 153.55 162.00 147.67 163.41 144.78 160.24 C 141.57 157.34 143.01 151.44 147.17 150.30 Z" />
</g>
<g id="#404041ff">
<path fill="#404041" opacity="1.00" d=" M 122.44 61.41 C 131.43 53.99 143.60 50.68 155.12 52.41 C 163.74 53.56 171.57 57.87 178.37 63.12 C 182.52 68.70 187.06 74.22 189.00 81.04 C 193.55 94.81 190.32 110.81 180.67 121.65 C 173.71 129.79 163.54 134.70 152.99 136.01 L 152.65 136.02 C 140.91 136.79 128.92 132.86 120.29 124.78 C 111.93 116.90 106.87 105.57 106.98 94.04 C 106.85 81.56 112.74 69.24 122.44 61.41 M 122.63 64.72 C 115.15 71.41 110.39 81.04 109.67 91.06 C 108.73 102.68 113.34 114.59 121.86 122.54 C 132.96 133.45 150.79 136.55 164.94 130.06 C 176.69 124.93 185.55 113.74 187.79 101.11 C 189.71 90.94 187.34 80.07 181.42 71.59 C 175.03 62.33 164.53 55.91 153.30 54.84 C 142.28 53.48 130.82 57.27 122.63 64.72 Z" />
<path fill="#404041" opacity="1.00" d=" M 122.48 110.10 C 136.39 97.78 158.96 96.72 173.49 108.54 C 175.48 109.70 173.51 113.03 171.69 111.31 C 162.43 104.44 150.08 101.66 138.92 105.00 C 134.07 106.25 129.81 108.95 125.72 111.75 C 124.41 113.13 123.07 111.09 122.48 110.10 Z" />
</g>
</svg>
