<?xml version="1.0" encoding="UTF-8" ?>
<!DOCTYPE svg PUBLIC "-//W3C//DTD SVG 1.1//EN" "http://www.w3.org/Graphics/SVG/1.1/DTD/svg11.dtd">
<svg width="702pt" height="664pt" viewBox="0 0 702 664" version="1.1" xmlns="http://www.w3.org/2000/svg">
<g id="#ffffffff">
</g>
<g id="#010000ff">
<path fill="#010000" opacity="1.00" d=" M 71.23 63.24 C 102.10 34.74 143.00 17.10 185.01 14.96 C 194.93 15.22 204.90 14.44 214.78 15.46 C 252.57 19.34 289.06 35.33 317.38 60.69 C 330.53 71.63 341.23 85.21 350.77 99.33 C 361.30 83.40 374.04 68.93 388.74 56.74 C 418.00 32.40 455.03 17.60 492.99 14.97 C 501.67 14.98 510.36 14.98 519.04 14.98 C 548.58 17.18 577.65 26.51 602.80 42.21 C 633.34 61.16 658.21 89.19 673.07 121.95 C 683.61 144.12 688.69 168.57 690.02 192.97 C 690.43 222.24 686.35 251.77 676.40 279.39 C 664.41 313.57 644.14 344.28 620.55 371.55 C 579.05 419.15 529.22 458.33 483.10 501.17 C 476.66 506.31 471.37 512.70 464.98 517.90 C 427.98 553.19 393.41 591.28 364.81 633.77 C 360.33 640.78 355.49 647.55 351.00 654.55 C 332.28 626.58 311.98 599.60 289.25 574.76 C 274.75 558.67 259.80 542.91 243.90 528.18 C 204.62 490.29 162.00 456.11 122.24 418.76 C 110.23 406.77 97.83 395.15 86.72 382.31 C 60.60 353.44 38.41 320.37 25.55 283.41 C 18.24 262.44 13.80 240.43 12.39 218.28 C 11.51 208.55 12.23 198.74 11.98 188.98 C 14.01 148.82 29.71 109.40 56.10 79.01 C 60.63 73.29 66.21 68.52 71.23 63.24 M 182.73 41.53 C 179.38 41.74 175.99 41.52 172.72 42.47 C 149.35 46.06 126.72 54.70 107.29 68.24 C 100.52 72.31 94.80 77.78 88.59 82.59 C 59.46 110.15 40.36 148.70 38.17 188.93 C 37.20 196.77 37.45 204.67 38.35 212.50 C 39.86 256.77 56.23 299.97 82.40 335.55 C 85.45 340.42 89.44 344.62 92.45 349.53 C 94.58 353.28 98.17 355.79 100.88 359.06 C 104.11 363.78 109.04 367.01 112.14 371.85 C 121.53 381.46 131.12 390.88 140.63 400.38 C 146.66 404.60 151.10 410.64 157.05 414.98 C 161.75 420.00 167.39 423.92 172.12 428.91 C 176.71 431.92 179.90 436.52 184.51 439.51 C 189.71 444.68 195.40 449.29 201.06 453.93 C 207.93 460.80 215.72 466.60 222.70 473.34 C 227.11 476.18 230.10 480.64 234.27 483.78 C 238.85 486.79 241.85 491.62 246.46 494.60 C 252.47 499.54 257.17 505.96 263.56 510.45 C 273.27 520.06 282.93 529.73 292.54 539.44 C 296.32 544.91 301.66 548.99 306.00 553.97 C 307.84 556.75 310.23 559.08 312.60 561.41 C 323.04 573.95 334.03 586.06 343.72 599.25 C 346.21 602.05 348.09 605.39 351.06 607.77 C 353.18 604.37 355.60 601.16 358.00 597.96 C 368.22 584.59 378.36 571.10 389.73 558.70 C 391.92 555.28 395.42 552.98 397.57 549.53 C 401.59 544.58 406.89 540.77 410.45 535.43 C 422.70 523.03 435.04 510.71 447.42 498.44 C 453.46 493.87 458.39 488.08 463.97 483.00 C 468.81 479.93 471.98 474.93 476.69 471.72 C 480.32 469.06 482.96 465.30 486.53 462.57 C 490.71 459.82 493.56 455.51 497.83 452.85 C 502.23 448.20 507.46 444.53 511.96 440.00 C 516.03 437.47 518.74 433.37 522.69 430.72 C 526.52 427.93 529.23 423.88 533.10 421.15 C 537.22 418.32 540.02 413.96 544.28 411.29 C 548.92 407.28 552.82 402.46 557.78 398.80 C 566.19 390.88 574.18 382.52 582.40 374.40 C 585.47 371.12 589.04 368.27 591.58 364.52 C 602.38 352.92 612.45 340.58 621.72 327.69 C 638.27 303.82 651.62 277.38 658.17 248.95 C 661.14 234.82 663.47 220.50 663.37 206.04 C 664.09 199.02 663.12 192.00 663.29 184.98 C 662.30 178.63 661.76 172.19 660.22 165.93 C 655.39 142.35 644.57 120.16 629.84 101.18 C 624.14 93.94 617.41 87.62 610.92 81.08 C 592.95 65.11 571.48 52.94 548.25 46.58 C 529.32 41.51 509.49 39.20 489.97 41.62 C 458.96 44.33 429.15 57.45 405.17 77.15 C 399.71 82.72 392.90 86.95 388.43 93.47 C 375.19 107.79 365.44 124.99 357.66 142.79 C 355.88 147.68 352.63 151.95 351.42 157.06 C 349.88 156.40 349.56 154.59 348.80 153.28 C 343.01 140.90 337.66 128.26 330.50 116.57 C 325.33 107.96 319.18 99.98 312.42 92.58 C 306.73 87.27 301.77 81.14 295.45 76.54 C 273.48 57.99 246.07 46.28 217.67 42.21 C 206.10 40.87 194.33 39.72 182.73 41.53 Z" />
</g>
</svg>
