<?xml version="1.0" encoding="UTF-8" ?>
<!DOCTYPE svg PUBLIC "-//W3C//DTD SVG 1.1//EN" "http://www.w3.org/Graphics/SVG/1.1/DTD/svg11.dtd">
<svg width="702pt" height="664pt" viewBox="0 0 702 664" version="1.1" xmlns="http://www.w3.org/2000/svg">
<g id="#ffffffff">
<path fill="#ffffff" opacity="1.00" d=" M 276.32 141.13 C 285.40 138.89 295.31 141.00 303.11 146.03 C 319.72 156.83 329.35 175.85 332.45 195.01 C 332.58 202.25 332.81 209.49 332.37 216.73 C 330.17 225.43 327.09 234.27 320.95 241.04 C 315.31 247.88 306.57 251.33 297.97 252.44 C 290.10 251.62 282.17 249.15 275.85 244.23 C 262.64 234.64 254.16 219.57 250.46 203.87 C 247.75 195.23 248.83 186.05 248.91 177.15 C 251.18 165.45 255.98 153.24 266.10 146.17 C 269.03 143.64 272.70 142.33 276.32 141.13 Z" />
<path fill="#ffffff" opacity="1.00" d=" M 408.34 141.20 C 415.15 139.50 422.61 139.98 428.90 143.25 C 437.56 147.60 443.59 155.85 447.35 164.58 C 453.86 184.14 451.48 206.38 441.37 224.33 C 434.23 236.98 422.76 248.37 408.08 251.36 C 399.99 253.83 391.43 250.60 384.48 246.44 C 374.18 238.56 368.45 225.80 367.29 213.08 C 365.61 202.67 367.56 192.09 370.40 182.06 C 374.69 167.96 383.45 155.13 395.67 146.77 C 399.30 143.76 403.92 142.52 408.34 141.20 Z" />
<path fill="#ffffff" opacity="1.00" d=" M 192.42 233.61 C 197.75 233.08 203.25 232.97 208.57 233.69 C 231.93 240.78 248.08 263.62 251.19 287.29 C 251.98 296.83 250.91 307.14 245.11 315.09 C 240.02 323.07 230.36 327.25 221.10 327.16 C 214.49 326.15 207.62 324.84 202.06 320.89 C 186.60 311.51 176.11 295.26 172.05 277.82 C 170.27 267.03 170.38 255.11 176.70 245.72 C 180.16 239.86 186.19 236.01 192.42 233.61 Z" />
<path fill="#ffffff" opacity="1.00" d=" M 491.39 233.63 C 496.47 232.99 501.67 233.21 506.78 233.48 C 513.94 235.60 520.17 240.71 523.89 247.17 C 529.48 258.11 529.89 271.22 526.11 282.81 C 523.79 292.09 518.60 300.37 512.83 307.89 C 507.73 314.20 501.04 319.04 494.01 322.97 C 487.05 325.75 479.37 328.27 471.85 326.44 C 462.36 324.93 454.44 317.70 451.23 308.77 C 447.71 300.91 447.95 292.06 448.91 283.68 C 453.49 261.43 468.93 240.19 491.39 233.63 Z" />
<path fill="#ffffff" opacity="1.00" d=" M 322.64 281.81 C 335.73 275.78 350.88 273.26 364.90 277.50 C 387.93 284.10 407.74 298.75 424.47 315.53 C 439.75 331.40 452.21 350.12 460.01 370.78 C 462.47 379.15 465.29 387.45 466.55 396.12 C 466.67 404.82 468.96 413.55 466.93 422.21 C 466.95 428.90 465.90 435.64 462.78 441.64 C 460.85 446.18 456.85 449.51 452.38 451.39 C 449.43 452.78 446.09 452.16 442.96 452.30 C 436.76 452.52 430.89 450.24 424.98 448.69 C 415.03 446.00 405.21 442.87 395.37 439.78 C 384.62 437.88 374.26 433.90 363.29 433.28 C 351.69 431.35 339.89 432.59 328.35 434.23 C 321.94 435.25 315.82 437.50 309.46 438.72 C 299.92 440.41 291.05 444.55 281.62 446.71 C 275.67 447.98 270.06 450.99 263.88 450.89 C 263.43 451.26 262.54 451.99 262.10 452.36 C 258.08 452.13 254.04 452.50 250.03 452.13 C 242.52 450.76 236.80 444.26 235.01 437.04 C 229.96 419.32 231.88 400.48 235.94 382.76 C 240.00 368.98 245.32 355.44 253.37 343.46 C 261.19 330.39 271.41 318.89 282.53 308.53 C 294.46 297.70 307.80 288.22 322.64 281.81 Z" />
</g>
<g id="#e80000ff">
<path fill="#e80000" opacity="1.00" d=" M 172.71 42.55 C 177.40 41.42 182.25 41.82 187.01 41.15 C 196.50 39.80 206.05 41.17 215.52 42.02 C 233.17 44.41 250.52 49.41 266.38 57.57 C 289.71 69.17 309.73 87.01 324.88 108.12 C 335.64 123.01 342.44 140.16 350.32 156.61 C 350.59 156.62 351.15 156.64 351.42 156.65 C 356.46 145.69 361.23 134.59 366.92 123.95 C 389.03 82.88 429.94 52.34 475.87 43.71 C 479.28 43.22 482.63 42.38 486.04 41.86 C 496.02 41.37 506.03 39.76 516.02 41.21 C 553.01 43.50 589.14 59.40 615.40 85.60 C 645.59 114.19 663.44 155.44 663.52 197.02 C 664.02 230.58 656.86 264.46 641.40 294.36 C 626.87 324.43 605.24 350.31 582.39 374.38 C 573.09 383.74 563.86 393.20 553.95 401.93 C 549.78 406.10 545.48 410.14 540.92 413.90 C 513.04 439.78 483.82 464.17 456.22 490.37 C 425.76 518.55 396.86 548.50 370.96 580.95 C 364.25 589.86 357.06 598.43 350.97 607.79 C 344.10 600.33 338.50 591.78 331.90 584.08 C 320.44 570.58 309.18 556.88 296.69 544.31 C 289.65 535.73 281.27 528.39 273.59 520.40 C 265.31 511.67 256.03 503.98 247.55 495.45 C 242.37 491.67 238.34 486.61 233.22 482.77 C 210.92 462.03 187.32 442.72 164.92 422.11 C 150.11 408.95 135.61 395.43 121.60 381.41 C 115.22 375.10 109.60 368.06 103.05 361.92 C 95.39 353.78 88.52 344.90 82.46 335.51 C 55.55 299.01 39.23 254.42 38.23 208.97 C 37.15 202.12 37.53 195.21 38.35 188.36 C 38.22 181.80 39.76 175.42 40.78 168.98 C 48.81 127.52 74.03 89.44 109.71 66.69 C 128.56 54.02 150.33 46.07 172.71 42.55 M 276.32 141.13 C 272.70 142.33 269.03 143.64 266.10 146.17 C 255.98 153.24 251.18 165.45 248.91 177.15 C 248.83 186.05 247.75 195.23 250.46 203.87 C 254.16 219.57 262.64 234.64 275.85 244.23 C 282.17 249.15 290.10 251.62 297.97 252.44 C 306.57 251.33 315.31 247.88 320.95 241.04 C 327.09 234.27 330.17 225.43 332.37 216.73 C 332.81 209.49 332.58 202.25 332.45 195.01 C 329.35 175.85 319.72 156.83 303.11 146.03 C 295.31 141.00 285.40 138.89 276.32 141.13 M 408.34 141.20 C 403.92 142.52 399.30 143.76 395.67 146.77 C 383.45 155.13 374.69 167.96 370.40 182.06 C 367.56 192.09 365.61 202.67 367.29 213.08 C 368.45 225.80 374.18 238.56 384.48 246.44 C 391.43 250.60 399.99 253.83 408.08 251.36 C 422.76 248.37 434.23 236.98 441.37 224.33 C 451.48 206.38 453.86 184.14 447.35 164.58 C 443.59 155.85 437.56 147.60 428.90 143.25 C 422.61 139.98 415.15 139.50 408.34 141.20 M 192.42 233.61 C 186.19 236.01 180.16 239.86 176.70 245.72 C 170.38 255.11 170.27 267.03 172.05 277.82 C 176.11 295.26 186.60 311.51 202.06 320.89 C 207.62 324.84 214.49 326.15 221.10 327.16 C 230.36 327.25 240.02 323.07 245.11 315.09 C 250.91 307.14 251.98 296.83 251.19 287.29 C 248.08 263.62 231.93 240.78 208.57 233.69 C 203.25 232.97 197.75 233.08 192.42 233.61 M 491.39 233.63 C 468.93 240.19 453.49 261.43 448.91 283.68 C 447.95 292.06 447.71 300.91 451.23 308.77 C 454.44 317.70 462.36 324.93 471.85 326.44 C 479.37 328.27 487.05 325.75 494.01 322.97 C 501.04 319.04 507.73 314.20 512.83 307.89 C 518.60 300.37 523.79 292.09 526.11 282.81 C 529.89 271.22 529.48 258.11 523.89 247.17 C 520.17 240.71 513.94 235.60 506.78 233.48 C 501.67 233.21 496.47 232.99 491.39 233.63 M 322.64 281.81 C 307.80 288.22 294.46 297.70 282.53 308.53 C 271.41 318.89 261.19 330.39 253.37 343.46 C 245.32 355.44 240.00 368.98 235.94 382.76 C 231.88 400.48 229.96 419.32 235.01 437.04 C 236.80 444.26 242.52 450.76 250.03 452.13 C 254.04 452.50 258.08 452.13 262.10 452.36 C 262.54 451.99 263.43 451.26 263.88 450.89 C 270.06 450.99 275.67 447.98 281.62 446.71 C 291.05 444.55 299.92 440.41 309.46 438.72 C 315.82 437.50 321.94 435.25 328.35 434.23 C 339.89 432.59 351.69 431.35 363.29 433.28 C 374.26 433.90 384.62 437.88 395.37 439.78 C 405.21 442.87 415.03 446.00 424.98 448.69 C 430.89 450.24 436.76 452.52 442.96 452.30 C 446.09 452.16 449.43 452.78 452.38 451.39 C 456.85 449.51 460.85 446.18 462.78 441.64 C 465.90 435.64 466.95 428.90 466.93 422.21 C 468.96 413.55 466.67 404.82 466.55 396.12 C 465.29 387.45 462.47 379.15 460.01 370.78 C 452.21 350.12 439.75 331.40 424.47 315.53 C 407.74 298.75 387.93 284.10 364.90 277.50 C 350.88 273.26 335.73 275.78 322.64 281.81 Z" />
</g>
</svg>
