<?xml version="1.0" encoding="UTF-8" ?>
<!DOCTYPE svg PUBLIC "-//W3C//DTD SVG 1.1//EN" "http://www.w3.org/Graphics/SVG/1.1/DTD/svg11.dtd">
<svg width="512pt" height="512pt" viewBox="0 0 512 512" version="1.1" xmlns="http://www.w3.org/2000/svg">
<g id="#000000ff">
<path fill="#000000" opacity="1.00" d=" M 230.48 90.57 C 243.85 89.10 257.74 91.70 269.34 98.64 C 284.17 107.27 295.29 122.21 298.86 139.03 C 302.22 154.16 299.86 170.60 291.95 183.97 C 284.74 196.55 272.97 206.46 259.36 211.45 C 246.14 216.28 231.33 216.45 217.98 212.03 C 202.55 206.90 189.39 195.48 182.04 180.99 C 174.10 165.69 173.21 147.07 179.11 130.93 C 187.00 109.35 207.56 93.00 230.48 90.57 M 206.39 110.31 C 192.91 120.14 184.59 136.73 185.15 153.45 C 185.08 168.86 192.54 183.92 204.55 193.52 C 214.44 201.99 227.61 205.71 240.48 205.58 C 240.69 205.44 241.12 205.16 241.34 205.02 C 263.65 204.56 283.98 187.09 288.95 165.50 C 292.93 150.37 289.56 133.46 280.04 121.02 C 271.74 109.77 258.74 102.18 244.88 100.37 C 231.41 98.82 217.25 101.99 206.39 110.31 Z" />
<path fill="#000000" opacity="1.00" d=" M 234.06 115.16 C 235.76 112.67 240.11 112.83 241.66 115.41 C 242.96 117.24 242.29 119.64 242.49 121.73 C 245.86 121.94 249.42 121.20 252.66 122.32 C 256.54 123.84 256.14 130.34 252.01 131.18 C 246.44 131.59 240.75 130.68 235.25 131.95 C 231.07 133.01 228.47 138.03 229.89 142.07 C 230.89 145.49 234.36 147.99 237.93 147.83 C 245.25 147.88 252.22 152.91 254.48 159.88 C 256.25 165.21 255.54 171.43 252.18 176.00 C 249.98 179.60 246.05 181.41 242.41 183.15 C 242.35 185.73 243.10 188.90 240.89 190.83 C 238.87 192.67 235.53 192.13 233.99 189.95 C 232.56 188.02 232.94 185.50 232.84 183.26 C 228.97 182.80 224.39 184.49 221.09 181.86 C 218.43 179.20 220.37 174.58 223.84 173.90 C 229.14 173.38 234.48 174.04 239.79 173.56 C 245.23 172.48 247.86 165.02 244.19 160.81 C 242.15 157.80 238.31 157.29 234.97 157.16 C 225.02 156.11 217.75 145.13 220.42 135.54 C 221.78 129.29 226.83 124.31 232.86 122.44 C 232.98 120.00 232.41 117.22 234.06 115.16 Z" />
<path fill="#000000" opacity="1.00" d=" M 376.95 163.02 C 405.31 159.29 433.66 155.46 462.04 151.82 C 473.58 150.14 484.25 161.82 481.68 173.17 C 476.78 200.52 471.75 227.84 466.72 255.17 C 465.59 261.68 458.51 266.54 452.04 264.90 C 448.57 264.27 445.83 261.90 443.52 259.40 C 438.31 254.13 433.26 248.71 428.00 243.50 C 371.13 299.46 314.14 355.30 257.23 411.22 C 253.09 415.75 245.61 416.18 241.17 411.85 C 221.42 394.28 201.68 376.69 181.97 359.08 C 173.95 352.08 166.23 344.72 158.00 337.96 C 133.06 362.35 108.44 387.08 83.63 411.61 C 80.01 415.00 76.91 419.21 72.28 421.31 C 67.31 423.33 61.37 422.10 57.52 418.40 C 50.51 411.77 43.67 404.96 36.68 398.31 C 34.08 395.78 31.38 392.96 30.64 389.27 C 29.39 384.44 31.32 379.25 34.88 375.89 C 73.19 339.19 111.48 302.47 149.79 265.77 C 153.89 261.30 161.39 261.10 165.75 265.30 C 192.89 289.45 219.93 313.73 247.11 337.84 C 247.58 338.15 248.53 338.77 249.00 339.08 C 294.53 293.14 340.04 247.18 385.46 201.14 C 379.75 195.61 373.99 190.13 368.39 184.49 C 363.50 179.81 363.76 171.27 368.58 166.65 C 370.74 164.34 373.91 163.44 376.95 163.02 M 375.49 173.38 C 375.20 174.03 374.61 175.32 374.32 175.96 C 375.12 177.08 375.92 178.22 376.91 179.19 C 383.18 185.27 389.48 191.32 395.65 197.50 C 397.62 199.10 397.93 202.32 396.16 204.19 C 389.55 211.25 382.60 217.98 375.85 224.91 C 337.44 263.46 299.34 302.31 261.00 340.93 C 258.00 343.78 255.36 347.62 251.00 348.39 C 247.30 349.54 243.42 347.76 240.67 345.33 C 213.79 321.24 186.78 297.30 159.94 273.17 C 158.99 271.96 157.12 271.77 156.21 273.12 C 118.30 309.58 80.24 345.87 42.35 382.34 C 40.03 383.94 39.23 387.46 41.61 389.40 C 48.98 396.69 56.55 403.79 63.97 411.02 C 65.80 413.30 68.90 412.70 70.64 410.67 C 97.05 384.40 123.62 358.31 149.97 331.99 C 154.52 326.81 162.86 327.78 167.18 332.73 C 193.95 356.66 220.77 380.53 247.55 404.44 C 248.52 405.44 250.06 404.72 250.77 403.77 C 307.22 348.24 363.77 292.80 420.26 237.30 C 422.41 235.40 424.19 232.91 426.89 231.75 C 429.21 231.13 431.21 232.67 432.73 234.22 C 439.21 240.77 445.58 247.42 451.98 254.03 C 453.65 256.21 457.20 255.32 457.29 252.48 C 462.11 226.02 466.99 199.57 471.77 173.10 C 472.04 171.16 472.18 169.14 471.75 167.21 C 470.39 162.96 465.43 160.60 461.20 161.71 C 432.64 165.64 403.99 169.08 375.49 173.38 Z" />
</g>
<g id="#60a59bff">
<path fill="#60a59b" opacity="1.00" d=" M 206.39 110.31 C 217.25 101.99 231.41 98.82 244.88 100.37 C 244.35 100.51 243.29 100.78 242.76 100.92 C 249.03 105.32 255.72 109.37 260.52 115.48 C 263.86 119.90 267.69 124.11 269.86 129.27 C 273.46 139.60 275.44 150.75 273.57 161.66 C 271.42 175.72 263.95 188.92 252.72 197.71 C 249.06 200.34 245.07 202.49 241.34 205.02 C 241.12 205.16 240.69 205.44 240.48 205.58 C 227.61 205.71 214.44 201.99 204.55 193.52 C 192.54 183.92 185.08 168.86 185.15 153.45 C 184.59 136.73 192.91 120.14 206.39 110.31 M 234.06 115.16 C 232.41 117.22 232.98 120.00 232.86 122.44 C 226.83 124.31 221.78 129.29 220.42 135.54 C 217.75 145.13 225.02 156.11 234.97 157.16 C 238.31 157.29 242.15 157.80 244.19 160.81 C 247.86 165.02 245.23 172.48 239.79 173.56 C 234.48 174.04 229.14 173.38 223.84 173.90 C 220.37 174.58 218.43 179.20 221.09 181.86 C 224.39 184.49 228.97 182.80 232.84 183.26 C 232.94 185.50 232.56 188.02 233.99 189.95 C 235.53 192.13 238.87 192.67 240.89 190.83 C 243.10 188.90 242.35 185.73 242.41 183.15 C 246.05 181.41 249.98 179.60 252.18 176.00 C 255.54 171.43 256.25 165.21 254.48 159.88 C 252.22 152.91 245.25 147.88 237.93 147.83 C 234.36 147.99 230.89 145.49 229.89 142.07 C 228.47 138.03 231.07 133.01 235.25 131.95 C 240.75 130.68 246.44 131.59 252.01 131.18 C 256.14 130.34 256.54 123.84 252.66 122.32 C 249.42 121.20 245.86 121.94 242.49 121.73 C 242.29 119.64 242.96 117.24 241.66 115.41 C 240.11 112.83 235.76 112.67 234.06 115.16 Z" />
</g>
<g id="#72cabeff">
<path fill="#72cabe" opacity="1.00" d=" M 242.76 100.92 C 243.29 100.78 244.35 100.51 244.88 100.37 C 258.74 102.18 271.74 109.77 280.04 121.02 C 289.56 133.46 292.93 150.37 288.95 165.50 C 283.98 187.09 263.65 204.56 241.34 205.02 C 245.07 202.49 249.06 200.34 252.72 197.71 C 263.95 188.92 271.42 175.72 273.57 161.66 C 275.44 150.75 273.46 139.60 269.86 129.27 C 267.69 124.11 263.86 119.90 260.52 115.48 C 255.72 109.37 249.03 105.32 242.76 100.92 Z" />
</g>
<g id="#72cabeff">
<path fill="#72cabe" opacity="1.00" d=" M 375.49 173.38 C 403.99 169.08 432.64 165.64 461.20 161.71 C 465.43 160.60 470.39 162.96 471.75 167.21 C 472.18 169.14 472.04 171.16 471.77 173.10 C 466.99 199.57 462.11 226.02 457.29 252.48 C 457.20 255.32 453.65 256.21 451.98 254.03 C 445.58 247.42 439.21 240.77 432.73 234.22 C 431.21 232.67 429.21 231.13 426.89 231.75 C 424.19 232.91 422.41 235.40 420.26 237.30 C 363.77 292.80 307.22 348.24 250.77 403.77 C 250.06 404.72 248.52 405.44 247.55 404.44 C 220.77 380.53 193.95 356.66 167.18 332.73 C 162.86 327.78 154.52 326.81 149.97 331.99 C 123.62 358.31 97.05 384.40 70.64 410.67 C 68.90 412.70 65.80 413.30 63.97 411.02 C 56.55 403.79 48.98 396.69 41.61 389.40 C 39.23 387.46 40.03 383.94 42.35 382.34 C 80.24 345.87 118.30 309.58 156.21 273.12 C 157.12 271.77 158.99 271.96 159.94 273.17 C 186.78 297.30 213.79 321.24 240.67 345.33 C 243.42 347.76 247.30 349.54 251.00 348.39 C 255.36 347.62 258.00 343.78 261.00 340.93 C 299.34 302.31 337.44 263.46 375.85 224.91 C 382.60 217.98 389.55 211.25 396.16 204.19 C 397.93 202.32 397.62 199.10 395.65 197.50 C 389.48 191.32 383.18 185.27 376.91 179.19 C 375.92 178.22 375.12 177.08 374.32 175.96 C 374.61 175.32 375.20 174.03 375.49 173.38 Z" />
</g>
</svg>
