<?xml version="1.0" encoding="UTF-8" ?>
<!DOCTYPE svg PUBLIC "-//W3C//DTD SVG 1.1//EN" "http://www.w3.org/Graphics/SVG/1.1/DTD/svg11.dtd">
<svg width="301pt" height="354pt" viewBox="0 0 301 354" version="1.1" xmlns="http://www.w3.org/2000/svg">
<g id="#fdfdfdff">
<path fill="#fdfdfd" opacity="1.00" d=" M 20.55 3.55 C 106.18 3.53 191.82 3.52 277.46 3.56 C 279.41 4.31 281.52 4.61 283.42 5.52 L 283.99 6.13 C 285.36 7.64 287.04 8.82 288.72 9.95 L 289.61 10.54 L 289.79 11.20 C 290.11 12.33 290.48 13.90 291.84 14.16 L 292.51 14.37 C 295.85 22.07 294.00 30.59 294.46 38.71 C 290.32 41.10 286.28 43.64 282.42 46.44 C 271.62 54.43 259.97 61.19 249.18 69.19 C 234.92 78.54 221.08 88.50 206.78 97.80 C 202.33 100.56 198.47 104.28 193.56 106.26 C 197.96 90.67 192.07 72.30 178.46 63.17 C 173.94 59.60 169.04 56.38 163.60 54.39 C 155.36 51.26 146.19 51.32 137.68 53.19 C 135.13 52.34 132.27 51.35 129.72 52.74 C 126.93 53.82 125.61 56.65 124.84 59.34 C 113.52 67.32 106.16 81.03 106.96 94.99 C 106.66 115.23 123.48 133.46 143.38 135.91 C 144.01 136.99 144.66 138.07 145.34 139.13 C 136.55 146.65 126.08 151.88 116.95 158.97 C 83.11 181.73 49.52 204.87 15.66 227.61 C 11.76 230.42 7.95 233.39 3.58 235.44 C 3.57 163.81 3.58 92.17 3.55 20.53 C 4.24 18.49 4.78 16.41 5.48 14.37 L 6.18 14.16 C 7.53 13.90 7.88 12.31 8.20 11.18 L 8.39 10.52 L 9.28 9.94 C 11.22 8.71 13.06 7.32 14.58 5.58 C 16.44 4.54 18.61 4.40 20.55 3.55 M 177.18 38.36 C 173.92 39.50 172.91 44.20 175.49 46.53 C 178.04 49.36 183.24 47.78 183.88 44.05 C 184.87 40.37 180.66 36.76 177.18 38.36 Z" />
<path fill="#fdfdfd" opacity="1.00" d=" M 139.40 56.19 C 143.39 54.50 147.82 54.78 152.05 54.93 C 148.30 55.27 144.71 56.44 141.02 57.05 C 140.61 56.84 139.81 56.41 139.40 56.19 Z" />
<path fill="#fdfdfd" opacity="1.00" d=" M 110.56 102.02 C 107.35 87.42 113.45 71.52 125.37 62.58 C 125.94 63.61 126.52 64.63 127.10 65.65 C 116.20 75.59 111.41 91.61 115.35 105.87 C 117.69 115.37 123.98 123.38 131.70 129.18 C 120.92 124.09 112.97 113.65 110.56 102.02 Z" />
</g>
<g id="#838287d2">
<path fill="#838287" opacity="0.82" d=" M 8.95 8.26 C 11.24 8.33 12.27 5.69 14.58 5.58 C 13.06 7.32 11.22 8.71 9.28 9.94 C 9.20 9.52 9.03 8.68 8.95 8.26 Z" />
</g>
<g id="#848287d2">
<path fill="#848287" opacity="0.82" d=" M 283.99 6.13 C 286.18 5.61 286.87 8.61 289.05 8.27 C 288.97 8.69 288.80 9.53 288.72 9.95 C 287.04 8.82 285.36 7.64 283.99 6.13 Z" />
</g>
<g id="#807e83d2">
<path fill="#807e83" opacity="0.82" d=" M 6.18 14.16 C 5.32 12.97 6.76 10.63 8.20 11.18 C 7.88 12.31 7.53 13.90 6.18 14.16 Z" />
</g>
<g id="#817f84d3">
<path fill="#817f84" opacity="0.83" d=" M 289.79 11.20 C 291.22 10.62 292.67 12.97 291.84 14.16 C 290.48 13.90 290.11 12.33 289.79 11.20 Z" />
</g>
<g id="#35c28cff">
<path fill="#35c28c" opacity="1.00" d=" M 177.18 38.36 C 180.66 36.76 184.87 40.37 183.88 44.05 C 183.24 47.78 178.04 49.36 175.49 46.53 C 172.91 44.20 173.92 39.50 177.18 38.36 Z" />
<path fill="#35c28c" opacity="1.00" d=" M 129.72 52.74 C 132.27 51.35 135.13 52.34 137.68 53.19 C 133.17 54.70 128.78 56.64 124.84 59.34 C 125.61 56.65 126.93 53.82 129.72 52.74 Z" />
<path fill="#35c28c" opacity="1.00" d=" M 141.02 57.05 C 144.71 56.44 148.30 55.27 152.05 54.93 C 167.79 55.77 182.15 67.47 186.55 82.57 C 190.59 95.43 187.31 110.23 178.24 120.20 C 167.02 133.10 146.87 137.13 131.70 129.18 C 123.98 123.38 117.69 115.37 115.35 105.87 C 111.41 91.61 116.20 75.59 127.10 65.65 C 126.52 64.63 125.94 63.61 125.37 62.58 C 129.61 59.79 134.39 56.74 139.40 56.19 C 139.81 56.41 140.61 56.84 141.02 57.05 M 120.22 100.08 C 122.83 113.31 135.52 123.75 149.06 123.48 C 162.55 123.69 175.18 113.28 177.77 100.11 C 178.31 98.40 175.02 97.59 174.66 99.28 C 172.85 105.71 169.19 111.74 163.57 115.50 C 155.09 121.54 142.93 121.55 134.45 115.52 C 128.35 111.53 124.86 104.85 122.86 98.03 C 121.81 98.30 119.71 98.40 120.22 100.08 Z" />
<path fill="#35c28c" opacity="1.00" d=" M 178.46 63.17 C 192.07 72.30 197.96 90.67 193.56 106.26 C 191.08 115.28 185.37 123.32 177.67 128.64 C 175.97 129.51 175.88 131.52 175.38 133.13 C 173.90 140.19 167.22 145.61 160.07 145.95 C 154.40 146.40 148.74 143.64 145.34 139.13 C 144.66 138.07 144.01 136.99 143.38 135.91 C 147.27 136.05 151.17 136.17 155.05 135.78 C 167.56 134.06 179.03 126.29 185.39 115.39 C 191.54 105.15 192.72 92.22 189.12 80.90 C 187.16 74.14 182.76 68.58 178.46 63.17 Z" />
<path fill="#35c28c" opacity="1.00" d=" M 179.33 139.49 C 183.31 137.91 188.21 140.30 189.53 144.35 C 191.17 148.56 188.39 153.74 183.99 154.72 C 179.90 155.93 175.27 153.14 174.28 149.03 C 173.13 145.17 175.53 140.75 179.33 139.49 Z" />
<path fill="#35c28c" opacity="1.00" d=" M 157.47 156.57 C 161.61 154.39 166.99 158.54 165.88 163.09 C 165.30 167.33 159.67 169.53 156.40 166.77 C 152.80 164.31 153.47 158.25 157.47 156.57 Z" />
</g>
<g id="#f7f9f7ff">
<path fill="#f7f9f7" opacity="1.00" d=" M 282.42 46.44 C 286.28 43.64 290.32 41.10 294.46 38.71 C 294.41 134.15 294.44 229.58 294.44 325.02 C 294.36 327.32 293.34 329.48 293.48 331.82 L 292.33 331.69 C 292.43 332.11 292.61 332.96 292.71 333.38 C 291.06 333.67 291.78 335.74 290.52 336.47 C 289.72 337.27 288.89 338.05 288.00 338.75 C 284.97 340.69 281.80 342.45 278.43 343.74 C 278.05 343.86 277.28 344.09 276.90 344.21 C 232.94 343.76 188.96 344.13 145.00 344.01 C 104.26 344.07 63.52 343.87 22.79 344.12 C 21.56 344.09 20.36 343.86 19.15 343.66 C 18.62 343.49 17.54 343.15 17.00 342.99 C 14.67 341.57 12.34 340.15 10.00 338.75 C 8.48 337.38 6.50 336.14 6.23 333.93 L 5.29 333.39 C 5.38 332.96 5.57 332.12 5.67 331.70 L 4.51 331.80 C 4.64 329.15 3.39 326.68 3.54 324.03 C 3.60 294.50 3.53 264.97 3.58 235.44 C 7.95 233.39 11.76 230.42 15.66 227.61 C 49.52 204.87 83.11 181.73 116.95 158.97 C 126.08 151.88 136.55 146.65 145.34 139.13 C 148.74 143.64 154.40 146.40 160.07 145.95 C 167.22 145.61 173.90 140.19 175.38 133.13 C 175.88 131.52 175.97 129.51 177.67 128.64 C 185.37 123.32 191.08 115.28 193.56 106.26 C 198.47 104.28 202.33 100.56 206.78 97.80 C 221.08 88.50 234.92 78.54 249.18 69.19 C 259.97 61.19 271.62 54.43 282.42 46.44 M 179.33 139.49 C 175.53 140.75 173.13 145.17 174.28 149.03 C 175.27 153.14 179.90 155.93 183.99 154.72 C 188.39 153.74 191.17 148.56 189.53 144.35 C 188.21 140.30 183.31 137.91 179.33 139.49 M 157.47 156.57 C 153.47 158.25 152.80 164.31 156.40 166.77 C 159.67 169.53 165.30 167.33 165.88 163.09 C 166.99 158.54 161.61 154.39 157.47 156.57 Z" />
</g>
<g id="#404041ff">
<path fill="#404041" opacity="1.00" d=" M 137.68 53.19 C 146.19 51.32 155.36 51.26 163.60 54.39 C 169.04 56.38 173.94 59.60 178.46 63.17 C 182.76 68.58 187.16 74.14 189.12 80.90 C 192.72 92.22 191.54 105.15 185.39 115.39 C 179.03 126.29 167.56 134.06 155.05 135.78 C 151.17 136.17 147.27 136.05 143.38 135.91 C 123.48 133.46 106.66 115.23 106.96 94.99 C 106.16 81.03 113.52 67.32 124.84 59.34 C 128.78 56.64 133.17 54.70 137.68 53.19 M 139.40 56.19 C 134.39 56.74 129.61 59.79 125.37 62.58 C 113.45 71.52 107.35 87.42 110.56 102.02 C 112.97 113.65 120.92 124.09 131.70 129.18 C 146.87 137.13 167.02 133.10 178.24 120.20 C 187.31 110.23 190.59 95.43 186.55 82.57 C 182.15 67.47 167.79 55.77 152.05 54.93 C 147.82 54.78 143.39 54.50 139.40 56.19 Z" />
<path fill="#404041" opacity="1.00" d=" M 120.22 100.08 C 119.71 98.40 121.81 98.30 122.86 98.03 C 124.86 104.85 128.35 111.53 134.45 115.52 C 142.93 121.55 155.09 121.54 163.57 115.50 C 169.19 111.74 172.85 105.71 174.66 99.28 C 175.02 97.59 178.31 98.40 177.77 100.11 C 175.18 113.28 162.55 123.69 149.06 123.48 C 135.52 123.75 122.83 113.31 120.22 100.08 Z" />
</g>
<g id="#747276c2">
<path fill="#747276" opacity="0.76" d=" M 10.00 338.75 C 12.34 340.15 14.67 341.57 17.00 342.99 C 14.19 342.74 11.19 341.49 10.00 338.75 Z" />
</g>
<g id="#777679c1">
<path fill="#777679" opacity="0.76" d=" M 278.43 343.74 C 281.80 342.45 284.97 340.69 288.00 338.75 C 286.30 342.28 281.96 343.22 278.43 343.74 Z" />
</g>
<g id="#100f102d">
<path fill="#100f10" opacity="0.18" d=" M 19.15 343.66 C 20.36 343.86 21.56 344.09 22.79 344.12 C 63.52 343.87 104.26 344.07 145.00 344.01 C 188.96 344.13 232.94 343.76 276.90 344.21 C 273.17 345.80 268.96 344.56 265.03 344.80 C 215.38 344.63 165.73 344.79 116.08 344.69 C 87.74 344.82 59.40 344.55 31.07 344.85 C 27.10 344.65 22.64 346.05 19.10 343.65 L 19.15 343.66 Z" />
</g>
</svg>
