<?xml version="1.0" encoding="UTF-8" ?>
<!DOCTYPE svg PUBLIC "-//W3C//DTD SVG 1.1//EN" "http://www.w3.org/Graphics/SVG/1.1/DTD/svg11.dtd">
<svg width="800pt" height="800pt" viewBox="0 0 800 800" version="1.1" xmlns="http://www.w3.org/2000/svg">
<g id="#ffffffff">
<path fill="#ffffff" opacity="1.00" d=" M 169.58 303.47 C 183.00 301.99 196.54 302.96 210.02 302.68 C 214.55 302.79 219.10 302.41 223.61 302.97 C 223.51 314.59 223.60 326.20 223.55 337.82 C 222.65 337.61 221.76 337.42 220.86 337.23 C 213.94 334.32 207.00 331.48 199.97 328.87 C 194.97 327.32 190.21 329.97 185.69 331.76 C 180.43 334.06 174.92 335.81 169.81 338.45 C 169.33 326.80 169.78 315.13 169.58 303.47 Z" />
<path fill="#ffffff" opacity="1.00" d=" M 368.28 538.45 C 380.81 536.22 394.09 539.14 404.75 546.04 C 415.59 553.22 423.79 564.44 426.84 577.13 C 429.58 589.38 427.95 602.70 421.71 613.66 C 414.64 626.31 402.06 635.84 387.87 638.93 C 376.85 641.27 365.02 640.12 354.87 635.12 C 342.22 629.37 332.30 618.12 327.95 604.96 C 323.21 590.90 324.97 574.72 333.00 562.19 C 340.52 549.58 353.82 540.79 368.28 538.45 M 372.56 576.86 C 367.00 578.52 363.32 584.33 364.12 590.07 C 364.12 598.31 373.61 604.03 381.09 601.02 C 388.53 598.66 392.11 588.81 387.74 582.30 C 384.89 577.03 378.05 575.09 372.56 576.86 Z" />
<path fill="#ffffff" opacity="1.00" d=" M 597.42 538.64 C 608.59 536.58 620.49 538.23 630.54 543.57 C 644.18 550.52 654.35 563.90 657.30 578.94 C 659.47 589.95 658.05 601.80 652.79 611.77 C 647.62 622.36 638.43 630.83 627.73 635.67 C 613.58 641.94 596.50 641.63 582.89 634.08 C 572.07 628.64 563.69 618.91 559.05 607.81 C 554.46 595.78 553.98 581.85 559.19 569.94 C 565.37 553.81 580.47 541.66 597.42 538.64 M 602.11 577.09 C 597.67 578.69 594.16 583.08 594.16 587.89 C 593.16 595.05 599.67 602.23 606.93 601.70 C 614.13 602.01 620.48 595.17 619.69 588.01 C 619.45 579.63 609.77 573.67 602.11 577.09 Z" />
</g>
<g id="#60a59bff">
<path fill="#60a59b" opacity="1.00" d=" M 303.61 137.59 C 309.24 132.14 319.66 133.46 323.52 140.37 C 326.09 144.48 325.20 149.45 325.33 154.03 C 325.46 198.71 325.11 243.39 325.51 288.06 C 325.61 345.26 325.55 402.45 325.51 459.65 C 339.12 459.78 352.74 459.83 366.35 459.57 C 369.98 437.97 374.63 416.55 378.57 395.01 C 382.51 375.33 386.23 355.61 390.09 335.92 C 394.83 312.07 398.92 288.08 404.64 264.44 C 410.23 242.45 416.92 220.05 430.35 201.42 C 440.36 186.87 455.26 176.00 471.75 169.88 C 491.87 162.19 513.62 160.26 534.99 159.77 C 570.99 159.80 606.99 159.74 642.99 159.79 C 649.94 159.44 656.38 166.03 655.83 172.97 C 655.83 227.00 655.85 281.02 655.82 335.05 C 655.74 336.47 655.88 338.70 657.96 338.18 C 678.65 338.20 699.35 338.16 720.04 338.19 C 724.19 337.97 728.25 340.02 730.66 343.38 C 733.42 346.96 732.84 351.74 733.19 355.97 C 733.19 408.01 733.21 460.04 733.18 512.08 C 733.26 518.06 729.11 523.99 723.04 525.02 C 715.53 527.14 707.16 520.76 707.42 512.92 C 707.35 488.81 707.41 464.71 707.39 440.60 C 656.94 440.48 606.49 440.57 556.04 440.56 C 539.36 440.46 522.71 446.23 509.82 456.85 C 499.35 465.05 488.96 473.36 478.53 481.61 C 475.85 483.80 472.66 485.68 469.07 485.43 C 421.22 485.44 373.38 485.52 325.53 485.39 C 325.06 493.92 325.48 502.46 325.31 511.00 C 325.14 517.44 326.61 523.79 326.30 530.23 C 329.58 528.29 332.52 525.84 335.72 523.76 C 347.78 516.39 361.82 511.95 376.03 512.11 C 393.89 511.71 411.78 518.04 425.55 529.39 C 439.83 541.03 449.67 557.87 452.88 576.01 C 478.85 576.22 504.83 576.27 530.80 575.99 C 533.49 560.83 540.57 546.38 551.48 535.46 C 565.73 520.54 586.33 511.77 606.97 512.12 C 623.60 511.89 640.22 517.55 653.41 527.65 C 668.97 539.20 679.63 556.91 682.95 575.97 C 691.07 576.33 699.21 576.09 707.35 576.13 C 708.06 569.09 705.29 560.59 710.88 554.95 C 713.77 551.38 718.71 550.62 723.01 551.33 C 728.91 552.30 733.22 558.14 733.15 564.01 C 733.23 572.35 733.23 580.68 733.15 589.02 C 733.08 595.40 727.66 601.78 721.03 601.63 C 708.54 601.70 696.04 601.82 683.55 601.57 C 681.88 604.86 681.62 608.62 680.42 612.09 C 675.08 629.29 663.27 644.38 648.04 653.97 C 636.09 661.41 622.14 665.83 608.01 665.75 C 590.60 666.20 573.09 660.33 559.43 649.52 C 545.49 638.88 535.61 623.16 531.67 606.11 C 531.29 604.60 530.84 603.12 530.40 601.65 C 504.52 601.79 478.65 601.59 452.78 601.76 C 448.60 627.74 429.90 650.82 405.36 660.31 C 387.82 667.45 367.57 667.61 349.83 661.07 C 336.09 655.91 323.86 646.82 315.06 635.06 C 304.40 621.33 299.34 603.91 299.40 586.63 C 243.26 586.78 187.11 586.64 130.97 586.71 C 119.96 586.99 108.94 584.00 99.37 578.61 C 78.98 567.24 65.58 543.85 67.09 520.48 C 67.34 519.35 67.58 518.23 67.84 517.12 C 70.16 515.03 71.93 512.20 74.76 510.76 C 79.36 509.34 84.27 509.46 89.00 510.09 C 90.21 509.91 91.43 509.83 92.65 509.85 C 109.76 510.43 126.90 509.95 144.02 510.11 C 195.93 510.07 247.84 510.18 299.75 510.05 C 299.75 441.19 299.91 372.33 299.68 303.47 C 299.44 294.80 299.71 286.13 299.62 277.46 C 299.55 233.98 299.60 190.50 299.60 147.02 C 299.40 143.45 301.29 140.16 303.61 137.59 M 500.13 188.46 C 483.41 191.25 466.56 197.91 455.19 210.95 C 441.55 226.67 435.38 247.13 430.41 266.94 C 424.66 290.44 420.66 314.32 415.88 338.02 C 412.80 355.27 408.76 372.36 406.20 389.68 C 411.27 388.35 416.26 386.77 421.33 385.41 C 421.65 383.81 422.91 382.99 424.42 382.70 L 424.13 384.69 C 425.67 384.21 427.23 383.74 428.78 383.28 C 428.14 379.52 427.21 375.81 426.97 372.00 C 426.92 366.25 431.33 360.63 437.06 359.65 C 443.75 358.03 450.96 362.70 452.29 369.44 C 455.03 383.32 458.37 397.08 460.98 410.99 C 462.53 418.47 455.59 426.19 448.00 425.64 C 440.80 425.76 435.04 418.99 435.17 412.01 C 434.84 411.02 434.53 410.03 434.25 409.04 C 424.56 410.39 415.50 414.38 405.99 416.53 C 404.00 417.20 401.54 417.34 400.08 418.96 C 397.73 432.56 394.96 446.09 392.25 459.63 C 415.16 459.89 438.07 459.63 460.98 459.76 C 462.58 459.61 464.53 460.10 465.80 458.82 C 476.01 450.65 486.36 442.66 496.58 434.49 C 507.29 426.47 519.65 420.65 532.68 417.56 C 544.02 414.56 555.83 414.85 567.46 414.56 C 568.40 400.71 570.10 386.92 571.45 373.10 C 573.39 355.05 575.01 336.98 576.98 318.94 C 578.41 308.97 577.93 298.70 580.82 288.97 C 584.48 277.84 593.15 268.49 604.08 264.19 C 609.99 261.51 616.58 261.09 622.98 261.29 C 625.44 261.15 628.18 261.85 630.40 260.48 C 630.12 235.52 630.36 210.55 630.29 185.59 C 608.20 185.53 586.10 185.60 564.01 185.58 C 542.69 185.71 521.21 184.68 500.13 188.46 M 604.61 300.07 C 604.05 309.59 602.79 319.05 601.82 328.54 C 599.03 357.26 595.84 385.94 593.20 414.67 C 605.51 414.87 617.84 414.64 630.16 414.78 C 630.50 372.28 630.09 329.77 630.36 287.27 C 625.24 287.23 620.04 286.74 614.97 287.63 C 609.57 289.37 605.14 294.32 604.61 300.07 M 655.96 363.76 C 655.81 380.76 655.76 397.77 655.99 414.77 C 673.08 414.80 690.18 414.77 707.28 414.78 C 707.52 397.76 707.36 380.74 707.35 363.73 C 690.22 363.77 673.09 363.71 655.96 363.76 M 94.99 535.82 C 100.00 550.81 115.24 561.30 130.98 561.21 C 187.14 561.16 243.30 561.30 299.45 561.14 C 299.73 552.63 299.60 544.10 299.53 535.59 C 246.70 535.64 193.88 535.60 141.05 535.61 C 125.70 535.76 110.33 535.32 94.99 535.82 M 368.28 538.45 C 353.82 540.79 340.52 549.58 333.00 562.19 C 324.97 574.72 323.21 590.90 327.95 604.96 C 332.30 618.12 342.22 629.37 354.87 635.12 C 365.02 640.12 376.85 641.27 387.87 638.93 C 402.06 635.84 414.64 626.31 421.71 613.66 C 427.95 602.70 429.58 589.38 426.84 577.13 C 423.79 564.44 415.59 553.22 404.75 546.04 C 394.09 539.14 380.81 536.22 368.28 538.45 M 597.42 538.64 C 580.47 541.66 565.37 553.81 559.19 569.94 C 553.98 581.85 554.46 595.78 559.05 607.81 C 563.69 618.91 572.07 628.64 582.89 634.08 C 596.50 641.63 613.58 641.94 627.73 635.67 C 638.43 630.83 647.62 622.36 652.79 611.77 C 658.05 601.80 659.47 589.95 657.30 578.94 C 654.35 563.90 644.18 550.52 630.54 543.57 C 620.49 538.23 608.59 536.58 597.42 538.64 Z" />
<path fill="#60a59b" opacity="1.00" d=" M 554.40 460.54 C 557.16 459.58 560.13 459.73 563.02 459.71 C 579.69 459.79 596.38 459.65 613.05 459.77 C 620.69 460.36 626.30 468.68 624.08 476.02 C 622.64 481.66 616.80 485.84 610.98 485.47 C 593.65 485.43 576.32 485.46 558.99 485.45 C 553.50 485.40 548.06 481.60 546.79 476.14 C 544.81 469.94 548.47 462.93 554.40 460.54 Z" />
<path fill="#60a59b" opacity="1.00" d=" M 372.56 576.86 C 378.05 575.09 384.89 577.03 387.74 582.30 C 392.11 588.81 388.53 598.66 381.09 601.02 C 373.61 604.03 364.12 598.31 364.12 590.07 C 363.32 584.33 367.00 578.52 372.56 576.86 Z" />
<path fill="#60a59b" opacity="1.00" d=" M 602.11 577.09 C 609.77 573.67 619.45 579.63 619.69 588.01 C 620.48 595.17 614.13 602.01 606.93 601.70 C 599.67 602.23 593.16 595.05 594.16 587.89 C 594.16 583.08 597.67 578.69 602.11 577.09 Z" />
</g>
<g id="#feb828ff">
<path fill="#feb828" opacity="1.00" d=" M 71.94 279.93 C 75.12 276.66 79.86 277.40 83.98 277.32 C 155.86 277.42 227.74 277.14 299.62 277.46 C 299.71 286.13 299.44 294.80 299.68 303.47 L 298.72 303.32 C 292.51 302.51 286.23 302.75 279.99 302.73 C 269.79 302.78 259.56 302.40 249.39 303.40 C 249.35 321.29 249.48 339.18 249.32 357.08 C 249.24 364.99 241.34 372.39 233.34 370.04 C 227.05 367.67 220.80 365.17 214.65 362.43 C 209.96 360.28 204.86 359.14 200.36 356.57 C 197.70 354.86 194.39 355.49 191.72 356.82 C 181.79 361.21 171.81 365.45 161.72 369.47 C 155.93 372.02 148.16 369.32 145.56 363.45 C 144.05 360.89 143.86 357.87 143.81 354.98 C 143.82 337.71 143.87 320.44 143.80 303.17 C 132.22 302.32 120.58 302.91 108.97 302.73 C 103.47 302.78 97.93 302.36 92.49 303.37 C 92.57 339.24 92.48 375.10 92.54 410.97 C 92.49 414.56 93.06 418.32 91.67 421.75 C 90.40 424.83 87.76 427.02 85.46 429.32 C 82.63 429.37 79.81 429.40 76.98 429.35 C 76.51 429.34 75.56 429.32 75.09 429.31 C 72.22 427.26 68.63 425.30 67.71 421.61 C 67.24 418.44 66.85 415.24 66.71 412.03 C 66.72 372.03 66.71 332.02 66.71 292.02 C 66.85 287.51 67.89 282.56 71.94 279.93 M 169.58 303.47 C 169.78 315.13 169.33 326.80 169.81 338.45 C 174.92 335.81 180.43 334.06 185.69 331.76 C 190.21 329.97 194.97 327.32 199.97 328.87 C 207.00 331.48 213.94 334.32 220.86 337.23 C 221.76 337.42 222.65 337.61 223.55 337.82 C 223.60 326.20 223.51 314.59 223.61 302.97 C 219.10 302.41 214.55 302.79 210.02 302.68 C 196.54 302.96 183.00 301.99 169.58 303.47 Z" />
<path fill="#feb828" opacity="1.00" d=" M 71.92 457.90 C 75.93 456.18 80.53 454.33 84.82 456.22 C 89.63 457.90 92.69 463.00 92.55 468.00 C 92.55 481.83 92.42 495.66 92.62 509.49 L 92.65 509.85 C 91.43 509.83 90.21 509.91 89.00 510.09 C 84.27 509.46 79.36 509.34 74.76 510.76 C 71.93 512.20 70.16 515.03 67.84 517.12 C 67.58 518.23 67.34 519.35 67.09 520.48 C 67.76 516.63 67.22 512.81 66.71 509.00 C 66.70 495.33 66.69 481.66 66.74 468.00 C 66.74 464.00 69.06 460.49 71.92 457.90 Z" />
<path fill="#feb828" opacity="1.00" d=" M 218.52 458.83 C 232.32 458.14 246.18 458.69 260.00 458.54 C 265.75 458.08 271.87 461.36 274.04 466.84 C 275.70 472.09 274.25 478.31 269.94 481.89 C 267.33 483.64 264.15 484.50 261.01 484.46 C 248.02 484.35 235.02 484.39 222.03 484.42 C 214.95 484.75 207.64 478.37 208.35 471.03 C 208.39 465.25 212.66 459.68 218.52 458.83 Z" />
</g>
<g id="#fef8aaff">
<path fill="#fef8aa" opacity="1.00" d=" M 92.49 303.37 C 97.93 302.36 103.47 302.78 108.97 302.73 C 120.58 302.91 132.22 302.32 143.80 303.17 C 143.87 320.44 143.82 337.71 143.81 354.98 C 143.86 357.87 144.05 360.89 145.56 363.45 C 148.16 369.32 155.93 372.02 161.72 369.47 C 171.81 365.45 181.79 361.21 191.72 356.82 C 194.39 355.49 197.70 354.86 200.36 356.57 C 204.86 359.14 209.96 360.28 214.65 362.43 C 220.80 365.17 227.05 367.67 233.34 370.04 C 241.34 372.39 249.24 364.99 249.32 357.08 C 249.48 339.18 249.35 321.29 249.39 303.40 C 259.56 302.40 269.79 302.78 279.99 302.73 C 286.23 302.75 292.51 302.51 298.72 303.32 C 298.54 328.20 298.70 353.09 298.63 377.97 C 298.56 382.70 298.91 387.44 298.44 392.16 C 298.08 394.78 299.04 397.44 298.39 400.04 C 297.84 400.19 296.76 400.50 296.21 400.65 C 296.80 400.64 297.96 400.64 298.54 400.64 C 298.82 431.42 298.51 462.20 298.68 492.99 C 298.34 495.64 299.91 499.70 296.70 501.00 C 298.83 502.97 298.99 505.71 298.64 508.44 C 296.12 508.85 293.61 509.30 291.06 509.42 C 224.92 509.49 158.77 509.37 92.62 509.49 C 92.42 495.66 92.55 481.83 92.55 468.00 C 92.69 463.00 89.63 457.90 84.82 456.22 C 80.53 454.33 75.93 456.18 71.92 457.90 C 73.74 454.74 78.45 454.55 79.84 451.02 C 79.85 445.67 79.66 440.32 79.71 434.97 C 79.94 432.69 78.06 431.11 76.98 429.35 C 79.81 429.40 82.63 429.37 85.46 429.32 C 87.76 427.02 90.40 424.83 91.67 421.75 C 93.06 418.32 92.49 414.56 92.54 410.97 C 92.48 375.10 92.57 339.24 92.49 303.37 M 218.52 458.83 C 212.66 459.68 208.39 465.25 208.35 471.03 C 207.64 478.37 214.95 484.75 222.03 484.42 C 235.02 484.39 248.02 484.35 261.01 484.46 C 264.15 484.50 267.33 483.64 269.94 481.89 C 274.25 478.31 275.70 472.09 274.04 466.84 C 271.87 461.36 265.75 458.08 260.00 458.54 C 246.18 458.69 232.32 458.14 218.52 458.83 Z" />
</g>
<g id="#72cabeff">
<path fill="#72cabe" opacity="1.00" d=" M 298.72 303.32 L 299.68 303.47 C 299.91 372.33 299.75 441.19 299.75 510.05 C 247.84 510.18 195.93 510.07 144.02 510.11 C 126.90 509.95 109.76 510.43 92.65 509.85 L 92.62 509.49 C 158.77 509.37 224.92 509.49 291.06 509.42 C 293.61 509.30 296.12 508.85 298.64 508.44 C 298.99 505.71 298.83 502.97 296.70 501.00 C 299.91 499.70 298.34 495.64 298.68 492.99 C 298.51 462.20 298.82 431.42 298.54 400.64 C 297.96 400.64 296.80 400.64 296.21 400.65 C 296.76 400.50 297.84 400.19 298.39 400.04 C 299.04 397.44 298.08 394.78 298.44 392.16 C 298.91 387.44 298.56 382.70 298.63 377.97 C 298.70 353.09 298.54 328.20 298.72 303.32 Z" />
<path fill="#72cabe" opacity="1.00" d=" M 655.96 363.76 C 673.09 363.71 690.22 363.77 707.35 363.73 C 707.36 380.74 707.52 397.76 707.28 414.78 C 690.18 414.77 673.08 414.80 655.99 414.77 C 655.76 397.77 655.81 380.76 655.96 363.76 Z" />
<path fill="#72cabe" opacity="1.00" d=" M 509.82 456.85 C 522.71 446.23 539.36 440.46 556.04 440.56 C 606.49 440.57 656.94 440.48 707.39 440.60 C 707.41 464.71 707.35 488.81 707.42 512.92 C 707.16 520.76 715.53 527.14 723.04 525.02 C 718.74 527.47 720.70 532.95 720.28 536.97 C 720.71 541.80 718.56 547.80 723.01 551.33 C 718.71 550.62 713.77 551.38 710.88 554.95 C 705.29 560.59 708.06 569.09 707.35 576.13 C 699.21 576.09 691.07 576.33 682.95 575.97 C 679.63 556.91 668.97 539.20 653.41 527.65 C 640.22 517.55 623.60 511.89 606.97 512.12 C 586.33 511.77 565.73 520.54 551.48 535.46 C 540.57 546.38 533.49 560.83 530.80 575.99 C 504.83 576.27 478.85 576.22 452.88 576.01 C 449.67 557.87 439.83 541.03 425.55 529.39 C 411.78 518.04 393.89 511.71 376.03 512.11 C 361.82 511.95 347.78 516.39 335.72 523.76 C 332.52 525.84 329.58 528.29 326.30 530.23 C 326.61 523.79 325.14 517.44 325.31 511.00 C 325.48 502.46 325.06 493.92 325.53 485.39 C 373.38 485.52 421.22 485.44 469.07 485.43 C 472.66 485.68 475.85 483.80 478.53 481.61 C 488.96 473.36 499.35 465.05 509.82 456.85 M 554.40 460.54 C 548.47 462.93 544.81 469.94 546.79 476.14 C 548.06 481.60 553.50 485.40 558.99 485.45 C 576.32 485.46 593.65 485.43 610.98 485.47 C 616.80 485.84 622.64 481.66 624.08 476.02 C 626.30 468.68 620.69 460.36 613.05 459.77 C 596.38 459.65 579.69 459.79 563.02 459.71 C 560.13 459.73 557.16 459.58 554.40 460.54 Z" />
<path fill="#72cabe" opacity="1.00" d=" M 94.99 535.82 C 110.33 535.32 125.70 535.76 141.05 535.61 C 193.88 535.60 246.70 535.64 299.53 535.59 C 299.60 544.10 299.73 552.63 299.45 561.14 C 243.30 561.30 187.14 561.16 130.98 561.21 C 115.24 561.30 100.00 550.81 94.99 535.82 Z" />
</g>
</svg>
