<?xml version="1.0" encoding="UTF-8" ?>
<!DOCTYPE svg PUBLIC "-//W3C//DTD SVG 1.1//EN" "http://www.w3.org/Graphics/SVG/1.1/DTD/svg11.dtd">
<svg width="257pt" height="245pt" viewBox="0 0 257 245" version="1.1" xmlns="http://www.w3.org/2000/svg">
<g id="#ffffffff">
</g>
<g id="#75dad7ff">
<path fill="#75dad7" opacity="1.00" d=" M 128.35 8.02 C 130.24 8.56 130.91 10.57 132.00 12.00 C 145.16 30.52 158.32 49.05 171.61 67.48 C 172.73 68.87 173.51 70.81 175.34 71.39 C 180.56 73.04 185.87 74.44 190.98 76.40 C 190.44 76.62 189.37 77.05 188.84 77.27 C 188.80 83.84 185.58 89.75 183.99 96.00 C 176.14 118.78 162.09 139.09 145.02 155.96 C 122.91 177.06 94.83 191.65 64.95 197.99 C 61.70 198.59 58.47 199.31 55.26 200.15 C 55.25 185.66 55.47 171.17 55.41 156.67 C 40.00 136.31 25.20 115.47 9.63 95.23 C 9.63 94.89 9.62 94.20 9.61 93.86 C 34.01 86.92 58.08 78.73 82.35 71.30 C 84.41 70.48 85.27 68.20 86.58 66.58 C 100.41 46.99 114.49 27.58 128.35 8.02 Z" />
</g>
<g id="#72cabeff">
<path fill="#72cabe" opacity="1.00" d=" M 188.84 77.27 C 189.37 77.05 190.44 76.62 190.98 76.40 C 209.89 81.90 228.51 88.52 247.48 93.79 C 247.50 94.19 247.56 95.01 247.58 95.42 C 232.72 115.29 218.10 135.34 203.19 155.18 C 200.60 157.95 202.35 161.74 202.24 165.03 C 202.20 188.26 202.49 211.48 202.50 234.71 C 179.63 227.08 156.72 219.55 133.92 211.73 C 131.80 211.11 129.62 209.78 127.36 210.48 C 106.50 217.58 85.56 224.48 64.67 231.50 C 61.29 232.36 58.14 234.10 54.64 234.46 C 54.51 223.00 55.40 211.60 55.26 200.15 C 58.47 199.31 61.70 198.59 64.95 197.99 C 94.83 191.65 122.91 177.06 145.02 155.96 C 162.09 139.09 176.14 118.78 183.99 96.00 C 185.58 89.75 188.80 83.84 188.84 77.27 Z" />
</g>
</svg>
