<?xml version="1.0" encoding="UTF-8" ?>
<!DOCTYPE svg PUBLIC "-//W3C//DTD SVG 1.1//EN" "http://www.w3.org/Graphics/SVG/1.1/DTD/svg11.dtd">
<svg width="396pt" height="311pt" viewBox="0 0 396 311" version="1.1" xmlns="http://www.w3.org/2000/svg">
<g id="#31495dff">
</g>
<g id="#60a59bff">
<path fill="#60a59b" opacity="1.00" d=" M 127.67 22.59 C 132.58 10.02 146.77 1.96 160.08 4.45 C 172.14 6.20 182.25 16.15 184.48 28.08 C 185.84 34.86 184.64 41.98 181.46 48.09 C 193.58 59.81 205.63 71.61 217.86 83.22 C 228.69 75.77 244.10 76.54 254.07 85.12 C 265.86 75.77 277.52 66.26 289.35 56.96 C 286.51 48.67 286.24 39.22 290.54 31.37 C 296.52 19.42 311.13 12.71 324.09 16.18 C 338.77 19.40 349.22 35.16 346.29 49.95 C 344.22 65.41 328.27 77.08 312.91 74.56 C 308.00 73.98 303.48 71.81 299.33 69.24 C 287.29 79.00 275.16 88.64 263.05 98.30 C 267.52 111.58 261.55 127.47 249.01 133.94 C 240.90 138.42 230.64 138.81 222.26 134.82 C 214.64 131.37 208.65 124.51 206.28 116.48 C 204.03 109.64 204.85 102.14 207.47 95.52 C 195.16 83.45 182.67 71.55 170.29 59.55 C 162.36 64.32 152.54 64.48 143.93 61.64 C 129.32 80.26 114.92 99.07 100.51 117.85 C 105.83 126.05 107.01 136.89 103.10 145.90 C 99.63 154.38 92.02 160.93 83.15 163.21 C 69.80 166.94 54.57 159.83 48.82 147.24 C 42.83 135.20 46.37 119.32 57.10 111.13 C 65.82 103.89 78.35 103.00 88.61 107.28 C 102.69 88.69 117.04 70.30 131.28 51.83 C 125.48 43.39 123.65 32.17 127.67 22.59 M 151.27 17.05 C 143.75 18.85 137.58 26.11 138.13 34.01 C 137.76 43.36 146.58 51.85 155.95 50.84 C 165.60 51.11 173.66 41.45 172.39 32.03 C 171.76 22.00 160.90 14.38 151.27 17.05 M 312.74 28.31 C 303.40 30.51 297.27 41.33 300.61 50.41 C 303.22 58.88 312.96 64.32 321.52 61.71 C 330.81 59.36 336.73 48.39 333.25 39.38 C 330.48 31.22 321.11 25.95 312.74 28.31 M 229.38 91.44 C 219.32 94.34 214.30 107.39 219.77 116.31 C 224.35 125.13 237.03 127.59 244.90 121.81 C 251.83 117.01 254.00 106.74 249.77 99.49 C 246.06 92.45 236.91 88.64 229.38 91.44 M 68.42 118.74 C 60.56 122.18 56.23 132.12 59.46 140.15 C 62.43 149.83 74.94 154.70 83.71 149.64 C 92.53 145.30 95.57 132.99 90.06 124.95 C 85.75 117.77 75.87 115.38 68.42 118.74 Z" />
<path fill="#60a59b" opacity="1.00" d=" M 13.34 283.24 C 25.10 283.27 36.87 283.19 48.63 283.30 C 75.07 283.47 101.52 283.46 127.96 283.16 C 132.95 282.54 137.98 282.83 142.99 282.79 C 154.67 282.81 166.34 282.79 178.01 282.79 C 187.89 283.66 197.81 283.03 207.72 283.30 C 225.74 283.44 243.77 283.47 261.80 283.29 C 270.29 283.20 278.78 283.21 287.28 283.31 C 305.31 283.43 323.35 283.48 341.39 283.29 C 353.15 283.17 364.91 283.30 376.68 283.22 C 376.66 288.98 376.68 294.74 376.66 300.50 C 255.55 300.56 134.44 300.52 13.33 300.52 C 13.33 294.76 13.35 289.00 13.34 283.24 Z" />
</g>
<g id="#72cabeff">
<path fill="#72cabe" opacity="1.00" d=" M 151.27 17.05 C 160.90 14.38 171.76 22.00 172.39 32.03 C 173.66 41.45 165.60 51.11 155.95 50.84 C 146.58 51.85 137.76 43.36 138.13 34.01 C 137.58 26.11 143.75 18.85 151.27 17.05 Z" />
<path fill="#72cabe" opacity="1.00" d=" M 312.74 28.31 C 321.11 25.95 330.48 31.22 333.25 39.38 C 336.73 48.39 330.81 59.36 321.52 61.71 C 312.96 64.32 303.22 58.88 300.61 50.41 C 297.27 41.33 303.40 30.51 312.74 28.31 Z" />
<path fill="#72cabe" opacity="1.00" d=" M 229.38 91.44 C 236.91 88.64 246.06 92.45 249.77 99.49 C 254.00 106.74 251.83 117.01 244.90 121.81 C 237.03 127.59 224.35 125.13 219.77 116.31 C 214.30 107.39 219.32 94.34 229.38 91.44 Z" />
<path fill="#72cabe" opacity="1.00" d=" M 68.42 118.74 C 75.87 115.38 85.75 117.77 90.06 124.95 C 95.57 132.99 92.53 145.30 83.71 149.64 C 74.94 154.70 62.43 149.83 59.46 140.15 C 56.23 132.12 60.56 122.18 68.42 118.74 Z" />
</g>
<g id="#72cabeff">
<path fill="#72cabe" opacity="1.00" d=" M 128.32 95.31 C 129.85 95.01 131.39 94.70 132.96 94.70 C 147.97 94.72 162.97 94.69 177.98 94.69 C 179.42 94.80 181.27 94.43 182.10 95.98 C 182.56 99.63 182.26 103.33 182.32 107.00 C 182.37 165.60 182.27 224.19 182.37 282.78 C 164.27 282.69 146.16 282.48 128.07 282.86 C 128.22 221.92 128.08 160.99 128.13 100.05 C 128.16 98.47 128.24 96.89 128.32 95.31 Z" />
<path fill="#72cabe" opacity="1.00" d=" M 287.63 106.58 C 305.29 106.06 322.97 106.36 340.63 106.42 C 341.16 107.90 341.52 109.43 341.45 111.01 C 341.39 168.44 341.52 225.87 341.39 283.29 C 323.35 283.48 305.31 283.43 287.28 283.31 C 287.12 229.19 287.25 175.07 287.21 120.95 C 287.31 116.16 286.88 111.33 287.63 106.58 Z" />
<path fill="#72cabe" opacity="1.00" d=" M 207.64 163.97 C 207.53 162.42 208.05 160.96 208.61 159.54 C 225.78 159.65 242.95 159.33 260.11 159.69 C 262.37 159.60 261.62 162.64 261.88 164.05 C 261.80 203.80 261.96 243.55 261.80 283.29 C 243.77 283.47 225.74 283.44 207.72 283.30 C 207.60 243.52 207.74 203.75 207.64 163.97 Z" />
<path fill="#72cabe" opacity="1.00" d=" M 48.76 193.96 C 49.67 191.93 52.26 192.68 54.00 192.45 C 70.10 192.62 86.22 192.23 102.32 192.66 C 103.14 197.41 102.68 202.24 102.79 207.03 C 102.75 232.40 102.90 257.78 102.71 283.16 C 111.12 283.25 119.54 283.26 127.96 283.16 C 101.52 283.46 75.07 283.47 48.63 283.30 C 48.47 257.84 48.61 232.38 48.57 206.92 C 48.66 202.60 48.33 198.26 48.76 193.96 Z" />
</g>
</svg>
