<?xml version="1.0" encoding="UTF-8" ?>
<!DOCTYPE svg PUBLIC "-//W3C//DTD SVG 1.1//EN" "http://www.w3.org/Graphics/SVG/1.1/DTD/svg11.dtd">
<svg width="490pt" height="490pt" viewBox="0 0 490 490" version="1.1" xmlns="http://www.w3.org/2000/svg">
<g id="#72cabeff">
<path fill="#72cabe" opacity="1.00" d=" M 290.79 80.16 C 289.26 77.93 293.78 78.46 292.40 80.37 C 292.00 80.32 291.19 80.21 290.79 80.16 Z" />
<path fill="#72cabe" opacity="1.00" d=" M 377.96 150.37 C 381.62 150.21 385.67 151.34 388.84 148.91 C 389.64 149.50 390.45 150.09 391.27 150.68 C 289.74 150.48 188.21 150.82 86.68 150.52 L 86.80 149.45 C 90.67 151.17 94.97 150.20 99.06 150.37 C 192.03 150.35 285.00 150.35 377.96 150.37 Z" />
<path fill="#72cabe" opacity="1.00" d=" M 187.35 209.42 C 188.83 208.90 190.44 209.20 191.98 209.13 C 228.64 209.18 265.30 209.11 301.96 209.17 C 304.17 209.63 304.29 212.11 304.57 213.89 C 305.59 220.68 311.05 226.54 317.90 227.61 C 319.97 228.34 324.11 227.78 323.72 231.10 C 323.78 240.68 323.83 250.27 323.71 259.84 C 322.98 262.42 319.61 261.70 317.61 262.45 C 310.90 263.62 305.55 269.48 304.58 276.15 C 304.19 277.92 304.30 280.69 301.82 280.83 C 264.19 280.88 226.54 280.82 188.91 280.85 C 186.53 281.20 185.56 278.81 185.53 276.85 C 184.80 269.77 179.18 263.61 172.16 262.35 C 170.02 261.82 166.22 262.20 166.23 259.05 C 166.26 249.70 166.23 240.36 166.23 231.02 C 165.90 228.34 169.17 228.09 171.04 227.80 C 178.23 226.98 184.44 221.12 185.43 213.91 C 185.73 212.36 185.66 210.21 187.35 209.42 M 238.51 214.72 C 225.69 217.32 215.27 228.85 214.23 241.92 C 213.30 250.59 216.31 259.55 222.20 265.96 C 228.45 272.71 237.78 276.61 247.00 275.84 C 262.07 275.28 275.31 262.09 275.83 247.01 C 276.80 235.13 270.08 223.02 259.44 217.63 C 253.12 214.14 245.53 213.33 238.51 214.72 Z" />
</g>
<g id="#023668ff">
<path fill="#023668" opacity="1.00" d=" M 279.41 66.38 C 279.59 61.95 285.66 59.63 288.76 62.80 C 330.18 92.54 371.55 122.35 412.85 152.25 C 416.74 155.38 414.02 162.22 409.13 162.01 C 299.71 162.01 190.30 162.01 80.88 162.00 C 77.73 162.09 75.09 159.14 75.27 156.03 C 75.27 141.34 75.25 126.64 75.26 111.95 C 75.03 108.85 77.80 106.00 80.89 106.08 C 147.05 106.01 213.22 106.08 279.38 106.04 C 279.34 92.82 279.27 79.59 279.41 66.38 M 290.79 80.16 C 290.39 91.15 290.93 102.16 290.53 113.14 C 290.46 115.16 288.42 116.11 287.16 117.35 C 220.30 117.60 153.44 117.30 86.58 117.50 C 86.64 128.12 86.71 138.73 86.52 149.34 L 86.80 149.45 L 86.68 150.52 C 188.21 150.82 289.74 150.48 391.27 150.68 C 390.45 150.09 389.64 149.50 388.84 148.91 C 357.27 125.92 325.38 103.37 293.91 80.26 L 292.40 80.37 C 293.78 78.46 289.26 77.93 290.79 80.16 Z" />
<path fill="#023668" opacity="1.00" d=" M 135.88 184.94 C 135.39 181.45 138.61 178.40 142.05 178.80 C 210.37 178.77 278.68 178.80 346.99 178.78 C 348.59 178.76 350.16 179.10 351.72 179.42 C 353.04 180.99 354.41 182.76 354.14 184.97 C 354.13 224.99 354.18 265.02 354.11 305.04 C 354.51 308.48 351.47 311.59 348.01 311.20 C 279.34 311.25 210.67 311.20 141.99 311.22 C 138.57 311.59 135.29 308.46 135.87 304.98 C 135.87 264.97 135.85 224.95 135.88 184.94 M 147.26 190.16 C 147.11 226.70 147.28 263.24 147.17 299.78 C 212.38 299.92 277.59 299.85 342.79 299.82 C 342.81 263.26 342.78 226.71 342.81 190.15 C 277.63 190.22 212.45 190.19 147.26 190.16 Z" />
<path fill="#023668" opacity="1.00" d=" M 183.17 198.05 C 184.65 197.38 186.36 197.78 187.95 197.67 C 226.63 197.71 265.31 197.68 303.99 197.68 C 308.13 197.33 310.55 201.38 313.31 203.79 C 316.70 206.49 314.45 211.57 317.47 214.58 C 320.38 218.18 326.03 215.42 328.91 218.94 C 331.21 221.78 335.47 223.78 335.22 227.98 C 335.15 239.97 335.42 251.97 335.09 263.94 C 333.85 266.87 331.07 268.71 329.00 271.02 C 326.10 274.72 320.26 271.64 317.49 275.50 C 314.35 278.42 316.74 283.62 313.27 286.27 C 310.50 288.61 308.17 292.72 304.05 292.34 C 263.99 292.23 223.92 292.41 183.86 292.25 C 181.01 291.00 179.05 288.37 176.71 286.40 C 173.19 283.46 175.74 277.73 172.00 274.94 C 169.04 271.82 163.73 274.64 161.01 270.99 C 158.75 268.21 154.49 266.14 154.77 262.06 C 154.80 250.69 154.74 239.32 154.78 227.95 C 154.72 223.90 158.65 221.74 161.02 219.03 C 163.92 215.39 169.61 218.20 172.54 214.58 C 174.77 212.25 174.11 208.80 175.00 205.99 C 177.28 202.98 179.99 200.11 183.17 198.05 M 187.35 209.42 C 185.66 210.21 185.73 212.36 185.43 213.91 C 184.44 221.12 178.23 226.98 171.04 227.80 C 169.17 228.09 165.90 228.34 166.23 231.02 C 166.23 240.36 166.26 249.70 166.23 259.05 C 166.22 262.20 170.02 261.82 172.16 262.35 C 179.18 263.61 184.80 269.77 185.53 276.85 C 185.56 278.81 186.53 281.20 188.91 280.85 C 226.54 280.82 264.19 280.88 301.82 280.83 C 304.30 280.69 304.19 277.92 304.58 276.15 C 305.55 269.48 310.90 263.62 317.61 262.45 C 319.61 261.70 322.98 262.42 323.71 259.84 C 323.83 250.27 323.78 240.68 323.72 231.10 C 324.11 227.78 319.97 228.34 317.90 227.61 C 311.05 226.54 305.59 220.68 304.57 213.89 C 304.29 212.11 304.17 209.63 301.96 209.17 C 265.30 209.11 228.64 209.18 191.98 209.13 C 190.44 209.20 188.83 208.90 187.35 209.42 Z" />
<path fill="#023668" opacity="1.00" d=" M 238.51 214.72 C 245.53 213.33 253.12 214.14 259.44 217.63 C 270.08 223.02 276.80 235.13 275.83 247.01 C 275.31 262.09 262.07 275.28 247.00 275.84 C 237.78 276.61 228.45 272.71 222.20 265.96 C 216.31 259.55 213.30 250.59 214.23 241.92 C 215.27 228.85 225.69 217.32 238.51 214.72 M 238.38 226.65 C 227.48 230.21 222.06 244.21 227.75 254.17 C 232.73 264.04 246.38 267.58 255.58 261.48 C 264.12 256.19 267.19 243.83 261.85 235.26 C 257.55 227.14 246.90 223.37 238.38 226.65 Z" />
<path fill="#023668" opacity="1.00" d=" M 77.97 338.33 C 73.10 335.77 75.57 327.66 80.91 328.00 C 189.93 327.90 298.96 327.98 407.98 327.96 C 411.55 327.37 414.97 330.33 414.74 333.97 C 414.70 348.62 414.76 363.28 414.74 377.94 C 414.87 381.08 412.29 384.05 409.08 383.96 C 342.95 383.93 276.82 383.93 210.69 383.96 C 210.58 397.17 210.76 410.39 210.60 423.60 C 210.28 427.90 204.74 430.31 201.46 427.44 C 160.32 397.70 119.06 368.13 77.97 338.33 M 98.68 339.49 C 116.99 352.38 135.02 365.68 153.28 378.65 C 153.34 378.70 153.47 378.80 153.53 378.84 C 168.70 389.94 184.05 400.78 199.24 411.85 C 199.49 400.57 199.27 389.27 199.37 377.99 C 199.23 374.98 202.03 372.43 204.98 372.55 C 271.10 372.49 337.21 372.60 403.33 372.49 C 403.43 361.49 403.36 350.49 403.34 339.49 C 385.56 339.26 367.77 339.45 349.99 339.39 C 266.22 339.46 182.45 339.24 98.68 339.49 Z" />
</g>
<g id="#72cabeff">
<path fill="#72cabe" opacity="1.00" d=" M 290.79 80.16 C 291.19 80.21 292.00 80.32 292.40 80.37 L 293.91 80.26 C 325.38 103.37 357.27 125.92 388.84 148.91 C 385.67 151.34 381.62 150.21 377.96 150.37 C 285.00 150.35 192.03 150.35 99.06 150.37 C 94.97 150.20 90.67 151.17 86.80 149.45 L 86.52 149.34 C 86.71 138.73 86.64 128.12 86.58 117.50 C 153.44 117.30 220.30 117.60 287.16 117.35 C 288.42 116.11 290.46 115.16 290.53 113.14 C 290.93 102.16 290.39 91.15 290.79 80.16 Z" />
<path fill="#72cabe" opacity="1.00" d=" M 98.68 339.49 C 182.45 339.24 266.22 339.46 349.99 339.39 C 367.77 339.45 385.56 339.26 403.34 339.49 C 403.36 350.49 403.43 361.49 403.33 372.49 C 337.21 372.60 271.10 372.49 204.98 372.55 C 202.03 372.43 199.23 374.98 199.37 377.99 C 199.27 389.27 199.49 400.57 199.24 411.85 C 184.05 400.78 168.70 389.94 153.53 378.84 C 153.47 378.80 153.34 378.70 153.28 378.65 C 135.02 365.68 116.99 352.38 98.68 339.49 Z" />
</g>
<g id="#60a59bff">
<path fill="#60a59b" opacity="1.00" d=" M 147.26 190.16 C 212.45 190.19 277.63 190.22 342.81 190.15 C 342.78 226.71 342.81 263.26 342.79 299.82 C 277.59 299.85 212.38 299.92 147.17 299.78 C 147.28 263.24 147.11 226.70 147.26 190.16 M 183.17 198.05 C 179.99 200.11 177.28 202.98 175.00 205.99 C 174.11 208.80 174.77 212.25 172.54 214.58 C 169.61 218.20 163.92 215.39 161.02 219.03 C 158.65 221.74 154.72 223.90 154.78 227.95 C 154.74 239.32 154.80 250.69 154.77 262.06 C 154.49 266.14 158.75 268.21 161.01 270.99 C 163.73 274.64 169.04 271.82 172.00 274.94 C 175.74 277.73 173.19 283.46 176.71 286.40 C 179.05 288.37 181.01 291.00 183.86 292.25 C 223.92 292.41 263.99 292.23 304.05 292.34 C 308.17 292.72 310.50 288.61 313.27 286.27 C 316.74 283.62 314.35 278.42 317.49 275.50 C 320.26 271.64 326.10 274.72 329.00 271.02 C 331.07 268.71 333.85 266.87 335.09 263.94 C 335.42 251.97 335.15 239.97 335.22 227.98 C 335.47 223.78 331.21 221.78 328.91 218.94 C 326.03 215.42 320.38 218.18 317.47 214.58 C 314.45 211.57 316.70 206.49 313.31 203.79 C 310.55 201.38 308.13 197.33 303.99 197.68 C 265.31 197.68 226.63 197.71 187.95 197.67 C 186.36 197.78 184.65 197.38 183.17 198.05 Z" />
<path fill="#60a59b" opacity="1.00" d=" M 238.38 226.65 C 246.90 223.37 257.55 227.14 261.85 235.26 C 267.19 243.83 264.12 256.19 255.58 261.48 C 246.38 267.58 232.73 264.04 227.75 254.17 C 222.06 244.21 227.48 230.21 238.38 226.65 Z" />
<path fill="#60a59b" opacity="1.00" d=" M 153.28 378.65 C 153.34 378.70 153.47 378.80 153.53 378.84 C 153.47 378.80 153.34 378.70 153.28 378.65 Z" />
</g>
</svg>
