<?xml version="1.0" encoding="UTF-8" ?>
<!DOCTYPE svg PUBLIC "-//W3C//DTD SVG 1.1//EN" "http://www.w3.org/Graphics/SVG/1.1/DTD/svg11.dtd">
<svg width="512pt" height="512pt" viewBox="0 0 512 512" version="1.1" xmlns="http://www.w3.org/2000/svg">
<g id="#ffffffff">
<path fill="#ffffff" opacity="1.00" d=" M 91.97 386.03 C 93.78 382.12 98.63 383.60 102.03 383.41 C 104.45 383.19 106.56 385.61 106.28 387.97 C 106.37 395.17 106.21 402.38 106.33 409.59 C 113.55 409.56 120.78 409.56 128.00 409.56 C 130.93 409.31 132.99 412.30 132.55 415.02 C 132.34 417.91 133.55 422.54 129.94 423.72 C 122.12 424.70 114.18 423.71 106.32 424.23 C 106.24 431.16 106.33 438.09 106.31 445.03 C 106.21 446.42 106.44 448.12 105.17 449.10 C 103.66 450.85 101.09 450.09 99.06 450.32 C 96.41 450.35 92.22 450.69 91.99 447.04 C 91.39 439.46 91.99 431.83 91.73 424.24 C 83.56 423.75 75.35 424.63 67.20 423.71 C 64.78 421.03 65.59 417.25 65.55 413.96 C 65.37 411.57 67.59 409.39 69.96 409.57 C 77.20 409.55 84.45 409.57 91.70 409.58 C 92.01 401.73 91.40 393.85 91.97 386.03 Z" />
<path fill="#ffffff" opacity="1.00" d=" M 405.98 386.01 C 407.81 382.09 412.67 383.62 416.09 383.41 C 418.45 383.23 420.53 385.59 420.28 387.91 C 420.37 395.13 420.22 402.35 420.32 409.58 C 427.55 409.57 434.79 409.56 442.02 409.56 C 444.96 409.33 446.98 412.32 446.55 415.05 C 446.33 417.92 447.53 422.43 444.03 423.70 C 436.18 424.73 428.20 423.68 420.31 424.24 C 420.22 431.49 420.38 438.74 420.27 445.98 C 420.58 448.40 418.36 450.63 415.94 450.26 C 412.72 450.20 409.08 450.95 406.30 448.90 C 405.12 440.72 406.12 432.42 405.69 424.19 C 397.52 423.80 389.32 424.61 381.18 423.71 C 378.81 421.02 379.57 417.26 379.55 413.99 C 379.36 411.56 381.63 409.33 384.05 409.57 C 391.26 409.55 398.48 409.57 405.70 409.58 C 406.01 401.72 405.39 393.84 405.98 386.01 Z" />
</g>
<g id="#72cabeff">
<path fill="#72cabe" opacity="1.00" d=" M 66.66 0.00 L 78.71 0.00 C 92.61 1.89 105.58 10.13 112.62 22.34 C 118.68 32.54 120.59 45.14 117.69 56.66 C 114.52 70.08 104.88 81.73 92.36 87.46 C 79.37 93.48 63.52 93.03 51.00 86.04 C 39.31 79.75 30.60 68.10 28.09 55.06 C 25.27 42.17 28.53 28.10 36.63 17.70 C 43.85 8.12 54.94 2.06 66.66 0.00 Z" />
<path fill="#72cabe" opacity="1.00" d=" M 432.62 0.00 L 444.68 0.00 C 459.83 2.04 473.74 11.80 480.31 25.68 C 486.88 39.11 486.37 55.76 478.77 68.67 C 474.13 76.84 466.87 83.44 458.36 87.40 C 445.16 93.61 428.98 93.01 416.33 85.72 C 404.93 79.37 396.48 67.88 393.98 55.05 C 391.02 41.41 394.83 26.47 403.99 15.92 C 411.14 7.26 421.66 1.96 432.62 0.00 Z" />
<path fill="#72cabe" opacity="1.00" d=" M 248.30 67.41 C 261.19 65.71 274.67 68.35 285.83 75.08 C 302.26 84.63 313.51 102.72 314.34 121.76 C 315.09 132.16 312.98 142.75 308.20 152.03 C 300.18 167.90 284.57 179.83 267.00 182.94 C 251.95 186.02 235.73 182.54 223.07 173.87 C 211.14 165.75 202.34 153.12 199.06 139.04 C 195.65 124.18 197.92 107.95 206.05 94.95 C 215.04 80.03 231.01 69.60 248.30 67.41 Z" />
<path fill="#72cabe" opacity="1.00" d=" M 4.73 110.75 C 7.64 105.23 13.91 102.02 20.04 102.01 C 55.02 101.99 90.00 102.01 124.99 102.01 C 131.15 101.87 137.70 104.58 140.89 110.07 C 143.07 113.27 143.61 117.23 143.72 121.02 C 143.64 155.00 143.09 188.99 143.12 222.97 C 143.31 231.88 135.07 239.92 126.16 239.48 C 121.49 239.53 117.21 237.15 114.06 233.85 C 112.35 253.19 111.64 272.59 110.06 291.94 C 110.29 298.00 108.92 303.97 109.01 310.03 C 109.05 315.40 107.81 320.68 108.01 326.06 C 107.79 332.65 107.48 340.24 102.07 344.90 C 96.91 350.31 88.87 350.03 81.98 349.89 C 73.04 349.77 64.09 350.10 55.16 349.73 C 48.07 349.43 41.55 344.46 39.39 337.72 C 37.55 329.58 38.38 321.17 37.15 312.96 C 37.14 304.60 35.84 296.34 35.79 287.98 C 34.71 281.41 35.30 274.71 34.32 268.13 C 33.79 263.96 34.15 259.74 33.66 255.57 C 32.55 248.44 33.44 241.14 31.78 234.08 C 26.47 240.41 16.20 241.27 9.73 236.25 C 5.66 233.17 2.77 228.21 2.98 223.02 C 2.85 190.34 2.85 157.67 2.45 125.00 C 2.49 120.21 2.14 115.01 4.73 110.75 Z" />
<path fill="#72cabe" opacity="1.00" d=" M 371.12 110.05 C 374.30 104.57 380.85 101.87 387.00 102.01 C 422.01 102.01 457.01 101.99 492.02 102.01 C 498.14 102.04 504.38 105.25 507.28 110.76 C 509.85 115.02 509.52 120.20 509.55 124.98 C 509.15 157.68 509.16 190.38 509.02 223.08 C 509.25 231.44 501.88 239.10 493.56 239.45 C 488.57 239.85 483.47 237.90 480.22 234.04 C 478.65 241.34 479.42 248.84 478.33 256.20 C 477.38 275.51 475.71 294.77 474.78 314.09 C 473.58 321.93 474.50 329.97 472.61 337.71 C 471.32 341.90 468.20 345.39 464.47 347.60 C 459.41 350.32 453.47 349.88 447.92 349.89 C 439.01 349.78 430.09 350.08 421.18 349.75 C 414.33 349.43 407.91 344.84 405.57 338.37 C 403.69 332.16 404.21 325.61 403.71 319.23 C 402.69 312.21 403.20 305.08 402.11 298.06 C 402.20 290.33 400.82 282.68 400.89 274.95 C 399.51 261.28 399.40 247.53 397.94 233.86 C 394.93 236.95 390.98 239.32 386.57 239.45 C 379.51 240.06 372.58 235.46 370.05 228.92 C 368.48 225.52 368.93 221.68 368.87 218.05 C 368.91 185.69 368.39 153.34 368.34 120.98 C 368.46 117.21 368.91 113.24 371.12 110.05 Z" />
<path fill="#72cabe" opacity="1.00" d=" M 174.83 201.70 C 179.91 197.66 186.68 197.10 192.93 197.18 C 235.63 197.27 278.33 197.26 321.03 197.29 C 326.24 197.34 331.74 197.90 336.11 201.02 C 342.72 205.28 346.03 213.29 345.91 220.98 C 345.79 264.31 345.45 307.64 345.14 350.98 C 345.35 362.16 335.22 372.32 324.03 372.08 C 317.89 372.26 312.24 369.02 308.07 364.73 C 305.24 403.09 303.11 441.48 300.48 479.85 C 299.71 485.92 300.54 492.26 298.32 498.10 C 295.83 505.12 289.42 510.16 282.32 512.00 L 229.70 512.00 C 223.39 510.35 217.53 506.37 214.62 500.40 C 211.16 493.79 212.42 486.16 211.42 479.03 C 208.92 440.97 206.62 402.90 203.93 364.85 C 199.79 369.14 194.10 372.26 188.01 372.08 C 177.16 372.35 167.14 362.83 166.91 351.97 C 166.65 308.30 166.20 264.63 166.09 220.96 C 165.95 213.66 168.83 206.11 174.83 201.70 Z" />
</g>
<g id="#72cabeff">
<path fill="#72cabe" opacity="1.00" d=" M 93.24 369.28 C 103.87 368.09 114.98 370.18 124.06 375.95 C 136.33 383.40 144.88 396.68 146.44 410.96 C 147.89 422.78 144.90 435.13 137.80 444.74 C 130.62 454.84 119.32 461.99 107.04 463.88 C 93.30 466.23 78.43 462.42 67.97 453.09 C 57.76 444.48 51.36 431.39 51.30 417.99 C 50.74 403.90 57.03 389.83 67.62 380.60 C 74.80 374.42 83.79 370.27 93.24 369.28 M 91.97 386.03 C 91.40 393.85 92.01 401.73 91.70 409.58 C 84.45 409.57 77.20 409.55 69.96 409.57 C 67.59 409.39 65.37 411.57 65.55 413.96 C 65.59 417.25 64.78 421.03 67.20 423.71 C 75.35 424.63 83.56 423.75 91.73 424.24 C 91.99 431.83 91.39 439.46 91.99 447.04 C 92.22 450.69 96.41 450.35 99.06 450.32 C 101.09 450.09 103.66 450.85 105.17 449.10 C 106.44 448.12 106.21 446.42 106.31 445.03 C 106.33 438.09 106.24 431.16 106.32 424.23 C 114.18 423.71 122.12 424.70 129.94 423.72 C 133.55 422.54 132.34 417.91 132.55 415.02 C 132.99 412.30 130.93 409.31 128.00 409.56 C 120.78 409.56 113.55 409.56 106.33 409.59 C 106.21 402.38 106.37 395.17 106.28 387.97 C 106.56 385.61 104.45 383.19 102.03 383.41 C 98.63 383.60 93.78 382.12 91.97 386.03 Z" />
<path fill="#72cabe" opacity="1.00" d=" M 407.14 369.29 C 417.79 368.08 428.92 370.16 438.02 375.93 C 449.73 383.03 458.10 395.43 460.16 408.98 C 462.20 421.37 459.31 434.57 451.82 444.71 C 444.64 454.83 433.33 461.99 421.03 463.88 C 407.28 466.23 392.41 462.41 381.94 453.07 C 371.47 444.24 365.07 430.70 365.29 416.96 C 365.05 406.12 368.98 395.42 375.60 386.90 C 383.27 377.23 394.83 370.63 407.14 369.29 M 405.98 386.01 C 405.39 393.84 406.01 401.72 405.70 409.58 C 398.48 409.57 391.26 409.55 384.05 409.57 C 381.63 409.33 379.36 411.56 379.55 413.99 C 379.57 417.26 378.81 421.02 381.18 423.71 C 389.32 424.61 397.52 423.80 405.69 424.19 C 406.12 432.42 405.12 440.72 406.30 448.90 C 409.08 450.95 412.72 450.20 415.94 450.26 C 418.36 450.63 420.58 448.40 420.27 445.98 C 420.38 438.74 420.22 431.49 420.31 424.24 C 428.20 423.68 436.18 424.73 444.03 423.70 C 447.53 422.43 446.33 417.92 446.55 415.05 C 446.98 412.32 444.96 409.33 442.02 409.56 C 434.79 409.56 427.55 409.57 420.32 409.58 C 420.22 402.35 420.37 395.13 420.28 387.91 C 420.53 385.59 418.45 383.23 416.09 383.41 C 412.67 383.62 407.81 382.09 405.98 386.01 Z" />
</g>
</svg>
