<?xml version="1.0" encoding="UTF-8" ?>
<!DOCTYPE svg PUBLIC "-//W3C//DTD SVG 1.1//EN" "http://www.w3.org/Graphics/SVG/1.1/DTD/svg11.dtd">
<svg width="463pt" height="364pt" viewBox="0 0 463 364" version="1.1" xmlns="http://www.w3.org/2000/svg">
<g id="#f9f9f9ff">
</g>
<g id="#d14ce9ff">
<path fill="#d14ce9" opacity="1.00" d=" M 376.95 23.07 C 381.53 18.72 387.68 15.74 394.10 16.11 C 399.96 16.47 405.49 19.32 409.54 23.51 C 419.31 33.36 429.16 43.15 438.97 52.96 C 443.62 57.75 446.57 64.39 445.68 71.15 C 445.30 76.65 442.27 81.54 438.55 85.45 C 355.04 168.93 271.57 252.46 188.04 335.93 C 179.87 344.41 165.10 344.77 156.83 336.25 C 109.38 289.00 62.11 241.57 14.74 194.24 C 6.59 186.39 6.01 172.27 13.71 163.92 C 23.95 153.41 34.42 143.12 44.79 132.74 C 48.46 129.31 52.95 126.47 58.04 125.86 C 65.09 124.69 72.36 127.73 77.28 132.75 C 108.92 164.46 140.61 196.12 172.26 227.81 C 240.40 159.48 308.65 91.24 376.95 23.07 Z" />
</g>
</svg>
