<?xml version="1.0" encoding="UTF-8" ?>
<!DOCTYPE svg PUBLIC "-//W3C//DTD SVG 1.1//EN" "http://www.w3.org/Graphics/SVG/1.1/DTD/svg11.dtd">
<svg width="535pt" height="454pt" viewBox="0 0 535 454" version="1.1" xmlns="http://www.w3.org/2000/svg">
<g id="#fafafaff">
</g>
<g id="#d14ce9ff">
<path fill="#d14ce9" opacity="1.00" d=" M 435.45 7.60 C 446.43 5.08 458.68 8.16 466.67 16.24 C 480.25 29.70 493.74 43.24 507.23 56.78 C 513.63 63.13 518.39 71.77 518.06 80.99 C 518.67 90.34 514.22 99.33 507.78 105.87 C 499.41 114.48 490.92 122.98 482.40 131.45 C 479.67 134.14 476.88 137.47 472.79 137.85 C 469.45 138.09 466.69 135.75 464.49 133.53 C 439.70 108.63 414.79 83.87 390.01 58.98 C 386.36 55.79 385.83 49.88 389.45 46.45 C 398.35 37.35 407.36 28.34 416.36 19.33 C 421.60 13.89 427.97 9.28 435.45 7.60 Z" />
<path fill="#d14ce9" opacity="1.00" d=" M 41.32 70.28 C 48.77 64.20 58.41 61.09 68.01 61.27 C 148.34 61.21 228.67 61.28 309.01 61.24 C 311.96 61.22 315.15 61.56 317.53 63.49 C 320.70 65.83 322.30 70.18 320.98 73.96 C 319.89 78.03 316.40 80.68 313.60 83.56 C 304.12 93.11 294.57 102.58 285.06 112.10 C 282.48 114.78 278.72 116.04 275.05 116.01 C 210.20 116.01 145.35 116.04 80.51 116.00 C 80.43 207.19 80.61 298.39 80.41 389.59 C 171.61 389.39 262.81 389.56 354.00 389.50 C 354.00 360.65 353.91 331.80 354.05 302.95 C 353.86 299.22 356.03 296.07 358.59 293.60 C 368.11 284.11 377.56 274.55 387.10 265.08 C 390.16 262.07 393.30 258.18 397.99 258.11 C 403.57 257.52 408.85 262.39 408.68 268.03 C 408.86 311.67 408.68 355.33 408.77 398.98 C 408.70 404.67 408.61 410.51 406.67 415.94 C 402.62 427.48 393.64 437.47 381.97 441.57 C 374.75 444.74 366.74 443.96 359.07 444.04 C 265.71 444.02 172.34 444.04 78.97 444.03 C 72.94 443.93 66.89 444.26 60.87 443.74 C 45.76 441.74 32.51 430.48 27.90 415.98 C 25.27 408.96 26.03 401.35 25.93 394.02 C 25.96 297.02 25.91 200.02 25.95 103.02 C 25.42 90.49 31.47 77.97 41.32 70.28 Z" />
<path fill="#d14ce9" opacity="1.00" d=" M 354.90 80.90 C 357.43 78.41 360.11 75.10 364.04 75.35 C 367.15 75.08 369.67 77.17 371.72 79.23 C 396.78 104.53 422.01 129.67 447.07 154.97 C 450.66 158.25 449.93 164.24 446.26 167.17 C 384.28 229.24 322.24 291.26 260.18 353.26 C 233.77 356.15 207.38 359.12 180.97 361.95 C 173.61 363.10 166.45 358.21 163.68 351.54 C 162.55 348.50 162.62 345.20 162.93 342.03 C 165.83 316.16 168.63 290.28 171.46 264.40 C 232.57 203.19 293.79 142.10 354.90 80.90 Z" />
</g>
</svg>
