<?xml version="1.0" encoding="UTF-8" ?>
<!DOCTYPE svg PUBLIC "-//W3C//DTD SVG 1.1//EN" "http://www.w3.org/Graphics/SVG/1.1/DTD/svg11.dtd">
<svg width="426pt" height="454pt" viewBox="0 0 426 454" version="1.1" xmlns="http://www.w3.org/2000/svg">
<g id="#fafafaff">
</g>
<g id="#d14ce9ff">
<path fill="#d14ce9" opacity="1.00" d=" M 146.38 14.38 C 150.07 8.46 157.22 5.33 164.09 5.73 C 196.38 5.79 228.67 5.66 260.96 5.79 C 267.55 5.54 274.22 8.80 277.71 14.45 C 281.49 20.22 284.10 26.65 287.26 32.76 C 321.18 32.72 355.10 32.77 389.02 32.73 C 394.89 32.66 401.06 36.34 402.78 42.14 C 403.51 45.37 403.20 48.70 403.26 51.98 C 403.16 59.99 403.43 68.01 403.14 76.02 C 403.00 80.39 399.83 83.97 396.20 86.04 C 392.44 87.94 388.10 87.43 384.04 87.51 C 267.68 87.48 151.31 87.52 34.95 87.49 C 29.87 87.78 24.85 85.11 22.28 80.72 C 20.53 77.81 20.77 74.30 20.73 71.04 C 20.82 62.37 20.63 53.69 20.80 45.02 C 20.78 37.77 28.16 32.52 34.98 32.77 C 68.90 32.75 102.82 32.68 136.75 32.80 C 139.94 26.66 142.56 20.18 146.38 14.38 Z" />
<path fill="#d14ce9" opacity="1.00" d=" M 47.75 398.03 C 47.82 303.67 47.58 209.30 47.87 114.94 C 157.31 115.01 266.75 115.02 376.19 114.94 C 376.35 206.31 376.20 297.69 376.26 389.06 C 376.28 397.13 376.71 405.35 374.48 413.21 C 370.31 431.03 352.10 443.94 334.00 443.03 C 254.00 443.05 174.00 443.01 94.00 443.05 C 88.19 442.95 82.16 443.45 76.63 441.30 C 66.62 437.80 57.32 430.97 52.59 421.29 C 48.83 414.17 47.68 405.99 47.75 398.03 M 126.29 170.23 C 120.30 171.76 115.87 177.74 116.29 183.94 C 116.18 246.97 116.34 310.01 116.22 373.04 C 116.11 376.98 116.86 381.27 119.86 384.09 C 124.19 389.27 132.60 389.83 137.94 385.92 C 141.65 383.17 143.72 378.63 143.48 374.03 C 143.52 310.36 143.51 246.69 143.47 183.03 C 143.70 174.55 134.37 167.48 126.29 170.23 M 207.35 170.52 C 201.78 172.33 198.13 178.26 198.23 183.99 C 198.29 242.67 198.25 301.36 198.25 360.05 C 198.43 365.67 198.02 371.31 198.48 376.92 C 199.44 381.51 202.47 386.12 207.14 387.58 C 212.61 389.65 219.70 388.04 222.94 382.94 C 224.80 380.34 225.89 377.22 225.77 374.01 C 225.66 310.37 225.85 246.72 225.68 183.08 C 225.69 174.17 215.73 167.03 207.35 170.52 M 290.31 170.25 C 284.44 171.99 280.05 177.88 280.52 184.08 C 280.48 247.71 280.49 311.33 280.52 374.95 C 280.29 382.17 286.77 388.79 294.04 388.46 C 301.31 388.77 307.93 382.24 307.68 374.97 C 307.86 312.97 307.64 250.97 307.78 188.98 C 307.71 185.68 308.07 182.30 307.11 179.10 C 305.05 172.34 297.08 167.98 290.31 170.25 Z" />
</g>
</svg>
